M48
; DRILL file {KiCad (6.0.8)} date Sat Feb 18 20:02:15 2023
; FORMAT={-:-/ absolute / inch / decimal}
; #@! TF.CreationDate,2023-02-18T20:02:15+07:00
; #@! TF.GenerationSoftware,Kicad,Pcbnew,(6.0.8)
; #@! TF.FileFunction,Plated,1,2,PTH
FMAT,2
INCH
; #@! TA.AperFunction,Plated,PTH,ComponentDrill
T1C0.0315
; #@! TA.AperFunction,Plated,PTH,ComponentDrill
T2C0.0430
%
G90
G05
T1
X0.7786Y-5.7858
X0.9088Y-5.0472
X1.039Y-4.3086
X1.074Y-5.8379
X1.1693Y-3.57
X1.2042Y-5.0993
X1.2995Y-2.8314
X1.3345Y-4.3607
X1.4647Y-3.6221
X1.5172Y-5.916
X1.5949Y-2.8834
X1.6474Y-5.1774
X1.7776Y-4.4388
X1.8126Y-5.9681
X1.9079Y-3.7002
X1.9428Y-5.2295
X2.0381Y-2.9616
X2.0731Y-4.4909
X2.2033Y-3.7523
X2.2883Y-5.8616
X2.3336Y-3.0137
X2.4186Y-5.123
X2.5488Y-4.3844
X2.5838Y-5.9137
X2.679Y-3.6458
X2.714Y-5.1751
X2.8093Y-2.9072
X2.8442Y-4.4365
X2.9745Y-3.6979
X3.0725Y-5.7333
X3.1047Y-2.9593
X3.2028Y-4.9947
X3.333Y-4.2561
X3.368Y-5.7854
X3.4632Y-3.5175
X3.4982Y-5.0468
X3.5935Y-2.7789
X3.6284Y-4.3082
X3.7587Y-3.5696
X3.7655Y-6.1221
X3.8889Y-2.831
X3.8958Y-5.3835
X4.026Y-4.6449
X4.061Y-6.1742
X4.1562Y-3.9062
X4.1912Y-5.4356
X4.2865Y-3.1676
X4.3215Y-4.697
X4.4517Y-3.9583
X4.4586Y-6.5108
X4.5819Y-3.2197
X4.5888Y-5.7722
X4.719Y-5.0336
X4.754Y-6.5629
X4.8493Y-4.295
X4.8842Y-5.8243
X4.9795Y-3.5564
X5.0145Y-5.0857
X5.1447Y-4.3471
X5.2297Y-6.4564
X5.275Y-3.6085
X5.3746Y-5.7003
X5.5252Y-6.5085
X5.6701Y-5.7524
X6.5561Y-5.7784
X6.6869Y-6.5207
X6.8515Y-5.7263
X6.9398Y-3.6354
X6.9824Y-6.4686
X7.0687Y-4.3667
X7.1976Y-5.0979
X7.2352Y-3.5833
X7.3279Y-5.8365
X7.3641Y-4.3146
X7.4581Y-6.5751
X7.4931Y-5.0458
X7.6233Y-5.7844
X7.6328Y-3.2467
X7.7536Y-6.523
X7.7617Y-3.9779
X7.8907Y-4.7091
X7.9282Y-3.1946
X8.0209Y-5.4477
X8.0572Y-3.9258
X8.1511Y-6.1863
X8.1861Y-4.657
X8.3163Y-5.3956
X8.3258Y-2.8579
X8.4466Y-6.1342
X8.4548Y-3.5892
X8.5837Y-4.3204
X8.6213Y-2.8058
X8.7139Y-5.059
X8.7502Y-3.5371
X8.8442Y-5.7976
X8.8791Y-4.2683
X9.0094Y-5.0069
X9.11Y-2.9862
X9.1396Y-5.7455
X9.2389Y-3.7174
X9.3679Y-4.4487
X9.4055Y-2.9341
X9.4981Y-5.1873
X9.5344Y-3.6653
X9.6283Y-5.9259
X9.6633Y-4.3966
X9.7936Y-5.1352
X9.8812Y-3.0406
X9.9238Y-5.8738
X10.0101Y-3.7718
X10.139Y-4.5031
X10.1766Y-2.9885
X10.2693Y-5.2417
X10.3055Y-3.7198
X10.3995Y-5.9803
X10.4345Y-4.451
X10.5647Y-5.1896
X10.6198Y-2.9104
X10.695Y-5.9282
X10.7487Y-3.6416
X10.8776Y-4.3728
X10.9152Y-2.8583
X11.0079Y-5.1114
X11.0442Y-3.5895
X11.1381Y-5.85
X11.1731Y-4.3207
X11.3033Y-5.0593
X11.4336Y-5.7979
T2
X5.825Y-2.4345
X5.825Y-2.5345
X5.825Y-2.6345
X5.825Y-2.7345
X5.825Y-2.8345
X5.825Y-2.9345
X5.825Y-3.0345
X5.825Y-3.1345
X5.825Y-3.2345
X5.825Y-3.3345
X5.825Y-3.4345
X5.825Y-3.5345
X6.425Y-2.4345
X6.425Y-2.5345
X6.425Y-2.6345
X6.425Y-2.7345
X6.425Y-2.8345
X6.425Y-2.9345
X6.425Y-3.0345
X6.425Y-3.1345
X6.425Y-3.2345
X6.425Y-3.3345
X6.425Y-3.4345
X6.425Y-3.5345
T0
M30
