%TF.GenerationSoftware,KiCad,Pcbnew,(6.0.8)*%
%TF.CreationDate,2023-02-18T20:03:01+07:00*%
%TF.ProjectId,test,74657374-2e6b-4696-9361-645f70636258,rev?*%
%TF.SameCoordinates,Original*%
%TF.FileFunction,Legend,Bot*%
%TF.FilePolarity,Positive*%
%FSLAX46Y46*%
G04 Gerber Fmt 4.6, Leading zero omitted, Abs format (unit mm)*
G04 Created by KiCad (PCBNEW (6.0.8)) date 2023-02-18 20:03:01*
%MOMM*%
%LPD*%
G01*
G04 APERTURE LIST*
G04 Aperture macros list*
%AMHorizOval*
0 Thick line with rounded ends*
0 $1 width*
0 $2 $3 position (X,Y) of the first rounded end (center of the circle)*
0 $4 $5 position (X,Y) of the second rounded end (center of the circle)*
0 Add line between two ends*
20,1,$1,$2,$3,$4,$5,0*
0 Add two circle primitives to create the rounded ends*
1,1,$1,$2,$3*
1,1,$1,$4,$5*%
%AMRotRect*
0 Rectangle, with rotation*
0 The origin of the aperture is its center*
0 $1 length*
0 $2 width*
0 $3 Rotation angle, in degrees counterclockwise*
0 Add horizontal line*
21,1,$1,$2,0,0,$3*%
G04 Aperture macros list end*
%ADD10C,0.150000*%
%ADD11C,0.381000*%
%ADD12C,1.752600*%
%ADD13R,1.752600X1.752600*%
%ADD14C,1.750000*%
%ADD15C,3.000000*%
%ADD16C,3.987800*%
%ADD17RotRect,2.550000X2.500000X10.000000*%
%ADD18RotRect,2.550000X2.500000X350.000000*%
%ADD19RotRect,1.600000X1.600000X10.000000*%
%ADD20HorizOval,1.600000X0.000000X0.000000X0.000000X0.000000X0*%
%ADD21RotRect,1.600000X1.600000X350.000000*%
%ADD22HorizOval,1.600000X0.000000X0.000000X0.000000X0.000000X0*%
G04 APERTURE END LIST*
D10*
%TO.C,U1*%
X161588380Y-62197404D02*
X161855047Y-61816452D01*
X162045523Y-62197404D02*
X162045523Y-61397404D01*
X161740761Y-61397404D01*
X161664571Y-61435500D01*
X161626476Y-61473595D01*
X161588380Y-61549785D01*
X161588380Y-61664071D01*
X161626476Y-61740261D01*
X161664571Y-61778357D01*
X161740761Y-61816452D01*
X162045523Y-61816452D01*
X161283619Y-61968833D02*
X160902666Y-61968833D01*
X161359809Y-62197404D02*
X161093142Y-61397404D01*
X160826476Y-62197404D01*
X160636000Y-61397404D02*
X160445523Y-62197404D01*
X160293142Y-61625976D01*
X160140761Y-62197404D01*
X159950285Y-61397404D01*
X150704476Y-77437404D02*
X150704476Y-76637404D01*
X150514000Y-76637404D01*
X150399714Y-76675500D01*
X150323523Y-76751690D01*
X150285428Y-76827880D01*
X150247333Y-76980261D01*
X150247333Y-77094547D01*
X150285428Y-77246928D01*
X150323523Y-77323119D01*
X150399714Y-77399309D01*
X150514000Y-77437404D01*
X150704476Y-77437404D01*
X149561619Y-76904071D02*
X149561619Y-77437404D01*
X149752095Y-76599309D02*
X149942571Y-77170738D01*
X149447333Y-77170738D01*
X150723523Y-69055500D02*
X150799714Y-69017404D01*
X150914000Y-69017404D01*
X151028285Y-69055500D01*
X151104476Y-69131690D01*
X151142571Y-69207880D01*
X151180666Y-69360261D01*
X151180666Y-69474547D01*
X151142571Y-69626928D01*
X151104476Y-69703119D01*
X151028285Y-69779309D01*
X150914000Y-69817404D01*
X150837809Y-69817404D01*
X150723523Y-69779309D01*
X150685428Y-69741214D01*
X150685428Y-69474547D01*
X150837809Y-69474547D01*
X150342571Y-69817404D02*
X150342571Y-69017404D01*
X149885428Y-69817404D01*
X149885428Y-69017404D01*
X149504476Y-69817404D02*
X149504476Y-69017404D01*
X149314000Y-69017404D01*
X149199714Y-69055500D01*
X149123523Y-69131690D01*
X149085428Y-69207880D01*
X149047333Y-69360261D01*
X149047333Y-69474547D01*
X149085428Y-69626928D01*
X149123523Y-69703119D01*
X149199714Y-69779309D01*
X149314000Y-69817404D01*
X149504476Y-69817404D01*
X161359809Y-82098357D02*
X161245523Y-82136452D01*
X161207428Y-82174547D01*
X161169333Y-82250738D01*
X161169333Y-82365023D01*
X161207428Y-82441214D01*
X161245523Y-82479309D01*
X161321714Y-82517404D01*
X161626476Y-82517404D01*
X161626476Y-81717404D01*
X161359809Y-81717404D01*
X161283619Y-81755500D01*
X161245523Y-81793595D01*
X161207428Y-81869785D01*
X161207428Y-81945976D01*
X161245523Y-82022166D01*
X161283619Y-82060261D01*
X161359809Y-82098357D01*
X161626476Y-82098357D01*
X160407428Y-82517404D02*
X160864571Y-82517404D01*
X160636000Y-82517404D02*
X160636000Y-81717404D01*
X160712190Y-81831690D01*
X160788380Y-81907880D01*
X160864571Y-81945976D01*
X161302666Y-71938357D02*
X161569333Y-71938357D01*
X161569333Y-72357404D02*
X161569333Y-71557404D01*
X161188380Y-71557404D01*
X160540761Y-71824071D02*
X160540761Y-72357404D01*
X160731238Y-71519309D02*
X160921714Y-72090738D01*
X160426476Y-72090738D01*
X150437809Y-87178357D02*
X150323523Y-87216452D01*
X150285428Y-87254547D01*
X150247333Y-87330738D01*
X150247333Y-87445023D01*
X150285428Y-87521214D01*
X150323523Y-87559309D01*
X150399714Y-87597404D01*
X150704476Y-87597404D01*
X150704476Y-86797404D01*
X150437809Y-86797404D01*
X150361619Y-86835500D01*
X150323523Y-86873595D01*
X150285428Y-86949785D01*
X150285428Y-87025976D01*
X150323523Y-87102166D01*
X150361619Y-87140261D01*
X150437809Y-87178357D01*
X150704476Y-87178357D01*
X149561619Y-87064071D02*
X149561619Y-87597404D01*
X149752095Y-86759309D02*
X149942571Y-87330738D01*
X149447333Y-87330738D01*
X162102666Y-69017404D02*
X161836000Y-69817404D01*
X161569333Y-69017404D01*
X160845523Y-69741214D02*
X160883619Y-69779309D01*
X160997904Y-69817404D01*
X161074095Y-69817404D01*
X161188380Y-69779309D01*
X161264571Y-69703119D01*
X161302666Y-69626928D01*
X161340761Y-69474547D01*
X161340761Y-69360261D01*
X161302666Y-69207880D01*
X161264571Y-69131690D01*
X161188380Y-69055500D01*
X161074095Y-69017404D01*
X160997904Y-69017404D01*
X160883619Y-69055500D01*
X160845523Y-69093595D01*
X160045523Y-69741214D02*
X160083619Y-69779309D01*
X160197904Y-69817404D01*
X160274095Y-69817404D01*
X160388380Y-69779309D01*
X160464571Y-69703119D01*
X160502666Y-69626928D01*
X160540761Y-69474547D01*
X160540761Y-69360261D01*
X160502666Y-69207880D01*
X160464571Y-69131690D01*
X160388380Y-69055500D01*
X160274095Y-69017404D01*
X160197904Y-69017404D01*
X160083619Y-69055500D01*
X160045523Y-69093595D01*
X150666380Y-84638357D02*
X150399714Y-84638357D01*
X150285428Y-85057404D02*
X150666380Y-85057404D01*
X150666380Y-84257404D01*
X150285428Y-84257404D01*
X149599714Y-84257404D02*
X149752095Y-84257404D01*
X149828285Y-84295500D01*
X149866380Y-84333595D01*
X149942571Y-84447880D01*
X149980666Y-84600261D01*
X149980666Y-84905023D01*
X149942571Y-84981214D01*
X149904476Y-85019309D01*
X149828285Y-85057404D01*
X149675904Y-85057404D01*
X149599714Y-85019309D01*
X149561619Y-84981214D01*
X149523523Y-84905023D01*
X149523523Y-84714547D01*
X149561619Y-84638357D01*
X149599714Y-84600261D01*
X149675904Y-84562166D01*
X149828285Y-84562166D01*
X149904476Y-84600261D01*
X149942571Y-84638357D01*
X149980666Y-84714547D01*
X161359809Y-87178357D02*
X161245523Y-87216452D01*
X161207428Y-87254547D01*
X161169333Y-87330738D01*
X161169333Y-87445023D01*
X161207428Y-87521214D01*
X161245523Y-87559309D01*
X161321714Y-87597404D01*
X161626476Y-87597404D01*
X161626476Y-86797404D01*
X161359809Y-86797404D01*
X161283619Y-86835500D01*
X161245523Y-86873595D01*
X161207428Y-86949785D01*
X161207428Y-87025976D01*
X161245523Y-87102166D01*
X161283619Y-87140261D01*
X161359809Y-87178357D01*
X161626476Y-87178357D01*
X160864571Y-86873595D02*
X160826476Y-86835500D01*
X160750285Y-86797404D01*
X160559809Y-86797404D01*
X160483619Y-86835500D01*
X160445523Y-86873595D01*
X160407428Y-86949785D01*
X160407428Y-87025976D01*
X160445523Y-87140261D01*
X160902666Y-87597404D01*
X160407428Y-87597404D01*
X161645523Y-63975500D02*
X161721714Y-63937404D01*
X161836000Y-63937404D01*
X161950285Y-63975500D01*
X162026476Y-64051690D01*
X162064571Y-64127880D01*
X162102666Y-64280261D01*
X162102666Y-64394547D01*
X162064571Y-64546928D01*
X162026476Y-64623119D01*
X161950285Y-64699309D01*
X161836000Y-64737404D01*
X161759809Y-64737404D01*
X161645523Y-64699309D01*
X161607428Y-64661214D01*
X161607428Y-64394547D01*
X161759809Y-64394547D01*
X161264571Y-64737404D02*
X161264571Y-63937404D01*
X160807428Y-64737404D01*
X160807428Y-63937404D01*
X160426476Y-64737404D02*
X160426476Y-63937404D01*
X160236000Y-63937404D01*
X160121714Y-63975500D01*
X160045523Y-64051690D01*
X160007428Y-64127880D01*
X159969333Y-64280261D01*
X159969333Y-64394547D01*
X160007428Y-64546928D01*
X160045523Y-64623119D01*
X160121714Y-64699309D01*
X160236000Y-64737404D01*
X160426476Y-64737404D01*
X150704476Y-74897404D02*
X150704476Y-74097404D01*
X150514000Y-74097404D01*
X150399714Y-74135500D01*
X150323523Y-74211690D01*
X150285428Y-74287880D01*
X150247333Y-74440261D01*
X150247333Y-74554547D01*
X150285428Y-74706928D01*
X150323523Y-74783119D01*
X150399714Y-74859309D01*
X150514000Y-74897404D01*
X150704476Y-74897404D01*
X149752095Y-74097404D02*
X149675904Y-74097404D01*
X149599714Y-74135500D01*
X149561619Y-74173595D01*
X149523523Y-74249785D01*
X149485428Y-74402166D01*
X149485428Y-74592642D01*
X149523523Y-74745023D01*
X149561619Y-74821214D01*
X149599714Y-74859309D01*
X149675904Y-74897404D01*
X149752095Y-74897404D01*
X149828285Y-74859309D01*
X149866380Y-74821214D01*
X149904476Y-74745023D01*
X149942571Y-74592642D01*
X149942571Y-74402166D01*
X149904476Y-74249785D01*
X149866380Y-74173595D01*
X149828285Y-74135500D01*
X149752095Y-74097404D01*
X161359809Y-84638357D02*
X161245523Y-84676452D01*
X161207428Y-84714547D01*
X161169333Y-84790738D01*
X161169333Y-84905023D01*
X161207428Y-84981214D01*
X161245523Y-85019309D01*
X161321714Y-85057404D01*
X161626476Y-85057404D01*
X161626476Y-84257404D01*
X161359809Y-84257404D01*
X161283619Y-84295500D01*
X161245523Y-84333595D01*
X161207428Y-84409785D01*
X161207428Y-84485976D01*
X161245523Y-84562166D01*
X161283619Y-84600261D01*
X161359809Y-84638357D01*
X161626476Y-84638357D01*
X160902666Y-84257404D02*
X160407428Y-84257404D01*
X160674095Y-84562166D01*
X160559809Y-84562166D01*
X160483619Y-84600261D01*
X160445523Y-84638357D01*
X160407428Y-84714547D01*
X160407428Y-84905023D01*
X160445523Y-84981214D01*
X160483619Y-85019309D01*
X160559809Y-85057404D01*
X160788380Y-85057404D01*
X160864571Y-85019309D01*
X160902666Y-84981214D01*
X161302666Y-74478357D02*
X161569333Y-74478357D01*
X161569333Y-74897404D02*
X161569333Y-74097404D01*
X161188380Y-74097404D01*
X160502666Y-74097404D02*
X160883619Y-74097404D01*
X160921714Y-74478357D01*
X160883619Y-74440261D01*
X160807428Y-74402166D01*
X160616952Y-74402166D01*
X160540761Y-74440261D01*
X160502666Y-74478357D01*
X160464571Y-74554547D01*
X160464571Y-74745023D01*
X160502666Y-74821214D01*
X160540761Y-74859309D01*
X160616952Y-74897404D01*
X160807428Y-74897404D01*
X160883619Y-74859309D01*
X160921714Y-74821214D01*
X150437809Y-89718357D02*
X150323523Y-89756452D01*
X150285428Y-89794547D01*
X150247333Y-89870738D01*
X150247333Y-89985023D01*
X150285428Y-90061214D01*
X150323523Y-90099309D01*
X150399714Y-90137404D01*
X150704476Y-90137404D01*
X150704476Y-89337404D01*
X150437809Y-89337404D01*
X150361619Y-89375500D01*
X150323523Y-89413595D01*
X150285428Y-89489785D01*
X150285428Y-89565976D01*
X150323523Y-89642166D01*
X150361619Y-89680261D01*
X150437809Y-89718357D01*
X150704476Y-89718357D01*
X149523523Y-89337404D02*
X149904476Y-89337404D01*
X149942571Y-89718357D01*
X149904476Y-89680261D01*
X149828285Y-89642166D01*
X149637809Y-89642166D01*
X149561619Y-89680261D01*
X149523523Y-89718357D01*
X149485428Y-89794547D01*
X149485428Y-89985023D01*
X149523523Y-90061214D01*
X149561619Y-90099309D01*
X149637809Y-90137404D01*
X149828285Y-90137404D01*
X149904476Y-90099309D01*
X149942571Y-90061214D01*
X161148333Y-67219309D02*
X161034047Y-67257404D01*
X160843571Y-67257404D01*
X160767380Y-67219309D01*
X160729285Y-67181214D01*
X160691190Y-67105023D01*
X160691190Y-67028833D01*
X160729285Y-66952642D01*
X160767380Y-66914547D01*
X160843571Y-66876452D01*
X160995952Y-66838357D01*
X161072142Y-66800261D01*
X161110238Y-66762166D01*
X161148333Y-66685976D01*
X161148333Y-66609785D01*
X161110238Y-66533595D01*
X161072142Y-66495500D01*
X160995952Y-66457404D01*
X160805476Y-66457404D01*
X160691190Y-66495500D01*
X160462619Y-66457404D02*
X160005476Y-66457404D01*
X160234047Y-67257404D02*
X160234047Y-66457404D01*
X161302666Y-77018357D02*
X161569333Y-77018357D01*
X161569333Y-77437404D02*
X161569333Y-76637404D01*
X161188380Y-76637404D01*
X160540761Y-76637404D02*
X160693142Y-76637404D01*
X160769333Y-76675500D01*
X160807428Y-76713595D01*
X160883619Y-76827880D01*
X160921714Y-76980261D01*
X160921714Y-77285023D01*
X160883619Y-77361214D01*
X160845523Y-77399309D01*
X160769333Y-77437404D01*
X160616952Y-77437404D01*
X160540761Y-77399309D01*
X160502666Y-77361214D01*
X160464571Y-77285023D01*
X160464571Y-77094547D01*
X160502666Y-77018357D01*
X160540761Y-76980261D01*
X160616952Y-76942166D01*
X160769333Y-76942166D01*
X160845523Y-76980261D01*
X160883619Y-77018357D01*
X160921714Y-77094547D01*
X150704476Y-82517404D02*
X150704476Y-81717404D01*
X150514000Y-81717404D01*
X150399714Y-81755500D01*
X150323523Y-81831690D01*
X150285428Y-81907880D01*
X150247333Y-82060261D01*
X150247333Y-82174547D01*
X150285428Y-82326928D01*
X150323523Y-82403119D01*
X150399714Y-82479309D01*
X150514000Y-82517404D01*
X150704476Y-82517404D01*
X149980666Y-81717404D02*
X149447333Y-81717404D01*
X149790190Y-82517404D01*
X150704476Y-64737404D02*
X150704476Y-63937404D01*
X150514000Y-63937404D01*
X150399714Y-63975500D01*
X150323523Y-64051690D01*
X150285428Y-64127880D01*
X150247333Y-64280261D01*
X150247333Y-64394547D01*
X150285428Y-64546928D01*
X150323523Y-64623119D01*
X150399714Y-64699309D01*
X150514000Y-64737404D01*
X150704476Y-64737404D01*
X149942571Y-64013595D02*
X149904476Y-63975500D01*
X149828285Y-63937404D01*
X149637809Y-63937404D01*
X149561619Y-63975500D01*
X149523523Y-64013595D01*
X149485428Y-64089785D01*
X149485428Y-64165976D01*
X149523523Y-64280261D01*
X149980666Y-64737404D01*
X149485428Y-64737404D01*
X161359809Y-89718357D02*
X161245523Y-89756452D01*
X161207428Y-89794547D01*
X161169333Y-89870738D01*
X161169333Y-89985023D01*
X161207428Y-90061214D01*
X161245523Y-90099309D01*
X161321714Y-90137404D01*
X161626476Y-90137404D01*
X161626476Y-89337404D01*
X161359809Y-89337404D01*
X161283619Y-89375500D01*
X161245523Y-89413595D01*
X161207428Y-89489785D01*
X161207428Y-89565976D01*
X161245523Y-89642166D01*
X161283619Y-89680261D01*
X161359809Y-89718357D01*
X161626476Y-89718357D01*
X160483619Y-89337404D02*
X160636000Y-89337404D01*
X160712190Y-89375500D01*
X160750285Y-89413595D01*
X160826476Y-89527880D01*
X160864571Y-89680261D01*
X160864571Y-89985023D01*
X160826476Y-90061214D01*
X160788380Y-90099309D01*
X160712190Y-90137404D01*
X160559809Y-90137404D01*
X160483619Y-90099309D01*
X160445523Y-90061214D01*
X160407428Y-89985023D01*
X160407428Y-89794547D01*
X160445523Y-89718357D01*
X160483619Y-89680261D01*
X160559809Y-89642166D01*
X160712190Y-89642166D01*
X160788380Y-89680261D01*
X160826476Y-89718357D01*
X160864571Y-89794547D01*
X150704476Y-72357404D02*
X150704476Y-71557404D01*
X150514000Y-71557404D01*
X150399714Y-71595500D01*
X150323523Y-71671690D01*
X150285428Y-71747880D01*
X150247333Y-71900261D01*
X150247333Y-72014547D01*
X150285428Y-72166928D01*
X150323523Y-72243119D01*
X150399714Y-72319309D01*
X150514000Y-72357404D01*
X150704476Y-72357404D01*
X149485428Y-72357404D02*
X149942571Y-72357404D01*
X149714000Y-72357404D02*
X149714000Y-71557404D01*
X149790190Y-71671690D01*
X149866380Y-71747880D01*
X149942571Y-71785976D01*
X161302666Y-79558357D02*
X161569333Y-79558357D01*
X161569333Y-79977404D02*
X161569333Y-79177404D01*
X161188380Y-79177404D01*
X160959809Y-79177404D02*
X160426476Y-79177404D01*
X160769333Y-79977404D01*
X154193604Y-61397404D02*
X153736461Y-61397404D01*
X153965032Y-62197404D02*
X153965032Y-61397404D01*
X153545985Y-61397404D02*
X153012651Y-62197404D01*
X153012651Y-61397404D02*
X153545985Y-62197404D01*
X152555508Y-61397404D02*
X152479318Y-61397404D01*
X152403128Y-61435500D01*
X152365032Y-61473595D01*
X152326937Y-61549785D01*
X152288842Y-61702166D01*
X152288842Y-61892642D01*
X152326937Y-62045023D01*
X152365032Y-62121214D01*
X152403128Y-62159309D01*
X152479318Y-62197404D01*
X152555508Y-62197404D01*
X152631699Y-62159309D01*
X152669794Y-62121214D01*
X152707889Y-62045023D01*
X152745985Y-61892642D01*
X152745985Y-61702166D01*
X152707889Y-61549785D01*
X152669794Y-61473595D01*
X152631699Y-61435500D01*
X152555508Y-61397404D01*
X151374556Y-61359309D02*
X152060270Y-62387880D01*
X151107889Y-62197404D02*
X151107889Y-61397404D01*
X150917413Y-61397404D01*
X150803128Y-61435500D01*
X150726937Y-61511690D01*
X150688842Y-61587880D01*
X150650747Y-61740261D01*
X150650747Y-61854547D01*
X150688842Y-62006928D01*
X150726937Y-62083119D01*
X150803128Y-62159309D01*
X150917413Y-62197404D01*
X151107889Y-62197404D01*
X150384080Y-61397404D02*
X149888842Y-61397404D01*
X150155508Y-61702166D01*
X150041223Y-61702166D01*
X149965032Y-61740261D01*
X149926937Y-61778357D01*
X149888842Y-61854547D01*
X149888842Y-62045023D01*
X149926937Y-62121214D01*
X149965032Y-62159309D01*
X150041223Y-62197404D01*
X150269794Y-62197404D01*
X150345985Y-62159309D01*
X150384080Y-62121214D01*
X150723523Y-66515500D02*
X150799714Y-66477404D01*
X150914000Y-66477404D01*
X151028285Y-66515500D01*
X151104476Y-66591690D01*
X151142571Y-66667880D01*
X151180666Y-66820261D01*
X151180666Y-66934547D01*
X151142571Y-67086928D01*
X151104476Y-67163119D01*
X151028285Y-67239309D01*
X150914000Y-67277404D01*
X150837809Y-67277404D01*
X150723523Y-67239309D01*
X150685428Y-67201214D01*
X150685428Y-66934547D01*
X150837809Y-66934547D01*
X150342571Y-67277404D02*
X150342571Y-66477404D01*
X149885428Y-67277404D01*
X149885428Y-66477404D01*
X149504476Y-67277404D02*
X149504476Y-66477404D01*
X149314000Y-66477404D01*
X149199714Y-66515500D01*
X149123523Y-66591690D01*
X149085428Y-66667880D01*
X149047333Y-66820261D01*
X149047333Y-66934547D01*
X149085428Y-67086928D01*
X149123523Y-67163119D01*
X149199714Y-67239309D01*
X149314000Y-67277404D01*
X149504476Y-67277404D01*
X150247333Y-79901214D02*
X150285428Y-79939309D01*
X150399714Y-79977404D01*
X150475904Y-79977404D01*
X150590190Y-79939309D01*
X150666380Y-79863119D01*
X150704476Y-79786928D01*
X150742571Y-79634547D01*
X150742571Y-79520261D01*
X150704476Y-79367880D01*
X150666380Y-79291690D01*
X150590190Y-79215500D01*
X150475904Y-79177404D01*
X150399714Y-79177404D01*
X150285428Y-79215500D01*
X150247333Y-79253595D01*
X149561619Y-79177404D02*
X149714000Y-79177404D01*
X149790190Y-79215500D01*
X149828285Y-79253595D01*
X149904476Y-79367880D01*
X149942571Y-79520261D01*
X149942571Y-79825023D01*
X149904476Y-79901214D01*
X149866380Y-79939309D01*
X149790190Y-79977404D01*
X149637809Y-79977404D01*
X149561619Y-79939309D01*
X149523523Y-79901214D01*
X149485428Y-79825023D01*
X149485428Y-79634547D01*
X149523523Y-79558357D01*
X149561619Y-79520261D01*
X149637809Y-79482166D01*
X149790190Y-79482166D01*
X149866380Y-79520261D01*
X149904476Y-79558357D01*
X149942571Y-79634547D01*
G36*
X161519635Y-67254530D02*
G01*
X161419635Y-67254530D01*
X161419635Y-67054530D01*
X161519635Y-67054530D01*
X161519635Y-67254530D01*
G37*
X161519635Y-67254530D02*
X161419635Y-67254530D01*
X161419635Y-67054530D01*
X161519635Y-67054530D01*
X161519635Y-67254530D01*
G36*
X161919635Y-66554530D02*
G01*
X161419635Y-66554530D01*
X161419635Y-66454530D01*
X161919635Y-66454530D01*
X161919635Y-66554530D01*
G37*
X161919635Y-66554530D02*
X161419635Y-66554530D01*
X161419635Y-66454530D01*
X161919635Y-66454530D01*
X161919635Y-66554530D01*
G36*
X161719635Y-66954530D02*
G01*
X161619635Y-66954530D01*
X161619635Y-66854530D01*
X161719635Y-66854530D01*
X161719635Y-66954530D01*
G37*
X161719635Y-66954530D02*
X161619635Y-66954530D01*
X161619635Y-66854530D01*
X161719635Y-66854530D01*
X161719635Y-66954530D01*
G36*
X161919635Y-67254530D02*
G01*
X161819635Y-67254530D01*
X161819635Y-66454530D01*
X161919635Y-66454530D01*
X161919635Y-67254530D01*
G37*
X161919635Y-67254530D02*
X161819635Y-67254530D01*
X161819635Y-66454530D01*
X161919635Y-66454530D01*
X161919635Y-67254530D01*
G36*
X161519635Y-66754530D02*
G01*
X161419635Y-66754530D01*
X161419635Y-66454530D01*
X161519635Y-66454530D01*
X161519635Y-66754530D01*
G37*
X161519635Y-66754530D02*
X161419635Y-66754530D01*
X161419635Y-66454530D01*
X161519635Y-66454530D01*
X161519635Y-66754530D01*
D11*
X149225000Y-60565500D02*
X149225000Y-63105500D01*
X149225000Y-63105500D02*
X146685000Y-63105500D01*
X164465000Y-58025500D02*
X146685000Y-58025500D01*
X149225000Y-60565500D02*
X146685000Y-60565500D01*
X146685000Y-58025500D02*
X146685000Y-91045500D01*
X146685000Y-91045500D02*
X164465000Y-91045500D01*
X164465000Y-91045500D02*
X164465000Y-58025500D01*
%TD*%
D12*
%TO.C,U1*%
X163195000Y-61835500D03*
X163195000Y-64375500D03*
X163195000Y-66915500D03*
X163195000Y-69455500D03*
X163195000Y-71995500D03*
X163195000Y-74535500D03*
X163195000Y-77075500D03*
X163195000Y-79615500D03*
X163195000Y-82155500D03*
X163195000Y-84695500D03*
X163195000Y-87235500D03*
X163195000Y-89775500D03*
X147955000Y-89775500D03*
X147955000Y-87235500D03*
X147955000Y-84695500D03*
X147955000Y-82155500D03*
X147955000Y-79615500D03*
X147955000Y-77075500D03*
X147955000Y-74535500D03*
X147955000Y-71995500D03*
X147955000Y-69455500D03*
X147955000Y-66915500D03*
X147955000Y-64375500D03*
D13*
X147955000Y-61835500D03*
%TD*%
%LPC*%
D14*
%TO.C,SW61*%
X232797526Y-140654658D03*
D15*
X223601519Y-139696979D03*
X229413982Y-136092901D03*
D14*
X222791880Y-142418924D03*
D16*
X227794703Y-141536791D03*
D17*
X220376274Y-140265677D03*
X232665817Y-135519515D03*
%TD*%
D15*
%TO.C,SW2*%
X53376850Y-67762836D03*
D14*
X51685078Y-70043714D03*
D15*
X60071445Y-66364090D03*
D16*
X56687901Y-70925847D03*
D14*
X61690724Y-71807980D03*
D18*
X50151604Y-67194138D03*
X63323281Y-66937476D03*
%TD*%
D19*
%TO.C,D34*%
X200422874Y-119611770D03*
D20*
X207927109Y-118288571D03*
%TD*%
D14*
%TO.C,SW19*%
X146438056Y-141371524D03*
X136432410Y-139607258D03*
D16*
X141435233Y-140489391D03*
D15*
X144818777Y-135927634D03*
X138124182Y-137326380D03*
D18*
X134898936Y-136757682D03*
X148070613Y-136501020D03*
%TD*%
D21*
%TO.C,D53*%
X38535994Y-150266666D03*
D22*
X46040229Y-151589865D03*
%TD*%
D15*
%TO.C,SW51*%
X278560083Y-122268750D03*
D16*
X282753267Y-124108562D03*
D14*
X277750444Y-124990695D03*
D15*
X284372546Y-118664672D03*
D14*
X287756090Y-123226429D03*
D17*
X275334838Y-122837448D03*
X287624381Y-118091286D03*
%TD*%
D19*
%TO.C,D61*%
X224641658Y-147258740D03*
D20*
X232145893Y-145935541D03*
%TD*%
D19*
%TO.C,D10*%
X231394214Y-75849810D03*
D20*
X238898449Y-74526611D03*
%TD*%
D19*
%TO.C,D59*%
X189436081Y-167007147D03*
D20*
X196940316Y-165683948D03*
%TD*%
D16*
%TO.C,SW20*%
X182698213Y-105191041D03*
D14*
X187701036Y-104308908D03*
D15*
X184317492Y-99747151D03*
X178505029Y-103351229D03*
D14*
X177695390Y-106073174D03*
D17*
X175279784Y-103919927D03*
X187569327Y-99173765D03*
%TD*%
D16*
%TO.C,SW47*%
X206883917Y-132650406D03*
D14*
X201881094Y-133532539D03*
D15*
X202690733Y-130810594D03*
D14*
X211886740Y-131768273D03*
D15*
X208503196Y-127206516D03*
D17*
X199465488Y-131379292D03*
X211755031Y-126633130D03*
%TD*%
D14*
%TO.C,SW52*%
X19692499Y-141778066D03*
D15*
X28078866Y-138098442D03*
X21384271Y-139497188D03*
D16*
X24695322Y-142660199D03*
D14*
X29698145Y-143542332D03*
D18*
X18159025Y-138928490D03*
X31330702Y-138671828D03*
%TD*%
D15*
%TO.C,SW24*%
X253216580Y-88243179D03*
X259029043Y-84639101D03*
D16*
X257409764Y-90082991D03*
D14*
X252406941Y-90965124D03*
X262412587Y-89200858D03*
D17*
X249991335Y-88811877D03*
X262280878Y-84065715D03*
%TD*%
D19*
%TO.C,D21*%
X197147956Y-101038788D03*
D20*
X204652191Y-99715589D03*
%TD*%
D14*
%TO.C,SW32*%
X164674178Y-141930791D03*
D16*
X169677001Y-141048658D03*
D15*
X165483817Y-139208846D03*
X171296280Y-135604768D03*
D14*
X174679824Y-140166525D03*
D17*
X162258572Y-139777544D03*
X174548115Y-135031382D03*
%TD*%
D21*
%TO.C,D40*%
X41843992Y-131506079D03*
D22*
X49348227Y-132829278D03*
%TD*%
D19*
%TO.C,D48*%
X221333660Y-128498153D03*
D20*
X228837895Y-127174954D03*
%TD*%
D21*
%TO.C,D2*%
X51767985Y-75224316D03*
D22*
X59272220Y-76547515D03*
%TD*%
D15*
%TO.C,SW49*%
X240211908Y-124194599D03*
D14*
X239402269Y-126916544D03*
D16*
X244405092Y-126034411D03*
D14*
X249407915Y-125152278D03*
D15*
X246024371Y-120590521D03*
D17*
X236986663Y-124763297D03*
X249276206Y-120017135D03*
%TD*%
D15*
%TO.C,SW10*%
X236166538Y-64683970D03*
D16*
X234547259Y-70127860D03*
D14*
X239550082Y-69245727D03*
X229544436Y-71009993D03*
D15*
X230354075Y-68288048D03*
D17*
X227128830Y-68856746D03*
X239418373Y-64110584D03*
%TD*%
D19*
%TO.C,D51*%
X279600222Y-129830512D03*
D20*
X287104457Y-128507313D03*
%TD*%
D21*
%TO.C,D41*%
X61431579Y-130123930D03*
D22*
X68935814Y-131447129D03*
%TD*%
D19*
%TO.C,D37*%
X257531636Y-114377923D03*
D20*
X265035871Y-113054724D03*
%TD*%
D15*
%TO.C,SW11*%
X255754125Y-66066120D03*
D14*
X249132023Y-72392143D03*
X259137669Y-70627877D03*
D15*
X249941662Y-69670198D03*
D16*
X254134846Y-71510010D03*
D17*
X246716417Y-70238896D03*
X259005960Y-65492734D03*
%TD*%
D15*
%TO.C,SW7*%
X181042574Y-81174169D03*
X175230111Y-84778247D03*
D14*
X184426118Y-85735926D03*
D16*
X179423295Y-86618059D03*
D14*
X174420472Y-87500192D03*
D17*
X172004866Y-85346945D03*
X184294409Y-80600783D03*
%TD*%
D19*
%TO.C,D35*%
X218025662Y-109737566D03*
D20*
X225529897Y-108414367D03*
%TD*%
D15*
%TO.C,SW40*%
X43452857Y-124044599D03*
D14*
X41761085Y-126325477D03*
D16*
X46763908Y-127207610D03*
D14*
X51766731Y-128089743D03*
D15*
X50147452Y-122645853D03*
D18*
X40227611Y-123475901D03*
X53399288Y-123219239D03*
%TD*%
D21*
%TO.C,D28*%
X64739577Y-111363342D03*
D22*
X72243812Y-112686541D03*
%TD*%
D16*
%TO.C,SW60*%
X210191915Y-151410994D03*
D14*
X215194738Y-150528861D03*
X205189092Y-152293127D03*
D15*
X211811194Y-145967104D03*
X205998731Y-149571182D03*
D17*
X202773486Y-150139880D03*
X215063029Y-145393718D03*
%TD*%
D15*
%TO.C,SW35*%
X216985524Y-102175804D03*
D14*
X216175885Y-104897749D03*
X226181531Y-103133483D03*
D16*
X221178708Y-104015616D03*
D15*
X222797987Y-98571726D03*
D17*
X213760279Y-102744502D03*
X226049822Y-97998340D03*
%TD*%
D19*
%TO.C,D60*%
X207038869Y-157132944D03*
D20*
X214543104Y-155809745D03*
%TD*%
D21*
%TO.C,D14*%
X48459987Y-93984904D03*
D22*
X55964222Y-95308103D03*
%TD*%
D21*
%TO.C,D52*%
X19775406Y-146958668D03*
D22*
X27279641Y-148281867D03*
%TD*%
D15*
%TO.C,SW12*%
X274514713Y-62758122D03*
X268702250Y-66362200D03*
D14*
X277898257Y-67319879D03*
X267892611Y-69084145D03*
D16*
X272895434Y-68202012D03*
D17*
X265477005Y-66930898D03*
X277766548Y-62184736D03*
%TD*%
D21*
%TO.C,D6*%
X126479536Y-90332366D03*
D22*
X133983771Y-91655565D03*
%TD*%
D15*
%TO.C,SW29*%
X86266828Y-100643654D03*
D14*
X94580702Y-104688798D03*
X84575056Y-102924532D03*
D15*
X92961423Y-99244908D03*
D16*
X89577879Y-103806665D03*
D18*
X83041582Y-100074956D03*
X96213259Y-99818294D03*
%TD*%
D15*
%TO.C,SW14*%
X50068852Y-86523424D03*
X56763447Y-85124678D03*
D16*
X53379903Y-89686435D03*
D14*
X58382726Y-90568568D03*
X48377080Y-88804302D03*
D18*
X46843606Y-85954726D03*
X60015283Y-85698064D03*
%TD*%
D19*
%TO.C,D64*%
X282908219Y-148591100D03*
D20*
X290412454Y-147267901D03*
%TD*%
D21*
%TO.C,D29*%
X84657964Y-108105134D03*
D22*
X92162199Y-109428333D03*
%TD*%
D21*
%TO.C,D57*%
X113247545Y-165374716D03*
D22*
X120751780Y-166697915D03*
%TD*%
D15*
%TO.C,SW13*%
X38002859Y-81816680D03*
X31308264Y-83215426D03*
D14*
X39622138Y-87260570D03*
X29616492Y-85496304D03*
D16*
X34619315Y-86378437D03*
D18*
X28083018Y-82646728D03*
X41254695Y-82390066D03*
%TD*%
D21*
%TO.C,D5*%
X108876748Y-80458163D03*
D22*
X116380983Y-81781362D03*
%TD*%
D21*
%TO.C,D15*%
X68047574Y-92602755D03*
D22*
X75551809Y-93925954D03*
%TD*%
D19*
%TO.C,D9*%
X211475827Y-72591602D03*
D20*
X218980062Y-71268403D03*
%TD*%
D15*
%TO.C,SW23*%
X239441456Y-83256952D03*
X233628993Y-86861030D03*
D14*
X232819354Y-89582975D03*
X242825000Y-87818709D03*
D16*
X237822177Y-88700842D03*
D17*
X230403748Y-87429728D03*
X242693291Y-82683566D03*
%TD*%
D16*
%TO.C,SW6*%
X131399452Y-86033897D03*
D15*
X128088401Y-82870886D03*
X134782996Y-81472140D03*
D14*
X126396629Y-85151764D03*
X136402275Y-86916030D03*
D18*
X124863155Y-82302188D03*
X138034832Y-82045526D03*
%TD*%
D19*
%TO.C,D63*%
X264147632Y-151899098D03*
D20*
X271651867Y-150575899D03*
%TD*%
D21*
%TO.C,D16*%
X87965961Y-89344547D03*
D22*
X95470196Y-90667746D03*
%TD*%
D19*
%TO.C,D22*%
X214750744Y-91164584D03*
D20*
X222254979Y-89841385D03*
%TD*%
D21*
%TO.C,D30*%
X102260752Y-117979338D03*
D22*
X109764987Y-119302537D03*
%TD*%
D15*
%TO.C,SW39*%
X31386864Y-119337855D03*
D14*
X23000497Y-123017479D03*
D16*
X28003320Y-123899612D03*
D14*
X33006143Y-124781745D03*
D15*
X24692269Y-120736601D03*
D18*
X21467023Y-120167903D03*
X34638700Y-119911241D03*
%TD*%
D19*
%TO.C,D32*%
X166523956Y-146770608D03*
D20*
X174028191Y-145447409D03*
%TD*%
D15*
%TO.C,SW53*%
X40144859Y-142805186D03*
D16*
X43455910Y-145968197D03*
D14*
X38453087Y-145086064D03*
X48458733Y-146850330D03*
D15*
X46839454Y-141406440D03*
D18*
X36919613Y-142236488D03*
X50091290Y-141979826D03*
%TD*%
D15*
%TO.C,SW3*%
X79659032Y-64981941D03*
D16*
X76275488Y-69543698D03*
D14*
X71272665Y-68661565D03*
X81278311Y-70425831D03*
D15*
X72964437Y-66380687D03*
D18*
X69739191Y-65811989D03*
X82910868Y-65555327D03*
%TD*%
D19*
%TO.C,D49*%
X241252047Y-131756361D03*
D20*
X248756282Y-130433162D03*
%TD*%
D21*
%TO.C,D55*%
X78041968Y-145626309D03*
D22*
X85546203Y-146949508D03*
%TD*%
D16*
%TO.C,SW1*%
X37927313Y-67617849D03*
D15*
X34616262Y-64454838D03*
D14*
X42930136Y-68499982D03*
D15*
X41310857Y-63056092D03*
D14*
X32924490Y-66735716D03*
D18*
X31391016Y-63886140D03*
X44562693Y-63629478D03*
%TD*%
D15*
%TO.C,SW37*%
X256491498Y-106816161D03*
D14*
X255681859Y-109538106D03*
X265687505Y-107773840D03*
D15*
X262303961Y-103212083D03*
D16*
X260684682Y-108655973D03*
D17*
X253266253Y-107384859D03*
X265555796Y-102638697D03*
%TD*%
D15*
%TO.C,SW17*%
X113872210Y-90358524D03*
X107177615Y-91757270D03*
D16*
X110488666Y-94920281D03*
D14*
X115491489Y-95802414D03*
X105485843Y-94038148D03*
D18*
X103952369Y-91188572D03*
X117124046Y-90931910D03*
%TD*%
D15*
%TO.C,SW27*%
X53455449Y-103885266D03*
D14*
X45069082Y-107564890D03*
X55074728Y-109329156D03*
D15*
X46760854Y-105284012D03*
D16*
X50071905Y-108447023D03*
D18*
X43535608Y-104715314D03*
X56707285Y-104458652D03*
%TD*%
D19*
%TO.C,D47*%
X203730871Y-138372356D03*
D20*
X211235106Y-137049157D03*
%TD*%
D16*
%TO.C,SW30*%
X107180668Y-113680869D03*
D14*
X102177845Y-112798736D03*
D15*
X103869617Y-110517858D03*
X110564212Y-109119112D03*
D14*
X112183491Y-114563002D03*
D18*
X100644371Y-109949160D03*
X113816048Y-109692498D03*
%TD*%
D15*
%TO.C,SW56*%
X103948217Y-146640286D03*
X97253622Y-148039032D03*
D14*
X105567496Y-152084176D03*
X95561850Y-150319910D03*
D16*
X100564673Y-151202043D03*
D18*
X94028376Y-147470334D03*
X107200053Y-147213672D03*
%TD*%
D21*
%TO.C,D45*%
X132835132Y-163992567D03*
D22*
X140339367Y-165315766D03*
%TD*%
D14*
%TO.C,SW58*%
X167998716Y-160785181D03*
D15*
X168808355Y-158063236D03*
D14*
X178004362Y-159020915D03*
D16*
X173001539Y-159903048D03*
D15*
X174620818Y-154459158D03*
D17*
X165583110Y-158631934D03*
X177872653Y-153885772D03*
%TD*%
D15*
%TO.C,SW21*%
X196107818Y-93477026D03*
D14*
X195298179Y-96198971D03*
D15*
X201920281Y-89872948D03*
D16*
X200301002Y-95316838D03*
D14*
X205303825Y-94434705D03*
D17*
X192882573Y-94045724D03*
X205172116Y-89299562D03*
%TD*%
D14*
%TO.C,SW25*%
X271167529Y-87657127D03*
D15*
X277789631Y-81331104D03*
D14*
X281173175Y-85892861D03*
D15*
X271977168Y-84935182D03*
D16*
X276170352Y-86774994D03*
D17*
X268751923Y-85503880D03*
X281041466Y-80757718D03*
%TD*%
D15*
%TO.C,SW59*%
X194208405Y-155841308D03*
D14*
X197591949Y-160403065D03*
D15*
X188395942Y-159445386D03*
D16*
X192589126Y-161285198D03*
D14*
X187586303Y-162167331D03*
D17*
X185170697Y-160014084D03*
X197460240Y-155267922D03*
%TD*%
D21*
%TO.C,D43*%
X98952754Y-136739926D03*
D22*
X106456989Y-138063125D03*
%TD*%
D19*
%TO.C,D23*%
X234669131Y-94422792D03*
D20*
X242173366Y-93099593D03*
%TD*%
D15*
%TO.C,SW54*%
X66427041Y-140024291D03*
D14*
X68046320Y-145468181D03*
D15*
X59732446Y-141423037D03*
D14*
X58040674Y-143703915D03*
D16*
X63043497Y-144586048D03*
D18*
X56507200Y-140854339D03*
X69678877Y-140597677D03*
%TD*%
D14*
%TO.C,SW4*%
X101196698Y-67167623D03*
D16*
X96193875Y-66285490D03*
D15*
X99577419Y-61723733D03*
D14*
X91191052Y-65403357D03*
D15*
X92882824Y-63122479D03*
D18*
X89657578Y-62553781D03*
X102829255Y-62297119D03*
%TD*%
D21*
%TO.C,D18*%
X123171538Y-109092954D03*
D22*
X130675773Y-110416153D03*
%TD*%
D21*
%TO.C,D44*%
X116555543Y-146614129D03*
D22*
X124059778Y-147937328D03*
%TD*%
D21*
%TO.C,D42*%
X81349966Y-126865722D03*
D22*
X88854201Y-128188921D03*
%TD*%
D19*
%TO.C,D33*%
X182820085Y-129485973D03*
D20*
X190324320Y-128162774D03*
%TD*%
D16*
%TO.C,SW41*%
X66351495Y-125825461D03*
D14*
X71354318Y-126707594D03*
D15*
X63040444Y-122662450D03*
X69735039Y-121263704D03*
D14*
X61348672Y-124943328D03*
D18*
X59815198Y-122093752D03*
X72986875Y-121837090D03*
%TD*%
D15*
%TO.C,SW28*%
X73043037Y-102503116D03*
X66348442Y-103901862D03*
D14*
X64656670Y-106182740D03*
X74662316Y-107947006D03*
D16*
X69659493Y-107064873D03*
D18*
X63123196Y-103333164D03*
X76294873Y-103076502D03*
%TD*%
D15*
%TO.C,SW31*%
X128167000Y-118993315D03*
X121472405Y-120392061D03*
D14*
X119780633Y-122672939D03*
D16*
X124783456Y-123555072D03*
D14*
X129786279Y-124437205D03*
D18*
X118247159Y-119823363D03*
X131418836Y-119566701D03*
%TD*%
D19*
%TO.C,D11*%
X250981801Y-77231959D03*
D20*
X258486036Y-75908760D03*
%TD*%
D19*
%TO.C,D24*%
X254256718Y-95804941D03*
D20*
X261760953Y-94481742D03*
%TD*%
D19*
%TO.C,D12*%
X269742388Y-73923962D03*
D20*
X277246623Y-72600763D03*
%TD*%
D19*
%TO.C,D62*%
X244560045Y-150516948D03*
D20*
X252064280Y-149193749D03*
%TD*%
D21*
%TO.C,D3*%
X71355572Y-73842167D03*
D22*
X78859807Y-75165366D03*
%TD*%
D21*
%TO.C,D39*%
X23083404Y-128198081D03*
D22*
X30587639Y-129521280D03*
%TD*%
D19*
%TO.C,D46*%
X186128083Y-148246560D03*
D20*
X193632318Y-146923361D03*
%TD*%
D15*
%TO.C,SW5*%
X110485613Y-72996683D03*
D14*
X108793841Y-75277561D03*
D16*
X113796664Y-76159694D03*
D14*
X118799487Y-77041827D03*
D15*
X117180208Y-71597937D03*
D18*
X107260367Y-72427985D03*
X120432044Y-72171323D03*
%TD*%
D15*
%TO.C,SW34*%
X205195198Y-108445930D03*
D16*
X203575919Y-113889820D03*
D14*
X198573096Y-114771953D03*
D15*
X199382735Y-112050008D03*
D14*
X208578742Y-113007687D03*
D17*
X196157490Y-112618706D03*
X208447033Y-107872544D03*
%TD*%
D19*
%TO.C,D58*%
X169848494Y-165624998D03*
D20*
X177352729Y-164301799D03*
%TD*%
D15*
%TO.C,SW9*%
X216248151Y-61425763D03*
D16*
X214628872Y-66869653D03*
D15*
X210435688Y-65029841D03*
D14*
X219631695Y-65987520D03*
X209626049Y-67751786D03*
D17*
X207210443Y-65598539D03*
X219499986Y-60852377D03*
%TD*%
D19*
%TO.C,D25*%
X273017306Y-92496944D03*
D20*
X280521541Y-91173745D03*
%TD*%
D21*
%TO.C,D26*%
X26391402Y-109437494D03*
D22*
X33895637Y-110760693D03*
%TD*%
D16*
%TO.C,SW62*%
X247713090Y-144794998D03*
D14*
X242710267Y-145677131D03*
D15*
X243519906Y-142955186D03*
D14*
X252715913Y-143912865D03*
D15*
X249332369Y-139351108D03*
D17*
X240294661Y-143523884D03*
X252584204Y-138777722D03*
%TD*%
D16*
%TO.C,SW44*%
X121475459Y-142315660D03*
D15*
X124859003Y-137753903D03*
X118164408Y-139152649D03*
D14*
X116472636Y-141433527D03*
X126478282Y-143197793D03*
D18*
X114939162Y-138583951D03*
X128110839Y-138327289D03*
%TD*%
D19*
%TO.C,D50*%
X260839634Y-133138510D03*
D20*
X268343869Y-131815311D03*
%TD*%
D21*
%TO.C,D13*%
X29699400Y-90676906D03*
D22*
X37203635Y-92000105D03*
%TD*%
D14*
%TO.C,SW22*%
X212900967Y-86324767D03*
D15*
X213710606Y-83602822D03*
D16*
X217903790Y-85442634D03*
D14*
X222906613Y-84560501D03*
D15*
X219523069Y-79998744D03*
D17*
X210485361Y-84171520D03*
X222774904Y-79425358D03*
%TD*%
D14*
%TO.C,SW38*%
X284448093Y-104465842D03*
D15*
X275252086Y-103508163D03*
D14*
X274442447Y-106230108D03*
D16*
X279445270Y-105347975D03*
D15*
X281064549Y-99904085D03*
D17*
X272026841Y-104076861D03*
X284316384Y-99330699D03*
%TD*%
D15*
%TO.C,SW57*%
X121551005Y-156514490D03*
D14*
X113164638Y-160194114D03*
D16*
X118167461Y-161076247D03*
D15*
X114856410Y-157913236D03*
D14*
X123170284Y-161958380D03*
D18*
X111631164Y-157344538D03*
X124802841Y-157087876D03*
%TD*%
D12*
%TO.C,U1*%
X163195000Y-61835500D03*
X163195000Y-64375500D03*
X163195000Y-66915500D03*
X163195000Y-69455500D03*
X163195000Y-71995500D03*
X163195000Y-74535500D03*
X163195000Y-77075500D03*
X163195000Y-79615500D03*
X163195000Y-82155500D03*
X163195000Y-84695500D03*
X163195000Y-87235500D03*
X163195000Y-89775500D03*
X147955000Y-89775500D03*
X147955000Y-87235500D03*
X147955000Y-84695500D03*
X147955000Y-82155500D03*
X147955000Y-79615500D03*
X147955000Y-77075500D03*
X147955000Y-74535500D03*
X147955000Y-71995500D03*
X147955000Y-69455500D03*
X147955000Y-66915500D03*
X147955000Y-64375500D03*
D13*
X147955000Y-61835500D03*
%TD*%
D19*
%TO.C,D8*%
X193873038Y-82465806D03*
D20*
X201377273Y-81142607D03*
%TD*%
D19*
%TO.C,D20*%
X179545167Y-110912991D03*
D20*
X187049402Y-109589792D03*
%TD*%
D15*
%TO.C,SW64*%
X281868081Y-141029338D03*
D16*
X286061265Y-142869150D03*
D15*
X287680544Y-137425260D03*
D14*
X281058442Y-143751283D03*
X291064088Y-141987017D03*
D17*
X278642836Y-141598036D03*
X290932379Y-136851874D03*
%TD*%
D19*
%TO.C,D38*%
X276292224Y-111069925D03*
D20*
X283796459Y-109746726D03*
%TD*%
D21*
%TO.C,D31*%
X119863541Y-127853541D03*
D22*
X127367776Y-129176740D03*
%TD*%
D14*
%TO.C,SW63*%
X262297854Y-147059281D03*
D15*
X263107493Y-144337336D03*
D16*
X267300677Y-146177148D03*
D15*
X268919956Y-140733258D03*
D14*
X272303500Y-145295015D03*
D17*
X259882248Y-144906034D03*
X272171791Y-140159872D03*
%TD*%
D21*
%TO.C,D27*%
X45151990Y-112745492D03*
D22*
X52656225Y-114068691D03*
%TD*%
D15*
%TO.C,SW36*%
X242716374Y-101829934D03*
D14*
X246099918Y-106391691D03*
X236094272Y-108155957D03*
D15*
X236903911Y-105434012D03*
D16*
X241097095Y-107273824D03*
D17*
X233678666Y-106002710D03*
X245968209Y-101256548D03*
%TD*%
D15*
%TO.C,SW8*%
X192832900Y-74904044D03*
X198645363Y-71299966D03*
D14*
X202028907Y-75861723D03*
X192023261Y-77625989D03*
D16*
X197026084Y-76743856D03*
D17*
X189607655Y-75472742D03*
X201897198Y-70726580D03*
%TD*%
D15*
%TO.C,SW45*%
X141138592Y-155132341D03*
D14*
X142757871Y-160576231D03*
D16*
X137755048Y-159694098D03*
D14*
X132752225Y-158811965D03*
D15*
X134443997Y-156531087D03*
D18*
X131218751Y-155962389D03*
X144390428Y-155705727D03*
%TD*%
D14*
%TO.C,SW46*%
X194283952Y-141642477D03*
D16*
X189281129Y-142524610D03*
D14*
X184278306Y-143406743D03*
D15*
X190900408Y-137080720D03*
X185087945Y-140684798D03*
D17*
X181862700Y-141253496D03*
X194152243Y-136507334D03*
%TD*%
D21*
%TO.C,D56*%
X95644757Y-155500512D03*
D22*
X103148992Y-156823711D03*
%TD*%
D15*
%TO.C,SW50*%
X259799496Y-125576748D03*
D14*
X258989857Y-128298693D03*
X268995503Y-126534427D03*
D15*
X265611959Y-121972670D03*
D16*
X263992680Y-127416560D03*
D17*
X256574251Y-126145446D03*
X268863794Y-121399284D03*
%TD*%
D15*
%TO.C,SW33*%
X181779947Y-121924211D03*
D14*
X180970308Y-124646156D03*
D16*
X185973131Y-123764023D03*
D15*
X187592410Y-118320133D03*
D14*
X190975954Y-122881890D03*
D17*
X178554702Y-122492909D03*
X190844245Y-117746747D03*
%TD*%
D14*
%TO.C,SW55*%
X77959061Y-140445707D03*
X87964707Y-142209973D03*
D16*
X82961884Y-141327840D03*
D15*
X86345428Y-136766083D03*
X79650833Y-138164829D03*
D18*
X76425587Y-137596131D03*
X89597264Y-137339469D03*
%TD*%
D15*
%TO.C,SW43*%
X100561619Y-129278446D03*
D16*
X103872670Y-132441457D03*
D15*
X107256214Y-127879700D03*
D14*
X98869847Y-131559324D03*
X108875493Y-133323590D03*
D18*
X97336373Y-128709748D03*
X110508050Y-128453086D03*
%TD*%
D21*
%TO.C,D54*%
X58123581Y-148884517D03*
D22*
X65627816Y-150207716D03*
%TD*%
D19*
%TO.C,D36*%
X237944049Y-112995774D03*
D20*
X245448284Y-111672575D03*
%TD*%
D15*
%TO.C,SW16*%
X89574826Y-81883067D03*
D14*
X97888700Y-85928211D03*
X87883054Y-84163945D03*
D16*
X92885877Y-85046078D03*
D15*
X96269421Y-80484321D03*
D18*
X86349580Y-81314369D03*
X99521257Y-81057707D03*
%TD*%
D21*
%TO.C,D1*%
X33007397Y-71916318D03*
D22*
X40511632Y-73239517D03*
%TD*%
D14*
%TO.C,SW26*%
X26308495Y-104256892D03*
D15*
X34694862Y-100577268D03*
D14*
X36314141Y-106021158D03*
D15*
X28000267Y-101976014D03*
D16*
X31311318Y-105139025D03*
D18*
X24775021Y-101407316D03*
X37946698Y-101150654D03*
%TD*%
D14*
%TO.C,SW18*%
X123088631Y-103912352D03*
D15*
X124780403Y-101631474D03*
D14*
X133094277Y-105676618D03*
D15*
X131474998Y-100232728D03*
D16*
X128091454Y-104794485D03*
D18*
X121555157Y-101062776D03*
X134726834Y-100806114D03*
%TD*%
D16*
%TO.C,SW15*%
X72967490Y-88304286D03*
D15*
X76351034Y-83742529D03*
X69656439Y-85141275D03*
D14*
X77970313Y-89186419D03*
X67964667Y-87422153D03*
D18*
X66431193Y-84572577D03*
X79602870Y-84315915D03*
%TD*%
D21*
%TO.C,D4*%
X91273959Y-70583959D03*
D22*
X98778194Y-71907158D03*
%TD*%
D21*
%TO.C,D19*%
X136515317Y-144787860D03*
D22*
X144019552Y-146111059D03*
%TD*%
D15*
%TO.C,SW42*%
X89653426Y-118005496D03*
D16*
X86269882Y-122567253D03*
D14*
X81267059Y-121685120D03*
D15*
X82958831Y-119404242D03*
D14*
X91272705Y-123449386D03*
D18*
X79733585Y-118835544D03*
X92905262Y-118578882D03*
%TD*%
D19*
%TO.C,D7*%
X176270250Y-92340009D03*
D20*
X183774485Y-91016810D03*
%TD*%
D14*
%TO.C,SW48*%
X219483882Y-123658336D03*
D15*
X226105984Y-117332313D03*
D16*
X224486705Y-122776203D03*
D14*
X229489528Y-121894070D03*
D15*
X220293521Y-120936391D03*
D17*
X217068276Y-121505089D03*
X229357819Y-116758927D03*
%TD*%
D21*
%TO.C,D17*%
X105568750Y-99218750D03*
D22*
X113072985Y-100541949D03*
%TD*%
M02*
