%TF.GenerationSoftware,KiCad,Pcbnew,(6.0.8)*%
%TF.CreationDate,2023-02-18T20:03:01+07:00*%
%TF.ProjectId,test,74657374-2e6b-4696-9361-645f70636258,rev?*%
%TF.SameCoordinates,Original*%
%TF.FileFunction,Legend,Top*%
%TF.FilePolarity,Positive*%
%FSLAX46Y46*%
G04 Gerber Fmt 4.6, Leading zero omitted, Abs format (unit mm)*
G04 Created by KiCad (PCBNEW (6.0.8)) date 2023-02-18 20:03:01*
%MOMM*%
%LPD*%
G01*
G04 APERTURE LIST*
G04 Aperture macros list*
%AMHorizOval*
0 Thick line with rounded ends*
0 $1 width*
0 $2 $3 position (X,Y) of the first rounded end (center of the circle)*
0 $4 $5 position (X,Y) of the second rounded end (center of the circle)*
0 Add line between two ends*
20,1,$1,$2,$3,$4,$5,0*
0 Add two circle primitives to create the rounded ends*
1,1,$1,$2,$3*
1,1,$1,$4,$5*%
%AMRotRect*
0 Rectangle, with rotation*
0 The origin of the aperture is its center*
0 $1 length*
0 $2 width*
0 $3 Rotation angle, in degrees counterclockwise*
0 Add horizontal line*
21,1,$1,$2,0,0,$3*%
G04 Aperture macros list end*
%ADD10C,0.150000*%
%ADD11C,0.120000*%
%ADD12C,0.381000*%
%ADD13C,1.752600*%
%ADD14R,1.752600X1.752600*%
%ADD15C,1.750000*%
%ADD16C,3.000000*%
%ADD17C,3.987800*%
%ADD18RotRect,1.600000X1.600000X10.000000*%
%ADD19HorizOval,1.600000X0.000000X0.000000X0.000000X0.000000X0*%
%ADD20RotRect,1.600000X1.600000X350.000000*%
%ADD21HorizOval,1.600000X0.000000X0.000000X0.000000X0.000000X0*%
G04 APERTURE END LIST*
D10*
%TO.C,D34*%
X202689574Y-117518744D02*
X202515925Y-116533937D01*
X202750404Y-116492592D01*
X202899359Y-116514680D01*
X203009688Y-116591934D01*
X203073122Y-116677456D01*
X203153093Y-116856769D01*
X203177900Y-116997456D01*
X203164081Y-117193308D01*
X203133723Y-117295368D01*
X203056470Y-117405697D01*
X202924052Y-117477399D01*
X202689574Y-117518744D01*
X203406942Y-116376826D02*
X204016585Y-116269330D01*
X203754467Y-116702377D01*
X203895154Y-116677570D01*
X203997214Y-116707928D01*
X204052379Y-116746555D01*
X204115812Y-116832077D01*
X204157157Y-117066555D01*
X204126800Y-117168615D01*
X204088173Y-117223780D01*
X204002651Y-117287213D01*
X203721277Y-117336827D01*
X203619217Y-117306469D01*
X203564052Y-117267843D01*
X204918589Y-116448758D02*
X205034354Y-117105296D01*
X204617959Y-116114938D02*
X204507515Y-116859717D01*
X205117158Y-116752220D01*
X199930936Y-118330103D02*
X199757288Y-117345295D01*
X200493683Y-118230876D02*
X199972395Y-117742549D01*
X200320035Y-117246068D02*
X199856515Y-117908043D01*
%TO.C,D53*%
X43930639Y-148605823D02*
X43756990Y-149590630D01*
X43522512Y-149549286D01*
X43390095Y-149477583D01*
X43312841Y-149367254D01*
X43282484Y-149265194D01*
X43268664Y-149069342D01*
X43293471Y-148928656D01*
X43373442Y-148749342D01*
X43436876Y-148663820D01*
X43547205Y-148586567D01*
X43696161Y-148564478D01*
X43930639Y-148605823D01*
X42303227Y-149334293D02*
X42772183Y-149416982D01*
X42901768Y-148956295D01*
X42846603Y-148994922D01*
X42744543Y-149025280D01*
X42510065Y-148983935D01*
X42424543Y-148920501D01*
X42385916Y-148865337D01*
X42355559Y-148763276D01*
X42396903Y-148528798D01*
X42460337Y-148443276D01*
X42515501Y-148404650D01*
X42617562Y-148374292D01*
X42852040Y-148415637D01*
X42937562Y-148479070D01*
X42976189Y-148534235D01*
X41928062Y-149268141D02*
X41318419Y-149160645D01*
X41712840Y-148843362D01*
X41572153Y-148818556D01*
X41486631Y-148755122D01*
X41448004Y-148699957D01*
X41417646Y-148597897D01*
X41458991Y-148363419D01*
X41522425Y-148277897D01*
X41577589Y-148239270D01*
X41679649Y-148208913D01*
X41961023Y-148258526D01*
X42046545Y-148321960D01*
X42085172Y-148377124D01*
X39185041Y-148093983D02*
X39011393Y-149078790D01*
X38622294Y-147994755D02*
X38945127Y-148631923D01*
X38448646Y-148979563D02*
X39110621Y-148516043D01*
%TO.C,D61*%
X226908358Y-145165714D02*
X226734709Y-144180907D01*
X226969188Y-144139562D01*
X227118143Y-144161650D01*
X227228472Y-144238904D01*
X227291906Y-144324426D01*
X227371877Y-144503739D01*
X227396684Y-144644426D01*
X227382865Y-144840278D01*
X227352507Y-144942338D01*
X227275254Y-145052667D01*
X227142836Y-145124369D01*
X226908358Y-145165714D01*
X228141578Y-143932838D02*
X227953995Y-143965914D01*
X227868473Y-144029347D01*
X227829846Y-144084512D01*
X227760862Y-144241736D01*
X227747042Y-144437588D01*
X227813194Y-144812753D01*
X227876627Y-144898275D01*
X227931792Y-144936902D01*
X228033852Y-144967259D01*
X228221435Y-144934183D01*
X228306957Y-144870750D01*
X228345584Y-144815585D01*
X228375941Y-144713525D01*
X228334596Y-144479047D01*
X228271163Y-144393525D01*
X228215998Y-144354898D01*
X228113938Y-144324540D01*
X227926356Y-144357616D01*
X227840833Y-144421050D01*
X227802207Y-144476214D01*
X227771849Y-144578275D01*
X229346929Y-144735728D02*
X228784182Y-144834956D01*
X229065556Y-144785342D02*
X228891907Y-143800534D01*
X228822923Y-143957759D01*
X228745670Y-144068088D01*
X228660148Y-144131522D01*
X224149720Y-145977073D02*
X223976072Y-144992265D01*
X224712467Y-145877846D02*
X224191179Y-145389519D01*
X224538819Y-144893038D02*
X224075299Y-145555013D01*
%TO.C,D10*%
X233660914Y-73756784D02*
X233487265Y-72771977D01*
X233721744Y-72730632D01*
X233870699Y-72752720D01*
X233981028Y-72829974D01*
X234044462Y-72915496D01*
X234124433Y-73094809D01*
X234149240Y-73235496D01*
X234135421Y-73431348D01*
X234105063Y-73533408D01*
X234027810Y-73643737D01*
X233895392Y-73715439D01*
X233660914Y-73756784D01*
X235161573Y-73492178D02*
X234598826Y-73591405D01*
X234880199Y-73541791D02*
X234706551Y-72556984D01*
X234637567Y-72714208D01*
X234560314Y-72824537D01*
X234474791Y-72887971D01*
X235597568Y-72399873D02*
X235691359Y-72383335D01*
X235793419Y-72413693D01*
X235848584Y-72452320D01*
X235912017Y-72537842D01*
X235991989Y-72717155D01*
X236033334Y-72951633D01*
X236019514Y-73147485D01*
X235989156Y-73249545D01*
X235950529Y-73304710D01*
X235865007Y-73368143D01*
X235771216Y-73384681D01*
X235669156Y-73354323D01*
X235613991Y-73315697D01*
X235550558Y-73230174D01*
X235470586Y-73050861D01*
X235429241Y-72816383D01*
X235443061Y-72620532D01*
X235473419Y-72518471D01*
X235512046Y-72463307D01*
X235597568Y-72399873D01*
X230902276Y-74568143D02*
X230728628Y-73583335D01*
X231465023Y-74468916D02*
X230943735Y-73980589D01*
X231291375Y-73484108D02*
X230827855Y-74146083D01*
%TO.C,D59*%
X191702781Y-164914121D02*
X191529132Y-163929314D01*
X191763611Y-163887969D01*
X191912566Y-163910057D01*
X192022895Y-163987311D01*
X192086329Y-164072833D01*
X192166300Y-164252146D01*
X192191107Y-164392833D01*
X192177288Y-164588685D01*
X192146930Y-164690745D01*
X192069677Y-164801074D01*
X191937259Y-164872776D01*
X191702781Y-164914121D01*
X192982896Y-163672976D02*
X192513940Y-163755665D01*
X192549734Y-164232890D01*
X192588361Y-164177726D01*
X192673883Y-164114292D01*
X192908361Y-164072947D01*
X193010421Y-164103305D01*
X193065586Y-164141932D01*
X193129019Y-164227454D01*
X193170364Y-164461932D01*
X193140007Y-164563992D01*
X193101380Y-164619157D01*
X193015858Y-164682590D01*
X192781380Y-164723935D01*
X192679319Y-164693577D01*
X192624155Y-164654951D01*
X193672396Y-164566825D02*
X193859979Y-164533749D01*
X193945501Y-164470316D01*
X193984127Y-164415151D01*
X194053112Y-164257926D01*
X194066932Y-164062075D01*
X194000780Y-163686910D01*
X193937346Y-163601388D01*
X193882182Y-163562761D01*
X193780122Y-163532403D01*
X193592539Y-163565479D01*
X193507017Y-163628913D01*
X193468390Y-163684077D01*
X193438033Y-163786138D01*
X193479377Y-164020616D01*
X193542811Y-164106138D01*
X193597976Y-164144764D01*
X193700036Y-164175122D01*
X193887618Y-164142046D01*
X193973140Y-164078613D01*
X194011767Y-164023448D01*
X194042125Y-163921388D01*
X188944143Y-165725480D02*
X188770495Y-164740672D01*
X189506890Y-165626253D02*
X188985602Y-165137926D01*
X189333242Y-164641445D02*
X188869722Y-165303420D01*
%TO.C,D21*%
X199414656Y-98945762D02*
X199241007Y-97960955D01*
X199475486Y-97919610D01*
X199624441Y-97941698D01*
X199734770Y-98018952D01*
X199798204Y-98104474D01*
X199878175Y-98283787D01*
X199902982Y-98424474D01*
X199889163Y-98620326D01*
X199858805Y-98722386D01*
X199781552Y-98832715D01*
X199649134Y-98904417D01*
X199414656Y-98945762D01*
X200195458Y-97889367D02*
X200234084Y-97834202D01*
X200319606Y-97770768D01*
X200554084Y-97729424D01*
X200656145Y-97759781D01*
X200711309Y-97798408D01*
X200774743Y-97883930D01*
X200791281Y-97977721D01*
X200769192Y-98126677D01*
X200305672Y-98788652D01*
X200915315Y-98681156D01*
X201853227Y-98515776D02*
X201290480Y-98615004D01*
X201571854Y-98565390D02*
X201398205Y-97580582D01*
X201329221Y-97737807D01*
X201251968Y-97848136D01*
X201166446Y-97911570D01*
X196656018Y-99757121D02*
X196482370Y-98772313D01*
X197218765Y-99657894D02*
X196697477Y-99169567D01*
X197045117Y-98673086D02*
X196581597Y-99335061D01*
%TO.C,D40*%
X47238637Y-129845236D02*
X47064988Y-130830043D01*
X46830510Y-130788699D01*
X46698093Y-130716996D01*
X46620839Y-130606667D01*
X46590482Y-130504607D01*
X46576662Y-130308755D01*
X46601469Y-130168069D01*
X46681440Y-129988755D01*
X46744874Y-129903233D01*
X46855203Y-129825980D01*
X47004159Y-129803891D01*
X47238637Y-129845236D01*
X45716003Y-130253705D02*
X45831768Y-129597167D01*
X45884329Y-130670215D02*
X46242842Y-130008126D01*
X45633199Y-129900629D01*
X44954686Y-130457940D02*
X44860895Y-130441402D01*
X44775373Y-130377969D01*
X44736746Y-130322804D01*
X44706388Y-130220744D01*
X44692569Y-130024893D01*
X44733913Y-129790415D01*
X44813885Y-129611101D01*
X44877318Y-129525579D01*
X44932483Y-129486952D01*
X45034543Y-129456595D01*
X45128334Y-129473132D01*
X45213857Y-129536566D01*
X45252483Y-129591731D01*
X45282841Y-129693791D01*
X45296661Y-129889642D01*
X45255316Y-130124120D01*
X45175344Y-130303434D01*
X45111911Y-130388956D01*
X45056746Y-130427583D01*
X44954686Y-130457940D01*
X42493039Y-129333396D02*
X42319391Y-130318203D01*
X41930292Y-129234168D02*
X42253125Y-129871336D01*
X41756644Y-130218976D02*
X42418619Y-129755456D01*
%TO.C,D48*%
X223600360Y-126405127D02*
X223426711Y-125420320D01*
X223661190Y-125378975D01*
X223810145Y-125401063D01*
X223920474Y-125478317D01*
X223983908Y-125563839D01*
X224063879Y-125743152D01*
X224088686Y-125883839D01*
X224074867Y-126079691D01*
X224044509Y-126181751D01*
X223967256Y-126292080D01*
X223834838Y-126363782D01*
X223600360Y-126405127D01*
X224891462Y-125500520D02*
X225007228Y-126157058D01*
X224590833Y-125166700D02*
X224480389Y-125911479D01*
X225090032Y-125803982D01*
X225564539Y-125478546D02*
X225462479Y-125448188D01*
X225407314Y-125409561D01*
X225343881Y-125324039D01*
X225335612Y-125277144D01*
X225365969Y-125175083D01*
X225404596Y-125119919D01*
X225490118Y-125056485D01*
X225677701Y-125023409D01*
X225779761Y-125053767D01*
X225834925Y-125092394D01*
X225898359Y-125177916D01*
X225906628Y-125224812D01*
X225876270Y-125326872D01*
X225837644Y-125382036D01*
X225752121Y-125445470D01*
X225564539Y-125478546D01*
X225479017Y-125541979D01*
X225440390Y-125597144D01*
X225410032Y-125699204D01*
X225443108Y-125886786D01*
X225506542Y-125972309D01*
X225561706Y-126010935D01*
X225663766Y-126041293D01*
X225851349Y-126008217D01*
X225936871Y-125944784D01*
X225975498Y-125889619D01*
X226005855Y-125787559D01*
X225972780Y-125599976D01*
X225909346Y-125514454D01*
X225854181Y-125475828D01*
X225752121Y-125445470D01*
X220841722Y-127216486D02*
X220668074Y-126231678D01*
X221404469Y-127117259D02*
X220883181Y-126628932D01*
X221230821Y-126132451D02*
X220767301Y-126794426D01*
%TO.C,D2*%
X56693674Y-73480783D02*
X56520025Y-74465591D01*
X56285547Y-74424246D01*
X56153129Y-74352544D01*
X56075876Y-74242214D01*
X56045518Y-74140154D01*
X56031699Y-73944303D01*
X56056506Y-73803616D01*
X56136477Y-73624303D01*
X56199911Y-73538780D01*
X56310240Y-73461527D01*
X56459196Y-73439438D01*
X56693674Y-73480783D01*
X55598651Y-74206420D02*
X55543487Y-74245047D01*
X55441426Y-74275405D01*
X55206948Y-74234060D01*
X55121426Y-74170626D01*
X55082799Y-74115462D01*
X55052442Y-74013402D01*
X55068980Y-73919610D01*
X55140682Y-73787193D01*
X55802657Y-73323673D01*
X55193014Y-73216176D01*
X52417032Y-73051633D02*
X52243384Y-74036440D01*
X51854285Y-72952405D02*
X52177118Y-73589573D01*
X51680637Y-73937213D02*
X52342612Y-73473693D01*
%TO.C,D51*%
X281866922Y-127737486D02*
X281693273Y-126752679D01*
X281927752Y-126711334D01*
X282076707Y-126733422D01*
X282187036Y-126810676D01*
X282250470Y-126896198D01*
X282330441Y-127075511D01*
X282355248Y-127216198D01*
X282341429Y-127412050D01*
X282311071Y-127514110D01*
X282233818Y-127624439D01*
X282101400Y-127696141D01*
X281866922Y-127737486D01*
X283147037Y-126496341D02*
X282678081Y-126579030D01*
X282713875Y-127056255D01*
X282752502Y-127001091D01*
X282838024Y-126937657D01*
X283072502Y-126896312D01*
X283174562Y-126926670D01*
X283229727Y-126965297D01*
X283293160Y-127050819D01*
X283334505Y-127285297D01*
X283304148Y-127387357D01*
X283265521Y-127442522D01*
X283179999Y-127505955D01*
X282945521Y-127547300D01*
X282843460Y-127516942D01*
X282788296Y-127478316D01*
X284305493Y-127307500D02*
X283742746Y-127406728D01*
X284024120Y-127357114D02*
X283850471Y-126372306D01*
X283781487Y-126529531D01*
X283704234Y-126639860D01*
X283618712Y-126703294D01*
X279108284Y-128548845D02*
X278934636Y-127564037D01*
X279671031Y-128449618D02*
X279149743Y-127961291D01*
X279497383Y-127464810D02*
X279033863Y-128126785D01*
%TO.C,D41*%
X66826224Y-128463087D02*
X66652575Y-129447894D01*
X66418097Y-129406550D01*
X66285680Y-129334847D01*
X66208426Y-129224518D01*
X66178069Y-129122458D01*
X66164249Y-128926606D01*
X66189056Y-128785920D01*
X66269027Y-128606606D01*
X66332461Y-128521084D01*
X66442790Y-128443831D01*
X66591746Y-128421742D01*
X66826224Y-128463087D01*
X65303590Y-128871556D02*
X65419355Y-128215018D01*
X65471916Y-129288066D02*
X65830429Y-128625977D01*
X65220786Y-128518480D01*
X64387652Y-128033101D02*
X64950399Y-128132328D01*
X64669026Y-128082715D02*
X64495378Y-129067522D01*
X64613976Y-128943373D01*
X64724305Y-128866120D01*
X64826365Y-128835762D01*
X62080626Y-127951247D02*
X61906978Y-128936054D01*
X61517879Y-127852019D02*
X61840712Y-128489187D01*
X61344231Y-128836827D02*
X62006206Y-128373307D01*
%TO.C,D37*%
X259798336Y-112284897D02*
X259624687Y-111300090D01*
X259859166Y-111258745D01*
X260008121Y-111280833D01*
X260118450Y-111358087D01*
X260181884Y-111443609D01*
X260261855Y-111622922D01*
X260286662Y-111763609D01*
X260272843Y-111959461D01*
X260242485Y-112061521D01*
X260165232Y-112171850D01*
X260032814Y-112243552D01*
X259798336Y-112284897D01*
X260515704Y-111142979D02*
X261125347Y-111035483D01*
X260863229Y-111468530D01*
X261003916Y-111443723D01*
X261105976Y-111474081D01*
X261161141Y-111512708D01*
X261224574Y-111598230D01*
X261265919Y-111832708D01*
X261235562Y-111934768D01*
X261196935Y-111989933D01*
X261111413Y-112053366D01*
X260830039Y-112102980D01*
X260727979Y-112072622D01*
X260672814Y-112033996D01*
X261453616Y-110977600D02*
X262110155Y-110861835D01*
X261861742Y-111921063D01*
X257039698Y-113096256D02*
X256866050Y-112111448D01*
X257602445Y-112997029D02*
X257081157Y-112508702D01*
X257428797Y-112012221D02*
X256965277Y-112674196D01*
%TO.C,D35*%
X220292362Y-107644540D02*
X220118713Y-106659733D01*
X220353192Y-106618388D01*
X220502147Y-106640476D01*
X220612476Y-106717730D01*
X220675910Y-106803252D01*
X220755881Y-106982565D01*
X220780688Y-107123252D01*
X220766869Y-107319104D01*
X220736511Y-107421164D01*
X220659258Y-107531493D01*
X220526840Y-107603195D01*
X220292362Y-107644540D01*
X221009730Y-106502622D02*
X221619373Y-106395126D01*
X221357255Y-106828173D01*
X221497942Y-106803366D01*
X221600002Y-106833724D01*
X221655167Y-106872351D01*
X221718600Y-106957873D01*
X221759945Y-107192351D01*
X221729588Y-107294411D01*
X221690961Y-107349576D01*
X221605439Y-107413009D01*
X221324065Y-107462623D01*
X221222005Y-107432265D01*
X221166840Y-107393639D01*
X222510389Y-106238016D02*
X222041433Y-106320705D01*
X222077227Y-106797930D01*
X222115854Y-106742766D01*
X222201376Y-106679332D01*
X222435854Y-106637987D01*
X222537914Y-106668345D01*
X222593079Y-106706972D01*
X222656513Y-106792494D01*
X222697857Y-107026972D01*
X222667500Y-107129032D01*
X222628873Y-107184197D01*
X222543351Y-107247630D01*
X222308873Y-107288975D01*
X222206813Y-107258617D01*
X222151648Y-107219991D01*
X217533724Y-108455899D02*
X217360076Y-107471091D01*
X218096471Y-108356672D02*
X217575183Y-107868345D01*
X217922823Y-107371864D02*
X217459303Y-108033839D01*
%TO.C,D28*%
X70134222Y-109702499D02*
X69960573Y-110687306D01*
X69726095Y-110645962D01*
X69593678Y-110574259D01*
X69516424Y-110463930D01*
X69486067Y-110361870D01*
X69472247Y-110166018D01*
X69497054Y-110025332D01*
X69577025Y-109846018D01*
X69640459Y-109760496D01*
X69750788Y-109683243D01*
X69899744Y-109661154D01*
X70134222Y-109702499D01*
X69039199Y-110428136D02*
X68984035Y-110466763D01*
X68881974Y-110497120D01*
X68647496Y-110455776D01*
X68561974Y-110392342D01*
X68523348Y-110337177D01*
X68492990Y-110235117D01*
X68509528Y-110141326D01*
X68581230Y-110008908D01*
X69243205Y-109545388D01*
X68633562Y-109437892D01*
X67971587Y-109901412D02*
X68057110Y-109964845D01*
X68095736Y-110020010D01*
X68126094Y-110122070D01*
X68117825Y-110168966D01*
X68054391Y-110254488D01*
X67999227Y-110293115D01*
X67897167Y-110323472D01*
X67709584Y-110290396D01*
X67624062Y-110226963D01*
X67585435Y-110171798D01*
X67555078Y-110069738D01*
X67563347Y-110022842D01*
X67626780Y-109937320D01*
X67681945Y-109898694D01*
X67784005Y-109868336D01*
X67971587Y-109901412D01*
X68073648Y-109871054D01*
X68128812Y-109832427D01*
X68192246Y-109746905D01*
X68225321Y-109559323D01*
X68194964Y-109457263D01*
X68156337Y-109402098D01*
X68070815Y-109338664D01*
X67883232Y-109305589D01*
X67781172Y-109335946D01*
X67726008Y-109374573D01*
X67662574Y-109460095D01*
X67629498Y-109647678D01*
X67659856Y-109749738D01*
X67698483Y-109804902D01*
X67784005Y-109868336D01*
X65388624Y-109190659D02*
X65214976Y-110175466D01*
X64825877Y-109091431D02*
X65148710Y-109728599D01*
X64652229Y-110076239D02*
X65314204Y-109612719D01*
%TO.C,D60*%
X209305569Y-155039918D02*
X209131920Y-154055111D01*
X209366399Y-154013766D01*
X209515354Y-154035854D01*
X209625683Y-154113108D01*
X209689117Y-154198630D01*
X209769088Y-154377943D01*
X209793895Y-154518630D01*
X209780076Y-154714482D01*
X209749718Y-154816542D01*
X209672465Y-154926871D01*
X209540047Y-154998573D01*
X209305569Y-155039918D01*
X210538789Y-153807042D02*
X210351206Y-153840118D01*
X210265684Y-153903551D01*
X210227057Y-153958716D01*
X210158073Y-154115940D01*
X210144253Y-154311792D01*
X210210405Y-154686957D01*
X210273838Y-154772479D01*
X210329003Y-154811106D01*
X210431063Y-154841463D01*
X210618646Y-154808387D01*
X210704168Y-154744954D01*
X210742795Y-154689789D01*
X210773152Y-154587729D01*
X210731807Y-154353251D01*
X210668374Y-154267729D01*
X210613209Y-154229102D01*
X210511149Y-154198744D01*
X210323567Y-154231820D01*
X210238044Y-154295254D01*
X210199418Y-154350418D01*
X210169060Y-154452479D01*
X211242223Y-153683007D02*
X211336014Y-153666469D01*
X211438074Y-153696827D01*
X211493239Y-153735454D01*
X211556672Y-153820976D01*
X211636644Y-154000289D01*
X211677989Y-154234767D01*
X211664169Y-154430619D01*
X211633811Y-154532679D01*
X211595184Y-154587844D01*
X211509662Y-154651277D01*
X211415871Y-154667815D01*
X211313811Y-154637457D01*
X211258646Y-154598831D01*
X211195213Y-154513308D01*
X211115241Y-154333995D01*
X211073896Y-154099517D01*
X211087716Y-153903666D01*
X211118074Y-153801605D01*
X211156701Y-153746441D01*
X211242223Y-153683007D01*
X206546931Y-155851277D02*
X206373283Y-154866469D01*
X207109678Y-155752050D02*
X206588390Y-155263723D01*
X206936030Y-154767242D02*
X206472510Y-155429217D01*
%TO.C,D14*%
X53854632Y-92324061D02*
X53680983Y-93308868D01*
X53446505Y-93267524D01*
X53314088Y-93195821D01*
X53236834Y-93085492D01*
X53206477Y-92983432D01*
X53192657Y-92787580D01*
X53217464Y-92646894D01*
X53297435Y-92467580D01*
X53360869Y-92382058D01*
X53471198Y-92304805D01*
X53620154Y-92282716D01*
X53854632Y-92324061D01*
X52353972Y-92059454D02*
X52916719Y-92158682D01*
X52635346Y-92109068D02*
X52461698Y-93093876D01*
X52580296Y-92969727D01*
X52690625Y-92892473D01*
X52792685Y-92862116D01*
X51394086Y-92567151D02*
X51509851Y-91910613D01*
X51562412Y-92983661D02*
X51920925Y-92321572D01*
X51311282Y-92214075D01*
X49109034Y-91812221D02*
X48935386Y-92797028D01*
X48546287Y-91712993D02*
X48869120Y-92350161D01*
X48372639Y-92697801D02*
X49034614Y-92234281D01*
%TO.C,D52*%
X25170051Y-145297825D02*
X24996402Y-146282632D01*
X24761924Y-146241288D01*
X24629507Y-146169585D01*
X24552253Y-146059256D01*
X24521896Y-145957196D01*
X24508076Y-145761344D01*
X24532883Y-145620658D01*
X24612854Y-145441344D01*
X24676288Y-145355822D01*
X24786617Y-145278569D01*
X24935573Y-145256480D01*
X25170051Y-145297825D01*
X23542639Y-146026295D02*
X24011595Y-146108984D01*
X24141180Y-145648297D01*
X24086015Y-145686924D01*
X23983955Y-145717282D01*
X23749477Y-145675937D01*
X23663955Y-145612503D01*
X23625328Y-145557339D01*
X23594971Y-145455278D01*
X23636315Y-145220800D01*
X23699749Y-145135278D01*
X23754913Y-145096652D01*
X23856974Y-145066294D01*
X24091452Y-145107639D01*
X24176974Y-145171072D01*
X24215601Y-145226237D01*
X23137116Y-145858083D02*
X23081951Y-145896709D01*
X22979891Y-145927067D01*
X22745413Y-145885722D01*
X22659891Y-145822289D01*
X22621264Y-145767124D01*
X22590907Y-145665064D01*
X22607445Y-145571273D01*
X22679147Y-145438855D01*
X23341122Y-144975335D01*
X22731479Y-144867839D01*
X20424453Y-144785985D02*
X20250805Y-145770792D01*
X19861706Y-144686757D02*
X20184539Y-145323925D01*
X19688058Y-145671565D02*
X20350033Y-145208045D01*
%TO.C,D6*%
X131405225Y-88588833D02*
X131231576Y-89573641D01*
X130997098Y-89532296D01*
X130864680Y-89460594D01*
X130787427Y-89350264D01*
X130757069Y-89248204D01*
X130743250Y-89052353D01*
X130768057Y-88911666D01*
X130848028Y-88732353D01*
X130911462Y-88646830D01*
X131021791Y-88569577D01*
X131170747Y-88547488D01*
X131405225Y-88588833D01*
X129824708Y-89325572D02*
X130012291Y-89358648D01*
X130114351Y-89328290D01*
X130169515Y-89289664D01*
X130288113Y-89165515D01*
X130368085Y-88986201D01*
X130434237Y-88611036D01*
X130403879Y-88508976D01*
X130365252Y-88453812D01*
X130279730Y-88390378D01*
X130092148Y-88357302D01*
X129990087Y-88387660D01*
X129934923Y-88426287D01*
X129871489Y-88511809D01*
X129830144Y-88746287D01*
X129860502Y-88848347D01*
X129899129Y-88903512D01*
X129984651Y-88966945D01*
X130172233Y-89000021D01*
X130274294Y-88969663D01*
X130329458Y-88931037D01*
X130392892Y-88845514D01*
X127128583Y-88159683D02*
X126954935Y-89144490D01*
X126565836Y-88060455D02*
X126888669Y-88697623D01*
X126392188Y-89045263D02*
X127054163Y-88581743D01*
%TO.C,D64*%
X285174919Y-146498074D02*
X285001270Y-145513267D01*
X285235749Y-145471922D01*
X285384704Y-145494010D01*
X285495033Y-145571264D01*
X285558467Y-145656786D01*
X285638438Y-145836099D01*
X285663245Y-145976786D01*
X285649426Y-146172638D01*
X285619068Y-146274698D01*
X285541815Y-146385027D01*
X285409397Y-146456729D01*
X285174919Y-146498074D01*
X286408139Y-145265198D02*
X286220556Y-145298274D01*
X286135034Y-145361707D01*
X286096407Y-145416872D01*
X286027423Y-145574096D01*
X286013603Y-145769948D01*
X286079755Y-146145113D01*
X286143188Y-146230635D01*
X286198353Y-146269262D01*
X286300413Y-146299619D01*
X286487996Y-146266543D01*
X286573518Y-146203110D01*
X286612145Y-146147945D01*
X286642502Y-146045885D01*
X286601157Y-145811407D01*
X286537724Y-145725885D01*
X286482559Y-145687258D01*
X286380499Y-145656900D01*
X286192917Y-145689976D01*
X286107394Y-145753410D01*
X286068768Y-145808574D01*
X286038410Y-145910635D01*
X287403934Y-145428088D02*
X287519699Y-146084626D01*
X287103304Y-145094268D02*
X286992860Y-145839047D01*
X287602503Y-145731550D01*
X282416281Y-147309433D02*
X282242633Y-146324625D01*
X282979028Y-147210206D02*
X282457740Y-146721879D01*
X282805380Y-146225398D02*
X282341860Y-146887373D01*
%TO.C,D29*%
X90052609Y-106444291D02*
X89878960Y-107429098D01*
X89644482Y-107387754D01*
X89512065Y-107316051D01*
X89434811Y-107205722D01*
X89404454Y-107103662D01*
X89390634Y-106907810D01*
X89415441Y-106767124D01*
X89495412Y-106587810D01*
X89558846Y-106502288D01*
X89669175Y-106425035D01*
X89818131Y-106402946D01*
X90052609Y-106444291D01*
X88957586Y-107169928D02*
X88902422Y-107208555D01*
X88800361Y-107238912D01*
X88565883Y-107197568D01*
X88480361Y-107134134D01*
X88441735Y-107078969D01*
X88411377Y-106976909D01*
X88427915Y-106883118D01*
X88499617Y-106750700D01*
X89161592Y-106287180D01*
X88551949Y-106179684D01*
X88082993Y-106096994D02*
X87895411Y-106063919D01*
X87793351Y-106094276D01*
X87738186Y-106132903D01*
X87619588Y-106257052D01*
X87539616Y-106436365D01*
X87473465Y-106811530D01*
X87503822Y-106913590D01*
X87542449Y-106968755D01*
X87627971Y-107032188D01*
X87815554Y-107065264D01*
X87917614Y-107034907D01*
X87972778Y-106996280D01*
X88036212Y-106910758D01*
X88077557Y-106676280D01*
X88047199Y-106574219D01*
X88008572Y-106519055D01*
X87923050Y-106455621D01*
X87735468Y-106422545D01*
X87633408Y-106452903D01*
X87578243Y-106491530D01*
X87514810Y-106577052D01*
X85307011Y-105932451D02*
X85133363Y-106917258D01*
X84744264Y-105833223D02*
X85067097Y-106470391D01*
X84570616Y-106818031D02*
X85232591Y-106354511D01*
%TO.C,D57*%
X118642190Y-163713873D02*
X118468541Y-164698680D01*
X118234063Y-164657336D01*
X118101646Y-164585633D01*
X118024392Y-164475304D01*
X117994035Y-164373244D01*
X117980215Y-164177392D01*
X118005022Y-164036706D01*
X118084993Y-163857392D01*
X118148427Y-163771870D01*
X118258756Y-163694617D01*
X118407712Y-163672528D01*
X118642190Y-163713873D01*
X117014778Y-164442343D02*
X117483734Y-164525032D01*
X117613319Y-164064345D01*
X117558154Y-164102972D01*
X117456094Y-164133330D01*
X117221616Y-164091985D01*
X117136094Y-164028551D01*
X117097467Y-163973387D01*
X117067110Y-163871326D01*
X117108454Y-163636848D01*
X117171888Y-163551326D01*
X117227052Y-163512700D01*
X117329113Y-163482342D01*
X117563591Y-163523687D01*
X117649113Y-163587120D01*
X117687740Y-163642285D01*
X116639613Y-164376191D02*
X115983074Y-164260426D01*
X116578783Y-163350038D01*
X113896592Y-163202033D02*
X113722944Y-164186840D01*
X113333845Y-163102805D02*
X113656678Y-163739973D01*
X113160197Y-164087613D02*
X113822172Y-163624093D01*
%TO.C,D5*%
X113802437Y-78714630D02*
X113628788Y-79699438D01*
X113394310Y-79658093D01*
X113261892Y-79586391D01*
X113184639Y-79476061D01*
X113154281Y-79374001D01*
X113140462Y-79178150D01*
X113165269Y-79037463D01*
X113245240Y-78858150D01*
X113308674Y-78772627D01*
X113419003Y-78695374D01*
X113567959Y-78673285D01*
X113802437Y-78714630D01*
X112175025Y-79443100D02*
X112643981Y-79525790D01*
X112773566Y-79065103D01*
X112718401Y-79103729D01*
X112616341Y-79134087D01*
X112381863Y-79092742D01*
X112296341Y-79029309D01*
X112257714Y-78974144D01*
X112227356Y-78872084D01*
X112268701Y-78637606D01*
X112332135Y-78552084D01*
X112387299Y-78513457D01*
X112489360Y-78483099D01*
X112723838Y-78524444D01*
X112809360Y-78587878D01*
X112847986Y-78643042D01*
X109525795Y-78285480D02*
X109352147Y-79270287D01*
X108963048Y-78186252D02*
X109285881Y-78823420D01*
X108789400Y-79171060D02*
X109451375Y-78707540D01*
%TO.C,D15*%
X73442219Y-90941912D02*
X73268570Y-91926719D01*
X73034092Y-91885375D01*
X72901675Y-91813672D01*
X72824421Y-91703343D01*
X72794064Y-91601283D01*
X72780244Y-91405431D01*
X72805051Y-91264745D01*
X72885022Y-91085431D01*
X72948456Y-90999909D01*
X73058785Y-90922656D01*
X73207741Y-90900567D01*
X73442219Y-90941912D01*
X71941559Y-90677305D02*
X72504306Y-90776533D01*
X72222933Y-90726919D02*
X72049285Y-91711727D01*
X72167883Y-91587578D01*
X72278212Y-91510324D01*
X72380272Y-91479967D01*
X70876894Y-91505002D02*
X71345851Y-91587692D01*
X71475436Y-91127005D01*
X71420271Y-91165632D01*
X71318211Y-91195989D01*
X71083733Y-91154645D01*
X70998211Y-91091211D01*
X70959584Y-91036046D01*
X70929226Y-90933986D01*
X70970571Y-90699508D01*
X71034005Y-90613986D01*
X71089169Y-90575359D01*
X71191229Y-90545002D01*
X71425708Y-90586346D01*
X71511230Y-90649780D01*
X71549856Y-90704945D01*
X68696621Y-90430072D02*
X68522973Y-91414879D01*
X68133874Y-90330844D02*
X68456707Y-90968012D01*
X67960226Y-91315652D02*
X68622201Y-90852132D01*
%TO.C,D9*%
X214211483Y-70415887D02*
X214037835Y-69431079D01*
X214272313Y-69389734D01*
X214421268Y-69411823D01*
X214531597Y-69489076D01*
X214595031Y-69574598D01*
X214675002Y-69753912D01*
X214699809Y-69894599D01*
X214685990Y-70090450D01*
X214655632Y-70192510D01*
X214578379Y-70302839D01*
X214445961Y-70374542D01*
X214211483Y-70415887D01*
X215243186Y-70233970D02*
X215430769Y-70200894D01*
X215516291Y-70137460D01*
X215554917Y-70082296D01*
X215623902Y-69925071D01*
X215637722Y-69729219D01*
X215571570Y-69354055D01*
X215508136Y-69268532D01*
X215452972Y-69229906D01*
X215350912Y-69199548D01*
X215163329Y-69232624D01*
X215077807Y-69296057D01*
X215039180Y-69351222D01*
X215008823Y-69453282D01*
X215050167Y-69687760D01*
X215113601Y-69773282D01*
X215168765Y-69811909D01*
X215270826Y-69842267D01*
X215458408Y-69809191D01*
X215543930Y-69745757D01*
X215582557Y-69690593D01*
X215612915Y-69588533D01*
X210983889Y-71309935D02*
X210810241Y-70325127D01*
X211546636Y-71210708D02*
X211025348Y-70722381D01*
X211372988Y-70225900D02*
X210909468Y-70887875D01*
%TO.C,D63*%
X266414332Y-149806072D02*
X266240683Y-148821265D01*
X266475162Y-148779920D01*
X266624117Y-148802008D01*
X266734446Y-148879262D01*
X266797880Y-148964784D01*
X266877851Y-149144097D01*
X266902658Y-149284784D01*
X266888839Y-149480636D01*
X266858481Y-149582696D01*
X266781228Y-149693025D01*
X266648810Y-149764727D01*
X266414332Y-149806072D01*
X267647552Y-148573196D02*
X267459969Y-148606272D01*
X267374447Y-148669705D01*
X267335820Y-148724870D01*
X267266836Y-148882094D01*
X267253016Y-149077946D01*
X267319168Y-149453111D01*
X267382601Y-149538633D01*
X267437766Y-149577260D01*
X267539826Y-149607617D01*
X267727409Y-149574541D01*
X267812931Y-149511108D01*
X267851558Y-149455943D01*
X267881915Y-149353883D01*
X267840570Y-149119405D01*
X267777137Y-149033883D01*
X267721972Y-148995256D01*
X267619912Y-148964898D01*
X267432330Y-148997974D01*
X267346807Y-149061408D01*
X267308181Y-149116572D01*
X267277823Y-149218633D01*
X268069612Y-148498775D02*
X268679255Y-148391279D01*
X268417137Y-148824326D01*
X268557824Y-148799519D01*
X268659884Y-148829877D01*
X268715049Y-148868504D01*
X268778483Y-148954026D01*
X268819827Y-149188504D01*
X268789470Y-149290564D01*
X268750843Y-149345729D01*
X268665321Y-149409162D01*
X268383947Y-149458776D01*
X268281887Y-149428418D01*
X268226722Y-149389792D01*
X263655694Y-150617431D02*
X263482046Y-149632623D01*
X264218441Y-150518204D02*
X263697153Y-150029877D01*
X264044793Y-149533396D02*
X263581273Y-150195371D01*
%TO.C,D16*%
X93360606Y-87683704D02*
X93186957Y-88668511D01*
X92952479Y-88627167D01*
X92820062Y-88555464D01*
X92742808Y-88445135D01*
X92712451Y-88343075D01*
X92698631Y-88147223D01*
X92723438Y-88006537D01*
X92803409Y-87827223D01*
X92866843Y-87741701D01*
X92977172Y-87664448D01*
X93126128Y-87642359D01*
X93360606Y-87683704D01*
X91859946Y-87419097D02*
X92422693Y-87518325D01*
X92141320Y-87468711D02*
X91967672Y-88453519D01*
X92086270Y-88329370D01*
X92196599Y-88252116D01*
X92298659Y-88221759D01*
X90842177Y-88255063D02*
X91029760Y-88288139D01*
X91131820Y-88257782D01*
X91186984Y-88219155D01*
X91305582Y-88095006D01*
X91385554Y-87915693D01*
X91451705Y-87540528D01*
X91421348Y-87438468D01*
X91382721Y-87383303D01*
X91297199Y-87319869D01*
X91109616Y-87286794D01*
X91007556Y-87317151D01*
X90952392Y-87355778D01*
X90888958Y-87441300D01*
X90847613Y-87675778D01*
X90877971Y-87777838D01*
X90916598Y-87833003D01*
X91002120Y-87896437D01*
X91189702Y-87929512D01*
X91291763Y-87899155D01*
X91346927Y-87860528D01*
X91410361Y-87775006D01*
X88615008Y-87171864D02*
X88441360Y-88156671D01*
X88052261Y-87072636D02*
X88375094Y-87709804D01*
X87878613Y-88057444D02*
X88540588Y-87593924D01*
%TO.C,D22*%
X217017444Y-89071558D02*
X216843795Y-88086751D01*
X217078274Y-88045406D01*
X217227229Y-88067494D01*
X217337558Y-88144748D01*
X217400992Y-88230270D01*
X217480963Y-88409583D01*
X217505770Y-88550270D01*
X217491951Y-88746122D01*
X217461593Y-88848182D01*
X217384340Y-88958511D01*
X217251922Y-89030213D01*
X217017444Y-89071558D01*
X217798246Y-88015163D02*
X217836872Y-87959998D01*
X217922394Y-87896564D01*
X218156872Y-87855220D01*
X218258933Y-87885577D01*
X218314097Y-87924204D01*
X218377531Y-88009726D01*
X218394069Y-88103517D01*
X218371980Y-88252473D01*
X217908460Y-88914448D01*
X218518103Y-88806952D01*
X218736158Y-87849783D02*
X218774784Y-87794619D01*
X218860307Y-87731185D01*
X219094785Y-87689840D01*
X219196845Y-87720198D01*
X219252009Y-87758825D01*
X219315443Y-87844347D01*
X219331981Y-87938138D01*
X219309892Y-88087094D01*
X218846372Y-88749069D01*
X219456015Y-88641572D01*
X214258806Y-89882917D02*
X214085158Y-88898109D01*
X214821553Y-89783690D02*
X214300265Y-89295363D01*
X214647905Y-88798882D02*
X214184385Y-89460857D01*
%TO.C,D30*%
X107655397Y-116318495D02*
X107481748Y-117303302D01*
X107247270Y-117261958D01*
X107114853Y-117190255D01*
X107037599Y-117079926D01*
X107007242Y-116977866D01*
X106993422Y-116782014D01*
X107018229Y-116641328D01*
X107098200Y-116462014D01*
X107161634Y-116376492D01*
X107271963Y-116299239D01*
X107420919Y-116277150D01*
X107655397Y-116318495D01*
X106590732Y-117146192D02*
X105981089Y-117038696D01*
X106375510Y-116721414D01*
X106234823Y-116696607D01*
X106149301Y-116633173D01*
X106110674Y-116578009D01*
X106080317Y-116475948D01*
X106121661Y-116241470D01*
X106185095Y-116155948D01*
X106240259Y-116117322D01*
X106342320Y-116086964D01*
X106623693Y-116136578D01*
X106709216Y-116200011D01*
X106747842Y-116255176D01*
X105371446Y-116931199D02*
X105277655Y-116914661D01*
X105192133Y-116851228D01*
X105153506Y-116796063D01*
X105123148Y-116694003D01*
X105109329Y-116498152D01*
X105150673Y-116263674D01*
X105230645Y-116084360D01*
X105294078Y-115998838D01*
X105349243Y-115960211D01*
X105451303Y-115929854D01*
X105545094Y-115946391D01*
X105630617Y-116009825D01*
X105669243Y-116064990D01*
X105699601Y-116167050D01*
X105713421Y-116362901D01*
X105672076Y-116597379D01*
X105592104Y-116776693D01*
X105528671Y-116862215D01*
X105473506Y-116900842D01*
X105371446Y-116931199D01*
X102909799Y-115806655D02*
X102736151Y-116791462D01*
X102347052Y-115707427D02*
X102669885Y-116344595D01*
X102173404Y-116692235D02*
X102835379Y-116228715D01*
%TO.C,D32*%
X168790656Y-144677582D02*
X168617007Y-143692775D01*
X168851486Y-143651430D01*
X169000441Y-143673518D01*
X169110770Y-143750772D01*
X169174204Y-143836294D01*
X169254175Y-144015607D01*
X169278982Y-144156294D01*
X169265163Y-144352146D01*
X169234805Y-144454206D01*
X169157552Y-144564535D01*
X169025134Y-144636237D01*
X168790656Y-144677582D01*
X169508024Y-143535664D02*
X170117667Y-143428168D01*
X169855549Y-143861215D01*
X169996236Y-143836408D01*
X170098296Y-143866766D01*
X170153461Y-143905393D01*
X170216894Y-143990915D01*
X170258239Y-144225393D01*
X170227882Y-144327453D01*
X170189255Y-144382618D01*
X170103733Y-144446051D01*
X169822359Y-144495665D01*
X169720299Y-144465307D01*
X169665134Y-144426681D01*
X170509370Y-143455807D02*
X170547996Y-143400643D01*
X170633519Y-143337209D01*
X170867997Y-143295864D01*
X170970057Y-143326222D01*
X171025221Y-143364849D01*
X171088655Y-143450371D01*
X171105193Y-143544162D01*
X171083104Y-143693118D01*
X170619584Y-144355093D01*
X171229227Y-144247596D01*
X166032018Y-145488941D02*
X165858370Y-144504133D01*
X166594765Y-145389714D02*
X166073477Y-144901387D01*
X166421117Y-144404906D02*
X165957597Y-145066881D01*
%TO.C,D49*%
X243518747Y-129663335D02*
X243345098Y-128678528D01*
X243579577Y-128637183D01*
X243728532Y-128659271D01*
X243838861Y-128736525D01*
X243902295Y-128822047D01*
X243982266Y-129001360D01*
X244007073Y-129142047D01*
X243993254Y-129337899D01*
X243962896Y-129439959D01*
X243885643Y-129550288D01*
X243753225Y-129621990D01*
X243518747Y-129663335D01*
X244809849Y-128758728D02*
X244925615Y-129415266D01*
X244509220Y-128424908D02*
X244398776Y-129169687D01*
X245008419Y-129062190D01*
X245488362Y-129316039D02*
X245675945Y-129282963D01*
X245761467Y-129219530D01*
X245800093Y-129164365D01*
X245869078Y-129007140D01*
X245882898Y-128811289D01*
X245816746Y-128436124D01*
X245753312Y-128350602D01*
X245698148Y-128311975D01*
X245596088Y-128281617D01*
X245408505Y-128314693D01*
X245322983Y-128378127D01*
X245284356Y-128433291D01*
X245253999Y-128535352D01*
X245295343Y-128769830D01*
X245358777Y-128855352D01*
X245413942Y-128893978D01*
X245516002Y-128924336D01*
X245703584Y-128891260D01*
X245789106Y-128827827D01*
X245827733Y-128772662D01*
X245858091Y-128670602D01*
X240760109Y-130474694D02*
X240586461Y-129489886D01*
X241322856Y-130375467D02*
X240801568Y-129887140D01*
X241149208Y-129390659D02*
X240685688Y-130052634D01*
%TO.C,D55*%
X83436613Y-143965466D02*
X83262964Y-144950273D01*
X83028486Y-144908929D01*
X82896069Y-144837226D01*
X82818815Y-144726897D01*
X82788458Y-144624837D01*
X82774638Y-144428985D01*
X82799445Y-144288299D01*
X82879416Y-144108985D01*
X82942850Y-144023463D01*
X83053179Y-143946210D01*
X83202135Y-143924121D01*
X83436613Y-143965466D01*
X81809201Y-144693936D02*
X82278157Y-144776625D01*
X82407742Y-144315938D01*
X82352577Y-144354565D01*
X82250517Y-144384923D01*
X82016039Y-144343578D01*
X81930517Y-144280144D01*
X81891890Y-144224980D01*
X81861533Y-144122919D01*
X81902877Y-143888441D01*
X81966311Y-143802919D01*
X82021475Y-143764293D01*
X82123536Y-143733935D01*
X82358014Y-143775280D01*
X82443536Y-143838713D01*
X82482163Y-143893878D01*
X80871288Y-144528556D02*
X81340245Y-144611246D01*
X81469830Y-144150559D01*
X81414665Y-144189186D01*
X81312605Y-144219543D01*
X81078127Y-144178199D01*
X80992605Y-144114765D01*
X80953978Y-144059600D01*
X80923620Y-143957540D01*
X80964965Y-143723062D01*
X81028399Y-143637540D01*
X81083563Y-143598913D01*
X81185623Y-143568556D01*
X81420102Y-143609900D01*
X81505624Y-143673334D01*
X81544250Y-143728499D01*
X78691015Y-143453626D02*
X78517367Y-144438433D01*
X78128268Y-143354398D02*
X78451101Y-143991566D01*
X77954620Y-144339206D02*
X78616595Y-143875686D01*
%TO.C,D47*%
X205997571Y-136279330D02*
X205823922Y-135294523D01*
X206058401Y-135253178D01*
X206207356Y-135275266D01*
X206317685Y-135352520D01*
X206381119Y-135438042D01*
X206461090Y-135617355D01*
X206485897Y-135758042D01*
X206472078Y-135953894D01*
X206441720Y-136055954D01*
X206364467Y-136166283D01*
X206232049Y-136237985D01*
X205997571Y-136279330D01*
X207288673Y-135374723D02*
X207404439Y-136031261D01*
X206988044Y-135040903D02*
X206877600Y-135785682D01*
X207487243Y-135678185D01*
X207652851Y-134972033D02*
X208309390Y-134856268D01*
X208060977Y-135915496D01*
X203238933Y-137090689D02*
X203065285Y-136105881D01*
X203801680Y-136991462D02*
X203280392Y-136503135D01*
X203628032Y-136006654D02*
X203164512Y-136668629D01*
%TO.C,D45*%
X138229777Y-162331724D02*
X138056128Y-163316531D01*
X137821650Y-163275187D01*
X137689233Y-163203484D01*
X137611979Y-163093155D01*
X137581622Y-162991095D01*
X137567802Y-162795243D01*
X137592609Y-162654557D01*
X137672580Y-162475243D01*
X137736014Y-162389721D01*
X137846343Y-162312468D01*
X137995299Y-162290379D01*
X138229777Y-162331724D01*
X136707143Y-162740193D02*
X136822908Y-162083655D01*
X136875469Y-163156703D02*
X137233982Y-162494614D01*
X136624339Y-162387117D01*
X135664452Y-162894814D02*
X136133409Y-162977504D01*
X136262994Y-162516817D01*
X136207829Y-162555444D01*
X136105769Y-162585801D01*
X135871291Y-162544457D01*
X135785769Y-162481023D01*
X135747142Y-162425858D01*
X135716784Y-162323798D01*
X135758129Y-162089320D01*
X135821563Y-162003798D01*
X135876727Y-161965171D01*
X135978787Y-161934814D01*
X136213266Y-161976158D01*
X136298788Y-162039592D01*
X136337414Y-162094757D01*
X133484179Y-161819884D02*
X133310531Y-162804691D01*
X132921432Y-161720656D02*
X133244265Y-162357824D01*
X132747784Y-162705464D02*
X133409759Y-162241944D01*
%TO.C,D43*%
X104347399Y-135079083D02*
X104173750Y-136063890D01*
X103939272Y-136022546D01*
X103806855Y-135950843D01*
X103729601Y-135840514D01*
X103699244Y-135738454D01*
X103685424Y-135542602D01*
X103710231Y-135401916D01*
X103790202Y-135222602D01*
X103853636Y-135137080D01*
X103963965Y-135059827D01*
X104112921Y-135037738D01*
X104347399Y-135079083D01*
X102824765Y-135487552D02*
X102940530Y-134831014D01*
X102993091Y-135904062D02*
X103351604Y-135241973D01*
X102741961Y-135134476D01*
X102344822Y-135741401D02*
X101735179Y-135633905D01*
X102129600Y-135316622D01*
X101988913Y-135291816D01*
X101903391Y-135228382D01*
X101864764Y-135173217D01*
X101834406Y-135071157D01*
X101875751Y-134836679D01*
X101939185Y-134751157D01*
X101994349Y-134712530D01*
X102096409Y-134682173D01*
X102377783Y-134731786D01*
X102463305Y-134795220D01*
X102501932Y-134850384D01*
X99601801Y-134567243D02*
X99428153Y-135552050D01*
X99039054Y-134468015D02*
X99361887Y-135105183D01*
X98865406Y-135452823D02*
X99527381Y-134989303D01*
%TO.C,D23*%
X236935831Y-92329766D02*
X236762182Y-91344959D01*
X236996661Y-91303614D01*
X237145616Y-91325702D01*
X237255945Y-91402956D01*
X237319379Y-91488478D01*
X237399350Y-91667791D01*
X237424157Y-91808478D01*
X237410338Y-92004330D01*
X237379980Y-92106390D01*
X237302727Y-92216719D01*
X237170309Y-92288421D01*
X236935831Y-92329766D01*
X237716633Y-91273371D02*
X237755259Y-91218206D01*
X237840781Y-91154772D01*
X238075259Y-91113428D01*
X238177320Y-91143785D01*
X238232484Y-91182412D01*
X238295918Y-91267934D01*
X238312456Y-91361725D01*
X238290367Y-91510681D01*
X237826847Y-92172656D01*
X238436490Y-92065160D01*
X238591111Y-91022469D02*
X239200754Y-90914973D01*
X238938636Y-91348020D01*
X239079323Y-91323213D01*
X239181383Y-91353571D01*
X239236548Y-91392198D01*
X239299982Y-91477720D01*
X239341326Y-91712198D01*
X239310969Y-91814258D01*
X239272342Y-91869423D01*
X239186820Y-91932856D01*
X238905446Y-91982470D01*
X238803386Y-91952112D01*
X238748221Y-91913486D01*
X234177193Y-93141125D02*
X234003545Y-92156317D01*
X234739940Y-93041898D02*
X234218652Y-92553571D01*
X234566292Y-92057090D02*
X234102772Y-92719065D01*
%TO.C,D18*%
X128566183Y-107432111D02*
X128392534Y-108416918D01*
X128158056Y-108375574D01*
X128025639Y-108303871D01*
X127948385Y-108193542D01*
X127918028Y-108091482D01*
X127904208Y-107895630D01*
X127929015Y-107754944D01*
X128008986Y-107575630D01*
X128072420Y-107490108D01*
X128182749Y-107412855D01*
X128331705Y-107390766D01*
X128566183Y-107432111D01*
X127065523Y-107167504D02*
X127628270Y-107266732D01*
X127346897Y-107217118D02*
X127173249Y-108201926D01*
X127291847Y-108077777D01*
X127402176Y-108000523D01*
X127504236Y-107970166D01*
X126403548Y-107631024D02*
X126489071Y-107694457D01*
X126527697Y-107749622D01*
X126558055Y-107851682D01*
X126549786Y-107898578D01*
X126486352Y-107984100D01*
X126431188Y-108022727D01*
X126329128Y-108053084D01*
X126141545Y-108020008D01*
X126056023Y-107956575D01*
X126017396Y-107901410D01*
X125987039Y-107799350D01*
X125995308Y-107752454D01*
X126058741Y-107666932D01*
X126113906Y-107628306D01*
X126215966Y-107597948D01*
X126403548Y-107631024D01*
X126505609Y-107600666D01*
X126560773Y-107562039D01*
X126624207Y-107476517D01*
X126657282Y-107288935D01*
X126626925Y-107186875D01*
X126588298Y-107131710D01*
X126502776Y-107068276D01*
X126315193Y-107035201D01*
X126213133Y-107065558D01*
X126157969Y-107104185D01*
X126094535Y-107189707D01*
X126061459Y-107377290D01*
X126091817Y-107479350D01*
X126130444Y-107534514D01*
X126215966Y-107597948D01*
X123820585Y-106920271D02*
X123646937Y-107905078D01*
X123257838Y-106821043D02*
X123580671Y-107458211D01*
X123084190Y-107805851D02*
X123746165Y-107342331D01*
%TO.C,D44*%
X121950188Y-144953286D02*
X121776539Y-145938093D01*
X121542061Y-145896749D01*
X121409644Y-145825046D01*
X121332390Y-145714717D01*
X121302033Y-145612657D01*
X121288213Y-145416805D01*
X121313020Y-145276119D01*
X121392991Y-145096805D01*
X121456425Y-145011283D01*
X121566754Y-144934030D01*
X121715710Y-144911941D01*
X121950188Y-144953286D01*
X120427554Y-145361755D02*
X120543319Y-144705217D01*
X120595880Y-145778265D02*
X120954393Y-145116176D01*
X120344750Y-145008679D01*
X119489642Y-145196376D02*
X119605407Y-144539838D01*
X119657968Y-145612886D02*
X120016481Y-144950797D01*
X119406838Y-144843300D01*
X117204590Y-144441446D02*
X117030942Y-145426253D01*
X116641843Y-144342218D02*
X116964676Y-144979386D01*
X116468195Y-145327026D02*
X117130170Y-144863506D01*
%TO.C,D42*%
X86744611Y-125204879D02*
X86570962Y-126189686D01*
X86336484Y-126148342D01*
X86204067Y-126076639D01*
X86126813Y-125966310D01*
X86096456Y-125864250D01*
X86082636Y-125668398D01*
X86107443Y-125527712D01*
X86187414Y-125348398D01*
X86250848Y-125262876D01*
X86361177Y-125185623D01*
X86510133Y-125163534D01*
X86744611Y-125204879D01*
X85221977Y-125613348D02*
X85337742Y-124956810D01*
X85390303Y-126029858D02*
X85748816Y-125367769D01*
X85139173Y-125260272D01*
X84711676Y-125765137D02*
X84656511Y-125803763D01*
X84554451Y-125834121D01*
X84319973Y-125792776D01*
X84234451Y-125729343D01*
X84195824Y-125674178D01*
X84165467Y-125572118D01*
X84182005Y-125478327D01*
X84253707Y-125345909D01*
X84915682Y-124882389D01*
X84306039Y-124774893D01*
X81999013Y-124693039D02*
X81825365Y-125677846D01*
X81436266Y-124593811D02*
X81759099Y-125230979D01*
X81262618Y-125578619D02*
X81924593Y-125115099D01*
%TO.C,D33*%
X185086785Y-127392947D02*
X184913136Y-126408140D01*
X185147615Y-126366795D01*
X185296570Y-126388883D01*
X185406899Y-126466137D01*
X185470333Y-126551659D01*
X185550304Y-126730972D01*
X185575111Y-126871659D01*
X185561292Y-127067511D01*
X185530934Y-127169571D01*
X185453681Y-127279900D01*
X185321263Y-127351602D01*
X185086785Y-127392947D01*
X185804153Y-126251029D02*
X186413796Y-126143533D01*
X186151678Y-126576580D01*
X186292365Y-126551773D01*
X186394425Y-126582131D01*
X186449590Y-126620758D01*
X186513023Y-126706280D01*
X186554368Y-126940758D01*
X186524011Y-127042818D01*
X186485384Y-127097983D01*
X186399862Y-127161416D01*
X186118488Y-127211030D01*
X186016428Y-127180672D01*
X185961263Y-127142046D01*
X186742065Y-126085650D02*
X187351708Y-125978154D01*
X187089590Y-126411201D01*
X187230277Y-126386394D01*
X187332337Y-126416752D01*
X187387502Y-126455379D01*
X187450936Y-126540901D01*
X187492280Y-126775379D01*
X187461923Y-126877439D01*
X187423296Y-126932604D01*
X187337774Y-126996037D01*
X187056400Y-127045651D01*
X186954340Y-127015293D01*
X186899175Y-126976667D01*
X182328147Y-128204306D02*
X182154499Y-127219498D01*
X182890894Y-128105079D02*
X182369606Y-127616752D01*
X182717246Y-127120271D02*
X182253726Y-127782246D01*
%TO.C,D11*%
X253248501Y-75138933D02*
X253074852Y-74154126D01*
X253309331Y-74112781D01*
X253458286Y-74134869D01*
X253568615Y-74212123D01*
X253632049Y-74297645D01*
X253712020Y-74476958D01*
X253736827Y-74617645D01*
X253723008Y-74813497D01*
X253692650Y-74915557D01*
X253615397Y-75025886D01*
X253482979Y-75097588D01*
X253248501Y-75138933D01*
X254749160Y-74874327D02*
X254186413Y-74973554D01*
X254467786Y-74923940D02*
X254294138Y-73939133D01*
X254225154Y-74096357D01*
X254147901Y-74206686D01*
X254062378Y-74270120D01*
X255687072Y-74708947D02*
X255124325Y-74808175D01*
X255405699Y-74758561D02*
X255232050Y-73773753D01*
X255163066Y-73930978D01*
X255085813Y-74041307D01*
X255000291Y-74104741D01*
X250489863Y-75950292D02*
X250316215Y-74965484D01*
X251052610Y-75851065D02*
X250531322Y-75362738D01*
X250878962Y-74866257D02*
X250415442Y-75528232D01*
%TO.C,D24*%
X256523418Y-93711915D02*
X256349769Y-92727108D01*
X256584248Y-92685763D01*
X256733203Y-92707851D01*
X256843532Y-92785105D01*
X256906966Y-92870627D01*
X256986937Y-93049940D01*
X257011744Y-93190627D01*
X256997925Y-93386479D01*
X256967567Y-93488539D01*
X256890314Y-93598868D01*
X256757896Y-93670570D01*
X256523418Y-93711915D01*
X257304220Y-92655520D02*
X257342846Y-92600355D01*
X257428368Y-92536921D01*
X257662846Y-92495577D01*
X257764907Y-92525934D01*
X257820071Y-92564561D01*
X257883505Y-92650083D01*
X257900043Y-92743874D01*
X257877954Y-92892830D01*
X257414434Y-93554805D01*
X258024077Y-93447309D01*
X258752433Y-92641929D02*
X258868198Y-93298467D01*
X258451803Y-92308109D02*
X258341359Y-93052888D01*
X258951002Y-92945391D01*
X253764780Y-94523274D02*
X253591132Y-93538466D01*
X254327527Y-94424047D02*
X253806239Y-93935720D01*
X254153879Y-93439239D02*
X253690359Y-94101214D01*
%TO.C,D12*%
X272009088Y-71830936D02*
X271835439Y-70846129D01*
X272069918Y-70804784D01*
X272218873Y-70826872D01*
X272329202Y-70904126D01*
X272392636Y-70989648D01*
X272472607Y-71168961D01*
X272497414Y-71309648D01*
X272483595Y-71505500D01*
X272453237Y-71607560D01*
X272375984Y-71717889D01*
X272243566Y-71789591D01*
X272009088Y-71830936D01*
X273509747Y-71566330D02*
X272947000Y-71665557D01*
X273228373Y-71615943D02*
X273054725Y-70631136D01*
X272985741Y-70788360D01*
X272908488Y-70898689D01*
X272822965Y-70962123D01*
X273727802Y-70609161D02*
X273766428Y-70553997D01*
X273851951Y-70490563D01*
X274086429Y-70449218D01*
X274188489Y-70479576D01*
X274243653Y-70518203D01*
X274307087Y-70603725D01*
X274323625Y-70697516D01*
X274301536Y-70846472D01*
X273838016Y-71508447D01*
X274447659Y-71400950D01*
X269250450Y-72642295D02*
X269076802Y-71657487D01*
X269813197Y-72543068D02*
X269291909Y-72054741D01*
X269639549Y-71558260D02*
X269176029Y-72220235D01*
%TO.C,D62*%
X246826745Y-148423922D02*
X246653096Y-147439115D01*
X246887575Y-147397770D01*
X247036530Y-147419858D01*
X247146859Y-147497112D01*
X247210293Y-147582634D01*
X247290264Y-147761947D01*
X247315071Y-147902634D01*
X247301252Y-148098486D01*
X247270894Y-148200546D01*
X247193641Y-148310875D01*
X247061223Y-148382577D01*
X246826745Y-148423922D01*
X248059965Y-147191046D02*
X247872382Y-147224122D01*
X247786860Y-147287555D01*
X247748233Y-147342720D01*
X247679249Y-147499944D01*
X247665429Y-147695796D01*
X247731581Y-148070961D01*
X247795014Y-148156483D01*
X247850179Y-148195110D01*
X247952239Y-148225467D01*
X248139822Y-148192391D01*
X248225344Y-148128958D01*
X248263971Y-148073793D01*
X248294328Y-147971733D01*
X248252983Y-147737255D01*
X248189550Y-147651733D01*
X248134385Y-147613106D01*
X248032325Y-147582748D01*
X247844743Y-147615824D01*
X247759220Y-147679258D01*
X247720594Y-147734422D01*
X247690236Y-147836483D01*
X248545459Y-147202147D02*
X248584085Y-147146983D01*
X248669608Y-147083549D01*
X248904086Y-147042204D01*
X249006146Y-147072562D01*
X249061310Y-147111189D01*
X249124744Y-147196711D01*
X249141282Y-147290502D01*
X249119193Y-147439458D01*
X248655673Y-148101433D01*
X249265316Y-147993936D01*
X244068107Y-149235281D02*
X243894459Y-148250473D01*
X244630854Y-149136054D02*
X244109566Y-148647727D01*
X244457206Y-148151246D02*
X243993686Y-148813221D01*
%TO.C,D3*%
X76281261Y-72098634D02*
X76107612Y-73083442D01*
X75873134Y-73042097D01*
X75740716Y-72970395D01*
X75663463Y-72860065D01*
X75633105Y-72758005D01*
X75619286Y-72562154D01*
X75644093Y-72421467D01*
X75724064Y-72242154D01*
X75787498Y-72156631D01*
X75897827Y-72079378D01*
X76046783Y-72057289D01*
X76281261Y-72098634D01*
X75216596Y-72926332D02*
X74606953Y-72818835D01*
X75001374Y-72501553D01*
X74860687Y-72476746D01*
X74775165Y-72413313D01*
X74736538Y-72358148D01*
X74706180Y-72256088D01*
X74747525Y-72021610D01*
X74810959Y-71936088D01*
X74866123Y-71897461D01*
X74968184Y-71867103D01*
X75249557Y-71916717D01*
X75335079Y-71980151D01*
X75373706Y-72035315D01*
X72004619Y-71669484D02*
X71830971Y-72654291D01*
X71441872Y-71570256D02*
X71764705Y-72207424D01*
X71268224Y-72555064D02*
X71930199Y-72091544D01*
%TO.C,D39*%
X28478049Y-126537238D02*
X28304400Y-127522045D01*
X28069922Y-127480701D01*
X27937505Y-127408998D01*
X27860251Y-127298669D01*
X27829894Y-127196609D01*
X27816074Y-127000757D01*
X27840881Y-126860071D01*
X27920852Y-126680757D01*
X27984286Y-126595235D01*
X28094615Y-126517982D01*
X28243571Y-126495893D01*
X28478049Y-126537238D01*
X27413384Y-127364935D02*
X26803741Y-127257439D01*
X27198162Y-126940157D01*
X27057475Y-126915350D01*
X26971953Y-126851916D01*
X26933326Y-126796752D01*
X26902969Y-126694691D01*
X26944313Y-126460213D01*
X27007747Y-126374691D01*
X27062911Y-126336065D01*
X27164972Y-126305707D01*
X27446345Y-126355321D01*
X27531868Y-126418754D01*
X27570494Y-126473919D01*
X26508433Y-126189941D02*
X26320851Y-126156866D01*
X26218791Y-126187223D01*
X26163626Y-126225850D01*
X26045028Y-126349999D01*
X25965056Y-126529312D01*
X25898905Y-126904477D01*
X25929262Y-127006537D01*
X25967889Y-127061702D01*
X26053411Y-127125135D01*
X26240994Y-127158211D01*
X26343054Y-127127854D01*
X26398218Y-127089227D01*
X26461652Y-127003705D01*
X26502997Y-126769227D01*
X26472639Y-126667166D01*
X26434012Y-126612002D01*
X26348490Y-126548568D01*
X26160908Y-126515492D01*
X26058848Y-126545850D01*
X26003683Y-126584477D01*
X25940250Y-126669999D01*
X23732451Y-126025398D02*
X23558803Y-127010205D01*
X23169704Y-125926170D02*
X23492537Y-126563338D01*
X22996056Y-126910978D02*
X23658031Y-126447458D01*
%TO.C,D46*%
X188394783Y-146153534D02*
X188221134Y-145168727D01*
X188455613Y-145127382D01*
X188604568Y-145149470D01*
X188714897Y-145226724D01*
X188778331Y-145312246D01*
X188858302Y-145491559D01*
X188883109Y-145632246D01*
X188869290Y-145828098D01*
X188838932Y-145930158D01*
X188761679Y-146040487D01*
X188629261Y-146112189D01*
X188394783Y-146153534D01*
X189685885Y-145248927D02*
X189801651Y-145905465D01*
X189385256Y-144915107D02*
X189274812Y-145659886D01*
X189884455Y-145552389D01*
X190565915Y-144755278D02*
X190378332Y-144788354D01*
X190292810Y-144851788D01*
X190254183Y-144906952D01*
X190185199Y-145064177D01*
X190171379Y-145260029D01*
X190237531Y-145635193D01*
X190300965Y-145720716D01*
X190356129Y-145759342D01*
X190458189Y-145789700D01*
X190645772Y-145756624D01*
X190731294Y-145693191D01*
X190769921Y-145638026D01*
X190800278Y-145535966D01*
X190758934Y-145301488D01*
X190695500Y-145215966D01*
X190640335Y-145177339D01*
X190538275Y-145146981D01*
X190350693Y-145180057D01*
X190265171Y-145243491D01*
X190226544Y-145298655D01*
X190196186Y-145400715D01*
X185636145Y-146964893D02*
X185462497Y-145980085D01*
X186198892Y-146865666D02*
X185677604Y-146377339D01*
X186025244Y-145880858D02*
X185561724Y-146542833D01*
%TO.C,D58*%
X172115194Y-163531972D02*
X171941545Y-162547165D01*
X172176024Y-162505820D01*
X172324979Y-162527908D01*
X172435308Y-162605162D01*
X172498742Y-162690684D01*
X172578713Y-162869997D01*
X172603520Y-163010684D01*
X172589701Y-163206536D01*
X172559343Y-163308596D01*
X172482090Y-163418925D01*
X172349672Y-163490627D01*
X172115194Y-163531972D01*
X173395309Y-162290827D02*
X172926353Y-162373516D01*
X172962147Y-162850741D01*
X173000774Y-162795577D01*
X173086296Y-162732143D01*
X173320774Y-162690798D01*
X173422834Y-162721156D01*
X173477999Y-162759783D01*
X173541432Y-162845305D01*
X173582777Y-163079783D01*
X173552420Y-163181843D01*
X173513793Y-163237008D01*
X173428271Y-163300441D01*
X173193793Y-163341786D01*
X173091732Y-163311428D01*
X173036568Y-163272802D01*
X174079373Y-162605391D02*
X173977313Y-162575033D01*
X173922148Y-162536406D01*
X173858715Y-162450884D01*
X173850446Y-162403989D01*
X173880803Y-162301928D01*
X173919430Y-162246764D01*
X174004952Y-162183330D01*
X174192535Y-162150254D01*
X174294595Y-162180612D01*
X174349759Y-162219239D01*
X174413193Y-162304761D01*
X174421462Y-162351657D01*
X174391104Y-162453717D01*
X174352478Y-162508881D01*
X174266955Y-162572315D01*
X174079373Y-162605391D01*
X173993851Y-162668824D01*
X173955224Y-162723989D01*
X173924866Y-162826049D01*
X173957942Y-163013631D01*
X174021376Y-163099154D01*
X174076540Y-163137780D01*
X174178600Y-163168138D01*
X174366183Y-163135062D01*
X174451705Y-163071629D01*
X174490332Y-163016464D01*
X174520689Y-162914404D01*
X174487614Y-162726821D01*
X174424180Y-162641299D01*
X174369015Y-162602673D01*
X174266955Y-162572315D01*
X169356556Y-164343331D02*
X169182908Y-163358523D01*
X169919303Y-164244104D02*
X169398015Y-163755777D01*
X169745655Y-163259296D02*
X169282135Y-163921271D01*
%TO.C,D25*%
X275284006Y-90403918D02*
X275110357Y-89419111D01*
X275344836Y-89377766D01*
X275493791Y-89399854D01*
X275604120Y-89477108D01*
X275667554Y-89562630D01*
X275747525Y-89741943D01*
X275772332Y-89882630D01*
X275758513Y-90078482D01*
X275728155Y-90180542D01*
X275650902Y-90290871D01*
X275518484Y-90362573D01*
X275284006Y-90403918D01*
X276064808Y-89347523D02*
X276103434Y-89292358D01*
X276188956Y-89228924D01*
X276423434Y-89187580D01*
X276525495Y-89217937D01*
X276580659Y-89256564D01*
X276644093Y-89342086D01*
X276660631Y-89435877D01*
X276638542Y-89584833D01*
X276175022Y-90246808D01*
X276784665Y-90139312D01*
X277502033Y-88997394D02*
X277033077Y-89080083D01*
X277068871Y-89557308D01*
X277107498Y-89502144D01*
X277193020Y-89438710D01*
X277427498Y-89397365D01*
X277529558Y-89427723D01*
X277584723Y-89466350D01*
X277648157Y-89551872D01*
X277689501Y-89786350D01*
X277659144Y-89888410D01*
X277620517Y-89943575D01*
X277534995Y-90007008D01*
X277300517Y-90048353D01*
X277198457Y-90017995D01*
X277143292Y-89979369D01*
X272525368Y-91215277D02*
X272351720Y-90230469D01*
X273088115Y-91116050D02*
X272566827Y-90627723D01*
X272914467Y-90131242D02*
X272450947Y-90793217D01*
%TO.C,D26*%
X31786047Y-107776651D02*
X31612398Y-108761458D01*
X31377920Y-108720114D01*
X31245503Y-108648411D01*
X31168249Y-108538082D01*
X31137892Y-108436022D01*
X31124072Y-108240170D01*
X31148879Y-108099484D01*
X31228850Y-107920170D01*
X31292284Y-107834648D01*
X31402613Y-107757395D01*
X31551569Y-107735306D01*
X31786047Y-107776651D01*
X30691024Y-108502288D02*
X30635860Y-108540915D01*
X30533799Y-108571272D01*
X30299321Y-108529928D01*
X30213799Y-108466494D01*
X30175173Y-108411329D01*
X30144815Y-108309269D01*
X30161353Y-108215478D01*
X30233055Y-108083060D01*
X30895030Y-107619540D01*
X30285387Y-107512044D01*
X29267618Y-108348010D02*
X29455201Y-108381086D01*
X29557261Y-108350729D01*
X29612425Y-108312102D01*
X29731023Y-108187953D01*
X29810995Y-108008640D01*
X29877146Y-107633475D01*
X29846789Y-107531415D01*
X29808162Y-107476250D01*
X29722640Y-107412816D01*
X29535057Y-107379741D01*
X29432997Y-107410098D01*
X29377833Y-107448725D01*
X29314399Y-107534247D01*
X29273054Y-107768725D01*
X29303412Y-107870785D01*
X29342039Y-107925950D01*
X29427561Y-107989384D01*
X29615143Y-108022459D01*
X29717204Y-107992102D01*
X29772368Y-107953475D01*
X29835802Y-107867953D01*
X27040449Y-107264811D02*
X26866801Y-108249618D01*
X26477702Y-107165583D02*
X26800535Y-107802751D01*
X26304054Y-108150391D02*
X26966029Y-107686871D01*
%TO.C,D50*%
X263106334Y-131045484D02*
X262932685Y-130060677D01*
X263167164Y-130019332D01*
X263316119Y-130041420D01*
X263426448Y-130118674D01*
X263489882Y-130204196D01*
X263569853Y-130383509D01*
X263594660Y-130524196D01*
X263580841Y-130720048D01*
X263550483Y-130822108D01*
X263473230Y-130932437D01*
X263340812Y-131004139D01*
X263106334Y-131045484D01*
X264386449Y-129804339D02*
X263917493Y-129887028D01*
X263953287Y-130364253D01*
X263991914Y-130309089D01*
X264077436Y-130245655D01*
X264311914Y-130204310D01*
X264413974Y-130234668D01*
X264469139Y-130273295D01*
X264532572Y-130358817D01*
X264573917Y-130593295D01*
X264543560Y-130695355D01*
X264504933Y-130750520D01*
X264419411Y-130813953D01*
X264184933Y-130855298D01*
X264082872Y-130824940D01*
X264027708Y-130786314D01*
X265042988Y-129688573D02*
X265136779Y-129672035D01*
X265238839Y-129702393D01*
X265294004Y-129741020D01*
X265357437Y-129826542D01*
X265437409Y-130005855D01*
X265478754Y-130240333D01*
X265464934Y-130436185D01*
X265434576Y-130538245D01*
X265395949Y-130593410D01*
X265310427Y-130656843D01*
X265216636Y-130673381D01*
X265114576Y-130643023D01*
X265059411Y-130604397D01*
X264995978Y-130518874D01*
X264916006Y-130339561D01*
X264874661Y-130105083D01*
X264888481Y-129909232D01*
X264918839Y-129807171D01*
X264957466Y-129752007D01*
X265042988Y-129688573D01*
X260347696Y-131856843D02*
X260174048Y-130872035D01*
X260910443Y-131757616D02*
X260389155Y-131269289D01*
X260736795Y-130772808D02*
X260273275Y-131434783D01*
%TO.C,D13*%
X35094045Y-89016063D02*
X34920396Y-90000870D01*
X34685918Y-89959526D01*
X34553501Y-89887823D01*
X34476247Y-89777494D01*
X34445890Y-89675434D01*
X34432070Y-89479582D01*
X34456877Y-89338896D01*
X34536848Y-89159582D01*
X34600282Y-89074060D01*
X34710611Y-88996807D01*
X34859567Y-88974718D01*
X35094045Y-89016063D01*
X33593385Y-88751456D02*
X34156132Y-88850684D01*
X33874759Y-88801070D02*
X33701111Y-89785878D01*
X33819709Y-89661729D01*
X33930038Y-89584475D01*
X34032098Y-89554118D01*
X33091468Y-89678381D02*
X32481825Y-89570885D01*
X32876246Y-89253602D01*
X32735559Y-89228796D01*
X32650037Y-89165362D01*
X32611410Y-89110197D01*
X32581052Y-89008137D01*
X32622397Y-88773659D01*
X32685831Y-88688137D01*
X32740995Y-88649510D01*
X32843055Y-88619153D01*
X33124429Y-88668766D01*
X33209951Y-88732200D01*
X33248578Y-88787364D01*
X30348447Y-88504223D02*
X30174799Y-89489030D01*
X29785700Y-88404995D02*
X30108533Y-89042163D01*
X29612052Y-89389803D02*
X30274027Y-88926283D01*
%TO.C,U1*%
X160769333Y-77018357D02*
X160502666Y-77018357D01*
X160502666Y-77437404D02*
X160502666Y-76637404D01*
X160883619Y-76637404D01*
X161531238Y-76637404D02*
X161378857Y-76637404D01*
X161302666Y-76675500D01*
X161264571Y-76713595D01*
X161188380Y-76827880D01*
X161150285Y-76980261D01*
X161150285Y-77285023D01*
X161188380Y-77361214D01*
X161226476Y-77399309D01*
X161302666Y-77437404D01*
X161455047Y-77437404D01*
X161531238Y-77399309D01*
X161569333Y-77361214D01*
X161607428Y-77285023D01*
X161607428Y-77094547D01*
X161569333Y-77018357D01*
X161531238Y-76980261D01*
X161455047Y-76942166D01*
X161302666Y-76942166D01*
X161226476Y-76980261D01*
X161188380Y-77018357D01*
X161150285Y-77094547D01*
X160712190Y-84638357D02*
X160826476Y-84676452D01*
X160864571Y-84714547D01*
X160902666Y-84790738D01*
X160902666Y-84905023D01*
X160864571Y-84981214D01*
X160826476Y-85019309D01*
X160750285Y-85057404D01*
X160445523Y-85057404D01*
X160445523Y-84257404D01*
X160712190Y-84257404D01*
X160788380Y-84295500D01*
X160826476Y-84333595D01*
X160864571Y-84409785D01*
X160864571Y-84485976D01*
X160826476Y-84562166D01*
X160788380Y-84600261D01*
X160712190Y-84638357D01*
X160445523Y-84638357D01*
X161169333Y-84257404D02*
X161664571Y-84257404D01*
X161397904Y-84562166D01*
X161512190Y-84562166D01*
X161588380Y-84600261D01*
X161626476Y-84638357D01*
X161664571Y-84714547D01*
X161664571Y-84905023D01*
X161626476Y-84981214D01*
X161588380Y-85019309D01*
X161512190Y-85057404D01*
X161283619Y-85057404D01*
X161207428Y-85019309D01*
X161169333Y-84981214D01*
X160712190Y-89718357D02*
X160826476Y-89756452D01*
X160864571Y-89794547D01*
X160902666Y-89870738D01*
X160902666Y-89985023D01*
X160864571Y-90061214D01*
X160826476Y-90099309D01*
X160750285Y-90137404D01*
X160445523Y-90137404D01*
X160445523Y-89337404D01*
X160712190Y-89337404D01*
X160788380Y-89375500D01*
X160826476Y-89413595D01*
X160864571Y-89489785D01*
X160864571Y-89565976D01*
X160826476Y-89642166D01*
X160788380Y-89680261D01*
X160712190Y-89718357D01*
X160445523Y-89718357D01*
X161588380Y-89337404D02*
X161436000Y-89337404D01*
X161359809Y-89375500D01*
X161321714Y-89413595D01*
X161245523Y-89527880D01*
X161207428Y-89680261D01*
X161207428Y-89985023D01*
X161245523Y-90061214D01*
X161283619Y-90099309D01*
X161359809Y-90137404D01*
X161512190Y-90137404D01*
X161588380Y-90099309D01*
X161626476Y-90061214D01*
X161664571Y-89985023D01*
X161664571Y-89794547D01*
X161626476Y-89718357D01*
X161588380Y-89680261D01*
X161512190Y-89642166D01*
X161359809Y-89642166D01*
X161283619Y-89680261D01*
X161245523Y-89718357D01*
X161207428Y-89794547D01*
X149504476Y-69055500D02*
X149428285Y-69017404D01*
X149314000Y-69017404D01*
X149199714Y-69055500D01*
X149123523Y-69131690D01*
X149085428Y-69207880D01*
X149047333Y-69360261D01*
X149047333Y-69474547D01*
X149085428Y-69626928D01*
X149123523Y-69703119D01*
X149199714Y-69779309D01*
X149314000Y-69817404D01*
X149390190Y-69817404D01*
X149504476Y-69779309D01*
X149542571Y-69741214D01*
X149542571Y-69474547D01*
X149390190Y-69474547D01*
X149885428Y-69817404D02*
X149885428Y-69017404D01*
X150342571Y-69817404D01*
X150342571Y-69017404D01*
X150723523Y-69817404D02*
X150723523Y-69017404D01*
X150914000Y-69017404D01*
X151028285Y-69055500D01*
X151104476Y-69131690D01*
X151142571Y-69207880D01*
X151180666Y-69360261D01*
X151180666Y-69474547D01*
X151142571Y-69626928D01*
X151104476Y-69703119D01*
X151028285Y-69779309D01*
X150914000Y-69817404D01*
X150723523Y-69817404D01*
X160769333Y-79558357D02*
X160502666Y-79558357D01*
X160502666Y-79977404D02*
X160502666Y-79177404D01*
X160883619Y-79177404D01*
X161112190Y-79177404D02*
X161645523Y-79177404D01*
X161302666Y-79977404D01*
X149790190Y-89718357D02*
X149904476Y-89756452D01*
X149942571Y-89794547D01*
X149980666Y-89870738D01*
X149980666Y-89985023D01*
X149942571Y-90061214D01*
X149904476Y-90099309D01*
X149828285Y-90137404D01*
X149523523Y-90137404D01*
X149523523Y-89337404D01*
X149790190Y-89337404D01*
X149866380Y-89375500D01*
X149904476Y-89413595D01*
X149942571Y-89489785D01*
X149942571Y-89565976D01*
X149904476Y-89642166D01*
X149866380Y-89680261D01*
X149790190Y-89718357D01*
X149523523Y-89718357D01*
X150704476Y-89337404D02*
X150323523Y-89337404D01*
X150285428Y-89718357D01*
X150323523Y-89680261D01*
X150399714Y-89642166D01*
X150590190Y-89642166D01*
X150666380Y-89680261D01*
X150704476Y-89718357D01*
X150742571Y-89794547D01*
X150742571Y-89985023D01*
X150704476Y-90061214D01*
X150666380Y-90099309D01*
X150590190Y-90137404D01*
X150399714Y-90137404D01*
X150323523Y-90099309D01*
X150285428Y-90061214D01*
X149812651Y-61397404D02*
X150269794Y-61397404D01*
X150041223Y-62197404D02*
X150041223Y-61397404D01*
X150460270Y-61397404D02*
X150993604Y-62197404D01*
X150993604Y-61397404D02*
X150460270Y-62197404D01*
X151450747Y-61397404D02*
X151526937Y-61397404D01*
X151603128Y-61435500D01*
X151641223Y-61473595D01*
X151679318Y-61549785D01*
X151717413Y-61702166D01*
X151717413Y-61892642D01*
X151679318Y-62045023D01*
X151641223Y-62121214D01*
X151603128Y-62159309D01*
X151526937Y-62197404D01*
X151450747Y-62197404D01*
X151374556Y-62159309D01*
X151336461Y-62121214D01*
X151298366Y-62045023D01*
X151260270Y-61892642D01*
X151260270Y-61702166D01*
X151298366Y-61549785D01*
X151336461Y-61473595D01*
X151374556Y-61435500D01*
X151450747Y-61397404D01*
X152631699Y-61359309D02*
X151945985Y-62387880D01*
X152898366Y-62197404D02*
X152898366Y-61397404D01*
X153088842Y-61397404D01*
X153203128Y-61435500D01*
X153279318Y-61511690D01*
X153317413Y-61587880D01*
X153355508Y-61740261D01*
X153355508Y-61854547D01*
X153317413Y-62006928D01*
X153279318Y-62083119D01*
X153203128Y-62159309D01*
X153088842Y-62197404D01*
X152898366Y-62197404D01*
X153622175Y-61397404D02*
X154117413Y-61397404D01*
X153850747Y-61702166D01*
X153965032Y-61702166D01*
X154041223Y-61740261D01*
X154079318Y-61778357D01*
X154117413Y-61854547D01*
X154117413Y-62045023D01*
X154079318Y-62121214D01*
X154041223Y-62159309D01*
X153965032Y-62197404D01*
X153736461Y-62197404D01*
X153660270Y-62159309D01*
X153622175Y-62121214D01*
X160483619Y-62197404D02*
X160216952Y-61816452D01*
X160026476Y-62197404D02*
X160026476Y-61397404D01*
X160331238Y-61397404D01*
X160407428Y-61435500D01*
X160445523Y-61473595D01*
X160483619Y-61549785D01*
X160483619Y-61664071D01*
X160445523Y-61740261D01*
X160407428Y-61778357D01*
X160331238Y-61816452D01*
X160026476Y-61816452D01*
X160788380Y-61968833D02*
X161169333Y-61968833D01*
X160712190Y-62197404D02*
X160978857Y-61397404D01*
X161245523Y-62197404D01*
X161436000Y-61397404D02*
X161626476Y-62197404D01*
X161778857Y-61625976D01*
X161931238Y-62197404D01*
X162121714Y-61397404D01*
X160769333Y-74478357D02*
X160502666Y-74478357D01*
X160502666Y-74897404D02*
X160502666Y-74097404D01*
X160883619Y-74097404D01*
X161569333Y-74097404D02*
X161188380Y-74097404D01*
X161150285Y-74478357D01*
X161188380Y-74440261D01*
X161264571Y-74402166D01*
X161455047Y-74402166D01*
X161531238Y-74440261D01*
X161569333Y-74478357D01*
X161607428Y-74554547D01*
X161607428Y-74745023D01*
X161569333Y-74821214D01*
X161531238Y-74859309D01*
X161455047Y-74897404D01*
X161264571Y-74897404D01*
X161188380Y-74859309D01*
X161150285Y-74821214D01*
X149523523Y-74897404D02*
X149523523Y-74097404D01*
X149714000Y-74097404D01*
X149828285Y-74135500D01*
X149904476Y-74211690D01*
X149942571Y-74287880D01*
X149980666Y-74440261D01*
X149980666Y-74554547D01*
X149942571Y-74706928D01*
X149904476Y-74783119D01*
X149828285Y-74859309D01*
X149714000Y-74897404D01*
X149523523Y-74897404D01*
X150475904Y-74097404D02*
X150552095Y-74097404D01*
X150628285Y-74135500D01*
X150666380Y-74173595D01*
X150704476Y-74249785D01*
X150742571Y-74402166D01*
X150742571Y-74592642D01*
X150704476Y-74745023D01*
X150666380Y-74821214D01*
X150628285Y-74859309D01*
X150552095Y-74897404D01*
X150475904Y-74897404D01*
X150399714Y-74859309D01*
X150361619Y-74821214D01*
X150323523Y-74745023D01*
X150285428Y-74592642D01*
X150285428Y-74402166D01*
X150323523Y-74249785D01*
X150361619Y-74173595D01*
X150399714Y-74135500D01*
X150475904Y-74097404D01*
X149523523Y-72357404D02*
X149523523Y-71557404D01*
X149714000Y-71557404D01*
X149828285Y-71595500D01*
X149904476Y-71671690D01*
X149942571Y-71747880D01*
X149980666Y-71900261D01*
X149980666Y-72014547D01*
X149942571Y-72166928D01*
X149904476Y-72243119D01*
X149828285Y-72319309D01*
X149714000Y-72357404D01*
X149523523Y-72357404D01*
X150742571Y-72357404D02*
X150285428Y-72357404D01*
X150514000Y-72357404D02*
X150514000Y-71557404D01*
X150437809Y-71671690D01*
X150361619Y-71747880D01*
X150285428Y-71785976D01*
X160769333Y-71938357D02*
X160502666Y-71938357D01*
X160502666Y-72357404D02*
X160502666Y-71557404D01*
X160883619Y-71557404D01*
X161531238Y-71824071D02*
X161531238Y-72357404D01*
X161340761Y-71519309D02*
X161150285Y-72090738D01*
X161645523Y-72090738D01*
X149504476Y-66515500D02*
X149428285Y-66477404D01*
X149314000Y-66477404D01*
X149199714Y-66515500D01*
X149123523Y-66591690D01*
X149085428Y-66667880D01*
X149047333Y-66820261D01*
X149047333Y-66934547D01*
X149085428Y-67086928D01*
X149123523Y-67163119D01*
X149199714Y-67239309D01*
X149314000Y-67277404D01*
X149390190Y-67277404D01*
X149504476Y-67239309D01*
X149542571Y-67201214D01*
X149542571Y-66934547D01*
X149390190Y-66934547D01*
X149885428Y-67277404D02*
X149885428Y-66477404D01*
X150342571Y-67277404D01*
X150342571Y-66477404D01*
X150723523Y-67277404D02*
X150723523Y-66477404D01*
X150914000Y-66477404D01*
X151028285Y-66515500D01*
X151104476Y-66591690D01*
X151142571Y-66667880D01*
X151180666Y-66820261D01*
X151180666Y-66934547D01*
X151142571Y-67086928D01*
X151104476Y-67163119D01*
X151028285Y-67239309D01*
X150914000Y-67277404D01*
X150723523Y-67277404D01*
X160712190Y-87178357D02*
X160826476Y-87216452D01*
X160864571Y-87254547D01*
X160902666Y-87330738D01*
X160902666Y-87445023D01*
X160864571Y-87521214D01*
X160826476Y-87559309D01*
X160750285Y-87597404D01*
X160445523Y-87597404D01*
X160445523Y-86797404D01*
X160712190Y-86797404D01*
X160788380Y-86835500D01*
X160826476Y-86873595D01*
X160864571Y-86949785D01*
X160864571Y-87025976D01*
X160826476Y-87102166D01*
X160788380Y-87140261D01*
X160712190Y-87178357D01*
X160445523Y-87178357D01*
X161207428Y-86873595D02*
X161245523Y-86835500D01*
X161321714Y-86797404D01*
X161512190Y-86797404D01*
X161588380Y-86835500D01*
X161626476Y-86873595D01*
X161664571Y-86949785D01*
X161664571Y-87025976D01*
X161626476Y-87140261D01*
X161169333Y-87597404D01*
X161664571Y-87597404D01*
X149523523Y-77437404D02*
X149523523Y-76637404D01*
X149714000Y-76637404D01*
X149828285Y-76675500D01*
X149904476Y-76751690D01*
X149942571Y-76827880D01*
X149980666Y-76980261D01*
X149980666Y-77094547D01*
X149942571Y-77246928D01*
X149904476Y-77323119D01*
X149828285Y-77399309D01*
X149714000Y-77437404D01*
X149523523Y-77437404D01*
X150666380Y-76904071D02*
X150666380Y-77437404D01*
X150475904Y-76599309D02*
X150285428Y-77170738D01*
X150780666Y-77170738D01*
X149523523Y-64737404D02*
X149523523Y-63937404D01*
X149714000Y-63937404D01*
X149828285Y-63975500D01*
X149904476Y-64051690D01*
X149942571Y-64127880D01*
X149980666Y-64280261D01*
X149980666Y-64394547D01*
X149942571Y-64546928D01*
X149904476Y-64623119D01*
X149828285Y-64699309D01*
X149714000Y-64737404D01*
X149523523Y-64737404D01*
X150285428Y-64013595D02*
X150323523Y-63975500D01*
X150399714Y-63937404D01*
X150590190Y-63937404D01*
X150666380Y-63975500D01*
X150704476Y-64013595D01*
X150742571Y-64089785D01*
X150742571Y-64165976D01*
X150704476Y-64280261D01*
X150247333Y-64737404D01*
X150742571Y-64737404D01*
X149790190Y-87178357D02*
X149904476Y-87216452D01*
X149942571Y-87254547D01*
X149980666Y-87330738D01*
X149980666Y-87445023D01*
X149942571Y-87521214D01*
X149904476Y-87559309D01*
X149828285Y-87597404D01*
X149523523Y-87597404D01*
X149523523Y-86797404D01*
X149790190Y-86797404D01*
X149866380Y-86835500D01*
X149904476Y-86873595D01*
X149942571Y-86949785D01*
X149942571Y-87025976D01*
X149904476Y-87102166D01*
X149866380Y-87140261D01*
X149790190Y-87178357D01*
X149523523Y-87178357D01*
X150666380Y-87064071D02*
X150666380Y-87597404D01*
X150475904Y-86759309D02*
X150285428Y-87330738D01*
X150780666Y-87330738D01*
X160426476Y-63975500D02*
X160350285Y-63937404D01*
X160236000Y-63937404D01*
X160121714Y-63975500D01*
X160045523Y-64051690D01*
X160007428Y-64127880D01*
X159969333Y-64280261D01*
X159969333Y-64394547D01*
X160007428Y-64546928D01*
X160045523Y-64623119D01*
X160121714Y-64699309D01*
X160236000Y-64737404D01*
X160312190Y-64737404D01*
X160426476Y-64699309D01*
X160464571Y-64661214D01*
X160464571Y-64394547D01*
X160312190Y-64394547D01*
X160807428Y-64737404D02*
X160807428Y-63937404D01*
X161264571Y-64737404D01*
X161264571Y-63937404D01*
X161645523Y-64737404D02*
X161645523Y-63937404D01*
X161836000Y-63937404D01*
X161950285Y-63975500D01*
X162026476Y-64051690D01*
X162064571Y-64127880D01*
X162102666Y-64280261D01*
X162102666Y-64394547D01*
X162064571Y-64546928D01*
X162026476Y-64623119D01*
X161950285Y-64699309D01*
X161836000Y-64737404D01*
X161645523Y-64737404D01*
X159969333Y-69017404D02*
X160236000Y-69817404D01*
X160502666Y-69017404D01*
X161226476Y-69741214D02*
X161188380Y-69779309D01*
X161074095Y-69817404D01*
X160997904Y-69817404D01*
X160883619Y-69779309D01*
X160807428Y-69703119D01*
X160769333Y-69626928D01*
X160731238Y-69474547D01*
X160731238Y-69360261D01*
X160769333Y-69207880D01*
X160807428Y-69131690D01*
X160883619Y-69055500D01*
X160997904Y-69017404D01*
X161074095Y-69017404D01*
X161188380Y-69055500D01*
X161226476Y-69093595D01*
X162026476Y-69741214D02*
X161988380Y-69779309D01*
X161874095Y-69817404D01*
X161797904Y-69817404D01*
X161683619Y-69779309D01*
X161607428Y-69703119D01*
X161569333Y-69626928D01*
X161531238Y-69474547D01*
X161531238Y-69360261D01*
X161569333Y-69207880D01*
X161607428Y-69131690D01*
X161683619Y-69055500D01*
X161797904Y-69017404D01*
X161874095Y-69017404D01*
X161988380Y-69055500D01*
X162026476Y-69093595D01*
X149523523Y-82517404D02*
X149523523Y-81717404D01*
X149714000Y-81717404D01*
X149828285Y-81755500D01*
X149904476Y-81831690D01*
X149942571Y-81907880D01*
X149980666Y-82060261D01*
X149980666Y-82174547D01*
X149942571Y-82326928D01*
X149904476Y-82403119D01*
X149828285Y-82479309D01*
X149714000Y-82517404D01*
X149523523Y-82517404D01*
X150247333Y-81717404D02*
X150780666Y-81717404D01*
X150437809Y-82517404D01*
X160774786Y-67209309D02*
X160889072Y-67247404D01*
X161079548Y-67247404D01*
X161155739Y-67209309D01*
X161193834Y-67171214D01*
X161231929Y-67095023D01*
X161231929Y-67018833D01*
X161193834Y-66942642D01*
X161155739Y-66904547D01*
X161079548Y-66866452D01*
X160927167Y-66828357D01*
X160850977Y-66790261D01*
X160812881Y-66752166D01*
X160774786Y-66675976D01*
X160774786Y-66599785D01*
X160812881Y-66523595D01*
X160850977Y-66485500D01*
X160927167Y-66447404D01*
X161117643Y-66447404D01*
X161231929Y-66485500D01*
X161460500Y-66447404D02*
X161917643Y-66447404D01*
X161689072Y-67247404D02*
X161689072Y-66447404D01*
X149980666Y-79901214D02*
X149942571Y-79939309D01*
X149828285Y-79977404D01*
X149752095Y-79977404D01*
X149637809Y-79939309D01*
X149561619Y-79863119D01*
X149523523Y-79786928D01*
X149485428Y-79634547D01*
X149485428Y-79520261D01*
X149523523Y-79367880D01*
X149561619Y-79291690D01*
X149637809Y-79215500D01*
X149752095Y-79177404D01*
X149828285Y-79177404D01*
X149942571Y-79215500D01*
X149980666Y-79253595D01*
X150666380Y-79177404D02*
X150514000Y-79177404D01*
X150437809Y-79215500D01*
X150399714Y-79253595D01*
X150323523Y-79367880D01*
X150285428Y-79520261D01*
X150285428Y-79825023D01*
X150323523Y-79901214D01*
X150361619Y-79939309D01*
X150437809Y-79977404D01*
X150590190Y-79977404D01*
X150666380Y-79939309D01*
X150704476Y-79901214D01*
X150742571Y-79825023D01*
X150742571Y-79634547D01*
X150704476Y-79558357D01*
X150666380Y-79520261D01*
X150590190Y-79482166D01*
X150437809Y-79482166D01*
X150361619Y-79520261D01*
X150323523Y-79558357D01*
X150285428Y-79634547D01*
X149561619Y-84638357D02*
X149828285Y-84638357D01*
X149942571Y-85057404D02*
X149561619Y-85057404D01*
X149561619Y-84257404D01*
X149942571Y-84257404D01*
X150628285Y-84257404D02*
X150475904Y-84257404D01*
X150399714Y-84295500D01*
X150361619Y-84333595D01*
X150285428Y-84447880D01*
X150247333Y-84600261D01*
X150247333Y-84905023D01*
X150285428Y-84981214D01*
X150323523Y-85019309D01*
X150399714Y-85057404D01*
X150552095Y-85057404D01*
X150628285Y-85019309D01*
X150666380Y-84981214D01*
X150704476Y-84905023D01*
X150704476Y-84714547D01*
X150666380Y-84638357D01*
X150628285Y-84600261D01*
X150552095Y-84562166D01*
X150399714Y-84562166D01*
X150323523Y-84600261D01*
X150285428Y-84638357D01*
X150247333Y-84714547D01*
X160712190Y-82098357D02*
X160826476Y-82136452D01*
X160864571Y-82174547D01*
X160902666Y-82250738D01*
X160902666Y-82365023D01*
X160864571Y-82441214D01*
X160826476Y-82479309D01*
X160750285Y-82517404D01*
X160445523Y-82517404D01*
X160445523Y-81717404D01*
X160712190Y-81717404D01*
X160788380Y-81755500D01*
X160826476Y-81793595D01*
X160864571Y-81869785D01*
X160864571Y-81945976D01*
X160826476Y-82022166D01*
X160788380Y-82060261D01*
X160712190Y-82098357D01*
X160445523Y-82098357D01*
X161664571Y-82517404D02*
X161207428Y-82517404D01*
X161436000Y-82517404D02*
X161436000Y-81717404D01*
X161359809Y-81831690D01*
X161283619Y-81907880D01*
X161207428Y-81945976D01*
%TO.C,D8*%
X196608694Y-80290091D02*
X196435046Y-79305283D01*
X196669524Y-79263938D01*
X196818479Y-79286027D01*
X196928808Y-79363280D01*
X196992242Y-79448802D01*
X197072213Y-79628116D01*
X197097020Y-79768803D01*
X197083201Y-79964654D01*
X197052843Y-80066714D01*
X196975590Y-80177043D01*
X196843172Y-80248746D01*
X196608694Y-80290091D01*
X197634961Y-79528888D02*
X197532901Y-79498531D01*
X197477736Y-79459904D01*
X197414302Y-79374382D01*
X197406034Y-79327486D01*
X197436391Y-79225426D01*
X197475018Y-79170261D01*
X197560540Y-79106828D01*
X197748123Y-79073752D01*
X197850183Y-79104110D01*
X197905347Y-79142736D01*
X197968781Y-79228259D01*
X197977050Y-79275154D01*
X197946692Y-79377214D01*
X197908065Y-79432379D01*
X197822543Y-79495812D01*
X197634961Y-79528888D01*
X197549439Y-79592322D01*
X197510812Y-79647486D01*
X197480454Y-79749547D01*
X197513530Y-79937129D01*
X197576964Y-80022651D01*
X197632128Y-80061278D01*
X197734188Y-80091636D01*
X197921771Y-80058560D01*
X198007293Y-79995126D01*
X198045920Y-79939962D01*
X198076277Y-79837901D01*
X198043201Y-79650319D01*
X197979768Y-79564797D01*
X197924603Y-79526170D01*
X197822543Y-79495812D01*
X193381100Y-81184139D02*
X193207452Y-80199331D01*
X193943847Y-81084912D02*
X193422559Y-80596585D01*
X193770199Y-80100104D02*
X193306679Y-80762079D01*
%TO.C,D20*%
X181811867Y-108819965D02*
X181638218Y-107835158D01*
X181872697Y-107793813D01*
X182021652Y-107815901D01*
X182131981Y-107893155D01*
X182195415Y-107978677D01*
X182275386Y-108157990D01*
X182300193Y-108298677D01*
X182286374Y-108494529D01*
X182256016Y-108596589D01*
X182178763Y-108706918D01*
X182046345Y-108778620D01*
X181811867Y-108819965D01*
X182592669Y-107763570D02*
X182631295Y-107708405D01*
X182716817Y-107644971D01*
X182951295Y-107603627D01*
X183053356Y-107633984D01*
X183108520Y-107672611D01*
X183171954Y-107758133D01*
X183188492Y-107851924D01*
X183166403Y-108000880D01*
X182702883Y-108662855D01*
X183312526Y-108555359D01*
X183748521Y-107463054D02*
X183842312Y-107446516D01*
X183944372Y-107476874D01*
X183999537Y-107515501D01*
X184062970Y-107601023D01*
X184142942Y-107780336D01*
X184184287Y-108014814D01*
X184170467Y-108210666D01*
X184140109Y-108312726D01*
X184101482Y-108367891D01*
X184015960Y-108431324D01*
X183922169Y-108447862D01*
X183820109Y-108417504D01*
X183764944Y-108378878D01*
X183701511Y-108293355D01*
X183621539Y-108114042D01*
X183580194Y-107879564D01*
X183594014Y-107683713D01*
X183624372Y-107581652D01*
X183662999Y-107526488D01*
X183748521Y-107463054D01*
X179053229Y-109631324D02*
X178879581Y-108646516D01*
X179615976Y-109532097D02*
X179094688Y-109043770D01*
X179442328Y-108547289D02*
X178978808Y-109209264D01*
%TO.C,D38*%
X278558924Y-108976899D02*
X278385275Y-107992092D01*
X278619754Y-107950747D01*
X278768709Y-107972835D01*
X278879038Y-108050089D01*
X278942472Y-108135611D01*
X279022443Y-108314924D01*
X279047250Y-108455611D01*
X279033431Y-108651463D01*
X279003073Y-108753523D01*
X278925820Y-108863852D01*
X278793402Y-108935554D01*
X278558924Y-108976899D01*
X279276292Y-107834981D02*
X279885935Y-107727485D01*
X279623817Y-108160532D01*
X279764504Y-108135725D01*
X279866564Y-108166083D01*
X279921729Y-108204710D01*
X279985162Y-108290232D01*
X280026507Y-108524710D01*
X279996150Y-108626770D01*
X279957523Y-108681935D01*
X279872001Y-108745368D01*
X279590627Y-108794982D01*
X279488567Y-108764624D01*
X279433402Y-108725998D01*
X280523103Y-108050318D02*
X280421043Y-108019960D01*
X280365878Y-107981333D01*
X280302445Y-107895811D01*
X280294176Y-107848916D01*
X280324533Y-107746855D01*
X280363160Y-107691691D01*
X280448682Y-107628257D01*
X280636265Y-107595181D01*
X280738325Y-107625539D01*
X280793489Y-107664166D01*
X280856923Y-107749688D01*
X280865192Y-107796584D01*
X280834834Y-107898644D01*
X280796208Y-107953808D01*
X280710685Y-108017242D01*
X280523103Y-108050318D01*
X280437581Y-108113751D01*
X280398954Y-108168916D01*
X280368596Y-108270976D01*
X280401672Y-108458558D01*
X280465106Y-108544081D01*
X280520270Y-108582707D01*
X280622330Y-108613065D01*
X280809913Y-108579989D01*
X280895435Y-108516556D01*
X280934062Y-108461391D01*
X280964419Y-108359331D01*
X280931344Y-108171748D01*
X280867910Y-108086226D01*
X280812745Y-108047600D01*
X280710685Y-108017242D01*
X275800286Y-109788258D02*
X275626638Y-108803450D01*
X276363033Y-109689031D02*
X275841745Y-109200704D01*
X276189385Y-108704223D02*
X275725865Y-109366198D01*
%TO.C,D31*%
X125258186Y-126192698D02*
X125084537Y-127177505D01*
X124850059Y-127136161D01*
X124717642Y-127064458D01*
X124640388Y-126954129D01*
X124610031Y-126852069D01*
X124596211Y-126656217D01*
X124621018Y-126515531D01*
X124700989Y-126336217D01*
X124764423Y-126250695D01*
X124874752Y-126173442D01*
X125023708Y-126151353D01*
X125258186Y-126192698D01*
X124193521Y-127020395D02*
X123583878Y-126912899D01*
X123978299Y-126595617D01*
X123837612Y-126570810D01*
X123752090Y-126507376D01*
X123713463Y-126452212D01*
X123683106Y-126350151D01*
X123724450Y-126115673D01*
X123787884Y-126030151D01*
X123843048Y-125991525D01*
X123945109Y-125961167D01*
X124226482Y-126010781D01*
X124312005Y-126074214D01*
X124350631Y-126129379D01*
X122819614Y-125762712D02*
X123382361Y-125861939D01*
X123100988Y-125812326D02*
X122927340Y-126797133D01*
X123045938Y-126672984D01*
X123156267Y-126595731D01*
X123258327Y-126565373D01*
X120512588Y-125680858D02*
X120338940Y-126665665D01*
X119949841Y-125581630D02*
X120272674Y-126218798D01*
X119776193Y-126566438D02*
X120438168Y-126102918D01*
%TO.C,D27*%
X50546635Y-111084649D02*
X50372986Y-112069456D01*
X50138508Y-112028112D01*
X50006091Y-111956409D01*
X49928837Y-111846080D01*
X49898480Y-111744020D01*
X49884660Y-111548168D01*
X49909467Y-111407482D01*
X49989438Y-111228168D01*
X50052872Y-111142646D01*
X50163201Y-111065393D01*
X50312157Y-111043304D01*
X50546635Y-111084649D01*
X49451612Y-111810286D02*
X49396448Y-111848913D01*
X49294387Y-111879270D01*
X49059909Y-111837926D01*
X48974387Y-111774492D01*
X48935761Y-111719327D01*
X48905403Y-111617267D01*
X48921941Y-111523476D01*
X48993643Y-111391058D01*
X49655618Y-110927538D01*
X49045975Y-110820042D01*
X48544058Y-111746967D02*
X47887519Y-111631202D01*
X48483228Y-110720814D01*
X45801037Y-110572809D02*
X45627389Y-111557616D01*
X45238290Y-110473581D02*
X45561123Y-111110749D01*
X45064642Y-111458389D02*
X45726617Y-110994869D01*
%TO.C,D56*%
X101039402Y-153839669D02*
X100865753Y-154824476D01*
X100631275Y-154783132D01*
X100498858Y-154711429D01*
X100421604Y-154601100D01*
X100391247Y-154499040D01*
X100377427Y-154303188D01*
X100402234Y-154162502D01*
X100482205Y-153983188D01*
X100545639Y-153897666D01*
X100655968Y-153820413D01*
X100804924Y-153798324D01*
X101039402Y-153839669D01*
X99411990Y-154568139D02*
X99880946Y-154650828D01*
X100010531Y-154190141D01*
X99955366Y-154228768D01*
X99853306Y-154259126D01*
X99618828Y-154217781D01*
X99533306Y-154154347D01*
X99494679Y-154099183D01*
X99464322Y-153997122D01*
X99505666Y-153762644D01*
X99569100Y-153677122D01*
X99624264Y-153638496D01*
X99726325Y-153608138D01*
X99960803Y-153649483D01*
X100046325Y-153712916D01*
X100084952Y-153768081D01*
X98520973Y-154411028D02*
X98708556Y-154444104D01*
X98810616Y-154413747D01*
X98865780Y-154375120D01*
X98984378Y-154250971D01*
X99064350Y-154071658D01*
X99130501Y-153696493D01*
X99100144Y-153594433D01*
X99061517Y-153539268D01*
X98975995Y-153475834D01*
X98788412Y-153442759D01*
X98686352Y-153473116D01*
X98631188Y-153511743D01*
X98567754Y-153597265D01*
X98526409Y-153831743D01*
X98556767Y-153933803D01*
X98595394Y-153988968D01*
X98680916Y-154052402D01*
X98868498Y-154085477D01*
X98970559Y-154055120D01*
X99025723Y-154016493D01*
X99089157Y-153930971D01*
X96293804Y-153327829D02*
X96120156Y-154312636D01*
X95731057Y-153228601D02*
X96053890Y-153865769D01*
X95557409Y-154213409D02*
X96219384Y-153749889D01*
%TO.C,D54*%
X63518226Y-147223674D02*
X63344577Y-148208481D01*
X63110099Y-148167137D01*
X62977682Y-148095434D01*
X62900428Y-147985105D01*
X62870071Y-147883045D01*
X62856251Y-147687193D01*
X62881058Y-147546507D01*
X62961029Y-147367193D01*
X63024463Y-147281671D01*
X63134792Y-147204418D01*
X63283748Y-147182329D01*
X63518226Y-147223674D01*
X61890814Y-147952144D02*
X62359770Y-148034833D01*
X62489355Y-147574146D01*
X62434190Y-147612773D01*
X62332130Y-147643131D01*
X62097652Y-147601786D01*
X62012130Y-147538352D01*
X61973503Y-147483188D01*
X61943146Y-147381127D01*
X61984490Y-147146649D01*
X62047924Y-147061127D01*
X62103088Y-147022501D01*
X62205149Y-146992143D01*
X62439627Y-147033488D01*
X62525149Y-147096921D01*
X62563776Y-147152086D01*
X61057680Y-147466764D02*
X61173445Y-146810226D01*
X61226006Y-147883274D02*
X61584519Y-147221185D01*
X60974876Y-147113688D01*
X58772628Y-146711834D02*
X58598980Y-147696641D01*
X58209881Y-146612606D02*
X58532714Y-147249774D01*
X58036233Y-147597414D02*
X58698208Y-147133894D01*
%TO.C,D36*%
X240210749Y-110902748D02*
X240037100Y-109917941D01*
X240271579Y-109876596D01*
X240420534Y-109898684D01*
X240530863Y-109975938D01*
X240594297Y-110061460D01*
X240674268Y-110240773D01*
X240699075Y-110381460D01*
X240685256Y-110577312D01*
X240654898Y-110679372D01*
X240577645Y-110789701D01*
X240445227Y-110861403D01*
X240210749Y-110902748D01*
X240928117Y-109760830D02*
X241537760Y-109653334D01*
X241275642Y-110086381D01*
X241416329Y-110061574D01*
X241518389Y-110091932D01*
X241573554Y-110130559D01*
X241636987Y-110216081D01*
X241678332Y-110450559D01*
X241647975Y-110552619D01*
X241609348Y-110607784D01*
X241523826Y-110671217D01*
X241242452Y-110720831D01*
X241140392Y-110690473D01*
X241085227Y-110651847D01*
X242381881Y-109504492D02*
X242194298Y-109537568D01*
X242108776Y-109601002D01*
X242070149Y-109656166D01*
X242001165Y-109813391D01*
X241987345Y-110009243D01*
X242053497Y-110384407D01*
X242116931Y-110469930D01*
X242172095Y-110508556D01*
X242274155Y-110538914D01*
X242461738Y-110505838D01*
X242547260Y-110442405D01*
X242585887Y-110387240D01*
X242616244Y-110285180D01*
X242574900Y-110050702D01*
X242511466Y-109965180D01*
X242456301Y-109926553D01*
X242354241Y-109896195D01*
X242166659Y-109929271D01*
X242081137Y-109992705D01*
X242042510Y-110047869D01*
X242012152Y-110149929D01*
X237452111Y-111714107D02*
X237278463Y-110729299D01*
X238014858Y-111614880D02*
X237493570Y-111126553D01*
X237841210Y-110630072D02*
X237377690Y-111292047D01*
%TO.C,D1*%
X37933086Y-70172785D02*
X37759437Y-71157593D01*
X37524959Y-71116248D01*
X37392541Y-71044546D01*
X37315288Y-70934216D01*
X37284930Y-70832156D01*
X37271111Y-70636305D01*
X37295918Y-70495618D01*
X37375889Y-70316305D01*
X37439323Y-70230782D01*
X37549652Y-70153529D01*
X37698608Y-70131440D01*
X37933086Y-70172785D01*
X36432426Y-69908178D02*
X36995173Y-70007406D01*
X36713800Y-69957792D02*
X36540152Y-70942600D01*
X36658750Y-70818451D01*
X36769079Y-70741198D01*
X36871139Y-70710840D01*
X33656444Y-69743635D02*
X33482796Y-70728442D01*
X33093697Y-69644407D02*
X33416530Y-70281575D01*
X32920049Y-70629215D02*
X33582024Y-70165695D01*
%TO.C,D4*%
X96199648Y-68840426D02*
X96025999Y-69825234D01*
X95791521Y-69783889D01*
X95659103Y-69712187D01*
X95581850Y-69601857D01*
X95551492Y-69499797D01*
X95537673Y-69303946D01*
X95562480Y-69163259D01*
X95642451Y-68983946D01*
X95705885Y-68898423D01*
X95816214Y-68821170D01*
X95965170Y-68799081D01*
X96199648Y-68840426D01*
X94677014Y-69248896D02*
X94792779Y-68592357D01*
X94845340Y-69665405D02*
X95203853Y-69003316D01*
X94594210Y-68895820D01*
X91923006Y-68411276D02*
X91749358Y-69396083D01*
X91360259Y-68312048D02*
X91683092Y-68949216D01*
X91186611Y-69296856D02*
X91848586Y-68833336D01*
%TO.C,D19*%
X141909962Y-143127017D02*
X141736313Y-144111824D01*
X141501835Y-144070480D01*
X141369418Y-143998777D01*
X141292164Y-143888448D01*
X141261807Y-143786388D01*
X141247987Y-143590536D01*
X141272794Y-143449850D01*
X141352765Y-143270536D01*
X141416199Y-143185014D01*
X141526528Y-143107761D01*
X141675484Y-143085672D01*
X141909962Y-143127017D01*
X140409302Y-142862410D02*
X140972049Y-142961638D01*
X140690676Y-142912024D02*
X140517028Y-143896832D01*
X140635626Y-143772683D01*
X140745955Y-143695429D01*
X140848015Y-143665072D01*
X139940346Y-142779720D02*
X139752764Y-142746645D01*
X139650704Y-142777002D01*
X139595539Y-142815629D01*
X139476941Y-142939778D01*
X139396969Y-143119091D01*
X139330818Y-143494256D01*
X139361175Y-143596316D01*
X139399802Y-143651481D01*
X139485324Y-143714914D01*
X139672907Y-143747990D01*
X139774967Y-143717633D01*
X139830131Y-143679006D01*
X139893565Y-143593484D01*
X139934910Y-143359006D01*
X139904552Y-143256945D01*
X139865925Y-143201781D01*
X139780403Y-143138347D01*
X139592821Y-143105271D01*
X139490761Y-143135629D01*
X139435596Y-143174256D01*
X139372163Y-143259778D01*
X137164364Y-142615177D02*
X136990716Y-143599984D01*
X136601617Y-142515949D02*
X136924450Y-143153117D01*
X136427969Y-143500757D02*
X137089944Y-143037237D01*
%TO.C,D7*%
X179005906Y-90164294D02*
X178832258Y-89179486D01*
X179066736Y-89138141D01*
X179215691Y-89160230D01*
X179326020Y-89237483D01*
X179389454Y-89323005D01*
X179469425Y-89502319D01*
X179494232Y-89643006D01*
X179480413Y-89838857D01*
X179450055Y-89940917D01*
X179372802Y-90051246D01*
X179240384Y-90122949D01*
X179005906Y-90164294D01*
X179723274Y-89022376D02*
X180379813Y-88906610D01*
X180131400Y-89965839D01*
X175778312Y-91058342D02*
X175604664Y-90073534D01*
X176341059Y-90959115D02*
X175819771Y-90470788D01*
X176167411Y-89974307D02*
X175703891Y-90636282D01*
%TO.C,D17*%
X110963395Y-97557907D02*
X110789746Y-98542714D01*
X110555268Y-98501370D01*
X110422851Y-98429667D01*
X110345597Y-98319338D01*
X110315240Y-98217278D01*
X110301420Y-98021426D01*
X110326227Y-97880740D01*
X110406198Y-97701426D01*
X110469632Y-97615904D01*
X110579961Y-97538651D01*
X110728917Y-97516562D01*
X110963395Y-97557907D01*
X109462735Y-97293300D02*
X110025482Y-97392528D01*
X109744109Y-97342914D02*
X109570461Y-98327722D01*
X109689059Y-98203573D01*
X109799388Y-98126319D01*
X109901448Y-98095962D01*
X108960818Y-98220225D02*
X108304279Y-98104460D01*
X108899988Y-97194072D01*
X106217797Y-97046067D02*
X106044149Y-98030874D01*
X105655050Y-96946839D02*
X105977883Y-97584007D01*
X105481402Y-97931647D02*
X106143377Y-97468127D01*
D11*
%TO.C,D34*%
X202281685Y-120421289D02*
X206457270Y-119685021D01*
X206902909Y-118469165D02*
X206262784Y-118582036D01*
X201892713Y-118215320D02*
X202281685Y-120421289D01*
X201447074Y-119431176D02*
X202087199Y-119318305D01*
X202719952Y-118069455D02*
X203108924Y-120275425D01*
X206457270Y-119685021D02*
X206068298Y-117479052D01*
X202483598Y-118111131D02*
X202872570Y-120317100D01*
X202601775Y-118090293D02*
X202990747Y-120296263D01*
X206068298Y-117479052D02*
X201892713Y-118215320D01*
%TO.C,D53*%
X44570390Y-150193415D02*
X40394805Y-149457147D01*
X40394805Y-149457147D02*
X40005833Y-151663116D01*
X45016029Y-151409271D02*
X44375904Y-151296400D01*
X40985690Y-149561336D02*
X40596718Y-151767305D01*
X39560194Y-150447260D02*
X40200319Y-150560131D01*
X41103867Y-149582173D02*
X40714895Y-151788143D01*
X44181418Y-152399384D02*
X44570390Y-150193415D01*
X41222044Y-149603011D02*
X40833072Y-151808981D01*
X40005833Y-151663116D02*
X44181418Y-152399384D01*
%TO.C,D61*%
X230676054Y-147331991D02*
X230287082Y-145126022D01*
X226500469Y-148068259D02*
X230676054Y-147331991D01*
X230287082Y-145126022D02*
X226111497Y-145862290D01*
X226702382Y-145758101D02*
X227091354Y-147964070D01*
X225665858Y-147078146D02*
X226305983Y-146965275D01*
X226111497Y-145862290D02*
X226500469Y-148068259D01*
X231121693Y-146116135D02*
X230481568Y-146229006D01*
X226820559Y-145737263D02*
X227209531Y-147943233D01*
X226938736Y-145716425D02*
X227327708Y-147922395D01*
%TO.C,D10*%
X233691292Y-74307495D02*
X234080264Y-76513465D01*
X233454938Y-74349171D02*
X233843910Y-76555140D01*
X237874249Y-74707205D02*
X237234124Y-74820076D01*
X233253025Y-76659329D02*
X237428610Y-75923061D01*
X233573115Y-74328333D02*
X233962087Y-76534303D01*
X237428610Y-75923061D02*
X237039638Y-73717092D01*
X232864053Y-74453360D02*
X233253025Y-76659329D01*
X232418414Y-75669216D02*
X233058539Y-75556345D01*
X237039638Y-73717092D02*
X232864053Y-74453360D01*
%TO.C,D59*%
X191496805Y-165506508D02*
X191885777Y-167712477D01*
X195916116Y-165864542D02*
X195275991Y-165977413D01*
X191614982Y-165485670D02*
X192003954Y-167691640D01*
X195081505Y-164874429D02*
X190905920Y-165610697D01*
X191294892Y-167816666D02*
X195470477Y-167080398D01*
X195470477Y-167080398D02*
X195081505Y-164874429D01*
X190460281Y-166826553D02*
X191100406Y-166713682D01*
X191733159Y-165464832D02*
X192122131Y-167670802D01*
X190905920Y-165610697D02*
X191294892Y-167816666D01*
%TO.C,D21*%
X199445034Y-99496473D02*
X199834006Y-101702443D01*
X199208680Y-99538149D02*
X199597652Y-101744118D01*
X203627991Y-99896183D02*
X202987866Y-100009054D01*
X199326857Y-99517311D02*
X199715829Y-101723281D01*
X203182352Y-101112039D02*
X202793380Y-98906070D01*
X198617795Y-99642338D02*
X199006767Y-101848307D01*
X198172156Y-100858194D02*
X198812281Y-100745323D01*
X199006767Y-101848307D02*
X203182352Y-101112039D01*
X202793380Y-98906070D02*
X198617795Y-99642338D01*
%TO.C,D40*%
X47489416Y-133638797D02*
X47878388Y-131432828D01*
X43313831Y-132902529D02*
X47489416Y-133638797D01*
X44530042Y-130842424D02*
X44141070Y-133048394D01*
X44411865Y-130821586D02*
X44022893Y-133027556D01*
X48324027Y-132648684D02*
X47683902Y-132535813D01*
X47878388Y-131432828D02*
X43702803Y-130696560D01*
X44293688Y-130800749D02*
X43904716Y-133006718D01*
X43702803Y-130696560D02*
X43313831Y-132902529D01*
X42868192Y-131686673D02*
X43508317Y-131799544D01*
%TO.C,D48*%
X223192471Y-129307672D02*
X227368056Y-128571404D01*
X223512561Y-126976676D02*
X223901533Y-129182646D01*
X222803499Y-127101703D02*
X223192471Y-129307672D01*
X226979084Y-126365435D02*
X222803499Y-127101703D01*
X223394384Y-126997514D02*
X223783356Y-129203483D01*
X227368056Y-128571404D02*
X226979084Y-126365435D01*
X223630738Y-126955838D02*
X224019710Y-129161808D01*
X222357860Y-128317559D02*
X222997985Y-128204688D01*
X227813695Y-127355548D02*
X227173570Y-127468419D01*
%TO.C,D2*%
X54335858Y-74539823D02*
X53946886Y-76745793D01*
X54454035Y-74560661D02*
X54065063Y-76766631D01*
X53626796Y-74414797D02*
X53237824Y-76620766D01*
X57802381Y-75151065D02*
X53626796Y-74414797D01*
X53237824Y-76620766D02*
X57413409Y-77357034D01*
X57413409Y-77357034D02*
X57802381Y-75151065D01*
X58248020Y-76366921D02*
X57607895Y-76254050D01*
X54217681Y-74518986D02*
X53828709Y-76724955D01*
X52792185Y-75404910D02*
X53432310Y-75517781D01*
%TO.C,D51*%
X285245646Y-127697794D02*
X281070061Y-128434062D01*
X285634618Y-129903763D02*
X285245646Y-127697794D01*
X281070061Y-128434062D02*
X281459033Y-130640031D01*
X281897300Y-128288197D02*
X282286272Y-130494167D01*
X281660946Y-128329873D02*
X282049918Y-130535842D01*
X280624422Y-129649918D02*
X281264547Y-129537047D01*
X286080257Y-128687907D02*
X285440132Y-128800778D01*
X281779123Y-128309035D02*
X282168095Y-130515005D01*
X281459033Y-130640031D02*
X285634618Y-129903763D01*
%TO.C,D41*%
X64117629Y-129460275D02*
X63728657Y-131666245D01*
X63999452Y-129439437D02*
X63610480Y-131645407D01*
X63881275Y-129418600D02*
X63492303Y-131624569D01*
X63290390Y-129314411D02*
X62901418Y-131520380D01*
X67077003Y-132256648D02*
X67465975Y-130050679D01*
X67911614Y-131266535D02*
X67271489Y-131153664D01*
X67465975Y-130050679D02*
X63290390Y-129314411D01*
X62901418Y-131520380D02*
X67077003Y-132256648D01*
X62455779Y-130304524D02*
X63095904Y-130417395D01*
%TO.C,D37*%
X259592360Y-112877284D02*
X259981332Y-115083253D01*
X263566032Y-114451174D02*
X263177060Y-112245205D01*
X258555836Y-114197329D02*
X259195961Y-114084458D01*
X259390447Y-115187442D02*
X263566032Y-114451174D01*
X259001475Y-112981473D02*
X259390447Y-115187442D01*
X263177060Y-112245205D02*
X259001475Y-112981473D01*
X259828714Y-112835608D02*
X260217686Y-115041578D01*
X264011671Y-113235318D02*
X263371546Y-113348189D01*
X259710537Y-112856446D02*
X260099509Y-115062416D01*
%TO.C,D35*%
X219049862Y-109556972D02*
X219689987Y-109444101D01*
X219884473Y-110547085D02*
X224060058Y-109810817D01*
X220204563Y-108216089D02*
X220593535Y-110422059D01*
X224060058Y-109810817D02*
X223671086Y-107604848D01*
X224505697Y-108594961D02*
X223865572Y-108707832D01*
X220086386Y-108236927D02*
X220475358Y-110442896D01*
X220322740Y-108195251D02*
X220711712Y-110401221D01*
X219495501Y-108341116D02*
X219884473Y-110547085D01*
X223671086Y-107604848D02*
X219495501Y-108341116D01*
%TO.C,D28*%
X67307450Y-110678849D02*
X66918478Y-112884819D01*
X70385001Y-113496060D02*
X70773973Y-111290091D01*
X66598388Y-110553823D02*
X66209416Y-112759792D01*
X67425627Y-110699687D02*
X67036655Y-112905657D01*
X66209416Y-112759792D02*
X70385001Y-113496060D01*
X70773973Y-111290091D02*
X66598388Y-110553823D01*
X67189273Y-110658012D02*
X66800301Y-112863981D01*
X71219612Y-112505947D02*
X70579487Y-112393076D01*
X65763777Y-111543936D02*
X66403902Y-111656807D01*
%TO.C,D60*%
X212684293Y-155000226D02*
X208508708Y-155736494D01*
X213073265Y-157206195D02*
X212684293Y-155000226D01*
X209099593Y-155632305D02*
X209488565Y-157838274D01*
X208508708Y-155736494D02*
X208897680Y-157942463D01*
X208897680Y-157942463D02*
X213073265Y-157206195D01*
X208063069Y-156952350D02*
X208703194Y-156839479D01*
X213518904Y-155990339D02*
X212878779Y-156103210D01*
X209335947Y-155590629D02*
X209724919Y-157796599D01*
X209217770Y-155611467D02*
X209606742Y-157817437D01*
%TO.C,D14*%
X51027860Y-93300411D02*
X50638888Y-95506381D01*
X49929826Y-95381354D02*
X54105411Y-96117622D01*
X49484187Y-94165498D02*
X50124312Y-94278369D01*
X54105411Y-96117622D02*
X54494383Y-93911653D01*
X51146037Y-93321249D02*
X50757065Y-95527219D01*
X50909683Y-93279574D02*
X50520711Y-95485543D01*
X54494383Y-93911653D02*
X50318798Y-93175385D01*
X54940022Y-95127509D02*
X54299897Y-95014638D01*
X50318798Y-93175385D02*
X49929826Y-95381354D01*
%TO.C,D52*%
X20799606Y-147139262D02*
X21439731Y-147252133D01*
X26255441Y-148101273D02*
X25615316Y-147988402D01*
X21634217Y-146149149D02*
X21245245Y-148355118D01*
X25809802Y-146885417D02*
X21634217Y-146149149D01*
X25420830Y-149091386D02*
X25809802Y-146885417D01*
X22461456Y-146295013D02*
X22072484Y-148500983D01*
X21245245Y-148355118D02*
X25420830Y-149091386D01*
X22343279Y-146274175D02*
X21954307Y-148480145D01*
X22225102Y-146253338D02*
X21836130Y-148459307D01*
%TO.C,D6*%
X127503736Y-90512960D02*
X128143861Y-90625831D01*
X128338347Y-89522847D02*
X127949375Y-91728816D01*
X129047409Y-89647873D02*
X128658437Y-91853843D01*
X132959571Y-91474971D02*
X132319446Y-91362100D01*
X132124960Y-92465084D02*
X132513932Y-90259115D01*
X127949375Y-91728816D02*
X132124960Y-92465084D01*
X128929232Y-89627036D02*
X128540260Y-91833005D01*
X132513932Y-90259115D02*
X128338347Y-89522847D01*
X129165586Y-89668711D02*
X128776614Y-91874681D01*
%TO.C,D64*%
X283932419Y-148410506D02*
X284572544Y-148297635D01*
X288942615Y-148664351D02*
X288553643Y-146458382D01*
X284968943Y-147090461D02*
X285357915Y-149296430D01*
X289388254Y-147448495D02*
X288748129Y-147561366D01*
X284378058Y-147194650D02*
X284767030Y-149400619D01*
X285087120Y-147069623D02*
X285476092Y-149275593D01*
X288553643Y-146458382D02*
X284378058Y-147194650D01*
X285205297Y-147048785D02*
X285594269Y-149254755D01*
X284767030Y-149400619D02*
X288942615Y-148664351D01*
%TO.C,D29*%
X86127803Y-109501584D02*
X90303388Y-110237852D01*
X90303388Y-110237852D02*
X90692360Y-108031883D01*
X87344014Y-107441479D02*
X86955042Y-109647449D01*
X90692360Y-108031883D02*
X86516775Y-107295615D01*
X91137999Y-109247739D02*
X90497874Y-109134868D01*
X87107660Y-107399804D02*
X86718688Y-109605773D01*
X87225837Y-107420641D02*
X86836865Y-109626611D01*
X85682164Y-108285728D02*
X86322289Y-108398599D01*
X86516775Y-107295615D02*
X86127803Y-109501584D01*
%TO.C,D57*%
X119727580Y-166517321D02*
X119087455Y-166404450D01*
X114271745Y-165555310D02*
X114911870Y-165668181D01*
X118892969Y-167507434D02*
X119281941Y-165301465D01*
X115933595Y-164711061D02*
X115544623Y-166917031D01*
X114717384Y-166771166D02*
X118892969Y-167507434D01*
X115815418Y-164690223D02*
X115426446Y-166896193D01*
X115106356Y-164565197D02*
X114717384Y-166771166D01*
X115697241Y-164669386D02*
X115308269Y-166875355D01*
X119281941Y-165301465D02*
X115106356Y-164565197D01*
%TO.C,D5*%
X110735559Y-79648644D02*
X110346587Y-81854613D01*
X111562798Y-79794508D02*
X111173826Y-82000478D01*
X114522172Y-82590881D02*
X114911144Y-80384912D01*
X110346587Y-81854613D02*
X114522172Y-82590881D01*
X114911144Y-80384912D02*
X110735559Y-79648644D01*
X109900948Y-80638757D02*
X110541073Y-80751628D01*
X115356783Y-81600768D02*
X114716658Y-81487897D01*
X111444621Y-79773670D02*
X111055649Y-81979640D01*
X111326444Y-79752833D02*
X110937472Y-81958802D01*
%TO.C,D15*%
X74527609Y-93745360D02*
X73887484Y-93632489D01*
X70615447Y-91918262D02*
X70226475Y-94124232D01*
X69517413Y-93999205D02*
X73692998Y-94735473D01*
X70733624Y-91939100D02*
X70344652Y-94145070D01*
X74081970Y-92529504D02*
X69906385Y-91793236D01*
X69906385Y-91793236D02*
X69517413Y-93999205D01*
X73692998Y-94735473D02*
X74081970Y-92529504D01*
X69071774Y-92783349D02*
X69711899Y-92896220D01*
X70497270Y-91897425D02*
X70108298Y-94103394D01*
%TO.C,D9*%
X213654728Y-71070125D02*
X214043700Y-73276095D01*
X213536551Y-71090963D02*
X213925523Y-73296932D01*
X212500027Y-72411008D02*
X213140152Y-72298137D01*
X217955862Y-71448997D02*
X217315737Y-71561868D01*
X213334638Y-73401121D02*
X217510223Y-72664853D01*
X212945666Y-71195152D02*
X213334638Y-73401121D01*
X213772905Y-71049287D02*
X214161877Y-73255257D01*
X217510223Y-72664853D02*
X217121251Y-70458884D01*
X217121251Y-70458884D02*
X212945666Y-71195152D01*
%TO.C,D63*%
X265617471Y-150502648D02*
X266006443Y-152708617D01*
X270627667Y-150756493D02*
X269987542Y-150869364D01*
X266208356Y-150398459D02*
X266597328Y-152604428D01*
X265171832Y-151718504D02*
X265811957Y-151605633D01*
X266326533Y-150377621D02*
X266715505Y-152583591D01*
X270182028Y-151972349D02*
X269793056Y-149766380D01*
X266444710Y-150356783D02*
X266833682Y-152562753D01*
X269793056Y-149766380D02*
X265617471Y-150502648D01*
X266006443Y-152708617D02*
X270182028Y-151972349D01*
%TO.C,D16*%
X93611385Y-91477265D02*
X94000357Y-89271296D01*
X90533834Y-88660054D02*
X90144862Y-90866024D01*
X89435800Y-90740997D02*
X93611385Y-91477265D01*
X88990161Y-89525141D02*
X89630286Y-89638012D01*
X90415657Y-88639217D02*
X90026685Y-90845186D01*
X94000357Y-89271296D02*
X89824772Y-88535028D01*
X89824772Y-88535028D02*
X89435800Y-90740997D01*
X94445996Y-90487152D02*
X93805871Y-90374281D01*
X90652011Y-88680892D02*
X90263039Y-90886862D01*
%TO.C,D22*%
X216609555Y-91974103D02*
X220785140Y-91237835D01*
X216811468Y-89663945D02*
X217200440Y-91869914D01*
X221230779Y-90021979D02*
X220590654Y-90134850D01*
X220785140Y-91237835D02*
X220396168Y-89031866D01*
X217047822Y-89622269D02*
X217436794Y-91828239D01*
X215774944Y-90983990D02*
X216415069Y-90871119D01*
X220396168Y-89031866D02*
X216220583Y-89768134D01*
X216220583Y-89768134D02*
X216609555Y-91974103D01*
X216929645Y-89643107D02*
X217318617Y-91849077D01*
%TO.C,D30*%
X104119563Y-117169819D02*
X103730591Y-119375788D01*
X104710448Y-117274008D02*
X104321476Y-119479977D01*
X104946802Y-117315683D02*
X104557830Y-119521653D01*
X104828625Y-117294845D02*
X104439653Y-119500815D01*
X107906176Y-120112056D02*
X108295148Y-117906087D01*
X103284952Y-118159932D02*
X103925077Y-118272803D01*
X103730591Y-119375788D02*
X107906176Y-120112056D01*
X108740787Y-119121943D02*
X108100662Y-119009072D01*
X108295148Y-117906087D02*
X104119563Y-117169819D01*
%TO.C,D32*%
X172558352Y-146843859D02*
X172169380Y-144637890D01*
X168584680Y-145269969D02*
X168973652Y-147475938D01*
X172169380Y-144637890D02*
X167993795Y-145374158D01*
X168702857Y-145249131D02*
X169091829Y-147455101D01*
X167548156Y-146590014D02*
X168188281Y-146477143D01*
X167993795Y-145374158D02*
X168382767Y-147580127D01*
X168382767Y-147580127D02*
X172558352Y-146843859D01*
X168821034Y-145228293D02*
X169210006Y-147434263D01*
X173003991Y-145628003D02*
X172363866Y-145740874D01*
%TO.C,D49*%
X243549125Y-130214046D02*
X243938097Y-132420016D01*
X242276247Y-131575767D02*
X242916372Y-131462896D01*
X246897471Y-129623643D02*
X242721886Y-130359911D01*
X247732082Y-130613756D02*
X247091957Y-130726627D01*
X243110858Y-132565880D02*
X247286443Y-131829612D01*
X243312771Y-130255722D02*
X243701743Y-132461691D01*
X242721886Y-130359911D02*
X243110858Y-132565880D01*
X247286443Y-131829612D02*
X246897471Y-129623643D01*
X243430948Y-130234884D02*
X243819920Y-132440854D01*
%TO.C,D55*%
X83687392Y-147759027D02*
X84076364Y-145553058D01*
X80728018Y-144962654D02*
X80339046Y-147168624D01*
X84522003Y-146768914D02*
X83881878Y-146656043D01*
X79066168Y-145806903D02*
X79706293Y-145919774D01*
X79900779Y-144816790D02*
X79511807Y-147022759D01*
X80609841Y-144941816D02*
X80220869Y-147147786D01*
X80491664Y-144920979D02*
X80102692Y-147126948D01*
X79511807Y-147022759D02*
X83687392Y-147759027D01*
X84076364Y-145553058D02*
X79900779Y-144816790D01*
%TO.C,D47*%
X210210906Y-137229751D02*
X209570781Y-137342622D01*
X205200710Y-136975906D02*
X205589682Y-139181875D01*
X205791595Y-136871717D02*
X206180567Y-139077686D01*
X205909772Y-136850879D02*
X206298744Y-139056849D01*
X206027949Y-136830041D02*
X206416921Y-139036011D01*
X209765267Y-138445607D02*
X209376295Y-136239638D01*
X209376295Y-136239638D02*
X205200710Y-136975906D01*
X205589682Y-139181875D02*
X209765267Y-138445607D01*
X204755071Y-138191762D02*
X205395196Y-138078891D01*
%TO.C,D45*%
X135284828Y-163287237D02*
X134895856Y-165493206D01*
X135403005Y-163308074D02*
X135014033Y-165514044D01*
X134304971Y-165389017D02*
X138480556Y-166125285D01*
X134693943Y-163183048D02*
X134304971Y-165389017D01*
X139315167Y-165135172D02*
X138675042Y-165022301D01*
X138480556Y-166125285D02*
X138869528Y-163919316D01*
X138869528Y-163919316D02*
X134693943Y-163183048D01*
X135521182Y-163328912D02*
X135132210Y-165534882D01*
X133859332Y-164173161D02*
X134499457Y-164286032D01*
%TO.C,D43*%
X99976954Y-136920520D02*
X100617079Y-137033391D01*
X101638804Y-136076271D02*
X101249832Y-138282241D01*
X105432789Y-137882531D02*
X104792664Y-137769660D01*
X101520627Y-136055433D02*
X101131655Y-138261403D01*
X104987150Y-136666675D02*
X100811565Y-135930407D01*
X100422593Y-138136376D02*
X104598178Y-138872644D01*
X104598178Y-138872644D02*
X104987150Y-136666675D01*
X100811565Y-135930407D02*
X100422593Y-138136376D01*
X101402450Y-136034596D02*
X101013478Y-138240565D01*
%TO.C,D23*%
X241149166Y-93280187D02*
X240509041Y-93393058D01*
X236966209Y-92880477D02*
X237355181Y-95086447D01*
X236138970Y-93026342D02*
X236527942Y-95232311D01*
X235693331Y-94242198D02*
X236333456Y-94129327D01*
X236729855Y-92922153D02*
X237118827Y-95128122D01*
X236527942Y-95232311D02*
X240703527Y-94496043D01*
X240314555Y-92290074D02*
X236138970Y-93026342D01*
X240703527Y-94496043D02*
X240314555Y-92290074D01*
X236848032Y-92901315D02*
X237237004Y-95107285D01*
%TO.C,D18*%
X125857588Y-108429299D02*
X125468616Y-110635269D01*
X124641377Y-110489404D02*
X128816962Y-111225672D01*
X129205934Y-109019703D02*
X125030349Y-108283435D01*
X129651573Y-110235559D02*
X129011448Y-110122688D01*
X125739411Y-108408461D02*
X125350439Y-110614431D01*
X125621234Y-108387624D02*
X125232262Y-110593593D01*
X124195738Y-109273548D02*
X124835863Y-109386419D01*
X128816962Y-111225672D02*
X129205934Y-109019703D01*
X125030349Y-108283435D02*
X124641377Y-110489404D01*
%TO.C,D44*%
X122200967Y-148746847D02*
X122589939Y-146540878D01*
X123035578Y-147756734D02*
X122395453Y-147643863D01*
X118414354Y-145804610D02*
X118025382Y-148010579D01*
X119123416Y-145929636D02*
X118734444Y-148135606D01*
X119241593Y-145950474D02*
X118852621Y-148156444D01*
X118025382Y-148010579D02*
X122200967Y-148746847D01*
X117579743Y-146794723D02*
X118219868Y-146907594D01*
X122589939Y-146540878D02*
X118414354Y-145804610D01*
X119005239Y-145908799D02*
X118616267Y-148114768D01*
%TO.C,D42*%
X86995390Y-128998440D02*
X87384362Y-126792471D01*
X82819805Y-128262172D02*
X86995390Y-128998440D01*
X87384362Y-126792471D02*
X83208777Y-126056203D01*
X84036016Y-126202067D02*
X83647044Y-128408037D01*
X87830001Y-128008327D02*
X87189876Y-127895456D01*
X83799662Y-126160392D02*
X83410690Y-128366361D01*
X83208777Y-126056203D02*
X82819805Y-128262172D01*
X82374166Y-127046316D02*
X83014291Y-127159187D01*
X83917839Y-126181229D02*
X83528867Y-128387199D01*
%TO.C,D33*%
X184880809Y-127985334D02*
X185269781Y-130191303D01*
X185117163Y-127943658D02*
X185506135Y-130149628D01*
X183844285Y-129305379D02*
X184484410Y-129192508D01*
X184998986Y-127964496D02*
X185387958Y-130170466D01*
X184678896Y-130295492D02*
X188854481Y-129559224D01*
X188854481Y-129559224D02*
X188465509Y-127353255D01*
X189300120Y-128343368D02*
X188659995Y-128456239D01*
X188465509Y-127353255D02*
X184289924Y-128089523D01*
X184289924Y-128089523D02*
X184678896Y-130295492D01*
%TO.C,D11*%
X252006001Y-77051365D02*
X252646126Y-76938494D01*
X253042525Y-75731320D02*
X253431497Y-77937289D01*
X253160702Y-75710482D02*
X253549674Y-77916452D01*
X256627225Y-75099241D02*
X252451640Y-75835509D01*
X257461836Y-76089354D02*
X256821711Y-76202225D01*
X253278879Y-75689644D02*
X253667851Y-77895614D01*
X257016197Y-77305210D02*
X256627225Y-75099241D01*
X252840612Y-78041478D02*
X257016197Y-77305210D01*
X252451640Y-75835509D02*
X252840612Y-78041478D01*
%TO.C,D24*%
X256115529Y-96614460D02*
X260291114Y-95878192D01*
X259902142Y-93672223D02*
X255726557Y-94408491D01*
X260736753Y-94662336D02*
X260096628Y-94775207D01*
X260291114Y-95878192D02*
X259902142Y-93672223D01*
X256553796Y-94262626D02*
X256942768Y-96468596D01*
X255280918Y-95624347D02*
X255921043Y-95511476D01*
X256317442Y-94304302D02*
X256706414Y-96510271D01*
X256435619Y-94283464D02*
X256824591Y-96489434D01*
X255726557Y-94408491D02*
X256115529Y-96614460D01*
%TO.C,D12*%
X271601199Y-74733481D02*
X275776784Y-73997213D01*
X271921289Y-72402485D02*
X272310261Y-74608455D01*
X271803112Y-72423323D02*
X272192084Y-74629292D01*
X271212227Y-72527512D02*
X271601199Y-74733481D01*
X272039466Y-72381647D02*
X272428438Y-74587617D01*
X275387812Y-71791244D02*
X271212227Y-72527512D01*
X276222423Y-72781357D02*
X275582298Y-72894228D01*
X275776784Y-73997213D02*
X275387812Y-71791244D01*
X270766588Y-73743368D02*
X271406713Y-73630497D01*
%TO.C,D62*%
X250594441Y-150590199D02*
X250205469Y-148384230D01*
X246418856Y-151326467D02*
X250594441Y-150590199D01*
X251040080Y-149374343D02*
X250399955Y-149487214D01*
X246620769Y-149016309D02*
X247009741Y-151222278D01*
X246738946Y-148995471D02*
X247127918Y-151201441D01*
X245584245Y-150336354D02*
X246224370Y-150223483D01*
X246857123Y-148974633D02*
X247246095Y-151180603D01*
X250205469Y-148384230D02*
X246029884Y-149120498D01*
X246029884Y-149120498D02*
X246418856Y-151326467D01*
%TO.C,D3*%
X74041622Y-73178512D02*
X73652650Y-75384482D01*
X77835607Y-74984772D02*
X77195482Y-74871901D01*
X73214383Y-73032648D02*
X72825411Y-75238617D01*
X72825411Y-75238617D02*
X77000996Y-75974885D01*
X73923445Y-73157674D02*
X73534473Y-75363644D01*
X77389968Y-73768916D02*
X73214383Y-73032648D01*
X73805268Y-73136837D02*
X73416296Y-75342806D01*
X72379772Y-74022761D02*
X73019897Y-74135632D01*
X77000996Y-75974885D02*
X77389968Y-73768916D01*
%TO.C,D39*%
X25533100Y-127492751D02*
X25144128Y-129698720D01*
X24942215Y-127388562D02*
X24553243Y-129594531D01*
X24107604Y-128378675D02*
X24747729Y-128491546D01*
X24553243Y-129594531D02*
X28728828Y-130330799D01*
X28728828Y-130330799D02*
X29117800Y-128124830D01*
X25651277Y-127513588D02*
X25262305Y-129719558D01*
X29117800Y-128124830D02*
X24942215Y-127388562D01*
X25769454Y-127534426D02*
X25380482Y-129740396D01*
X29563439Y-129340686D02*
X28923314Y-129227815D01*
%TO.C,D46*%
X187152283Y-148065966D02*
X187792408Y-147953095D01*
X188306984Y-146725083D02*
X188695956Y-148931053D01*
X188188807Y-146745921D02*
X188577779Y-148951890D01*
X192608118Y-147103955D02*
X191967993Y-147216826D01*
X192162479Y-148319811D02*
X191773507Y-146113842D01*
X187986894Y-149056079D02*
X192162479Y-148319811D01*
X188425161Y-146704245D02*
X188814133Y-148910215D01*
X187597922Y-146850110D02*
X187986894Y-149056079D01*
X191773507Y-146113842D02*
X187597922Y-146850110D01*
%TO.C,D58*%
X175882890Y-165698249D02*
X175493918Y-163492280D01*
X171318333Y-164228548D02*
X171707305Y-166434517D01*
X176328529Y-164482393D02*
X175688404Y-164595264D01*
X170872694Y-165444404D02*
X171512819Y-165331533D01*
X171707305Y-166434517D02*
X175882890Y-165698249D01*
X171909218Y-164124359D02*
X172298190Y-166330328D01*
X172145572Y-164082683D02*
X172534544Y-166288653D01*
X175493918Y-163492280D02*
X171318333Y-164228548D01*
X172027395Y-164103521D02*
X172416367Y-166309491D01*
%TO.C,D25*%
X274041506Y-92316350D02*
X274681631Y-92203479D01*
X279497341Y-91354339D02*
X278857216Y-91467210D01*
X274487145Y-91100494D02*
X274876117Y-93306463D01*
X275078030Y-90996305D02*
X275467002Y-93202274D01*
X275196207Y-90975467D02*
X275585179Y-93181437D01*
X275314384Y-90954629D02*
X275703356Y-93160599D01*
X274876117Y-93306463D02*
X279051702Y-92570195D01*
X278662730Y-90364226D02*
X274487145Y-91100494D01*
X279051702Y-92570195D02*
X278662730Y-90364226D01*
%TO.C,D26*%
X28959275Y-108753001D02*
X28570303Y-110958971D01*
X28841098Y-108732164D02*
X28452126Y-110938133D01*
X32036826Y-111570212D02*
X32425798Y-109364243D01*
X28250213Y-108627975D02*
X27861241Y-110833944D01*
X32425798Y-109364243D02*
X28250213Y-108627975D01*
X29077452Y-108773839D02*
X28688480Y-110979809D01*
X32871437Y-110580099D02*
X32231312Y-110467228D01*
X27861241Y-110833944D02*
X32036826Y-111570212D01*
X27415602Y-109618088D02*
X28055727Y-109730959D01*
%TO.C,D50*%
X262698445Y-133948029D02*
X266874030Y-133211761D01*
X267319669Y-131995905D02*
X266679544Y-132108776D01*
X262900358Y-131637871D02*
X263289330Y-133843840D01*
X263136712Y-131596195D02*
X263525684Y-133802165D01*
X266874030Y-133211761D02*
X266485058Y-131005792D01*
X263018535Y-131617033D02*
X263407507Y-133823003D01*
X261863834Y-132957916D02*
X262503959Y-132845045D01*
X266485058Y-131005792D02*
X262309473Y-131742060D01*
X262309473Y-131742060D02*
X262698445Y-133948029D01*
%TO.C,D13*%
X31169239Y-92073356D02*
X35344824Y-92809624D01*
X31558211Y-89867387D02*
X31169239Y-92073356D01*
X30723600Y-90857500D02*
X31363725Y-90970371D01*
X32149096Y-89971576D02*
X31760124Y-92177545D01*
X32267273Y-89992413D02*
X31878301Y-92198383D01*
X32385450Y-90013251D02*
X31996478Y-92219221D01*
X36179435Y-91819511D02*
X35539310Y-91706640D01*
X35733796Y-90603655D02*
X31558211Y-89867387D01*
X35344824Y-92809624D02*
X35733796Y-90603655D01*
%TO.C,U1*%
G36*
X160506568Y-67244860D02*
G01*
X160406568Y-67244860D01*
X160406568Y-67044860D01*
X160506568Y-67044860D01*
X160506568Y-67244860D01*
G37*
D10*
X160506568Y-67244860D02*
X160406568Y-67244860D01*
X160406568Y-67044860D01*
X160506568Y-67044860D01*
X160506568Y-67244860D01*
G36*
X160106568Y-67244860D02*
G01*
X160006568Y-67244860D01*
X160006568Y-66444860D01*
X160106568Y-66444860D01*
X160106568Y-67244860D01*
G37*
X160106568Y-67244860D02*
X160006568Y-67244860D01*
X160006568Y-66444860D01*
X160106568Y-66444860D01*
X160106568Y-67244860D01*
G36*
X160306568Y-66944860D02*
G01*
X160206568Y-66944860D01*
X160206568Y-66844860D01*
X160306568Y-66844860D01*
X160306568Y-66944860D01*
G37*
X160306568Y-66944860D02*
X160206568Y-66944860D01*
X160206568Y-66844860D01*
X160306568Y-66844860D01*
X160306568Y-66944860D01*
G36*
X160506568Y-66744860D02*
G01*
X160406568Y-66744860D01*
X160406568Y-66444860D01*
X160506568Y-66444860D01*
X160506568Y-66744860D01*
G37*
X160506568Y-66744860D02*
X160406568Y-66744860D01*
X160406568Y-66444860D01*
X160506568Y-66444860D01*
X160506568Y-66744860D01*
G36*
X160506568Y-66544860D02*
G01*
X160006568Y-66544860D01*
X160006568Y-66444860D01*
X160506568Y-66444860D01*
X160506568Y-66544860D01*
G37*
X160506568Y-66544860D02*
X160006568Y-66544860D01*
X160006568Y-66444860D01*
X160506568Y-66444860D01*
X160506568Y-66544860D01*
D12*
X146685000Y-91045500D02*
X164465000Y-91045500D01*
X164465000Y-58025500D02*
X146685000Y-58025500D01*
X149225000Y-63105500D02*
X146685000Y-63105500D01*
X146685000Y-60565500D02*
X146685000Y-91045500D01*
X146685000Y-58025500D02*
X146685000Y-60565500D01*
X164465000Y-91045500D02*
X164465000Y-60565500D01*
X149225000Y-60565500D02*
X149225000Y-63105500D01*
X149225000Y-60565500D02*
X146685000Y-60565500D01*
X164465000Y-60565500D02*
X164465000Y-58025500D01*
D11*
%TO.C,D8*%
X199907434Y-82539057D02*
X199518462Y-80333088D01*
X196051939Y-80944329D02*
X196440911Y-83150299D01*
X195731849Y-83275325D02*
X199907434Y-82539057D01*
X200353073Y-81323201D02*
X199712948Y-81436072D01*
X196170116Y-80923491D02*
X196559088Y-83129461D01*
X199518462Y-80333088D02*
X195342877Y-81069356D01*
X195933762Y-80965167D02*
X196322734Y-83171136D01*
X195342877Y-81069356D02*
X195731849Y-83275325D01*
X194897238Y-82285212D02*
X195537363Y-82172341D01*
%TO.C,D20*%
X185190591Y-108780273D02*
X181015006Y-109516541D01*
X181842245Y-109370676D02*
X182231217Y-111576646D01*
X181724068Y-109391514D02*
X182113040Y-111597484D01*
X181605891Y-109412352D02*
X181994863Y-111618321D01*
X181015006Y-109516541D02*
X181403978Y-111722510D01*
X186025202Y-109770386D02*
X185385077Y-109883257D01*
X185579563Y-110986242D02*
X185190591Y-108780273D01*
X181403978Y-111722510D02*
X185579563Y-110986242D01*
X180569367Y-110732397D02*
X181209492Y-110619526D01*
%TO.C,D38*%
X282772259Y-109927320D02*
X282132134Y-110040191D01*
X277316424Y-110889331D02*
X277956549Y-110776460D01*
X282326620Y-111143176D02*
X281937648Y-108937207D01*
X278151035Y-111879444D02*
X282326620Y-111143176D01*
X278471125Y-109548448D02*
X278860097Y-111754418D01*
X278352948Y-109569286D02*
X278741920Y-111775255D01*
X278589302Y-109527610D02*
X278978274Y-111733580D01*
X277762063Y-109673475D02*
X278151035Y-111879444D01*
X281937648Y-108937207D02*
X277762063Y-109673475D01*
%TO.C,D31*%
X122313237Y-127148211D02*
X121924265Y-129354180D01*
X125897937Y-127780290D02*
X121722352Y-127044022D01*
X125508965Y-129986259D02*
X125897937Y-127780290D01*
X120887741Y-128034135D02*
X121527866Y-128147006D01*
X126343576Y-128996146D02*
X125703451Y-128883275D01*
X122431414Y-127169048D02*
X122042442Y-129375018D01*
X122549591Y-127189886D02*
X122160619Y-129395856D01*
X121333380Y-129249991D02*
X125508965Y-129986259D01*
X121722352Y-127044022D02*
X121333380Y-129249991D01*
%TO.C,D27*%
X47601686Y-112040162D02*
X47212714Y-114246131D01*
X51632025Y-113888097D02*
X50991900Y-113775226D01*
X47719863Y-112060999D02*
X47330891Y-114266969D01*
X46176190Y-112926086D02*
X46816315Y-113038957D01*
X50797414Y-114878210D02*
X51186386Y-112672241D01*
X46621829Y-114141942D02*
X50797414Y-114878210D01*
X47010801Y-111935973D02*
X46621829Y-114141942D01*
X47838040Y-112081837D02*
X47449068Y-114287807D01*
X51186386Y-112672241D02*
X47010801Y-111935973D01*
%TO.C,D56*%
X97114596Y-156896962D02*
X101290181Y-157633230D01*
X98330807Y-154836857D02*
X97941835Y-157042827D01*
X96668957Y-155681106D02*
X97309082Y-155793977D01*
X98094453Y-154795182D02*
X97705481Y-157001151D01*
X98212630Y-154816019D02*
X97823658Y-157021989D01*
X101290181Y-157633230D02*
X101679153Y-155427261D01*
X102124792Y-156643117D02*
X101484667Y-156530246D01*
X101679153Y-155427261D02*
X97503568Y-154690993D01*
X97503568Y-154690993D02*
X97114596Y-156896962D01*
%TO.C,D54*%
X59982392Y-148074998D02*
X59593420Y-150280967D01*
X64603616Y-150027122D02*
X63963491Y-149914251D01*
X59147781Y-149065111D02*
X59787906Y-149177982D01*
X60691454Y-148200024D02*
X60302482Y-150405994D01*
X64157977Y-148811266D02*
X59982392Y-148074998D01*
X60573277Y-148179187D02*
X60184305Y-150385156D01*
X59593420Y-150280967D02*
X63769005Y-151017235D01*
X63769005Y-151017235D02*
X64157977Y-148811266D01*
X60809631Y-148220862D02*
X60420659Y-150426832D01*
%TO.C,D36*%
X243589473Y-110863056D02*
X239413888Y-111599324D01*
X244424084Y-111853169D02*
X243783959Y-111966040D01*
X240004773Y-111495135D02*
X240393745Y-113701104D01*
X239802860Y-113805293D02*
X243978445Y-113069025D01*
X240122950Y-111474297D02*
X240511922Y-113680267D01*
X239413888Y-111599324D02*
X239802860Y-113805293D01*
X240241127Y-111453459D02*
X240630099Y-113659429D01*
X243978445Y-113069025D02*
X243589473Y-110863056D01*
X238968249Y-112815180D02*
X239608374Y-112702309D01*
%TO.C,D1*%
X35457093Y-71210988D02*
X35068121Y-73416957D01*
X34477236Y-73312768D02*
X38652821Y-74049036D01*
X35693447Y-71252663D02*
X35304475Y-73458633D01*
X39487432Y-73058923D02*
X38847307Y-72946052D01*
X35575270Y-71231825D02*
X35186298Y-73437795D01*
X34031597Y-72096912D02*
X34671722Y-72209783D01*
X39041793Y-71843067D02*
X34866208Y-71106799D01*
X34866208Y-71106799D02*
X34477236Y-73312768D01*
X38652821Y-74049036D02*
X39041793Y-71843067D01*
%TO.C,D4*%
X93960009Y-69920304D02*
X93571037Y-72126274D01*
X93132770Y-69774440D02*
X92743798Y-71980409D01*
X92743798Y-71980409D02*
X96919383Y-72716677D01*
X96919383Y-72716677D02*
X97308355Y-70510708D01*
X97308355Y-70510708D02*
X93132770Y-69774440D01*
X93723655Y-69878629D02*
X93334683Y-72084598D01*
X92298159Y-70764553D02*
X92938284Y-70877424D01*
X97753994Y-71726564D02*
X97113869Y-71613693D01*
X93841832Y-69899466D02*
X93452860Y-72105436D01*
%TO.C,D19*%
X137539517Y-144968454D02*
X138179642Y-145081325D01*
X139083190Y-144103367D02*
X138694218Y-146309337D01*
X138374128Y-143978341D02*
X137985156Y-146184310D01*
X137985156Y-146184310D02*
X142160741Y-146920578D01*
X142995352Y-145930465D02*
X142355227Y-145817594D01*
X142549713Y-144714609D02*
X138374128Y-143978341D01*
X138965013Y-144082530D02*
X138576041Y-146288499D01*
X142160741Y-146920578D02*
X142549713Y-144714609D01*
X139201367Y-144124205D02*
X138812395Y-146330175D01*
%TO.C,D7*%
X178449151Y-90818532D02*
X178838123Y-93024502D01*
X181915674Y-90207291D02*
X177740089Y-90943559D01*
X178330974Y-90839370D02*
X178719946Y-93045339D01*
X178129061Y-93149528D02*
X182304646Y-92413260D01*
X177294450Y-92159415D02*
X177934575Y-92046544D01*
X177740089Y-90943559D02*
X178129061Y-93149528D01*
X182750285Y-91197404D02*
X182110160Y-91310275D01*
X182304646Y-92413260D02*
X181915674Y-90207291D01*
X178567328Y-90797694D02*
X178956300Y-93003664D01*
%TO.C,D17*%
X108018446Y-98513420D02*
X107629474Y-100719389D01*
X107427561Y-98409231D02*
X107038589Y-100615200D01*
X112048785Y-100361355D02*
X111408660Y-100248484D01*
X108136623Y-98534257D02*
X107747651Y-100740227D01*
X108254800Y-98555095D02*
X107865828Y-100761065D01*
X106592950Y-99399344D02*
X107233075Y-99512215D01*
X107038589Y-100615200D02*
X111214174Y-101351468D01*
X111603146Y-99145499D02*
X107427561Y-98409231D01*
X111214174Y-101351468D02*
X111603146Y-99145499D01*
%TD*%
D13*
%TO.C,U1*%
X163195000Y-61835500D03*
X163195000Y-64375500D03*
X163195000Y-66915500D03*
X163195000Y-69455500D03*
X163195000Y-71995500D03*
X163195000Y-74535500D03*
X163195000Y-77075500D03*
X163195000Y-79615500D03*
X163195000Y-82155500D03*
X163195000Y-84695500D03*
X163195000Y-87235500D03*
X163195000Y-89775500D03*
X147955000Y-89775500D03*
X147955000Y-87235500D03*
X147955000Y-84695500D03*
X147955000Y-82155500D03*
X147955000Y-79615500D03*
X147955000Y-77075500D03*
X147955000Y-74535500D03*
X147955000Y-71995500D03*
X147955000Y-69455500D03*
X147955000Y-66915500D03*
X147955000Y-64375500D03*
D14*
X147955000Y-61835500D03*
%TD*%
%LPC*%
D15*
%TO.C,SW61*%
X232797526Y-140654658D03*
D16*
X223601519Y-139696979D03*
X229413982Y-136092901D03*
D15*
X222791880Y-142418924D03*
D17*
X227794703Y-141536791D03*
%TD*%
D16*
%TO.C,SW2*%
X53376850Y-67762836D03*
D15*
X51685078Y-70043714D03*
D16*
X60071445Y-66364090D03*
D17*
X56687901Y-70925847D03*
D15*
X61690724Y-71807980D03*
%TD*%
D18*
%TO.C,D34*%
X200422874Y-119611770D03*
D19*
X207927109Y-118288571D03*
%TD*%
D15*
%TO.C,SW19*%
X146438056Y-141371524D03*
X136432410Y-139607258D03*
D17*
X141435233Y-140489391D03*
D16*
X144818777Y-135927634D03*
X138124182Y-137326380D03*
%TD*%
D20*
%TO.C,D53*%
X38535994Y-150266666D03*
D21*
X46040229Y-151589865D03*
%TD*%
D16*
%TO.C,SW51*%
X278560083Y-122268750D03*
D17*
X282753267Y-124108562D03*
D15*
X277750444Y-124990695D03*
D16*
X284372546Y-118664672D03*
D15*
X287756090Y-123226429D03*
%TD*%
D18*
%TO.C,D61*%
X224641658Y-147258740D03*
D19*
X232145893Y-145935541D03*
%TD*%
D18*
%TO.C,D10*%
X231394214Y-75849810D03*
D19*
X238898449Y-74526611D03*
%TD*%
D18*
%TO.C,D59*%
X189436081Y-167007147D03*
D19*
X196940316Y-165683948D03*
%TD*%
D17*
%TO.C,SW20*%
X182698213Y-105191041D03*
D15*
X187701036Y-104308908D03*
D16*
X184317492Y-99747151D03*
X178505029Y-103351229D03*
D15*
X177695390Y-106073174D03*
%TD*%
D17*
%TO.C,SW47*%
X206883917Y-132650406D03*
D15*
X201881094Y-133532539D03*
D16*
X202690733Y-130810594D03*
D15*
X211886740Y-131768273D03*
D16*
X208503196Y-127206516D03*
%TD*%
D15*
%TO.C,SW52*%
X19692499Y-141778066D03*
D16*
X28078866Y-138098442D03*
X21384271Y-139497188D03*
D17*
X24695322Y-142660199D03*
D15*
X29698145Y-143542332D03*
%TD*%
D16*
%TO.C,SW24*%
X253216580Y-88243179D03*
X259029043Y-84639101D03*
D17*
X257409764Y-90082991D03*
D15*
X252406941Y-90965124D03*
X262412587Y-89200858D03*
%TD*%
D18*
%TO.C,D21*%
X197147956Y-101038788D03*
D19*
X204652191Y-99715589D03*
%TD*%
D15*
%TO.C,SW32*%
X164674178Y-141930791D03*
D17*
X169677001Y-141048658D03*
D16*
X165483817Y-139208846D03*
X171296280Y-135604768D03*
D15*
X174679824Y-140166525D03*
%TD*%
D20*
%TO.C,D40*%
X41843992Y-131506079D03*
D21*
X49348227Y-132829278D03*
%TD*%
D18*
%TO.C,D48*%
X221333660Y-128498153D03*
D19*
X228837895Y-127174954D03*
%TD*%
D20*
%TO.C,D2*%
X51767985Y-75224316D03*
D21*
X59272220Y-76547515D03*
%TD*%
D16*
%TO.C,SW49*%
X240211908Y-124194599D03*
D15*
X239402269Y-126916544D03*
D17*
X244405092Y-126034411D03*
D15*
X249407915Y-125152278D03*
D16*
X246024371Y-120590521D03*
%TD*%
%TO.C,SW10*%
X236166538Y-64683970D03*
D17*
X234547259Y-70127860D03*
D15*
X239550082Y-69245727D03*
X229544436Y-71009993D03*
D16*
X230354075Y-68288048D03*
%TD*%
D18*
%TO.C,D51*%
X279600222Y-129830512D03*
D19*
X287104457Y-128507313D03*
%TD*%
D20*
%TO.C,D41*%
X61431579Y-130123930D03*
D21*
X68935814Y-131447129D03*
%TD*%
D18*
%TO.C,D37*%
X257531636Y-114377923D03*
D19*
X265035871Y-113054724D03*
%TD*%
D16*
%TO.C,SW11*%
X255754125Y-66066120D03*
D15*
X249132023Y-72392143D03*
X259137669Y-70627877D03*
D16*
X249941662Y-69670198D03*
D17*
X254134846Y-71510010D03*
%TD*%
D16*
%TO.C,SW7*%
X181042574Y-81174169D03*
X175230111Y-84778247D03*
D15*
X184426118Y-85735926D03*
D17*
X179423295Y-86618059D03*
D15*
X174420472Y-87500192D03*
%TD*%
D18*
%TO.C,D35*%
X218025662Y-109737566D03*
D19*
X225529897Y-108414367D03*
%TD*%
D16*
%TO.C,SW40*%
X43452857Y-124044599D03*
D15*
X41761085Y-126325477D03*
D17*
X46763908Y-127207610D03*
D15*
X51766731Y-128089743D03*
D16*
X50147452Y-122645853D03*
%TD*%
D20*
%TO.C,D28*%
X64739577Y-111363342D03*
D21*
X72243812Y-112686541D03*
%TD*%
D17*
%TO.C,SW60*%
X210191915Y-151410994D03*
D15*
X215194738Y-150528861D03*
X205189092Y-152293127D03*
D16*
X211811194Y-145967104D03*
X205998731Y-149571182D03*
%TD*%
%TO.C,SW35*%
X216985524Y-102175804D03*
D15*
X216175885Y-104897749D03*
X226181531Y-103133483D03*
D17*
X221178708Y-104015616D03*
D16*
X222797987Y-98571726D03*
%TD*%
D18*
%TO.C,D60*%
X207038869Y-157132944D03*
D19*
X214543104Y-155809745D03*
%TD*%
D20*
%TO.C,D14*%
X48459987Y-93984904D03*
D21*
X55964222Y-95308103D03*
%TD*%
D20*
%TO.C,D52*%
X19775406Y-146958668D03*
D21*
X27279641Y-148281867D03*
%TD*%
D16*
%TO.C,SW12*%
X274514713Y-62758122D03*
X268702250Y-66362200D03*
D15*
X277898257Y-67319879D03*
X267892611Y-69084145D03*
D17*
X272895434Y-68202012D03*
%TD*%
D20*
%TO.C,D6*%
X126479536Y-90332366D03*
D21*
X133983771Y-91655565D03*
%TD*%
D16*
%TO.C,SW29*%
X86266828Y-100643654D03*
D15*
X94580702Y-104688798D03*
X84575056Y-102924532D03*
D16*
X92961423Y-99244908D03*
D17*
X89577879Y-103806665D03*
%TD*%
D16*
%TO.C,SW14*%
X50068852Y-86523424D03*
X56763447Y-85124678D03*
D17*
X53379903Y-89686435D03*
D15*
X58382726Y-90568568D03*
X48377080Y-88804302D03*
%TD*%
D18*
%TO.C,D64*%
X282908219Y-148591100D03*
D19*
X290412454Y-147267901D03*
%TD*%
D20*
%TO.C,D29*%
X84657964Y-108105134D03*
D21*
X92162199Y-109428333D03*
%TD*%
D20*
%TO.C,D57*%
X113247545Y-165374716D03*
D21*
X120751780Y-166697915D03*
%TD*%
D16*
%TO.C,SW13*%
X38002859Y-81816680D03*
X31308264Y-83215426D03*
D15*
X39622138Y-87260570D03*
X29616492Y-85496304D03*
D17*
X34619315Y-86378437D03*
%TD*%
D20*
%TO.C,D5*%
X108876748Y-80458163D03*
D21*
X116380983Y-81781362D03*
%TD*%
D20*
%TO.C,D15*%
X68047574Y-92602755D03*
D21*
X75551809Y-93925954D03*
%TD*%
D18*
%TO.C,D9*%
X211475827Y-72591602D03*
D19*
X218980062Y-71268403D03*
%TD*%
D16*
%TO.C,SW23*%
X239441456Y-83256952D03*
X233628993Y-86861030D03*
D15*
X232819354Y-89582975D03*
X242825000Y-87818709D03*
D17*
X237822177Y-88700842D03*
%TD*%
%TO.C,SW6*%
X131399452Y-86033897D03*
D16*
X128088401Y-82870886D03*
X134782996Y-81472140D03*
D15*
X126396629Y-85151764D03*
X136402275Y-86916030D03*
%TD*%
D18*
%TO.C,D63*%
X264147632Y-151899098D03*
D19*
X271651867Y-150575899D03*
%TD*%
D20*
%TO.C,D16*%
X87965961Y-89344547D03*
D21*
X95470196Y-90667746D03*
%TD*%
D18*
%TO.C,D22*%
X214750744Y-91164584D03*
D19*
X222254979Y-89841385D03*
%TD*%
D20*
%TO.C,D30*%
X102260752Y-117979338D03*
D21*
X109764987Y-119302537D03*
%TD*%
D16*
%TO.C,SW39*%
X31386864Y-119337855D03*
D15*
X23000497Y-123017479D03*
D17*
X28003320Y-123899612D03*
D15*
X33006143Y-124781745D03*
D16*
X24692269Y-120736601D03*
%TD*%
D18*
%TO.C,D32*%
X166523956Y-146770608D03*
D19*
X174028191Y-145447409D03*
%TD*%
D16*
%TO.C,SW53*%
X40144859Y-142805186D03*
D17*
X43455910Y-145968197D03*
D15*
X38453087Y-145086064D03*
X48458733Y-146850330D03*
D16*
X46839454Y-141406440D03*
%TD*%
%TO.C,SW3*%
X79659032Y-64981941D03*
D17*
X76275488Y-69543698D03*
D15*
X71272665Y-68661565D03*
X81278311Y-70425831D03*
D16*
X72964437Y-66380687D03*
%TD*%
D18*
%TO.C,D49*%
X241252047Y-131756361D03*
D19*
X248756282Y-130433162D03*
%TD*%
D20*
%TO.C,D55*%
X78041968Y-145626309D03*
D21*
X85546203Y-146949508D03*
%TD*%
D17*
%TO.C,SW1*%
X37927313Y-67617849D03*
D16*
X34616262Y-64454838D03*
D15*
X42930136Y-68499982D03*
D16*
X41310857Y-63056092D03*
D15*
X32924490Y-66735716D03*
%TD*%
D16*
%TO.C,SW37*%
X256491498Y-106816161D03*
D15*
X255681859Y-109538106D03*
X265687505Y-107773840D03*
D16*
X262303961Y-103212083D03*
D17*
X260684682Y-108655973D03*
%TD*%
D16*
%TO.C,SW17*%
X113872210Y-90358524D03*
X107177615Y-91757270D03*
D17*
X110488666Y-94920281D03*
D15*
X115491489Y-95802414D03*
X105485843Y-94038148D03*
%TD*%
D16*
%TO.C,SW27*%
X53455449Y-103885266D03*
D15*
X45069082Y-107564890D03*
X55074728Y-109329156D03*
D16*
X46760854Y-105284012D03*
D17*
X50071905Y-108447023D03*
%TD*%
D18*
%TO.C,D47*%
X203730871Y-138372356D03*
D19*
X211235106Y-137049157D03*
%TD*%
D17*
%TO.C,SW30*%
X107180668Y-113680869D03*
D15*
X102177845Y-112798736D03*
D16*
X103869617Y-110517858D03*
X110564212Y-109119112D03*
D15*
X112183491Y-114563002D03*
%TD*%
D16*
%TO.C,SW56*%
X103948217Y-146640286D03*
X97253622Y-148039032D03*
D15*
X105567496Y-152084176D03*
X95561850Y-150319910D03*
D17*
X100564673Y-151202043D03*
%TD*%
D20*
%TO.C,D45*%
X132835132Y-163992567D03*
D21*
X140339367Y-165315766D03*
%TD*%
D15*
%TO.C,SW58*%
X167998716Y-160785181D03*
D16*
X168808355Y-158063236D03*
D15*
X178004362Y-159020915D03*
D17*
X173001539Y-159903048D03*
D16*
X174620818Y-154459158D03*
%TD*%
%TO.C,SW21*%
X196107818Y-93477026D03*
D15*
X195298179Y-96198971D03*
D16*
X201920281Y-89872948D03*
D17*
X200301002Y-95316838D03*
D15*
X205303825Y-94434705D03*
%TD*%
%TO.C,SW25*%
X271167529Y-87657127D03*
D16*
X277789631Y-81331104D03*
D15*
X281173175Y-85892861D03*
D16*
X271977168Y-84935182D03*
D17*
X276170352Y-86774994D03*
%TD*%
D16*
%TO.C,SW59*%
X194208405Y-155841308D03*
D15*
X197591949Y-160403065D03*
D16*
X188395942Y-159445386D03*
D17*
X192589126Y-161285198D03*
D15*
X187586303Y-162167331D03*
%TD*%
D20*
%TO.C,D43*%
X98952754Y-136739926D03*
D21*
X106456989Y-138063125D03*
%TD*%
D18*
%TO.C,D23*%
X234669131Y-94422792D03*
D19*
X242173366Y-93099593D03*
%TD*%
D16*
%TO.C,SW54*%
X66427041Y-140024291D03*
D15*
X68046320Y-145468181D03*
D16*
X59732446Y-141423037D03*
D15*
X58040674Y-143703915D03*
D17*
X63043497Y-144586048D03*
%TD*%
D15*
%TO.C,SW4*%
X101196698Y-67167623D03*
D17*
X96193875Y-66285490D03*
D16*
X99577419Y-61723733D03*
D15*
X91191052Y-65403357D03*
D16*
X92882824Y-63122479D03*
%TD*%
D20*
%TO.C,D18*%
X123171538Y-109092954D03*
D21*
X130675773Y-110416153D03*
%TD*%
D20*
%TO.C,D44*%
X116555543Y-146614129D03*
D21*
X124059778Y-147937328D03*
%TD*%
D20*
%TO.C,D42*%
X81349966Y-126865722D03*
D21*
X88854201Y-128188921D03*
%TD*%
D18*
%TO.C,D33*%
X182820085Y-129485973D03*
D19*
X190324320Y-128162774D03*
%TD*%
D17*
%TO.C,SW41*%
X66351495Y-125825461D03*
D15*
X71354318Y-126707594D03*
D16*
X63040444Y-122662450D03*
X69735039Y-121263704D03*
D15*
X61348672Y-124943328D03*
%TD*%
D16*
%TO.C,SW28*%
X73043037Y-102503116D03*
X66348442Y-103901862D03*
D15*
X64656670Y-106182740D03*
X74662316Y-107947006D03*
D17*
X69659493Y-107064873D03*
%TD*%
D16*
%TO.C,SW31*%
X128167000Y-118993315D03*
X121472405Y-120392061D03*
D15*
X119780633Y-122672939D03*
D17*
X124783456Y-123555072D03*
D15*
X129786279Y-124437205D03*
%TD*%
D18*
%TO.C,D11*%
X250981801Y-77231959D03*
D19*
X258486036Y-75908760D03*
%TD*%
D18*
%TO.C,D24*%
X254256718Y-95804941D03*
D19*
X261760953Y-94481742D03*
%TD*%
D18*
%TO.C,D12*%
X269742388Y-73923962D03*
D19*
X277246623Y-72600763D03*
%TD*%
D18*
%TO.C,D62*%
X244560045Y-150516948D03*
D19*
X252064280Y-149193749D03*
%TD*%
D20*
%TO.C,D3*%
X71355572Y-73842167D03*
D21*
X78859807Y-75165366D03*
%TD*%
D20*
%TO.C,D39*%
X23083404Y-128198081D03*
D21*
X30587639Y-129521280D03*
%TD*%
D18*
%TO.C,D46*%
X186128083Y-148246560D03*
D19*
X193632318Y-146923361D03*
%TD*%
D16*
%TO.C,SW5*%
X110485613Y-72996683D03*
D15*
X108793841Y-75277561D03*
D17*
X113796664Y-76159694D03*
D15*
X118799487Y-77041827D03*
D16*
X117180208Y-71597937D03*
%TD*%
%TO.C,SW34*%
X205195198Y-108445930D03*
D17*
X203575919Y-113889820D03*
D15*
X198573096Y-114771953D03*
D16*
X199382735Y-112050008D03*
D15*
X208578742Y-113007687D03*
%TD*%
D18*
%TO.C,D58*%
X169848494Y-165624998D03*
D19*
X177352729Y-164301799D03*
%TD*%
D16*
%TO.C,SW9*%
X216248151Y-61425763D03*
D17*
X214628872Y-66869653D03*
D16*
X210435688Y-65029841D03*
D15*
X219631695Y-65987520D03*
X209626049Y-67751786D03*
%TD*%
D18*
%TO.C,D25*%
X273017306Y-92496944D03*
D19*
X280521541Y-91173745D03*
%TD*%
D20*
%TO.C,D26*%
X26391402Y-109437494D03*
D21*
X33895637Y-110760693D03*
%TD*%
D17*
%TO.C,SW62*%
X247713090Y-144794998D03*
D15*
X242710267Y-145677131D03*
D16*
X243519906Y-142955186D03*
D15*
X252715913Y-143912865D03*
D16*
X249332369Y-139351108D03*
%TD*%
D17*
%TO.C,SW44*%
X121475459Y-142315660D03*
D16*
X124859003Y-137753903D03*
X118164408Y-139152649D03*
D15*
X116472636Y-141433527D03*
X126478282Y-143197793D03*
%TD*%
D18*
%TO.C,D50*%
X260839634Y-133138510D03*
D19*
X268343869Y-131815311D03*
%TD*%
D20*
%TO.C,D13*%
X29699400Y-90676906D03*
D21*
X37203635Y-92000105D03*
%TD*%
D15*
%TO.C,SW22*%
X212900967Y-86324767D03*
D16*
X213710606Y-83602822D03*
D17*
X217903790Y-85442634D03*
D15*
X222906613Y-84560501D03*
D16*
X219523069Y-79998744D03*
%TD*%
D15*
%TO.C,SW38*%
X284448093Y-104465842D03*
D16*
X275252086Y-103508163D03*
D15*
X274442447Y-106230108D03*
D17*
X279445270Y-105347975D03*
D16*
X281064549Y-99904085D03*
%TD*%
%TO.C,SW57*%
X121551005Y-156514490D03*
D15*
X113164638Y-160194114D03*
D17*
X118167461Y-161076247D03*
D16*
X114856410Y-157913236D03*
D15*
X123170284Y-161958380D03*
%TD*%
D13*
%TO.C,U1*%
X163195000Y-61835500D03*
X163195000Y-64375500D03*
X163195000Y-66915500D03*
X163195000Y-69455500D03*
X163195000Y-71995500D03*
X163195000Y-74535500D03*
X163195000Y-77075500D03*
X163195000Y-79615500D03*
X163195000Y-82155500D03*
X163195000Y-84695500D03*
X163195000Y-87235500D03*
X163195000Y-89775500D03*
X147955000Y-89775500D03*
X147955000Y-87235500D03*
X147955000Y-84695500D03*
X147955000Y-82155500D03*
X147955000Y-79615500D03*
X147955000Y-77075500D03*
X147955000Y-74535500D03*
X147955000Y-71995500D03*
X147955000Y-69455500D03*
X147955000Y-66915500D03*
X147955000Y-64375500D03*
D14*
X147955000Y-61835500D03*
%TD*%
D18*
%TO.C,D8*%
X193873038Y-82465806D03*
D19*
X201377273Y-81142607D03*
%TD*%
D18*
%TO.C,D20*%
X179545167Y-110912991D03*
D19*
X187049402Y-109589792D03*
%TD*%
D16*
%TO.C,SW64*%
X281868081Y-141029338D03*
D17*
X286061265Y-142869150D03*
D16*
X287680544Y-137425260D03*
D15*
X281058442Y-143751283D03*
X291064088Y-141987017D03*
%TD*%
D18*
%TO.C,D38*%
X276292224Y-111069925D03*
D19*
X283796459Y-109746726D03*
%TD*%
D20*
%TO.C,D31*%
X119863541Y-127853541D03*
D21*
X127367776Y-129176740D03*
%TD*%
D15*
%TO.C,SW63*%
X262297854Y-147059281D03*
D16*
X263107493Y-144337336D03*
D17*
X267300677Y-146177148D03*
D16*
X268919956Y-140733258D03*
D15*
X272303500Y-145295015D03*
%TD*%
D20*
%TO.C,D27*%
X45151990Y-112745492D03*
D21*
X52656225Y-114068691D03*
%TD*%
D16*
%TO.C,SW36*%
X242716374Y-101829934D03*
D15*
X246099918Y-106391691D03*
X236094272Y-108155957D03*
D16*
X236903911Y-105434012D03*
D17*
X241097095Y-107273824D03*
%TD*%
D16*
%TO.C,SW8*%
X192832900Y-74904044D03*
X198645363Y-71299966D03*
D15*
X202028907Y-75861723D03*
X192023261Y-77625989D03*
D17*
X197026084Y-76743856D03*
%TD*%
D16*
%TO.C,SW45*%
X141138592Y-155132341D03*
D15*
X142757871Y-160576231D03*
D17*
X137755048Y-159694098D03*
D15*
X132752225Y-158811965D03*
D16*
X134443997Y-156531087D03*
%TD*%
D15*
%TO.C,SW46*%
X194283952Y-141642477D03*
D17*
X189281129Y-142524610D03*
D15*
X184278306Y-143406743D03*
D16*
X190900408Y-137080720D03*
X185087945Y-140684798D03*
%TD*%
D20*
%TO.C,D56*%
X95644757Y-155500512D03*
D21*
X103148992Y-156823711D03*
%TD*%
D16*
%TO.C,SW50*%
X259799496Y-125576748D03*
D15*
X258989857Y-128298693D03*
X268995503Y-126534427D03*
D16*
X265611959Y-121972670D03*
D17*
X263992680Y-127416560D03*
%TD*%
D16*
%TO.C,SW33*%
X181779947Y-121924211D03*
D15*
X180970308Y-124646156D03*
D17*
X185973131Y-123764023D03*
D16*
X187592410Y-118320133D03*
D15*
X190975954Y-122881890D03*
%TD*%
%TO.C,SW55*%
X77959061Y-140445707D03*
X87964707Y-142209973D03*
D17*
X82961884Y-141327840D03*
D16*
X86345428Y-136766083D03*
X79650833Y-138164829D03*
%TD*%
%TO.C,SW43*%
X100561619Y-129278446D03*
D17*
X103872670Y-132441457D03*
D16*
X107256214Y-127879700D03*
D15*
X98869847Y-131559324D03*
X108875493Y-133323590D03*
%TD*%
D20*
%TO.C,D54*%
X58123581Y-148884517D03*
D21*
X65627816Y-150207716D03*
%TD*%
D18*
%TO.C,D36*%
X237944049Y-112995774D03*
D19*
X245448284Y-111672575D03*
%TD*%
D16*
%TO.C,SW16*%
X89574826Y-81883067D03*
D15*
X97888700Y-85928211D03*
X87883054Y-84163945D03*
D17*
X92885877Y-85046078D03*
D16*
X96269421Y-80484321D03*
%TD*%
D20*
%TO.C,D1*%
X33007397Y-71916318D03*
D21*
X40511632Y-73239517D03*
%TD*%
D15*
%TO.C,SW26*%
X26308495Y-104256892D03*
D16*
X34694862Y-100577268D03*
D15*
X36314141Y-106021158D03*
D16*
X28000267Y-101976014D03*
D17*
X31311318Y-105139025D03*
%TD*%
D15*
%TO.C,SW18*%
X123088631Y-103912352D03*
D16*
X124780403Y-101631474D03*
D15*
X133094277Y-105676618D03*
D16*
X131474998Y-100232728D03*
D17*
X128091454Y-104794485D03*
%TD*%
%TO.C,SW15*%
X72967490Y-88304286D03*
D16*
X76351034Y-83742529D03*
X69656439Y-85141275D03*
D15*
X77970313Y-89186419D03*
X67964667Y-87422153D03*
%TD*%
D20*
%TO.C,D4*%
X91273959Y-70583959D03*
D21*
X98778194Y-71907158D03*
%TD*%
D20*
%TO.C,D19*%
X136515317Y-144787860D03*
D21*
X144019552Y-146111059D03*
%TD*%
D16*
%TO.C,SW42*%
X89653426Y-118005496D03*
D17*
X86269882Y-122567253D03*
D15*
X81267059Y-121685120D03*
D16*
X82958831Y-119404242D03*
D15*
X91272705Y-123449386D03*
%TD*%
D18*
%TO.C,D7*%
X176270250Y-92340009D03*
D19*
X183774485Y-91016810D03*
%TD*%
D15*
%TO.C,SW48*%
X219483882Y-123658336D03*
D16*
X226105984Y-117332313D03*
D17*
X224486705Y-122776203D03*
D15*
X229489528Y-121894070D03*
D16*
X220293521Y-120936391D03*
%TD*%
D20*
%TO.C,D17*%
X105568750Y-99218750D03*
D21*
X113072985Y-100541949D03*
%TD*%
M02*
