M48
; DRILL file {KiCad (6.0.8)} date Sat Feb 18 20:02:15 2023
; FORMAT={-:-/ absolute / inch / decimal}
; #@! TF.CreationDate,2023-02-18T20:02:15+07:00
; #@! TF.GenerationSoftware,Kicad,Pcbnew,(6.0.8)
; #@! TF.FileFunction,NonPlated,1,2,NPTH
FMAT,2
INCH
; #@! TA.AperFunction,NonPlated,NPTH,ComponentDrill
T1C0.0689
; #@! TA.AperFunction,NonPlated,NPTH,ComponentDrill
T2C0.1181
; #@! TA.AperFunction,NonPlated,NPTH,ComponentDrill
T3C0.1570
%
G90
G05
T1
X0.7753Y-5.5818
X0.9055Y-4.8432
X1.0358Y-4.1046
X1.166Y-3.366
X1.1692Y-5.6513
X1.2962Y-2.6274
X1.2995Y-4.9127
X1.4297Y-4.1741
X1.5139Y-5.712
X1.5599Y-3.4355
X1.6441Y-4.9734
X1.6902Y-2.6968
X1.7744Y-4.2348
X1.9046Y-3.4962
X1.9078Y-5.7815
X2.0348Y-2.7576
X2.0381Y-5.0429
X2.1683Y-4.3043
X2.2851Y-5.6576
X2.2985Y-3.5657
X2.4153Y-4.919
X2.4288Y-2.8271
X2.5455Y-4.1804
X2.6758Y-3.4418
X2.679Y-5.7271
X2.806Y-2.7032
X2.8092Y-4.9885
X2.9395Y-4.2499
X3.0693Y-5.5294
X3.0697Y-3.5113
X3.1995Y-4.7908
X3.1999Y-2.7727
X3.3297Y-4.0521
X3.46Y-3.3135
X3.4632Y-5.5988
X3.5902Y-2.5749
X3.5934Y-4.8602
X3.7236Y-4.1216
X3.7623Y-5.9181
X3.8539Y-3.383
X3.8925Y-5.1795
X3.9841Y-2.6444
X4.0227Y-4.4409
X4.153Y-3.7023
X4.1562Y-5.9876
X4.2832Y-2.9637
X4.2864Y-5.249
X4.4167Y-4.5104
X4.4553Y-6.3069
X4.5469Y-3.7717
X4.5855Y-5.5682
X4.6771Y-3.0331
X4.7158Y-4.8296
X4.846Y-4.091
X4.8492Y-6.3763
X4.9762Y-3.3524
X4.9795Y-5.6377
X5.1097Y-4.8991
X5.2265Y-6.2524
X5.2399Y-4.1605
X5.3702Y-3.4219
X5.3714Y-5.4963
X5.6204Y-6.3219
X5.7653Y-5.5658
X6.4832Y-5.5878
X6.6141Y-6.3301
X6.8669Y-3.4449
X6.8772Y-5.5184
X6.9959Y-4.1761
X7.008Y-6.2607
X7.1248Y-4.9073
X7.2551Y-5.6459
X7.2609Y-3.3754
X7.3853Y-6.3845
X7.3898Y-4.1066
X7.5187Y-4.8379
X7.56Y-3.0561
X7.649Y-5.5765
X7.6889Y-3.7874
X7.7792Y-6.3151
X7.8178Y-4.5186
X7.9481Y-5.2572
X7.9539Y-2.9867
X8.0783Y-5.9958
X8.0828Y-3.7179
X8.2118Y-4.4491
X8.253Y-2.6674
X8.342Y-5.1877
X8.3819Y-3.3986
X8.4722Y-5.9263
X8.5109Y-4.1298
X8.6411Y-4.8684
X8.6469Y-2.5979
X8.7713Y-5.607
X8.7759Y-3.3292
X8.9048Y-4.0604
X9.035Y-4.799
X9.0372Y-2.7957
X9.1653Y-5.5376
X9.1661Y-3.5269
X9.2951Y-4.2581
X9.4253Y-4.9967
X9.4311Y-2.7262
X9.5555Y-5.7353
X9.56Y-3.4574
X9.689Y-4.1886
X9.8083Y-2.8501
X9.8192Y-4.9273
X9.9373Y-3.5813
X9.9494Y-5.6659
X10.0662Y-4.3125
X10.1965Y-5.0511
X10.2023Y-2.7806
X10.3267Y-5.7897
X10.3312Y-3.5118
X10.4601Y-4.2431
X10.547Y-2.7198
X10.5904Y-4.9817
X10.6759Y-3.4511
X10.7206Y-5.7203
X10.8048Y-4.1823
X10.9351Y-4.9209
X10.9409Y-2.6504
X11.0653Y-5.6595
X11.0698Y-3.3816
X11.1987Y-4.1128
X11.329Y-4.8514
X11.4592Y-5.59
T2
X0.8419Y-5.492
X0.9721Y-4.7534
X1.1024Y-4.0148
X1.1055Y-5.4369
X1.2326Y-3.2762
X1.2357Y-4.6983
X1.3628Y-2.5376
X1.3659Y-3.9597
X1.4962Y-3.2211
X1.5805Y-5.6223
X1.6264Y-2.4825
X1.7107Y-4.8836
X1.841Y-4.145
X1.8441Y-5.5672
X1.9712Y-3.4064
X1.9743Y-4.8286
X2.1015Y-2.6678
X2.1045Y-4.09
X2.2348Y-3.3514
X2.3517Y-5.5678
X2.365Y-2.6128
X2.4819Y-4.8292
X2.6121Y-4.0906
X2.6152Y-5.5128
X2.7424Y-3.352
X2.7455Y-4.7742
X2.8726Y-2.6134
X2.8757Y-4.0356
X3.0059Y-3.2969
X3.1359Y-5.4396
X3.1362Y-2.5583
X3.2661Y-4.701
X3.3963Y-3.9623
X3.3994Y-5.3845
X3.5266Y-3.2237
X3.5297Y-4.6459
X3.6568Y-2.4851
X3.6599Y-3.9073
X3.7901Y-3.1687
X3.8289Y-5.8283
X3.9204Y-2.4301
X3.9591Y-5.0897
X4.0894Y-4.3511
X4.0924Y-5.7732
X4.2196Y-3.6125
X4.2227Y-5.0346
X4.3498Y-2.8739
X4.3529Y-4.296
X4.4832Y-3.5574
X4.5219Y-6.2171
X4.6134Y-2.8188
X4.6521Y-5.4785
X4.7824Y-4.7398
X4.7855Y-6.162
X4.9126Y-4.0012
X4.9157Y-5.4234
X5.0429Y-3.2626
X5.0459Y-4.6848
X5.1762Y-3.9462
X5.2931Y-6.1626
X5.3064Y-3.2076
X5.438Y-5.4066
X5.5566Y-6.1076
X5.7015Y-5.3515
X6.5151Y-5.4807
X6.646Y-6.223
X6.7439Y-5.3388
X6.8748Y-6.0811
X6.8988Y-3.3377
X7.0278Y-4.0689
X7.1277Y-3.1958
X7.1567Y-4.8002
X7.2566Y-3.9271
X7.2869Y-5.5388
X7.3855Y-4.6583
X7.4172Y-6.2774
X7.5158Y-5.3969
X7.5918Y-2.949
X7.646Y-6.1355
X7.7208Y-3.6802
X7.8207Y-2.8071
X7.8497Y-4.4114
X7.9496Y-3.5383
X7.98Y-5.15
X8.0786Y-4.2695
X8.1102Y-5.8886
X8.2088Y-5.0081
X8.2849Y-2.5602
X8.339Y-5.7467
X8.4138Y-3.2914
X8.5137Y-2.4183
X8.5427Y-4.0227
X8.6426Y-3.1496
X8.673Y-4.7613
X8.7716Y-3.8808
X8.8032Y-5.4999
X8.9018Y-4.6194
X9.032Y-5.358
X9.0691Y-2.6885
X9.198Y-3.4197
X9.2979Y-2.5466
X9.3269Y-4.1509
X9.4268Y-3.2778
X9.4572Y-4.8896
X9.5558Y-4.0091
X9.5874Y-5.6282
X9.686Y-4.7477
X9.8162Y-5.4863
X9.8402Y-2.7429
X9.9692Y-3.4741
X10.0691Y-2.601
X10.0981Y-4.2054
X10.198Y-3.3322
X10.2283Y-4.944
X10.3269Y-4.0635
X10.3586Y-5.6826
X10.4572Y-4.8021
X10.5788Y-2.6127
X10.5874Y-5.5407
X10.7078Y-3.3439
X10.8077Y-2.4708
X10.8367Y-4.0751
X10.9366Y-3.202
X10.9669Y-4.8137
X11.0655Y-3.9332
X11.0972Y-5.5523
X11.1958Y-4.6718
X11.326Y-5.4104
T3
X0.9723Y-5.6165
X1.1025Y-4.8779
X1.2327Y-4.1393
X1.363Y-3.4007
X1.4932Y-2.6621
X1.7109Y-5.7468
X1.8411Y-5.0082
X1.9713Y-4.2696
X2.1016Y-3.531
X2.2318Y-2.7924
X2.482Y-5.6924
X2.6123Y-4.9538
X2.7425Y-4.2152
X2.8727Y-3.4765
X3.003Y-2.7379
X3.2662Y-5.5641
X3.3965Y-4.8255
X3.5267Y-4.0869
X3.6569Y-3.3483
X3.7872Y-2.6097
X3.9592Y-5.9528
X4.0895Y-5.2142
X4.2197Y-4.4756
X4.3499Y-3.737
X4.4802Y-2.9984
X4.6523Y-6.3416
X4.7825Y-5.603
X4.9127Y-4.8644
X5.043Y-4.1258
X5.1732Y-3.3872
X5.4234Y-6.2872
X5.5683Y-5.5311
X6.6802Y-5.5531
X6.8111Y-6.2954
X7.0639Y-3.4102
X7.1928Y-4.1414
X7.3218Y-4.8726
X7.452Y-5.6112
X7.5822Y-6.3498
X7.7569Y-3.0214
X7.8859Y-3.7526
X8.0148Y-4.4839
X8.145Y-5.2225
X8.2753Y-5.9611
X8.45Y-2.6327
X8.5789Y-3.3639
X8.7078Y-4.0951
X8.8381Y-4.8337
X8.9683Y-5.5723
X9.2341Y-2.7609
X9.3631Y-3.4922
X9.492Y-4.2234
X9.6222Y-4.962
X9.7525Y-5.7006
X10.0053Y-2.8154
X10.1342Y-3.5466
X10.2632Y-4.2778
X10.3934Y-5.0164
X10.5236Y-5.755
X10.7439Y-2.6851
X10.8728Y-3.4163
X11.0018Y-4.1476
X11.132Y-4.8862
X11.2623Y-5.6248
T0
M30
