%TF.GenerationSoftware,KiCad,Pcbnew,(6.0.8)*%
%TF.CreationDate,2023-02-18T20:03:01+07:00*%
%TF.ProjectId,test,74657374-2e6b-4696-9361-645f70636258,rev?*%
%TF.SameCoordinates,Original*%
%TF.FileFunction,Copper,L2,Bot*%
%TF.FilePolarity,Positive*%
%FSLAX46Y46*%
G04 Gerber Fmt 4.6, Leading zero omitted, Abs format (unit mm)*
G04 Created by KiCad (PCBNEW (6.0.8)) date 2023-02-18 20:03:01*
%MOMM*%
%LPD*%
G01*
G04 APERTURE LIST*
G04 Aperture macros list*
%AMHorizOval*
0 Thick line with rounded ends*
0 $1 width*
0 $2 $3 position (X,Y) of the first rounded end (center of the circle)*
0 $4 $5 position (X,Y) of the second rounded end (center of the circle)*
0 Add line between two ends*
20,1,$1,$2,$3,$4,$5,0*
0 Add two circle primitives to create the rounded ends*
1,1,$1,$2,$3*
1,1,$1,$4,$5*%
%AMRotRect*
0 Rectangle, with rotation*
0 The origin of the aperture is its center*
0 $1 length*
0 $2 width*
0 $3 Rotation angle, in degrees counterclockwise*
0 Add horizontal line*
21,1,$1,$2,0,0,$3*%
G04 Aperture macros list end*
%TA.AperFunction,NonConductor*%
%ADD10C,0.200000*%
%TD*%
%TA.AperFunction,SMDPad,CuDef*%
%ADD11RotRect,2.550000X2.500000X10.000000*%
%TD*%
%TA.AperFunction,SMDPad,CuDef*%
%ADD12RotRect,2.550000X2.500000X350.000000*%
%TD*%
%TA.AperFunction,ComponentPad*%
%ADD13RotRect,1.600000X1.600000X10.000000*%
%TD*%
%TA.AperFunction,ComponentPad*%
%ADD14HorizOval,1.600000X0.000000X0.000000X0.000000X0.000000X0*%
%TD*%
%TA.AperFunction,ComponentPad*%
%ADD15RotRect,1.600000X1.600000X350.000000*%
%TD*%
%TA.AperFunction,ComponentPad*%
%ADD16HorizOval,1.600000X0.000000X0.000000X0.000000X0.000000X0*%
%TD*%
%TA.AperFunction,ComponentPad*%
%ADD17C,1.752600*%
%TD*%
%TA.AperFunction,ComponentPad*%
%ADD18R,1.752600X1.752600*%
%TD*%
G04 APERTURE END LIST*
D10*
X72231250Y-156368750D02*
X53181250Y-153193750D01*
X107156250Y-162718750D02*
X72231250Y-156368750D01*
X52387500Y-157956250D02*
X12700000Y-150812500D01*
X108743750Y-57150000D02*
X88106250Y-53975000D01*
X88106250Y-53975000D02*
X86518750Y-60325000D01*
X86518750Y-60325000D02*
X68262500Y-57150000D01*
X106362500Y-169068750D02*
X107156250Y-162718750D01*
X127793750Y-168275000D02*
X127000000Y-173037500D01*
X127000000Y-173037500D02*
X106362500Y-169068750D01*
X68262500Y-57150000D02*
X67468750Y-61912500D01*
X146843750Y-171450000D02*
X127793750Y-168275000D01*
X12700000Y-150812500D02*
X29368750Y-55562500D01*
X67468750Y-61912500D02*
X29368750Y-55562500D01*
X53181250Y-153193750D02*
X52387500Y-157956250D01*
D11*
%TO.P,SW61,1,1*%
%TO.N,COL 9*%
X220376274Y-140265677D03*
%TO.P,SW61,2,2*%
%TO.N,Net-(D61-Pad2)*%
X232665817Y-135519515D03*
%TD*%
D12*
%TO.P,SW2,1,1*%
%TO.N,COL 1*%
X50151604Y-67194138D03*
%TO.P,SW2,2,2*%
%TO.N,Net-(D2-Pad2)*%
X63323281Y-66937476D03*
%TD*%
D13*
%TO.P,D34,1,K*%
%TO.N,ROW 2*%
X200422874Y-119611770D03*
D14*
%TO.P,D34,2,A*%
%TO.N,Net-(D34-Pad2)*%
X207927109Y-118288571D03*
%TD*%
D12*
%TO.P,SW19,1,1*%
%TO.N,COL 6*%
X134898936Y-136757682D03*
%TO.P,SW19,2,2*%
%TO.N,Net-(D19-Pad2)*%
X148070613Y-136501020D03*
%TD*%
D15*
%TO.P,D53,1,K*%
%TO.N,ROW 4*%
X38535994Y-150266666D03*
D16*
%TO.P,D53,2,A*%
%TO.N,Net-(D53-Pad2)*%
X46040229Y-151589865D03*
%TD*%
D11*
%TO.P,SW51,1,1*%
%TO.N,COL 12*%
X275334838Y-122837448D03*
%TO.P,SW51,2,2*%
%TO.N,Net-(D51-Pad2)*%
X287624381Y-118091286D03*
%TD*%
D13*
%TO.P,D61,1,K*%
%TO.N,ROW 4*%
X224641658Y-147258740D03*
D14*
%TO.P,D61,2,A*%
%TO.N,Net-(D61-Pad2)*%
X232145893Y-145935541D03*
%TD*%
D13*
%TO.P,D10,1,K*%
%TO.N,ROW 0*%
X231394214Y-75849810D03*
D14*
%TO.P,D10,2,A*%
%TO.N,Net-(D10-Pad2)*%
X238898449Y-74526611D03*
%TD*%
D13*
%TO.P,D59,1,K*%
%TO.N,ROW 4*%
X189436081Y-167007147D03*
D14*
%TO.P,D59,2,A*%
%TO.N,Net-(D59-Pad2)*%
X196940316Y-165683948D03*
%TD*%
D11*
%TO.P,SW20,1,1*%
%TO.N,COL 7*%
X175279784Y-103919927D03*
%TO.P,SW20,2,2*%
%TO.N,Net-(D20-Pad2)*%
X187569327Y-99173765D03*
%TD*%
%TO.P,SW47,1,1*%
%TO.N,COL 8*%
X199465488Y-131379292D03*
%TO.P,SW47,2,2*%
%TO.N,Net-(D47-Pad2)*%
X211755031Y-126633130D03*
%TD*%
D12*
%TO.P,SW52,1,1*%
%TO.N,COL 0*%
X18159025Y-138928490D03*
%TO.P,SW52,2,2*%
%TO.N,Net-(D52-Pad2)*%
X31330702Y-138671828D03*
%TD*%
D11*
%TO.P,SW24,1,1*%
%TO.N,COL 11*%
X249991335Y-88811877D03*
%TO.P,SW24,2,2*%
%TO.N,Net-(D24-Pad2)*%
X262280878Y-84065715D03*
%TD*%
D13*
%TO.P,D21,1,K*%
%TO.N,ROW 1*%
X197147956Y-101038788D03*
D14*
%TO.P,D21,2,A*%
%TO.N,Net-(D21-Pad2)*%
X204652191Y-99715589D03*
%TD*%
D11*
%TO.P,SW32,1,1*%
%TO.N,COL 6*%
X162258572Y-139777544D03*
%TO.P,SW32,2,2*%
%TO.N,Net-(D32-Pad2)*%
X174548115Y-135031382D03*
%TD*%
D15*
%TO.P,D40,1,K*%
%TO.N,ROW 3*%
X41843992Y-131506079D03*
D16*
%TO.P,D40,2,A*%
%TO.N,Net-(D40-Pad2)*%
X49348227Y-132829278D03*
%TD*%
D13*
%TO.P,D48,1,K*%
%TO.N,ROW 3*%
X221333660Y-128498153D03*
D14*
%TO.P,D48,2,A*%
%TO.N,Net-(D48-Pad2)*%
X228837895Y-127174954D03*
%TD*%
D15*
%TO.P,D2,1,K*%
%TO.N,ROW 0*%
X51767985Y-75224316D03*
D16*
%TO.P,D2,2,A*%
%TO.N,Net-(D2-Pad2)*%
X59272220Y-76547515D03*
%TD*%
D11*
%TO.P,SW49,1,1*%
%TO.N,COL 10*%
X236986663Y-124763297D03*
%TO.P,SW49,2,2*%
%TO.N,Net-(D49-Pad2)*%
X249276206Y-120017135D03*
%TD*%
%TO.P,SW10,1,1*%
%TO.N,COL 10*%
X227128830Y-68856746D03*
%TO.P,SW10,2,2*%
%TO.N,Net-(D10-Pad2)*%
X239418373Y-64110584D03*
%TD*%
D13*
%TO.P,D51,1,K*%
%TO.N,ROW 3*%
X279600222Y-129830512D03*
D14*
%TO.P,D51,2,A*%
%TO.N,Net-(D51-Pad2)*%
X287104457Y-128507313D03*
%TD*%
D15*
%TO.P,D41,1,K*%
%TO.N,ROW 3*%
X61431579Y-130123930D03*
D16*
%TO.P,D41,2,A*%
%TO.N,Net-(D41-Pad2)*%
X68935814Y-131447129D03*
%TD*%
D13*
%TO.P,D37,1,K*%
%TO.N,ROW 2*%
X257531636Y-114377923D03*
D14*
%TO.P,D37,2,A*%
%TO.N,Net-(D37-Pad2)*%
X265035871Y-113054724D03*
%TD*%
D11*
%TO.P,SW11,1,1*%
%TO.N,COL 11*%
X246716417Y-70238896D03*
%TO.P,SW11,2,2*%
%TO.N,Net-(D11-Pad2)*%
X259005960Y-65492734D03*
%TD*%
%TO.P,SW7,1,1*%
%TO.N,COL 7*%
X172004866Y-85346945D03*
%TO.P,SW7,2,2*%
%TO.N,Net-(D7-Pad2)*%
X184294409Y-80600783D03*
%TD*%
D13*
%TO.P,D35,1,K*%
%TO.N,ROW 2*%
X218025662Y-109737566D03*
D14*
%TO.P,D35,2,A*%
%TO.N,Net-(D35-Pad2)*%
X225529897Y-108414367D03*
%TD*%
D12*
%TO.P,SW40,1,1*%
%TO.N,COL 1*%
X40227611Y-123475901D03*
%TO.P,SW40,2,2*%
%TO.N,Net-(D40-Pad2)*%
X53399288Y-123219239D03*
%TD*%
D15*
%TO.P,D28,1,K*%
%TO.N,ROW 2*%
X64739577Y-111363342D03*
D16*
%TO.P,D28,2,A*%
%TO.N,Net-(D28-Pad2)*%
X72243812Y-112686541D03*
%TD*%
D11*
%TO.P,SW60,1,1*%
%TO.N,COL 8*%
X202773486Y-150139880D03*
%TO.P,SW60,2,2*%
%TO.N,Net-(D60-Pad2)*%
X215063029Y-145393718D03*
%TD*%
%TO.P,SW35,1,1*%
%TO.N,COL 9*%
X213760279Y-102744502D03*
%TO.P,SW35,2,2*%
%TO.N,Net-(D35-Pad2)*%
X226049822Y-97998340D03*
%TD*%
D13*
%TO.P,D60,1,K*%
%TO.N,ROW 4*%
X207038869Y-157132944D03*
D14*
%TO.P,D60,2,A*%
%TO.N,Net-(D60-Pad2)*%
X214543104Y-155809745D03*
%TD*%
D15*
%TO.P,D14,1,K*%
%TO.N,ROW 1*%
X48459987Y-93984904D03*
D16*
%TO.P,D14,2,A*%
%TO.N,Net-(D14-Pad2)*%
X55964222Y-95308103D03*
%TD*%
D15*
%TO.P,D52,1,K*%
%TO.N,ROW 4*%
X19775406Y-146958668D03*
D16*
%TO.P,D52,2,A*%
%TO.N,Net-(D52-Pad2)*%
X27279641Y-148281867D03*
%TD*%
D11*
%TO.P,SW12,1,1*%
%TO.N,COL 12*%
X265477005Y-66930898D03*
%TO.P,SW12,2,2*%
%TO.N,Net-(D12-Pad2)*%
X277766548Y-62184736D03*
%TD*%
D15*
%TO.P,D6,1,K*%
%TO.N,ROW 0*%
X126479536Y-90332366D03*
D16*
%TO.P,D6,2,A*%
%TO.N,Net-(D6-Pad2)*%
X133983771Y-91655565D03*
%TD*%
D12*
%TO.P,SW29,1,1*%
%TO.N,COL 3*%
X83041582Y-100074956D03*
%TO.P,SW29,2,2*%
%TO.N,Net-(D29-Pad2)*%
X96213259Y-99818294D03*
%TD*%
%TO.P,SW14,1,1*%
%TO.N,COL 1*%
X46843606Y-85954726D03*
%TO.P,SW14,2,2*%
%TO.N,Net-(D14-Pad2)*%
X60015283Y-85698064D03*
%TD*%
D13*
%TO.P,D64,1,K*%
%TO.N,ROW 4*%
X282908219Y-148591100D03*
D14*
%TO.P,D64,2,A*%
%TO.N,Net-(D64-Pad2)*%
X290412454Y-147267901D03*
%TD*%
D15*
%TO.P,D29,1,K*%
%TO.N,ROW 2*%
X84657964Y-108105134D03*
D16*
%TO.P,D29,2,A*%
%TO.N,Net-(D29-Pad2)*%
X92162199Y-109428333D03*
%TD*%
D15*
%TO.P,D57,1,K*%
%TO.N,ROW 4*%
X113247545Y-165374716D03*
D16*
%TO.P,D57,2,A*%
%TO.N,Net-(D57-Pad2)*%
X120751780Y-166697915D03*
%TD*%
D12*
%TO.P,SW13,1,1*%
%TO.N,COL 0*%
X28083018Y-82646728D03*
%TO.P,SW13,2,2*%
%TO.N,Net-(D13-Pad2)*%
X41254695Y-82390066D03*
%TD*%
D15*
%TO.P,D5,1,K*%
%TO.N,ROW 0*%
X108876748Y-80458163D03*
D16*
%TO.P,D5,2,A*%
%TO.N,Net-(D5-Pad2)*%
X116380983Y-81781362D03*
%TD*%
D15*
%TO.P,D15,1,K*%
%TO.N,ROW 1*%
X68047574Y-92602755D03*
D16*
%TO.P,D15,2,A*%
%TO.N,Net-(D15-Pad2)*%
X75551809Y-93925954D03*
%TD*%
D13*
%TO.P,D9,1,K*%
%TO.N,ROW 0*%
X211475827Y-72591602D03*
D14*
%TO.P,D9,2,A*%
%TO.N,Net-(D9-Pad2)*%
X218980062Y-71268403D03*
%TD*%
D11*
%TO.P,SW23,1,1*%
%TO.N,COL 10*%
X230403748Y-87429728D03*
%TO.P,SW23,2,2*%
%TO.N,Net-(D23-Pad2)*%
X242693291Y-82683566D03*
%TD*%
D12*
%TO.P,SW6,1,1*%
%TO.N,COL 5*%
X124863155Y-82302188D03*
%TO.P,SW6,2,2*%
%TO.N,Net-(D6-Pad2)*%
X138034832Y-82045526D03*
%TD*%
D13*
%TO.P,D63,1,K*%
%TO.N,ROW 4*%
X264147632Y-151899098D03*
D14*
%TO.P,D63,2,A*%
%TO.N,Net-(D63-Pad2)*%
X271651867Y-150575899D03*
%TD*%
D15*
%TO.P,D16,1,K*%
%TO.N,ROW 1*%
X87965961Y-89344547D03*
D16*
%TO.P,D16,2,A*%
%TO.N,Net-(D16-Pad2)*%
X95470196Y-90667746D03*
%TD*%
D13*
%TO.P,D22,1,K*%
%TO.N,ROW 1*%
X214750744Y-91164584D03*
D14*
%TO.P,D22,2,A*%
%TO.N,Net-(D22-Pad2)*%
X222254979Y-89841385D03*
%TD*%
D15*
%TO.P,D30,1,K*%
%TO.N,ROW 2*%
X102260752Y-117979338D03*
D16*
%TO.P,D30,2,A*%
%TO.N,Net-(D30-Pad2)*%
X109764987Y-119302537D03*
%TD*%
D12*
%TO.P,SW39,1,1*%
%TO.N,COL 0*%
X21467023Y-120167903D03*
%TO.P,SW39,2,2*%
%TO.N,Net-(D39-Pad2)*%
X34638700Y-119911241D03*
%TD*%
D13*
%TO.P,D32,1,K*%
%TO.N,ROW 2*%
X166523956Y-146770608D03*
D14*
%TO.P,D32,2,A*%
%TO.N,Net-(D32-Pad2)*%
X174028191Y-145447409D03*
%TD*%
D12*
%TO.P,SW53,1,1*%
%TO.N,COL 1*%
X36919613Y-142236488D03*
%TO.P,SW53,2,2*%
%TO.N,Net-(D53-Pad2)*%
X50091290Y-141979826D03*
%TD*%
%TO.P,SW3,1,1*%
%TO.N,COL 2*%
X69739191Y-65811989D03*
%TO.P,SW3,2,2*%
%TO.N,Net-(D3-Pad2)*%
X82910868Y-65555327D03*
%TD*%
D13*
%TO.P,D49,1,K*%
%TO.N,ROW 3*%
X241252047Y-131756361D03*
D14*
%TO.P,D49,2,A*%
%TO.N,Net-(D49-Pad2)*%
X248756282Y-130433162D03*
%TD*%
D15*
%TO.P,D55,1,K*%
%TO.N,ROW 4*%
X78041968Y-145626309D03*
D16*
%TO.P,D55,2,A*%
%TO.N,Net-(D55-Pad2)*%
X85546203Y-146949508D03*
%TD*%
D12*
%TO.P,SW1,1,1*%
%TO.N,COL 0*%
X31391016Y-63886140D03*
%TO.P,SW1,2,2*%
%TO.N,Net-(D1-Pad2)*%
X44562693Y-63629478D03*
%TD*%
D11*
%TO.P,SW37,1,1*%
%TO.N,COL 11*%
X253266253Y-107384859D03*
%TO.P,SW37,2,2*%
%TO.N,Net-(D37-Pad2)*%
X265555796Y-102638697D03*
%TD*%
D12*
%TO.P,SW17,1,1*%
%TO.N,COL 4*%
X103952369Y-91188572D03*
%TO.P,SW17,2,2*%
%TO.N,Net-(D17-Pad2)*%
X117124046Y-90931910D03*
%TD*%
%TO.P,SW27,1,1*%
%TO.N,COL 1*%
X43535608Y-104715314D03*
%TO.P,SW27,2,2*%
%TO.N,Net-(D27-Pad2)*%
X56707285Y-104458652D03*
%TD*%
D13*
%TO.P,D47,1,K*%
%TO.N,ROW 3*%
X203730871Y-138372356D03*
D14*
%TO.P,D47,2,A*%
%TO.N,Net-(D47-Pad2)*%
X211235106Y-137049157D03*
%TD*%
D12*
%TO.P,SW30,1,1*%
%TO.N,COL 4*%
X100644371Y-109949160D03*
%TO.P,SW30,2,2*%
%TO.N,Net-(D30-Pad2)*%
X113816048Y-109692498D03*
%TD*%
%TO.P,SW56,1,1*%
%TO.N,COL 4*%
X94028376Y-147470334D03*
%TO.P,SW56,2,2*%
%TO.N,Net-(D56-Pad2)*%
X107200053Y-147213672D03*
%TD*%
D15*
%TO.P,D45,1,K*%
%TO.N,ROW 3*%
X132835132Y-163992567D03*
D16*
%TO.P,D45,2,A*%
%TO.N,Net-(D45-Pad2)*%
X140339367Y-165315766D03*
%TD*%
D11*
%TO.P,SW58,1,1*%
%TO.N,COL 6*%
X165583110Y-158631934D03*
%TO.P,SW58,2,2*%
%TO.N,Net-(D58-Pad2)*%
X177872653Y-153885772D03*
%TD*%
%TO.P,SW21,1,1*%
%TO.N,COL 8*%
X192882573Y-94045724D03*
%TO.P,SW21,2,2*%
%TO.N,Net-(D21-Pad2)*%
X205172116Y-89299562D03*
%TD*%
%TO.P,SW25,1,1*%
%TO.N,COL 12*%
X268751923Y-85503880D03*
%TO.P,SW25,2,2*%
%TO.N,Net-(D25-Pad2)*%
X281041466Y-80757718D03*
%TD*%
%TO.P,SW59,1,1*%
%TO.N,COL 7*%
X185170697Y-160014084D03*
%TO.P,SW59,2,2*%
%TO.N,Net-(D59-Pad2)*%
X197460240Y-155267922D03*
%TD*%
D15*
%TO.P,D43,1,K*%
%TO.N,ROW 3*%
X98952754Y-136739926D03*
D16*
%TO.P,D43,2,A*%
%TO.N,Net-(D43-Pad2)*%
X106456989Y-138063125D03*
%TD*%
D13*
%TO.P,D23,1,K*%
%TO.N,ROW 1*%
X234669131Y-94422792D03*
D14*
%TO.P,D23,2,A*%
%TO.N,Net-(D23-Pad2)*%
X242173366Y-93099593D03*
%TD*%
D12*
%TO.P,SW54,1,1*%
%TO.N,COL 2*%
X56507200Y-140854339D03*
%TO.P,SW54,2,2*%
%TO.N,Net-(D54-Pad2)*%
X69678877Y-140597677D03*
%TD*%
%TO.P,SW4,1,1*%
%TO.N,COL 3*%
X89657578Y-62553781D03*
%TO.P,SW4,2,2*%
%TO.N,Net-(D4-Pad2)*%
X102829255Y-62297119D03*
%TD*%
D15*
%TO.P,D18,1,K*%
%TO.N,ROW 1*%
X123171538Y-109092954D03*
D16*
%TO.P,D18,2,A*%
%TO.N,Net-(D18-Pad2)*%
X130675773Y-110416153D03*
%TD*%
D15*
%TO.P,D44,1,K*%
%TO.N,ROW 3*%
X116555543Y-146614129D03*
D16*
%TO.P,D44,2,A*%
%TO.N,Net-(D44-Pad2)*%
X124059778Y-147937328D03*
%TD*%
D15*
%TO.P,D42,1,K*%
%TO.N,ROW 3*%
X81349966Y-126865722D03*
D16*
%TO.P,D42,2,A*%
%TO.N,Net-(D42-Pad2)*%
X88854201Y-128188921D03*
%TD*%
D13*
%TO.P,D33,1,K*%
%TO.N,ROW 2*%
X182820085Y-129485973D03*
D14*
%TO.P,D33,2,A*%
%TO.N,Net-(D33-Pad2)*%
X190324320Y-128162774D03*
%TD*%
D12*
%TO.P,SW41,1,1*%
%TO.N,COL 2*%
X59815198Y-122093752D03*
%TO.P,SW41,2,2*%
%TO.N,Net-(D41-Pad2)*%
X72986875Y-121837090D03*
%TD*%
%TO.P,SW28,1,1*%
%TO.N,COL 2*%
X63123196Y-103333164D03*
%TO.P,SW28,2,2*%
%TO.N,Net-(D28-Pad2)*%
X76294873Y-103076502D03*
%TD*%
%TO.P,SW31,1,1*%
%TO.N,COL 5*%
X118247159Y-119823363D03*
%TO.P,SW31,2,2*%
%TO.N,Net-(D31-Pad2)*%
X131418836Y-119566701D03*
%TD*%
D13*
%TO.P,D11,1,K*%
%TO.N,ROW 0*%
X250981801Y-77231959D03*
D14*
%TO.P,D11,2,A*%
%TO.N,Net-(D11-Pad2)*%
X258486036Y-75908760D03*
%TD*%
D13*
%TO.P,D24,1,K*%
%TO.N,ROW 1*%
X254256718Y-95804941D03*
D14*
%TO.P,D24,2,A*%
%TO.N,Net-(D24-Pad2)*%
X261760953Y-94481742D03*
%TD*%
D13*
%TO.P,D12,1,K*%
%TO.N,ROW 0*%
X269742388Y-73923962D03*
D14*
%TO.P,D12,2,A*%
%TO.N,Net-(D12-Pad2)*%
X277246623Y-72600763D03*
%TD*%
D13*
%TO.P,D62,1,K*%
%TO.N,ROW 4*%
X244560045Y-150516948D03*
D14*
%TO.P,D62,2,A*%
%TO.N,Net-(D62-Pad2)*%
X252064280Y-149193749D03*
%TD*%
D15*
%TO.P,D3,1,K*%
%TO.N,ROW 0*%
X71355572Y-73842167D03*
D16*
%TO.P,D3,2,A*%
%TO.N,Net-(D3-Pad2)*%
X78859807Y-75165366D03*
%TD*%
D15*
%TO.P,D39,1,K*%
%TO.N,ROW 3*%
X23083404Y-128198081D03*
D16*
%TO.P,D39,2,A*%
%TO.N,Net-(D39-Pad2)*%
X30587639Y-129521280D03*
%TD*%
D13*
%TO.P,D46,1,K*%
%TO.N,ROW 3*%
X186128083Y-148246560D03*
D14*
%TO.P,D46,2,A*%
%TO.N,Net-(D46-Pad2)*%
X193632318Y-146923361D03*
%TD*%
D12*
%TO.P,SW5,1,1*%
%TO.N,COL 4*%
X107260367Y-72427985D03*
%TO.P,SW5,2,2*%
%TO.N,Net-(D5-Pad2)*%
X120432044Y-72171323D03*
%TD*%
D11*
%TO.P,SW34,1,1*%
%TO.N,COL 8*%
X196157490Y-112618706D03*
%TO.P,SW34,2,2*%
%TO.N,Net-(D34-Pad2)*%
X208447033Y-107872544D03*
%TD*%
D13*
%TO.P,D58,1,K*%
%TO.N,ROW 4*%
X169848494Y-165624998D03*
D14*
%TO.P,D58,2,A*%
%TO.N,Net-(D58-Pad2)*%
X177352729Y-164301799D03*
%TD*%
D11*
%TO.P,SW9,1,1*%
%TO.N,COL 9*%
X207210443Y-65598539D03*
%TO.P,SW9,2,2*%
%TO.N,Net-(D9-Pad2)*%
X219499986Y-60852377D03*
%TD*%
D13*
%TO.P,D25,1,K*%
%TO.N,ROW 1*%
X273017306Y-92496944D03*
D14*
%TO.P,D25,2,A*%
%TO.N,Net-(D25-Pad2)*%
X280521541Y-91173745D03*
%TD*%
D15*
%TO.P,D26,1,K*%
%TO.N,ROW 2*%
X26391402Y-109437494D03*
D16*
%TO.P,D26,2,A*%
%TO.N,Net-(D26-Pad2)*%
X33895637Y-110760693D03*
%TD*%
D11*
%TO.P,SW62,1,1*%
%TO.N,COL 10*%
X240294661Y-143523884D03*
%TO.P,SW62,2,2*%
%TO.N,Net-(D62-Pad2)*%
X252584204Y-138777722D03*
%TD*%
D12*
%TO.P,SW44,1,1*%
%TO.N,COL 5*%
X114939162Y-138583951D03*
%TO.P,SW44,2,2*%
%TO.N,Net-(D44-Pad2)*%
X128110839Y-138327289D03*
%TD*%
D13*
%TO.P,D50,1,K*%
%TO.N,ROW 3*%
X260839634Y-133138510D03*
D14*
%TO.P,D50,2,A*%
%TO.N,Net-(D50-Pad2)*%
X268343869Y-131815311D03*
%TD*%
D15*
%TO.P,D13,1,K*%
%TO.N,ROW 1*%
X29699400Y-90676906D03*
D16*
%TO.P,D13,2,A*%
%TO.N,Net-(D13-Pad2)*%
X37203635Y-92000105D03*
%TD*%
D11*
%TO.P,SW22,1,1*%
%TO.N,COL 9*%
X210485361Y-84171520D03*
%TO.P,SW22,2,2*%
%TO.N,Net-(D22-Pad2)*%
X222774904Y-79425358D03*
%TD*%
%TO.P,SW38,1,1*%
%TO.N,COL 12*%
X272026841Y-104076861D03*
%TO.P,SW38,2,2*%
%TO.N,Net-(D38-Pad2)*%
X284316384Y-99330699D03*
%TD*%
D12*
%TO.P,SW57,1,1*%
%TO.N,COL 5*%
X111631164Y-157344538D03*
%TO.P,SW57,2,2*%
%TO.N,Net-(D57-Pad2)*%
X124802841Y-157087876D03*
%TD*%
D17*
%TO.P,U1,24,RAW*%
%TO.N,unconnected-(U1-Pad24)*%
X163195000Y-61835500D03*
%TO.P,U1,23,GND*%
%TO.N,unconnected-(U1-Pad23)*%
X163195000Y-64375500D03*
%TO.P,U1,22,RST*%
%TO.N,unconnected-(U1-Pad22)*%
X163195000Y-66915500D03*
%TO.P,U1,21,VCC*%
%TO.N,unconnected-(U1-Pad21)*%
X163195000Y-69455500D03*
%TO.P,U1,20,A3/PF4*%
%TO.N,unconnected-(U1-Pad20)*%
X163195000Y-71995500D03*
%TO.P,U1,19,A2/PF5*%
%TO.N,unconnected-(U1-Pad19)*%
X163195000Y-74535500D03*
%TO.P,U1,18,A1/PF6*%
%TO.N,unconnected-(U1-Pad18)*%
X163195000Y-77075500D03*
%TO.P,U1,17,A0/PF7*%
%TO.N,unconnected-(U1-Pad17)*%
X163195000Y-79615500D03*
%TO.P,U1,16,15/PB1*%
%TO.N,unconnected-(U1-Pad16)*%
X163195000Y-82155500D03*
%TO.P,U1,15,14/PB3*%
%TO.N,unconnected-(U1-Pad15)*%
X163195000Y-84695500D03*
%TO.P,U1,14,16/PB2*%
%TO.N,unconnected-(U1-Pad14)*%
X163195000Y-87235500D03*
%TO.P,U1,13,10/PB6*%
%TO.N,unconnected-(U1-Pad13)*%
X163195000Y-89775500D03*
%TO.P,U1,12,9/PB5*%
%TO.N,unconnected-(U1-Pad12)*%
X147955000Y-89775500D03*
%TO.P,U1,11,8/PB4*%
%TO.N,unconnected-(U1-Pad11)*%
X147955000Y-87235500D03*
%TO.P,U1,10,7/PE6*%
%TO.N,unconnected-(U1-Pad10)*%
X147955000Y-84695500D03*
%TO.P,U1,9,6/PD7*%
%TO.N,unconnected-(U1-Pad9)*%
X147955000Y-82155500D03*
%TO.P,U1,8,5/PC6*%
%TO.N,unconnected-(U1-Pad8)*%
X147955000Y-79615500D03*
%TO.P,U1,7,4/PD4*%
%TO.N,unconnected-(U1-Pad7)*%
X147955000Y-77075500D03*
%TO.P,U1,6,3/PD0*%
%TO.N,unconnected-(U1-Pad6)*%
X147955000Y-74535500D03*
%TO.P,U1,5,2/PD1*%
%TO.N,unconnected-(U1-Pad5)*%
X147955000Y-71995500D03*
%TO.P,U1,4,GND*%
%TO.N,unconnected-(U1-Pad4)*%
X147955000Y-69455500D03*
%TO.P,U1,3,GND*%
%TO.N,unconnected-(U1-Pad3)*%
X147955000Y-66915500D03*
%TO.P,U1,2,RX1/PD2*%
%TO.N,unconnected-(U1-Pad2)*%
X147955000Y-64375500D03*
D18*
%TO.P,U1,1,TX0/PD3*%
%TO.N,unconnected-(U1-Pad1)*%
X147955000Y-61835500D03*
%TD*%
D13*
%TO.P,D8,1,K*%
%TO.N,ROW 0*%
X193873038Y-82465806D03*
D14*
%TO.P,D8,2,A*%
%TO.N,Net-(D8-Pad2)*%
X201377273Y-81142607D03*
%TD*%
D13*
%TO.P,D20,1,K*%
%TO.N,ROW 1*%
X179545167Y-110912991D03*
D14*
%TO.P,D20,2,A*%
%TO.N,Net-(D20-Pad2)*%
X187049402Y-109589792D03*
%TD*%
D11*
%TO.P,SW64,1,1*%
%TO.N,COL 12*%
X278642836Y-141598036D03*
%TO.P,SW64,2,2*%
%TO.N,Net-(D64-Pad2)*%
X290932379Y-136851874D03*
%TD*%
D13*
%TO.P,D38,1,K*%
%TO.N,ROW 2*%
X276292224Y-111069925D03*
D14*
%TO.P,D38,2,A*%
%TO.N,Net-(D38-Pad2)*%
X283796459Y-109746726D03*
%TD*%
D15*
%TO.P,D31,1,K*%
%TO.N,ROW 2*%
X119863541Y-127853541D03*
D16*
%TO.P,D31,2,A*%
%TO.N,Net-(D31-Pad2)*%
X127367776Y-129176740D03*
%TD*%
D11*
%TO.P,SW63,1,1*%
%TO.N,COL 11*%
X259882248Y-144906034D03*
%TO.P,SW63,2,2*%
%TO.N,Net-(D63-Pad2)*%
X272171791Y-140159872D03*
%TD*%
D15*
%TO.P,D27,1,K*%
%TO.N,ROW 2*%
X45151990Y-112745492D03*
D16*
%TO.P,D27,2,A*%
%TO.N,Net-(D27-Pad2)*%
X52656225Y-114068691D03*
%TD*%
D11*
%TO.P,SW36,1,1*%
%TO.N,COL 10*%
X233678666Y-106002710D03*
%TO.P,SW36,2,2*%
%TO.N,Net-(D36-Pad2)*%
X245968209Y-101256548D03*
%TD*%
%TO.P,SW8,1,1*%
%TO.N,COL 8*%
X189607655Y-75472742D03*
%TO.P,SW8,2,2*%
%TO.N,Net-(D8-Pad2)*%
X201897198Y-70726580D03*
%TD*%
D12*
%TO.P,SW45,1,1*%
%TO.N,COL 6*%
X131218751Y-155962389D03*
%TO.P,SW45,2,2*%
%TO.N,Net-(D45-Pad2)*%
X144390428Y-155705727D03*
%TD*%
D11*
%TO.P,SW46,1,1*%
%TO.N,COL 7*%
X181862700Y-141253496D03*
%TO.P,SW46,2,2*%
%TO.N,Net-(D46-Pad2)*%
X194152243Y-136507334D03*
%TD*%
D15*
%TO.P,D56,1,K*%
%TO.N,ROW 4*%
X95644757Y-155500512D03*
D16*
%TO.P,D56,2,A*%
%TO.N,Net-(D56-Pad2)*%
X103148992Y-156823711D03*
%TD*%
D11*
%TO.P,SW50,1,1*%
%TO.N,COL 11*%
X256574251Y-126145446D03*
%TO.P,SW50,2,2*%
%TO.N,Net-(D50-Pad2)*%
X268863794Y-121399284D03*
%TD*%
%TO.P,SW33,1,1*%
%TO.N,COL 7*%
X178554702Y-122492909D03*
%TO.P,SW33,2,2*%
%TO.N,Net-(D33-Pad2)*%
X190844245Y-117746747D03*
%TD*%
D12*
%TO.P,SW55,1,1*%
%TO.N,COL 3*%
X76425587Y-137596131D03*
%TO.P,SW55,2,2*%
%TO.N,Net-(D55-Pad2)*%
X89597264Y-137339469D03*
%TD*%
%TO.P,SW43,1,1*%
%TO.N,COL 4*%
X97336373Y-128709748D03*
%TO.P,SW43,2,2*%
%TO.N,Net-(D43-Pad2)*%
X110508050Y-128453086D03*
%TD*%
D15*
%TO.P,D54,1,K*%
%TO.N,ROW 4*%
X58123581Y-148884517D03*
D16*
%TO.P,D54,2,A*%
%TO.N,Net-(D54-Pad2)*%
X65627816Y-150207716D03*
%TD*%
D13*
%TO.P,D36,1,K*%
%TO.N,ROW 2*%
X237944049Y-112995774D03*
D14*
%TO.P,D36,2,A*%
%TO.N,Net-(D36-Pad2)*%
X245448284Y-111672575D03*
%TD*%
D12*
%TO.P,SW16,1,1*%
%TO.N,COL 3*%
X86349580Y-81314369D03*
%TO.P,SW16,2,2*%
%TO.N,Net-(D16-Pad2)*%
X99521257Y-81057707D03*
%TD*%
D15*
%TO.P,D1,1,K*%
%TO.N,ROW 0*%
X33007397Y-71916318D03*
D16*
%TO.P,D1,2,A*%
%TO.N,Net-(D1-Pad2)*%
X40511632Y-73239517D03*
%TD*%
D12*
%TO.P,SW26,1,1*%
%TO.N,COL 0*%
X24775021Y-101407316D03*
%TO.P,SW26,2,2*%
%TO.N,Net-(D26-Pad2)*%
X37946698Y-101150654D03*
%TD*%
%TO.P,SW18,1,1*%
%TO.N,COL 5*%
X121555157Y-101062776D03*
%TO.P,SW18,2,2*%
%TO.N,Net-(D18-Pad2)*%
X134726834Y-100806114D03*
%TD*%
%TO.P,SW15,1,1*%
%TO.N,COL 2*%
X66431193Y-84572577D03*
%TO.P,SW15,2,2*%
%TO.N,Net-(D15-Pad2)*%
X79602870Y-84315915D03*
%TD*%
D15*
%TO.P,D4,1,K*%
%TO.N,ROW 0*%
X91273959Y-70583959D03*
D16*
%TO.P,D4,2,A*%
%TO.N,Net-(D4-Pad2)*%
X98778194Y-71907158D03*
%TD*%
D15*
%TO.P,D19,1,K*%
%TO.N,ROW 1*%
X136515317Y-144787860D03*
D16*
%TO.P,D19,2,A*%
%TO.N,Net-(D19-Pad2)*%
X144019552Y-146111059D03*
%TD*%
D12*
%TO.P,SW42,1,1*%
%TO.N,COL 3*%
X79733585Y-118835544D03*
%TO.P,SW42,2,2*%
%TO.N,Net-(D42-Pad2)*%
X92905262Y-118578882D03*
%TD*%
D13*
%TO.P,D7,1,K*%
%TO.N,ROW 0*%
X176270250Y-92340009D03*
D14*
%TO.P,D7,2,A*%
%TO.N,Net-(D7-Pad2)*%
X183774485Y-91016810D03*
%TD*%
D11*
%TO.P,SW48,1,1*%
%TO.N,COL 9*%
X217068276Y-121505089D03*
%TO.P,SW48,2,2*%
%TO.N,Net-(D48-Pad2)*%
X229357819Y-116758927D03*
%TD*%
D15*
%TO.P,D17,1,K*%
%TO.N,ROW 1*%
X105568750Y-99218750D03*
D16*
%TO.P,D17,2,A*%
%TO.N,Net-(D17-Pad2)*%
X113072985Y-100541949D03*
%TD*%
M02*
