M48
; DRILL file {KiCad (6.0.8)} date Thu Mar 16 04:40:59 2023
; FORMAT={-:-/ absolute / inch / decimal}
; #@! TF.CreationDate,2023-03-16T04:40:59+07:00
; #@! TF.GenerationSoftware,Kicad,Pcbnew,(6.0.8)
; #@! TF.FileFunction,NonPlated,1,2,NPTH
FMAT,2
INCH
; #@! TA.AperFunction,NonPlated,NPTH,ComponentDrill
T1C0.0689
; #@! TA.AperFunction,NonPlated,NPTH,ComponentDrill
T2C0.1181
; #@! TA.AperFunction,NonPlated,NPTH,ComponentDrill
T3C0.1570
%
G90
G05
T1
X10.3008Y-13.3345
X10.431Y-12.5959
X10.5612Y-11.8573
X10.6915Y-11.1187
X10.6947Y-13.4039
X10.8217Y-10.3801
X10.8249Y-12.6653
X10.9552Y-11.9267
X11.0394Y-13.4647
X11.0854Y-11.1881
X11.1696Y-12.7261
X11.2156Y-10.4495
X11.2998Y-11.9875
X11.4301Y-11.2489
X11.4333Y-13.5342
X11.5603Y-10.5103
X11.5635Y-12.7956
X11.6938Y-12.057
X11.8105Y-13.4103
X11.824Y-11.3184
X11.9408Y-12.6717
X11.9542Y-10.5798
X12.071Y-11.9331
X12.2012Y-11.1945
X12.2044Y-13.4798
X12.3315Y-10.4559
X12.3347Y-12.7412
X12.4649Y-12.0026
X12.5947Y-13.282
X12.5952Y-11.2639
X12.725Y-12.5434
X12.7254Y-10.5253
X12.8552Y-11.8048
X12.9854Y-11.0662
X12.9886Y-13.3515
X13.1157Y-10.3276
X13.1189Y-12.6129
X13.2491Y-11.8743
X13.2877Y-13.6708
X13.3793Y-11.1357
X13.418Y-12.9322
X13.5096Y-10.3971
X13.5482Y-12.1936
X13.6784Y-11.455
X13.6817Y-13.7402
X13.8087Y-10.7164
X13.8119Y-13.0016
X13.9421Y-12.263
X13.9808Y-14.0595
X14.0724Y-11.5244
X14.111Y-13.3209
X14.2026Y-10.7858
X14.2412Y-12.5823
X14.3715Y-11.8437
X14.3747Y-14.129
X14.5017Y-11.1051
X14.5049Y-13.3904
X14.6352Y-12.6518
X14.7519Y-14.0051
X14.7654Y-11.9132
X14.8956Y-11.1746
X14.8968Y-13.249
X15.1458Y-14.0746
X15.2907Y-13.3185
X16.0087Y-13.3405
X16.1396Y-14.0828
X16.3924Y-11.1976
X16.4026Y-13.271
X16.5213Y-11.9288
X16.5335Y-14.0133
X16.6503Y-12.66
X16.7805Y-13.3986
X16.7863Y-11.1281
X16.9107Y-14.1372
X16.9153Y-11.8593
X17.0442Y-12.5905
X17.0854Y-10.8088
X17.1744Y-13.3291
X17.2144Y-11.54
X17.3047Y-14.0678
X17.3433Y-12.2712
X17.4735Y-13.0099
X17.4794Y-10.7394
X17.6038Y-13.7485
X17.6083Y-11.4706
X17.7372Y-12.2018
X17.7785Y-10.4201
X17.8675Y-12.9404
X17.9074Y-11.1513
X17.9977Y-13.679
X18.0363Y-11.8825
X18.1666Y-12.6211
X18.1724Y-10.3506
X18.2968Y-13.3597
X18.3013Y-11.0818
X18.4302Y-11.813
X18.5605Y-12.5516
X18.5626Y-10.5483
X18.6907Y-13.2903
X18.6916Y-11.2796
X18.8205Y-12.0108
X18.9507Y-12.7494
X18.9566Y-10.4789
X19.081Y-13.488
X19.0855Y-11.2101
X19.2144Y-11.9413
X19.3338Y-10.6028
X19.3447Y-12.6799
X19.4627Y-11.334
X19.4749Y-13.4185
X19.5917Y-12.0652
X19.7219Y-12.8038
X19.7277Y-10.5333
X19.8521Y-13.5424
X19.8567Y-11.2645
X19.9856Y-11.9957
X20.0724Y-10.4725
X20.1158Y-12.7343
X20.2013Y-11.2037
X20.2461Y-13.4729
X20.3303Y-11.935
X20.4605Y-12.6736
X20.4663Y-10.4031
X20.5908Y-13.4122
X20.5953Y-11.1343
X20.7242Y-11.8655
X20.8544Y-12.6041
X20.9847Y-13.3427
T2
X10.3674Y-13.2447
X10.4976Y-12.5061
X10.6278Y-11.7675
X10.6309Y-13.1896
X10.7581Y-11.0289
X10.7612Y-12.451
X10.8883Y-10.2903
X10.8914Y-11.7124
X11.0216Y-10.9738
X11.106Y-13.3749
X11.1519Y-10.2352
X11.2362Y-12.6363
X11.3664Y-11.8977
X11.3695Y-13.3199
X11.4967Y-11.1591
X11.4998Y-12.5812
X11.6269Y-10.4205
X11.63Y-11.8426
X11.7602Y-11.104
X11.8771Y-13.3205
X11.8905Y-10.3654
X12.0074Y-12.5819
X12.1376Y-11.8433
X12.1407Y-13.2654
X12.2678Y-11.1047
X12.2709Y-12.5268
X12.3981Y-10.3661
X12.4012Y-11.7882
X12.5314Y-11.0496
X12.6613Y-13.1922
X12.6616Y-10.311
X12.7916Y-12.4536
X12.9218Y-11.715
X12.9249Y-13.1372
X13.052Y-10.9764
X13.0551Y-12.3986
X13.1823Y-10.2378
X13.1854Y-11.6599
X13.3156Y-10.9213
X13.3543Y-13.581
X13.4458Y-10.1827
X13.4846Y-12.8424
X13.6148Y-12.1038
X13.6179Y-13.5259
X13.7451Y-11.3652
X13.7481Y-12.7873
X13.8753Y-10.6266
X13.8784Y-12.0487
X14.0086Y-11.3101
X14.0474Y-13.9697
X14.1389Y-10.5715
X14.1776Y-13.2311
X14.3078Y-12.4925
X14.3109Y-13.9147
X14.4381Y-11.7539
X14.4412Y-13.1761
X14.5683Y-11.0153
X14.5714Y-12.4374
X14.7016Y-11.6988
X14.8185Y-13.9153
X14.8319Y-10.9602
X14.9634Y-13.1592
X15.0821Y-13.8602
X15.227Y-13.1042
X16.0406Y-13.2333
X16.1715Y-13.9756
X16.2694Y-13.0914
X16.4003Y-13.8337
X16.4243Y-11.0904
X16.5532Y-11.8216
X16.6531Y-10.9485
X16.6822Y-12.5528
X16.7821Y-11.6797
X16.8124Y-13.2914
X16.911Y-12.4109
X16.9426Y-14.03
X17.0412Y-13.1495
X17.1173Y-10.7016
X17.1715Y-13.8882
X17.2462Y-11.4329
X17.3461Y-10.5598
X17.3752Y-12.1641
X17.4751Y-11.291
X17.5054Y-12.9027
X17.604Y-12.0222
X17.6356Y-13.6413
X17.7342Y-12.7608
X17.8103Y-10.3129
X17.8645Y-13.4994
X17.9393Y-11.0441
X18.0392Y-10.171
X18.0682Y-11.7753
X18.1681Y-10.9022
X18.1984Y-12.5139
X18.297Y-11.6334
X18.3287Y-13.2526
X18.4273Y-12.3721
X18.5575Y-13.1107
X18.5945Y-10.4412
X18.7235Y-11.1724
X18.8234Y-10.2993
X18.8524Y-11.9036
X18.9523Y-11.0305
X18.9826Y-12.6422
X19.0812Y-11.7617
X19.1129Y-13.3808
X19.2115Y-12.5003
X19.3417Y-13.2389
X19.3657Y-10.4956
X19.4946Y-11.2268
X19.5945Y-10.3537
X19.6236Y-11.958
X19.7235Y-11.0849
X19.7538Y-12.6966
X19.8524Y-11.8161
X19.884Y-13.4352
X19.9826Y-12.5547
X20.1043Y-10.3654
X20.1129Y-13.2933
X20.2332Y-11.0966
X20.3331Y-10.2235
X20.3622Y-11.8278
X20.4621Y-10.9547
X20.4924Y-12.5664
X20.591Y-11.6859
X20.6226Y-13.305
X20.7212Y-12.4245
X20.8515Y-13.1631
T3
X10.4977Y-13.3692
X10.628Y-12.6306
X10.7582Y-11.892
X10.8884Y-11.1534
X11.0187Y-10.4148
X11.2363Y-13.4994
X11.3666Y-12.7608
X11.4968Y-12.0222
X11.627Y-11.2836
X11.7573Y-10.545
X12.0075Y-13.445
X12.1377Y-12.7064
X12.268Y-11.9678
X12.3982Y-11.2292
X12.5284Y-10.4906
X12.7917Y-13.3168
X12.9219Y-12.5782
X13.0521Y-11.8395
X13.1824Y-11.1009
X13.3126Y-10.3623
X13.4847Y-13.7055
X13.6149Y-12.9669
X13.7452Y-12.2283
X13.8754Y-11.4897
X14.0056Y-10.7511
X14.1777Y-14.0943
X14.308Y-13.3556
X14.4382Y-12.617
X14.5684Y-11.8784
X14.6987Y-11.1398
X14.9489Y-14.0398
X15.0938Y-13.2837
X16.2057Y-13.3058
X16.3365Y-14.0481
X16.5894Y-11.1628
X16.7183Y-11.894
X16.8472Y-12.6253
X16.9775Y-13.3639
X17.1077Y-14.1025
X17.2824Y-10.7741
X17.4113Y-11.5053
X17.5403Y-12.2365
X17.6705Y-12.9751
X17.8007Y-13.7137
X17.9754Y-10.3853
X18.1043Y-11.1166
X18.2333Y-11.8478
X18.3635Y-12.5864
X18.4938Y-13.325
X18.7596Y-10.5136
X18.8885Y-11.2448
X19.0175Y-11.976
X19.1477Y-12.7147
X19.2779Y-13.4533
X19.5308Y-10.568
X19.6597Y-11.2992
X19.7886Y-12.0305
X19.9189Y-12.7691
X20.0491Y-13.5077
X20.2694Y-10.4378
X20.3983Y-11.169
X20.5272Y-11.9002
X20.6575Y-12.6388
X20.7877Y-13.3774
T0
M30
