%TF.GenerationSoftware,KiCad,Pcbnew,(6.0.8)*%
%TF.CreationDate,2023-03-16T04:40:49+07:00*%
%TF.ProjectId,test,74657374-2e6b-4696-9361-645f70636258,rev?*%
%TF.SameCoordinates,Original*%
%TF.FileFunction,Paste,Bot*%
%TF.FilePolarity,Positive*%
%FSLAX46Y46*%
G04 Gerber Fmt 4.6, Leading zero omitted, Abs format (unit mm)*
G04 Created by KiCad (PCBNEW (6.0.8)) date 2023-03-16 04:40:49*
%MOMM*%
%LPD*%
G01*
G04 APERTURE LIST*
G04 Aperture macros list*
%AMRotRect*
0 Rectangle, with rotation*
0 The origin of the aperture is its center*
0 $1 length*
0 $2 width*
0 $3 Rotation angle, in degrees counterclockwise*
0 Add horizontal line*
21,1,$1,$2,0,0,$3*%
G04 Aperture macros list end*
%ADD10RotRect,2.550000X2.500000X10.000000*%
%ADD11RotRect,2.550000X2.500000X350.000000*%
G04 APERTURE END LIST*
D10*
%TO.C,SW61*%
X462322957Y-337183473D03*
X474612500Y-332437311D03*
%TD*%
%TO.C,SW58*%
X407529793Y-355549730D03*
X419819336Y-350803568D03*
%TD*%
D11*
%TO.C,SW39*%
X263413706Y-317085699D03*
X276585383Y-316829037D03*
%TD*%
D10*
%TO.C,SW34*%
X438104173Y-309536502D03*
X450393716Y-304790340D03*
%TD*%
D11*
%TO.C,SW1*%
X273337699Y-260803936D03*
X286509376Y-260547274D03*
%TD*%
D10*
%TO.C,SW11*%
X488663100Y-267156692D03*
X500952643Y-262410530D03*
%TD*%
%TO.C,SW25*%
X510698606Y-282421676D03*
X522988149Y-277675514D03*
%TD*%
D11*
%TO.C,SW30*%
X342591054Y-306866956D03*
X355762731Y-306610294D03*
%TD*%
D10*
%TO.C,SW10*%
X469075513Y-265774542D03*
X481365056Y-261028380D03*
%TD*%
D11*
%TO.C,SW56*%
X335975059Y-344388130D03*
X349146736Y-344131468D03*
%TD*%
D10*
%TO.C,SW23*%
X472350431Y-284347524D03*
X484639974Y-279601362D03*
%TD*%
%TO.C,SW8*%
X431554338Y-272390538D03*
X443843881Y-267644376D03*
%TD*%
%TO.C,SW60*%
X444720169Y-347057676D03*
X457009712Y-342311514D03*
%TD*%
D11*
%TO.C,SW41*%
X301761881Y-319011548D03*
X314933558Y-318754886D03*
%TD*%
D10*
%TO.C,SW59*%
X427117380Y-356931880D03*
X439406923Y-352185718D03*
%TD*%
%TO.C,SW22*%
X452432044Y-281089316D03*
X464721587Y-276343154D03*
%TD*%
%TO.C,SW36*%
X475625349Y-302920506D03*
X487914892Y-298174344D03*
%TD*%
%TO.C,SW49*%
X478933346Y-321681093D03*
X491222889Y-316934931D03*
%TD*%
D11*
%TO.C,SW43*%
X339283056Y-325627544D03*
X352454733Y-325370882D03*
%TD*%
%TO.C,SW4*%
X331604261Y-259471577D03*
X344775938Y-259214915D03*
%TD*%
%TO.C,SW26*%
X266721704Y-298325112D03*
X279893381Y-298068450D03*
%TD*%
D10*
%TO.C,SW33*%
X420501385Y-319410705D03*
X432790928Y-314664543D03*
%TD*%
%TO.C,SW62*%
X482241344Y-340441680D03*
X494530887Y-335695518D03*
%TD*%
D11*
%TO.C,SW29*%
X324988265Y-296992752D03*
X338159942Y-296736090D03*
%TD*%
D10*
%TO.C,SW64*%
X520589519Y-338515832D03*
X532879062Y-333769670D03*
%TD*%
%TO.C,SW47*%
X441412171Y-328297088D03*
X453701714Y-323550926D03*
%TD*%
D11*
%TO.C,SW55*%
X318372270Y-334513927D03*
X331543947Y-334257265D03*
%TD*%
%TO.C,SW40*%
X282174294Y-320393697D03*
X295345971Y-320137035D03*
%TD*%
D10*
%TO.C,SW37*%
X495212936Y-304302655D03*
X507502479Y-299556493D03*
%TD*%
D11*
%TO.C,SW27*%
X285482291Y-301633110D03*
X298653968Y-301376448D03*
%TD*%
%TO.C,SW3*%
X311685874Y-262729785D03*
X324857551Y-262473123D03*
%TD*%
D10*
%TO.C,SW35*%
X455706962Y-299662298D03*
X467996505Y-294916136D03*
%TD*%
%TO.C,SW46*%
X423809383Y-338171292D03*
X436098926Y-333425130D03*
%TD*%
D11*
%TO.C,SW15*%
X308377876Y-281490373D03*
X321549553Y-281233711D03*
%TD*%
D10*
%TO.C,SW38*%
X513973524Y-300994657D03*
X526263067Y-296248495D03*
%TD*%
D11*
%TO.C,SW6*%
X366809838Y-279219984D03*
X379981515Y-278963322D03*
%TD*%
D10*
%TO.C,SW63*%
X501828931Y-341823830D03*
X514118474Y-337077668D03*
%TD*%
%TO.C,SW32*%
X404205255Y-336695340D03*
X416494798Y-331949178D03*
%TD*%
D11*
%TO.C,SW57*%
X353577847Y-354262334D03*
X366749524Y-354005672D03*
%TD*%
%TO.C,SW44*%
X356885845Y-335501747D03*
X370057522Y-335245085D03*
%TD*%
%TO.C,SW52*%
X260105708Y-335846286D03*
X273277385Y-335589624D03*
%TD*%
D10*
%TO.C,SW24*%
X491938018Y-285729673D03*
X504227561Y-280983511D03*
%TD*%
D11*
%TO.C,SW19*%
X376845619Y-333675478D03*
X390017296Y-333418816D03*
%TD*%
%TO.C,SW2*%
X292098287Y-264111934D03*
X305269964Y-263855272D03*
%TD*%
%TO.C,SW18*%
X363501840Y-297980572D03*
X376673517Y-297723910D03*
%TD*%
%TO.C,SW16*%
X328296263Y-278232165D03*
X341467940Y-277975503D03*
%TD*%
D10*
%TO.C,SW48*%
X459014959Y-318422885D03*
X471304502Y-313676723D03*
%TD*%
D11*
%TO.C,SW14*%
X288790289Y-282872522D03*
X301961966Y-282615860D03*
%TD*%
%TO.C,SW53*%
X278866296Y-339154284D03*
X292037973Y-338897622D03*
%TD*%
D10*
%TO.C,SW12*%
X507423688Y-263848694D03*
X519713231Y-259102532D03*
%TD*%
D11*
%TO.C,SW54*%
X298453883Y-337772135D03*
X311625560Y-337515473D03*
%TD*%
D10*
%TO.C,SW20*%
X417226467Y-300837723D03*
X429516010Y-296091561D03*
%TD*%
D11*
%TO.C,SW5*%
X349207050Y-269345781D03*
X362378727Y-269089119D03*
%TD*%
%TO.C,SW17*%
X345899052Y-288106368D03*
X359070729Y-287849706D03*
%TD*%
%TO.C,SW28*%
X305069879Y-300250960D03*
X318241556Y-299994298D03*
%TD*%
D10*
%TO.C,SW7*%
X413951549Y-282264741D03*
X426241092Y-277518579D03*
%TD*%
D11*
%TO.C,SW45*%
X373165434Y-352880185D03*
X386337111Y-352623523D03*
%TD*%
D10*
%TO.C,SW9*%
X449157126Y-262516335D03*
X461446669Y-257770173D03*
%TD*%
D11*
%TO.C,SW13*%
X270029701Y-279564524D03*
X283201378Y-279307862D03*
%TD*%
D10*
%TO.C,SW21*%
X434829256Y-290963520D03*
X447118799Y-286217358D03*
%TD*%
%TO.C,SW51*%
X517281521Y-319755244D03*
X529571064Y-315009082D03*
%TD*%
D11*
%TO.C,SW42*%
X321680268Y-315753340D03*
X334851945Y-315496678D03*
%TD*%
D10*
%TO.C,SW50*%
X498520934Y-323063242D03*
X510810477Y-318317080D03*
%TD*%
D11*
%TO.C,SW31*%
X360193842Y-316741159D03*
X373365519Y-316484497D03*
%TD*%
M02*
