%TF.GenerationSoftware,KiCad,Pcbnew,(6.0.8)*%
%TF.CreationDate,2023-03-16T04:40:49+07:00*%
%TF.ProjectId,test,74657374-2e6b-4696-9361-645f70636258,rev?*%
%TF.SameCoordinates,Original*%
%TF.FileFunction,Soldermask,Top*%
%TF.FilePolarity,Negative*%
%FSLAX46Y46*%
G04 Gerber Fmt 4.6, Leading zero omitted, Abs format (unit mm)*
G04 Created by KiCad (PCBNEW (6.0.8)) date 2023-03-16 04:40:49*
%MOMM*%
%LPD*%
G01*
G04 APERTURE LIST*
G04 Aperture macros list*
%AMHorizOval*
0 Thick line with rounded ends*
0 $1 width*
0 $2 $3 position (X,Y) of the first rounded end (center of the circle)*
0 $4 $5 position (X,Y) of the second rounded end (center of the circle)*
0 Add line between two ends*
20,1,$1,$2,$3,$4,$5,0*
0 Add two circle primitives to create the rounded ends*
1,1,$1,$2,$3*
1,1,$1,$4,$5*%
%AMRotRect*
0 Rectangle, with rotation*
0 The origin of the aperture is its center*
0 $1 length*
0 $2 width*
0 $3 Rotation angle, in degrees counterclockwise*
0 Add horizontal line*
21,1,$1,$2,0,0,$3*%
G04 Aperture macros list end*
%ADD10C,1.750000*%
%ADD11C,3.000000*%
%ADD12C,3.987800*%
%ADD13R,1.600000X1.600000*%
%ADD14C,1.600000*%
%ADD15RotRect,1.600000X1.600000X190.000000*%
%ADD16HorizOval,1.600000X0.000000X0.000000X0.000000X0.000000X0*%
%ADD17RotRect,1.600000X1.600000X170.000000*%
%ADD18HorizOval,1.600000X0.000000X0.000000X0.000000X0.000000X0*%
G04 APERTURE END LIST*
D10*
%TO.C,SW61*%
X464738563Y-339336720D03*
D11*
X471360665Y-333010697D03*
X465548202Y-336614775D03*
D10*
X474744209Y-337572454D03*
D12*
X469741386Y-338454587D03*
%TD*%
D10*
%TO.C,SW58*%
X419951045Y-355938711D03*
D11*
X416567501Y-351376954D03*
D10*
X409945399Y-357702977D03*
D11*
X410755038Y-354981032D03*
D12*
X414948222Y-356820844D03*
%TD*%
%TO.C,SW39*%
X269950003Y-320817408D03*
D10*
X264947180Y-319935275D03*
D11*
X273333547Y-316255651D03*
D10*
X274952826Y-321699541D03*
D11*
X266638952Y-317654397D03*
%TD*%
D10*
%TO.C,SW34*%
X450525425Y-309925483D03*
D12*
X445522602Y-310807616D03*
D10*
X440519779Y-311689749D03*
D11*
X447141881Y-305363726D03*
X441329418Y-308967804D03*
%TD*%
D10*
%TO.C,SW1*%
X284876819Y-265417778D03*
D11*
X283257540Y-259973888D03*
X276562945Y-261372634D03*
D12*
X279873996Y-264535645D03*
D10*
X274871173Y-263653512D03*
%TD*%
D11*
%TO.C,SW11*%
X497700808Y-262983916D03*
D10*
X501084352Y-267545673D03*
X491078706Y-269309939D03*
D11*
X491888345Y-266587994D03*
D12*
X496081529Y-268427806D03*
%TD*%
%TO.C,SW25*%
X518117035Y-283692790D03*
D11*
X519736314Y-278248900D03*
D10*
X523119858Y-282810657D03*
X513114212Y-284574923D03*
D11*
X513923851Y-281852978D03*
%TD*%
%TO.C,SW30*%
X345816300Y-307435654D03*
D10*
X344124528Y-309716532D03*
D12*
X349127351Y-310598665D03*
D11*
X352510895Y-306036908D03*
D10*
X354130174Y-311480798D03*
%TD*%
%TO.C,SW10*%
X471491119Y-267927789D03*
D11*
X472300758Y-265205844D03*
D10*
X481496765Y-266163523D03*
D11*
X478113221Y-261601766D03*
D12*
X476493942Y-267045656D03*
%TD*%
D10*
%TO.C,SW56*%
X347514179Y-349001972D03*
D12*
X342511356Y-348119839D03*
D11*
X339200305Y-344956828D03*
D10*
X337508533Y-347237706D03*
D11*
X345894900Y-343558082D03*
%TD*%
D13*
%TO.C,U1*%
X390130000Y-254780000D03*
D14*
X390130000Y-257320000D03*
X390130000Y-259860000D03*
X390130000Y-262400000D03*
X390130000Y-264940000D03*
X390130000Y-267480000D03*
X390130000Y-270020000D03*
X390130000Y-272560000D03*
X390130000Y-275100000D03*
X390130000Y-277640000D03*
X390130000Y-280180000D03*
X390130000Y-282720000D03*
X405370000Y-282720000D03*
X405370000Y-280180000D03*
X405370000Y-277640000D03*
X405370000Y-275100000D03*
X405370000Y-272560000D03*
X405370000Y-270020000D03*
X405370000Y-267480000D03*
X405370000Y-264940000D03*
X405370000Y-262400000D03*
X405370000Y-259860000D03*
X405370000Y-257320000D03*
X405370000Y-254780000D03*
%TD*%
D12*
%TO.C,SW23*%
X479768860Y-285618638D03*
D11*
X475575676Y-283778826D03*
D10*
X484771683Y-284736505D03*
D11*
X481388139Y-280174748D03*
D10*
X474766037Y-286500771D03*
%TD*%
D11*
%TO.C,SW8*%
X434779583Y-271821840D03*
D10*
X443975590Y-272779519D03*
X433969944Y-274543785D03*
D12*
X438972767Y-273661652D03*
D11*
X440592046Y-268217762D03*
%TD*%
D10*
%TO.C,SW60*%
X457141421Y-347446657D03*
D12*
X452138598Y-348328790D03*
D11*
X447945414Y-346488978D03*
X453757877Y-342884900D03*
D10*
X447135775Y-349210923D03*
%TD*%
D12*
%TO.C,SW41*%
X308298178Y-322743257D03*
D10*
X303295355Y-321861124D03*
D11*
X311681722Y-318181500D03*
D10*
X313301001Y-323625390D03*
D11*
X304987127Y-319580246D03*
%TD*%
%TO.C,SW59*%
X430342625Y-356363182D03*
D10*
X429532986Y-359085127D03*
D12*
X434535809Y-358202994D03*
D11*
X436155088Y-352759104D03*
D10*
X439538632Y-357320861D03*
%TD*%
D11*
%TO.C,SW22*%
X461469752Y-276916540D03*
D10*
X464853296Y-281478297D03*
D11*
X455657289Y-280520618D03*
D10*
X454847650Y-283242563D03*
D12*
X459850473Y-282360430D03*
%TD*%
D10*
%TO.C,SW36*%
X478040955Y-305073753D03*
D11*
X478850594Y-302351808D03*
X484663057Y-298747730D03*
D12*
X483043778Y-304191620D03*
D10*
X488046601Y-303309487D03*
%TD*%
D12*
%TO.C,SW49*%
X486351775Y-322952207D03*
D11*
X487971054Y-317508317D03*
X482158591Y-321112395D03*
D10*
X491354598Y-322070074D03*
X481348952Y-323834340D03*
%TD*%
%TO.C,SW43*%
X350822176Y-330241386D03*
D11*
X342508302Y-326196242D03*
X349202897Y-324797496D03*
D12*
X345819353Y-329359253D03*
D10*
X340816530Y-328477120D03*
%TD*%
D11*
%TO.C,SW4*%
X341524102Y-258641529D03*
X334829507Y-260040275D03*
D10*
X333137735Y-262321153D03*
D12*
X338140558Y-263203286D03*
D10*
X343143381Y-264085419D03*
%TD*%
%TO.C,SW26*%
X268255178Y-301174688D03*
D11*
X269946950Y-298893810D03*
X276641545Y-297495064D03*
D10*
X278260824Y-302938954D03*
D12*
X273258001Y-302056821D03*
%TD*%
D10*
%TO.C,SW33*%
X422916991Y-321563952D03*
D11*
X429539093Y-315237929D03*
D10*
X432922637Y-319799686D03*
D11*
X423726630Y-318842007D03*
D12*
X427919814Y-320681819D03*
%TD*%
D11*
%TO.C,SW62*%
X485466589Y-339872982D03*
D10*
X484656950Y-342594927D03*
D11*
X491279052Y-336268904D03*
D12*
X489659773Y-341712794D03*
D10*
X494662596Y-340830661D03*
%TD*%
D11*
%TO.C,SW29*%
X334908106Y-296162704D03*
D10*
X336527385Y-301606594D03*
D11*
X328213511Y-297561450D03*
D10*
X326521739Y-299842328D03*
D12*
X331524562Y-300724461D03*
%TD*%
D10*
%TO.C,SW64*%
X533010771Y-338904813D03*
D11*
X523814764Y-337947134D03*
X529627227Y-334343056D03*
D12*
X528007948Y-339786946D03*
D10*
X523005125Y-340669079D03*
%TD*%
%TO.C,SW47*%
X443827777Y-330450335D03*
D12*
X448830600Y-329568202D03*
D11*
X450449879Y-324124312D03*
X444637416Y-327728390D03*
D10*
X453833423Y-328686069D03*
%TD*%
D11*
%TO.C,SW55*%
X321597516Y-335082625D03*
D10*
X329911390Y-339127769D03*
X319905744Y-337363503D03*
D12*
X324908567Y-338245636D03*
D11*
X328292111Y-333683879D03*
%TD*%
%TO.C,SW40*%
X292094135Y-319563649D03*
D10*
X283707768Y-323243273D03*
D12*
X288710591Y-324125406D03*
D10*
X293713414Y-325007539D03*
D11*
X285399540Y-320962395D03*
%TD*%
%TO.C,SW37*%
X498438181Y-303733957D03*
D10*
X497628542Y-306455902D03*
D12*
X502631365Y-305573769D03*
D11*
X504250644Y-300129879D03*
D10*
X507634188Y-304691636D03*
%TD*%
D12*
%TO.C,SW27*%
X292018588Y-305364819D03*
D11*
X295402132Y-300803062D03*
D10*
X287015765Y-304482686D03*
D11*
X288707537Y-302201808D03*
D10*
X297021411Y-306246952D03*
%TD*%
D11*
%TO.C,SW3*%
X314911120Y-263298483D03*
D12*
X318222171Y-266461494D03*
D10*
X323224994Y-267343627D03*
X313219348Y-265579361D03*
D11*
X321605715Y-261899737D03*
%TD*%
D12*
%TO.C,SW35*%
X463125391Y-300933412D03*
D10*
X468128214Y-300051279D03*
D11*
X464744670Y-295489522D03*
D10*
X458122568Y-301815545D03*
D11*
X458932207Y-299093600D03*
%TD*%
D10*
%TO.C,SW46*%
X426224989Y-340324539D03*
D12*
X431227812Y-339442406D03*
D10*
X436230635Y-338560273D03*
D11*
X427034628Y-337602594D03*
X432847091Y-333998516D03*
%TD*%
D12*
%TO.C,SW15*%
X314914173Y-285222082D03*
D10*
X319916996Y-286104215D03*
X309911350Y-284339949D03*
D11*
X311603122Y-282059071D03*
X318297717Y-280660325D03*
%TD*%
D12*
%TO.C,SW38*%
X521391953Y-302265771D03*
D10*
X526394776Y-301383638D03*
D11*
X523011232Y-296821881D03*
X517198769Y-300425959D03*
D10*
X516389130Y-303147904D03*
%TD*%
%TO.C,SW6*%
X378348958Y-283833826D03*
D12*
X373346135Y-282951693D03*
D10*
X368343312Y-282069560D03*
D11*
X370035084Y-279788682D03*
X376729679Y-278389936D03*
%TD*%
%TO.C,SW63*%
X510866639Y-337651054D03*
D10*
X514250183Y-342212811D03*
X504244537Y-343977077D03*
D11*
X505054176Y-341255132D03*
D12*
X509247360Y-343094944D03*
%TD*%
%TO.C,SW32*%
X411623684Y-337966454D03*
D11*
X407430500Y-336126642D03*
D10*
X406620861Y-338848587D03*
X416626507Y-337084321D03*
D11*
X413242963Y-332522564D03*
%TD*%
%TO.C,SW57*%
X363497688Y-353432286D03*
D10*
X365116967Y-358876176D03*
D12*
X360114144Y-357994043D03*
D10*
X355111321Y-357111910D03*
D11*
X356803093Y-354831032D03*
%TD*%
D10*
%TO.C,SW44*%
X358419319Y-338351323D03*
X368424965Y-340115589D03*
D11*
X360111091Y-336070445D03*
X366805686Y-334671699D03*
D12*
X363422142Y-339233456D03*
%TD*%
D11*
%TO.C,SW52*%
X263330954Y-336414984D03*
D10*
X261639182Y-338695862D03*
D11*
X270025549Y-335016238D03*
D12*
X266642005Y-339577995D03*
D10*
X271644828Y-340460128D03*
%TD*%
D11*
%TO.C,SW24*%
X500975726Y-281556897D03*
D10*
X504359270Y-286118654D03*
D12*
X499356447Y-287000787D03*
D10*
X494353624Y-287882920D03*
D11*
X495163263Y-285160975D03*
%TD*%
%TO.C,SW19*%
X386765460Y-332845430D03*
D12*
X383381916Y-337407187D03*
D10*
X378379093Y-336525054D03*
X388384739Y-338289320D03*
D11*
X380070865Y-334244176D03*
%TD*%
%TO.C,SW2*%
X302018128Y-263281886D03*
X295323533Y-264680632D03*
D10*
X303637407Y-268725776D03*
X293631761Y-266961510D03*
D12*
X298634584Y-267843643D03*
%TD*%
D11*
%TO.C,SW18*%
X366727086Y-298549270D03*
D12*
X370038137Y-301712281D03*
D10*
X375040960Y-302594414D03*
X365035314Y-300830148D03*
D11*
X373421681Y-297150524D03*
%TD*%
D10*
%TO.C,SW16*%
X329829737Y-281081741D03*
X339835383Y-282846007D03*
D11*
X331521509Y-278800863D03*
D12*
X334832560Y-281963874D03*
D11*
X338216104Y-277402117D03*
%TD*%
D10*
%TO.C,SW48*%
X471436211Y-318811866D03*
D11*
X468052667Y-314250109D03*
X462240204Y-317854187D03*
D12*
X466433388Y-319693999D03*
D10*
X461430565Y-320576132D03*
%TD*%
D11*
%TO.C,SW14*%
X298710130Y-282042474D03*
X292015535Y-283441220D03*
D10*
X300329409Y-287486364D03*
X290323763Y-285722098D03*
D12*
X295326586Y-286604231D03*
%TD*%
D11*
%TO.C,SW53*%
X282091542Y-339722982D03*
D10*
X290405416Y-343768126D03*
D12*
X285402593Y-342885993D03*
D11*
X288786137Y-338324236D03*
D10*
X280399770Y-342003860D03*
%TD*%
%TO.C,SW12*%
X519844940Y-264237675D03*
D11*
X510648933Y-263279996D03*
D10*
X509839294Y-266001941D03*
D11*
X516461396Y-259675918D03*
D12*
X514842117Y-265119808D03*
%TD*%
D11*
%TO.C,SW54*%
X308373724Y-336942087D03*
D12*
X304990180Y-341503844D03*
D11*
X301679129Y-338340833D03*
D10*
X309993003Y-342385977D03*
X299987357Y-340621711D03*
%TD*%
%TO.C,SW20*%
X429647719Y-301226704D03*
D11*
X426264175Y-296664947D03*
X420451712Y-300269025D03*
D12*
X424644896Y-302108837D03*
D10*
X419642073Y-302990970D03*
%TD*%
%TO.C,SW5*%
X360746170Y-273959623D03*
X350740524Y-272195357D03*
D11*
X359126891Y-268515733D03*
D12*
X355743347Y-273077490D03*
D11*
X352432296Y-269914479D03*
%TD*%
D10*
%TO.C,SW17*%
X347432526Y-290955944D03*
D11*
X349124298Y-288675066D03*
X355818893Y-287276320D03*
D10*
X357438172Y-292720210D03*
D12*
X352435349Y-291838077D03*
%TD*%
D10*
%TO.C,SW28*%
X306603353Y-303100536D03*
D12*
X311606176Y-303982669D03*
D10*
X316608999Y-304864802D03*
D11*
X308295125Y-300819658D03*
X314989720Y-299420912D03*
%TD*%
%TO.C,SW7*%
X417176794Y-281696043D03*
X422989257Y-278091965D03*
D10*
X416367155Y-284417988D03*
D12*
X421369978Y-283535855D03*
D10*
X426372801Y-282653722D03*
%TD*%
%TO.C,SW45*%
X384704554Y-357494027D03*
D12*
X379701731Y-356611894D03*
D11*
X376390680Y-353448883D03*
X383085275Y-352050137D03*
D10*
X374698908Y-355729761D03*
%TD*%
%TO.C,SW9*%
X451572732Y-264669582D03*
D12*
X456575555Y-263787449D03*
D11*
X452382371Y-261947637D03*
D10*
X461578378Y-262905316D03*
D11*
X458194834Y-258343559D03*
%TD*%
%TO.C,SW13*%
X273254947Y-280133222D03*
D12*
X276565998Y-283296233D03*
D11*
X279949542Y-278734476D03*
D10*
X281568821Y-284178366D03*
X271563175Y-282414100D03*
%TD*%
%TO.C,SW21*%
X447250508Y-291352501D03*
D11*
X443866964Y-286790744D03*
D12*
X442247685Y-292234634D03*
D10*
X437244862Y-293116767D03*
D11*
X438054501Y-290394822D03*
%TD*%
D10*
%TO.C,SW51*%
X519697127Y-321908491D03*
D11*
X520506766Y-319186546D03*
D12*
X524699950Y-321026358D03*
D11*
X526319229Y-315582468D03*
D10*
X529702773Y-320144225D03*
%TD*%
%TO.C,SW42*%
X333219388Y-320367182D03*
D11*
X331600109Y-314923292D03*
D12*
X328216565Y-319485049D03*
D10*
X323213742Y-318602916D03*
D11*
X324905514Y-316322038D03*
%TD*%
D10*
%TO.C,SW50*%
X500936540Y-325216489D03*
D12*
X505939363Y-324334356D03*
D11*
X501746179Y-322494544D03*
D10*
X510942186Y-323452223D03*
D11*
X507558642Y-318890466D03*
%TD*%
%TO.C,SW31*%
X370113683Y-315911111D03*
D12*
X366730139Y-320472868D03*
D10*
X361727316Y-319590735D03*
X371732962Y-321355001D03*
D11*
X363419088Y-317309857D03*
%TD*%
D15*
%TO.C,D48*%
X470940916Y-324065183D03*
D16*
X463436681Y-325388382D03*
%TD*%
D15*
%TO.C,D32*%
X416131212Y-342337638D03*
D16*
X408626977Y-343660837D03*
%TD*%
D17*
%TO.C,D55*%
X327649225Y-343894871D03*
D18*
X320144990Y-342571672D03*
%TD*%
D17*
%TO.C,D17*%
X355176006Y-297487312D03*
D18*
X347671771Y-296164113D03*
%TD*%
D15*
%TO.C,D22*%
X464358001Y-286731614D03*
D16*
X456853766Y-288054813D03*
%TD*%
D17*
%TO.C,D57*%
X362854801Y-363643278D03*
D18*
X355350566Y-362320079D03*
%TD*%
D17*
%TO.C,D14*%
X298067244Y-292253466D03*
D18*
X290563009Y-290930267D03*
%TD*%
D17*
%TO.C,D18*%
X372778795Y-307361515D03*
D18*
X365274560Y-306038316D03*
%TD*%
D15*
%TO.C,D58*%
X419455750Y-361192029D03*
D16*
X411951515Y-362515228D03*
%TD*%
D17*
%TO.C,D19*%
X386122573Y-343056422D03*
D18*
X378618338Y-341733223D03*
%TD*%
D15*
%TO.C,D46*%
X435735339Y-343813590D03*
D16*
X428231104Y-345136789D03*
%TD*%
D17*
%TO.C,D41*%
X311038835Y-328392492D03*
D18*
X303534600Y-327069293D03*
%TD*%
D15*
%TO.C,D60*%
X456646125Y-352699974D03*
D16*
X449141890Y-354023173D03*
%TD*%
D15*
%TO.C,D47*%
X453338128Y-333939386D03*
D16*
X445833893Y-335262585D03*
%TD*%
D15*
%TO.C,D59*%
X439043337Y-362574178D03*
D16*
X431539102Y-363897377D03*
%TD*%
D15*
%TO.C,D51*%
X529207478Y-325397542D03*
D16*
X521703243Y-326720741D03*
%TD*%
D17*
%TO.C,D45*%
X382442389Y-362261128D03*
D18*
X374938154Y-360937929D03*
%TD*%
D15*
%TO.C,D49*%
X490859303Y-327323391D03*
D16*
X483355068Y-328646590D03*
%TD*%
D15*
%TO.C,D35*%
X467632919Y-305304596D03*
D16*
X460128684Y-306627795D03*
%TD*%
D15*
%TO.C,D50*%
X510446890Y-328705540D03*
D16*
X502942655Y-330028739D03*
%TD*%
D17*
%TO.C,D31*%
X369470797Y-326122103D03*
D18*
X361966562Y-324798904D03*
%TD*%
D15*
%TO.C,D37*%
X507138893Y-309944953D03*
D16*
X499634658Y-311268152D03*
%TD*%
D17*
%TO.C,D2*%
X301375241Y-273492878D03*
D18*
X293871006Y-272169679D03*
%TD*%
D15*
%TO.C,D12*%
X519349645Y-269490992D03*
D16*
X511845410Y-270814191D03*
%TD*%
D15*
%TO.C,D63*%
X513754888Y-347466128D03*
D16*
X506250653Y-348789327D03*
%TD*%
D15*
%TO.C,D20*%
X429152424Y-306480021D03*
D16*
X421648189Y-307803220D03*
%TD*%
D15*
%TO.C,D24*%
X503863975Y-291371972D03*
D16*
X496359740Y-292695171D03*
%TD*%
D17*
%TO.C,D27*%
X294759246Y-311014053D03*
D18*
X287255011Y-309690854D03*
%TD*%
D17*
%TO.C,D52*%
X269382663Y-345227230D03*
D18*
X261878428Y-343904031D03*
%TD*%
D15*
%TO.C,D9*%
X461083083Y-268158633D03*
D16*
X453578848Y-269481832D03*
%TD*%
D17*
%TO.C,D3*%
X320962829Y-272110729D03*
D18*
X313458594Y-270787530D03*
%TD*%
D15*
%TO.C,D25*%
X522624562Y-288063974D03*
D16*
X515120327Y-289387173D03*
%TD*%
D15*
%TO.C,D33*%
X432427342Y-325053003D03*
D16*
X424923107Y-326376202D03*
%TD*%
D17*
%TO.C,D15*%
X317654831Y-290871316D03*
D18*
X310150596Y-289548117D03*
%TD*%
D17*
%TO.C,D28*%
X314346833Y-309631904D03*
D18*
X306842598Y-308308705D03*
%TD*%
D17*
%TO.C,D29*%
X334265220Y-306373696D03*
D18*
X326760985Y-305050497D03*
%TD*%
D15*
%TO.C,D38*%
X525899480Y-306636956D03*
D16*
X518395245Y-307960155D03*
%TD*%
D15*
%TO.C,D23*%
X484276388Y-289989822D03*
D16*
X476772153Y-291313021D03*
%TD*%
D15*
%TO.C,D11*%
X500589057Y-272798990D03*
D16*
X493084822Y-274122189D03*
%TD*%
D17*
%TO.C,D6*%
X376086792Y-288600928D03*
D18*
X368582557Y-287277729D03*
%TD*%
D17*
%TO.C,D39*%
X272690660Y-326466643D03*
D18*
X265186425Y-325143444D03*
%TD*%
D15*
%TO.C,D64*%
X532515476Y-344158130D03*
D16*
X525011241Y-345481329D03*
%TD*%
D15*
%TO.C,D62*%
X494167301Y-346083979D03*
D16*
X486663066Y-347407178D03*
%TD*%
D17*
%TO.C,D40*%
X291451248Y-329774641D03*
D18*
X283947013Y-328451442D03*
%TD*%
D15*
%TO.C,D36*%
X487551305Y-308562804D03*
D16*
X480047070Y-309886003D03*
%TD*%
D17*
%TO.C,D16*%
X337573218Y-287613109D03*
D18*
X330068983Y-286289910D03*
%TD*%
D15*
%TO.C,D8*%
X443480294Y-278032836D03*
D16*
X435976059Y-279356035D03*
%TD*%
D15*
%TO.C,D10*%
X481001470Y-271416841D03*
D16*
X473497235Y-272740040D03*
%TD*%
D17*
%TO.C,D42*%
X330957222Y-325134284D03*
D18*
X323452987Y-323811085D03*
%TD*%
D17*
%TO.C,D44*%
X366162799Y-344882691D03*
D18*
X358658564Y-343559492D03*
%TD*%
D17*
%TO.C,D5*%
X358484004Y-278726724D03*
D18*
X350979769Y-277403525D03*
%TD*%
D17*
%TO.C,D26*%
X275998658Y-307706055D03*
D18*
X268494423Y-306382856D03*
%TD*%
D17*
%TO.C,D30*%
X351868008Y-316247900D03*
D18*
X344363773Y-314924701D03*
%TD*%
D15*
%TO.C,D21*%
X446755212Y-296605818D03*
D16*
X439250977Y-297929017D03*
%TD*%
D15*
%TO.C,D61*%
X474248914Y-342825771D03*
D16*
X466744679Y-344148970D03*
%TD*%
D17*
%TO.C,D43*%
X348560011Y-335008487D03*
D18*
X341055776Y-333685288D03*
%TD*%
D15*
%TO.C,D34*%
X450030130Y-315178800D03*
D16*
X442525895Y-316501999D03*
%TD*%
D17*
%TO.C,D4*%
X340881215Y-268852521D03*
D18*
X333376980Y-267529322D03*
%TD*%
D15*
%TO.C,D7*%
X425877506Y-287907040D03*
D16*
X418373271Y-289230239D03*
%TD*%
D17*
%TO.C,D1*%
X282614654Y-270184880D03*
D18*
X275110419Y-268861681D03*
%TD*%
D17*
%TO.C,D54*%
X307730838Y-347153079D03*
D18*
X300226603Y-345829880D03*
%TD*%
D17*
%TO.C,D53*%
X288143250Y-348535228D03*
D18*
X280639015Y-347212029D03*
%TD*%
D17*
%TO.C,D56*%
X345252013Y-353769074D03*
D18*
X337747778Y-352445875D03*
%TD*%
D17*
%TO.C,D13*%
X279306656Y-288945468D03*
D18*
X271802421Y-287622269D03*
%TD*%
M02*
