%TF.GenerationSoftware,KiCad,Pcbnew,(6.0.8)*%
%TF.CreationDate,2023-03-16T04:40:49+07:00*%
%TF.ProjectId,test,74657374-2e6b-4696-9361-645f70636258,rev?*%
%TF.SameCoordinates,Original*%
%TF.FileFunction,Legend,Bot*%
%TF.FilePolarity,Positive*%
%FSLAX46Y46*%
G04 Gerber Fmt 4.6, Leading zero omitted, Abs format (unit mm)*
G04 Created by KiCad (PCBNEW (6.0.8)) date 2023-03-16 04:40:49*
%MOMM*%
%LPD*%
G01*
G04 APERTURE LIST*
G04 Aperture macros list*
%AMHorizOval*
0 Thick line with rounded ends*
0 $1 width*
0 $2 $3 position (X,Y) of the first rounded end (center of the circle)*
0 $4 $5 position (X,Y) of the second rounded end (center of the circle)*
0 Add line between two ends*
20,1,$1,$2,$3,$4,$5,0*
0 Add two circle primitives to create the rounded ends*
1,1,$1,$2,$3*
1,1,$1,$4,$5*%
%AMRotRect*
0 Rectangle, with rotation*
0 The origin of the aperture is its center*
0 $1 length*
0 $2 width*
0 $3 Rotation angle, in degrees counterclockwise*
0 Add horizontal line*
21,1,$1,$2,0,0,$3*%
G04 Aperture macros list end*
%ADD10C,0.150000*%
%ADD11C,0.120000*%
%ADD12C,1.750000*%
%ADD13C,3.000000*%
%ADD14C,3.987800*%
%ADD15RotRect,2.550000X2.500000X10.000000*%
%ADD16RotRect,2.550000X2.500000X350.000000*%
%ADD17R,1.600000X1.600000*%
%ADD18C,1.600000*%
%ADD19RotRect,1.600000X1.600000X190.000000*%
%ADD20HorizOval,1.600000X0.000000X0.000000X0.000000X0.000000X0*%
%ADD21RotRect,1.600000X1.600000X170.000000*%
%ADD22HorizOval,1.600000X0.000000X0.000000X0.000000X0.000000X0*%
G04 APERTURE END LIST*
D10*
%TO.C,D48*%
X468095057Y-322873639D02*
X467921408Y-321888832D01*
X467686930Y-321930176D01*
X467554513Y-322001879D01*
X467477259Y-322112208D01*
X467446902Y-322214268D01*
X467433082Y-322410120D01*
X467457889Y-322550806D01*
X467537860Y-322730120D01*
X467601294Y-322815642D01*
X467711623Y-322892895D01*
X467860579Y-322914984D01*
X468095057Y-322873639D01*
X466572423Y-322465170D02*
X466688188Y-323121708D01*
X466740749Y-322048660D02*
X467099262Y-322710749D01*
X466489619Y-322818246D01*
X465932422Y-322674726D02*
X466017945Y-322611293D01*
X466056571Y-322556128D01*
X466086929Y-322454068D01*
X466078660Y-322407172D01*
X466015226Y-322321650D01*
X465960062Y-322283023D01*
X465858002Y-322252666D01*
X465670419Y-322285742D01*
X465584897Y-322349175D01*
X465546270Y-322404340D01*
X465515913Y-322506400D01*
X465524182Y-322553296D01*
X465587615Y-322638818D01*
X465642780Y-322677444D01*
X465744840Y-322707802D01*
X465932422Y-322674726D01*
X466034483Y-322705084D01*
X466089647Y-322743711D01*
X466153081Y-322829233D01*
X466186156Y-323016815D01*
X466155799Y-323118875D01*
X466117172Y-323174040D01*
X466031650Y-323237474D01*
X465844067Y-323270549D01*
X465742007Y-323240192D01*
X465686843Y-323201565D01*
X465623409Y-323116043D01*
X465590333Y-322928460D01*
X465620691Y-322826400D01*
X465659318Y-322771236D01*
X465744840Y-322707802D01*
X470964829Y-322692557D02*
X470791181Y-321707750D01*
X470402082Y-322791785D02*
X470724915Y-322154617D01*
X470228434Y-321806977D02*
X470890409Y-322270497D01*
%TO.C,D32*%
X413285353Y-341146094D02*
X413111704Y-340161287D01*
X412877226Y-340202631D01*
X412744809Y-340274334D01*
X412667555Y-340384663D01*
X412637198Y-340486723D01*
X412623378Y-340682575D01*
X412648185Y-340823261D01*
X412728156Y-341002575D01*
X412791590Y-341088097D01*
X412901919Y-341165350D01*
X413050875Y-341187439D01*
X413285353Y-341146094D01*
X412220688Y-340318397D02*
X411611045Y-340425893D01*
X412005466Y-340743175D01*
X411864779Y-340767982D01*
X411779257Y-340831416D01*
X411740630Y-340886580D01*
X411710273Y-340988641D01*
X411751617Y-341223119D01*
X411815051Y-341308641D01*
X411870215Y-341347267D01*
X411972276Y-341377625D01*
X412253649Y-341328011D01*
X412339172Y-341264578D01*
X412377798Y-341209413D01*
X411252418Y-340585836D02*
X411197253Y-340547210D01*
X411095193Y-340516852D01*
X410860715Y-340558197D01*
X410775193Y-340621630D01*
X410736566Y-340676795D01*
X410706209Y-340778855D01*
X410722747Y-340872646D01*
X410794449Y-341005064D01*
X411456424Y-341468584D01*
X410846781Y-341576080D01*
X416155125Y-340965012D02*
X415981477Y-339980205D01*
X415592378Y-341064240D02*
X415915211Y-340427072D01*
X415418730Y-340079432D02*
X416080705Y-340542952D01*
%TO.C,D55*%
X323147959Y-340489112D02*
X322974310Y-341473919D01*
X323208789Y-341515264D01*
X323357744Y-341493176D01*
X323468073Y-341415922D01*
X323531507Y-341330400D01*
X323611478Y-341151087D01*
X323636285Y-341010400D01*
X323622466Y-340814548D01*
X323592108Y-340712488D01*
X323514855Y-340602159D01*
X323382437Y-340530457D01*
X323147959Y-340489112D01*
X324428074Y-341730257D02*
X323959118Y-341647568D01*
X323994912Y-341170343D01*
X324033539Y-341225507D01*
X324119061Y-341288941D01*
X324353539Y-341330286D01*
X324455599Y-341299928D01*
X324510764Y-341261301D01*
X324574197Y-341175779D01*
X324615542Y-340941301D01*
X324585185Y-340839241D01*
X324546558Y-340784076D01*
X324461036Y-340720643D01*
X324226558Y-340679298D01*
X324124497Y-340709656D01*
X324069333Y-340748282D01*
X325365986Y-341895636D02*
X324897030Y-341812947D01*
X324932824Y-341335722D01*
X324971451Y-341390886D01*
X325056973Y-341454320D01*
X325291451Y-341495665D01*
X325393511Y-341465307D01*
X325448676Y-341426680D01*
X325512110Y-341341158D01*
X325553454Y-341106680D01*
X325523097Y-341004620D01*
X325484470Y-340949455D01*
X325398948Y-340886022D01*
X325164470Y-340844677D01*
X325062410Y-340875035D01*
X325007245Y-340913661D01*
X327782421Y-341631229D02*
X327608773Y-342616037D01*
X328345168Y-341730456D02*
X327823880Y-342218783D01*
X328171520Y-342715264D02*
X327708000Y-342053289D01*
%TO.C,D17*%
X350674740Y-294081553D02*
X350501091Y-295066360D01*
X350735570Y-295107705D01*
X350884525Y-295085617D01*
X350994854Y-295008363D01*
X351058288Y-294922841D01*
X351138259Y-294743528D01*
X351163066Y-294602841D01*
X351149247Y-294406989D01*
X351118889Y-294304929D01*
X351041636Y-294194600D01*
X350909218Y-294122898D01*
X350674740Y-294081553D01*
X352175399Y-294346159D02*
X351612652Y-294246932D01*
X351894025Y-294296546D02*
X351720377Y-295281353D01*
X351651393Y-295124129D01*
X351574140Y-295013800D01*
X351488617Y-294950366D01*
X352330020Y-295388850D02*
X352986559Y-295504615D01*
X352738146Y-294445387D01*
X355309202Y-295223670D02*
X355135554Y-296208478D01*
X355871949Y-295322897D02*
X355350661Y-295811224D01*
X355698301Y-296307705D02*
X355234781Y-295645730D01*
%TO.C,D22*%
X461512142Y-285540070D02*
X461338493Y-284555263D01*
X461104015Y-284596607D01*
X460971598Y-284668310D01*
X460894344Y-284778639D01*
X460863987Y-284880699D01*
X460850167Y-285076551D01*
X460874974Y-285217237D01*
X460954945Y-285396551D01*
X461018379Y-285482073D01*
X461128708Y-285559326D01*
X461277664Y-285581415D01*
X461512142Y-285540070D01*
X460417119Y-284814433D02*
X460361955Y-284775806D01*
X460259894Y-284745449D01*
X460025416Y-284786793D01*
X459939894Y-284850227D01*
X459901268Y-284905392D01*
X459870910Y-285007452D01*
X459887448Y-285101243D01*
X459959150Y-285233661D01*
X460621125Y-285697181D01*
X460011482Y-285804677D01*
X459479207Y-284979812D02*
X459424042Y-284941186D01*
X459321982Y-284910828D01*
X459087504Y-284952173D01*
X459001982Y-285015606D01*
X458963355Y-285070771D01*
X458932998Y-285172831D01*
X458949536Y-285266622D01*
X459021238Y-285399040D01*
X459683213Y-285862560D01*
X459073570Y-285970056D01*
X464381914Y-285358988D02*
X464208266Y-284374181D01*
X463819167Y-285458216D02*
X464142000Y-284821048D01*
X463645519Y-284473408D02*
X464307494Y-284936928D01*
%TO.C,D57*%
X358353535Y-360237519D02*
X358179886Y-361222326D01*
X358414365Y-361263671D01*
X358563320Y-361241583D01*
X358673649Y-361164329D01*
X358737083Y-361078807D01*
X358817054Y-360899494D01*
X358841861Y-360758807D01*
X358828042Y-360562955D01*
X358797684Y-360460895D01*
X358720431Y-360350566D01*
X358588013Y-360278864D01*
X358353535Y-360237519D01*
X359633650Y-361478664D02*
X359164694Y-361395975D01*
X359200488Y-360918750D01*
X359239115Y-360973914D01*
X359324637Y-361037348D01*
X359559115Y-361078693D01*
X359661175Y-361048335D01*
X359716340Y-361009708D01*
X359779773Y-360924186D01*
X359821118Y-360689708D01*
X359790761Y-360587648D01*
X359752134Y-360532483D01*
X359666612Y-360469050D01*
X359432134Y-360427705D01*
X359330073Y-360458063D01*
X359274909Y-360496689D01*
X360008815Y-361544816D02*
X360665354Y-361660581D01*
X360416941Y-360601353D01*
X362987997Y-361379636D02*
X362814349Y-362364444D01*
X363550744Y-361478863D02*
X363029456Y-361967190D01*
X363377096Y-362463671D02*
X362913576Y-361801696D01*
%TO.C,D14*%
X293565978Y-288847707D02*
X293392329Y-289832514D01*
X293626808Y-289873859D01*
X293775763Y-289851771D01*
X293886092Y-289774517D01*
X293949526Y-289688995D01*
X294029497Y-289509682D01*
X294054304Y-289368995D01*
X294040485Y-289173143D01*
X294010127Y-289071083D01*
X293932874Y-288960754D01*
X293800456Y-288889052D01*
X293565978Y-288847707D01*
X295066637Y-289112313D02*
X294503890Y-289013086D01*
X294785263Y-289062700D02*
X294611615Y-290047507D01*
X294542631Y-289890283D01*
X294465378Y-289779954D01*
X294379855Y-289716520D01*
X295794993Y-289917693D02*
X295910758Y-289261155D01*
X295494363Y-290251513D02*
X295383919Y-289506734D01*
X295993562Y-289614231D01*
X298200440Y-289989824D02*
X298026792Y-290974632D01*
X298763187Y-290089051D02*
X298241899Y-290577378D01*
X298589539Y-291073859D02*
X298126019Y-290411884D01*
%TO.C,D18*%
X368277529Y-303955756D02*
X368103880Y-304940563D01*
X368338359Y-304981908D01*
X368487314Y-304959820D01*
X368597643Y-304882566D01*
X368661077Y-304797044D01*
X368741048Y-304617731D01*
X368765855Y-304477044D01*
X368752036Y-304281192D01*
X368721678Y-304179132D01*
X368644425Y-304068803D01*
X368512007Y-303997101D01*
X368277529Y-303955756D01*
X369778188Y-304220362D02*
X369215441Y-304121135D01*
X369496814Y-304170749D02*
X369323166Y-305155556D01*
X369254182Y-304998332D01*
X369176929Y-304888003D01*
X369091406Y-304824569D01*
X370241708Y-304882337D02*
X370139648Y-304912695D01*
X370084483Y-304951322D01*
X370021050Y-305036844D01*
X370012781Y-305083739D01*
X370043138Y-305185800D01*
X370081765Y-305240964D01*
X370167287Y-305304398D01*
X370354870Y-305337474D01*
X370456930Y-305307116D01*
X370512094Y-305268489D01*
X370575528Y-305182967D01*
X370583797Y-305136071D01*
X370553439Y-305034011D01*
X370514813Y-304978847D01*
X370429290Y-304915413D01*
X370241708Y-304882337D01*
X370156186Y-304818904D01*
X370117559Y-304763739D01*
X370087201Y-304661679D01*
X370120277Y-304474097D01*
X370183711Y-304388574D01*
X370238875Y-304349948D01*
X370340935Y-304319590D01*
X370528518Y-304352666D01*
X370614040Y-304416099D01*
X370652667Y-304471264D01*
X370683024Y-304573324D01*
X370649949Y-304760907D01*
X370586515Y-304846429D01*
X370531350Y-304885055D01*
X370429290Y-304915413D01*
X372911991Y-305097873D02*
X372738343Y-306082681D01*
X373474738Y-305197100D02*
X372953450Y-305685427D01*
X373301090Y-306181908D02*
X372837570Y-305519933D01*
%TO.C,D58*%
X416609891Y-360000485D02*
X416436242Y-359015678D01*
X416201764Y-359057022D01*
X416069347Y-359128725D01*
X415992093Y-359239054D01*
X415961736Y-359341114D01*
X415947916Y-359536966D01*
X415972723Y-359677652D01*
X416052694Y-359856966D01*
X416116128Y-359942488D01*
X416226457Y-360019741D01*
X416375413Y-360041830D01*
X416609891Y-360000485D01*
X414982479Y-359272015D02*
X415451435Y-359189326D01*
X415581020Y-359650013D01*
X415525855Y-359611386D01*
X415423795Y-359581028D01*
X415189317Y-359622373D01*
X415103795Y-359685807D01*
X415065168Y-359740971D01*
X415034811Y-359843032D01*
X415076155Y-360077510D01*
X415139589Y-360163032D01*
X415194753Y-360201658D01*
X415296814Y-360232016D01*
X415531292Y-360190671D01*
X415616814Y-360127238D01*
X415655441Y-360072073D01*
X414447256Y-359801572D02*
X414532779Y-359738139D01*
X414571405Y-359682974D01*
X414601763Y-359580914D01*
X414593494Y-359534018D01*
X414530060Y-359448496D01*
X414474896Y-359409869D01*
X414372836Y-359379512D01*
X414185253Y-359412588D01*
X414099731Y-359476021D01*
X414061104Y-359531186D01*
X414030747Y-359633246D01*
X414039016Y-359680142D01*
X414102449Y-359765664D01*
X414157614Y-359804290D01*
X414259674Y-359834648D01*
X414447256Y-359801572D01*
X414549317Y-359831930D01*
X414604481Y-359870557D01*
X414667915Y-359956079D01*
X414700990Y-360143661D01*
X414670633Y-360245721D01*
X414632006Y-360300886D01*
X414546484Y-360364320D01*
X414358901Y-360397395D01*
X414256841Y-360367038D01*
X414201677Y-360328411D01*
X414138243Y-360242889D01*
X414105167Y-360055306D01*
X414135525Y-359953246D01*
X414174152Y-359898082D01*
X414259674Y-359834648D01*
X419479663Y-359819403D02*
X419306015Y-358834596D01*
X418916916Y-359918631D02*
X419239749Y-359281463D01*
X418743268Y-358933823D02*
X419405243Y-359397343D01*
%TO.C,D19*%
X381621307Y-339650663D02*
X381447658Y-340635470D01*
X381682137Y-340676815D01*
X381831092Y-340654727D01*
X381941421Y-340577473D01*
X382004855Y-340491951D01*
X382084826Y-340312638D01*
X382109633Y-340171951D01*
X382095814Y-339976099D01*
X382065456Y-339874039D01*
X381988203Y-339763710D01*
X381855785Y-339692008D01*
X381621307Y-339650663D01*
X383121966Y-339915269D02*
X382559219Y-339816042D01*
X382840592Y-339865656D02*
X382666944Y-340850463D01*
X382597960Y-340693239D01*
X382520707Y-340582910D01*
X382435184Y-340519476D01*
X383590922Y-339997959D02*
X383778505Y-340031035D01*
X383864027Y-340094468D01*
X383902653Y-340149633D01*
X383971638Y-340306858D01*
X383985458Y-340502709D01*
X383919306Y-340877874D01*
X383855872Y-340963396D01*
X383800708Y-341002023D01*
X383698648Y-341032381D01*
X383511065Y-340999305D01*
X383425543Y-340935871D01*
X383386916Y-340880707D01*
X383356559Y-340778646D01*
X383397903Y-340544168D01*
X383461337Y-340458646D01*
X383516502Y-340420020D01*
X383618562Y-340389662D01*
X383806144Y-340422738D01*
X383891666Y-340486171D01*
X383930293Y-340541336D01*
X383960651Y-340643396D01*
X386255769Y-340792780D02*
X386082121Y-341777588D01*
X386818516Y-340892007D02*
X386297228Y-341380334D01*
X386644868Y-341876815D02*
X386181348Y-341214840D01*
%TO.C,D46*%
X432889480Y-342622046D02*
X432715831Y-341637239D01*
X432481353Y-341678583D01*
X432348936Y-341750286D01*
X432271682Y-341860615D01*
X432241325Y-341962675D01*
X432227505Y-342158527D01*
X432252312Y-342299213D01*
X432332283Y-342478527D01*
X432395717Y-342564049D01*
X432506046Y-342641302D01*
X432655002Y-342663391D01*
X432889480Y-342622046D01*
X431366846Y-342213577D02*
X431482611Y-342870115D01*
X431535172Y-341797067D02*
X431893685Y-342459156D01*
X431284042Y-342566653D01*
X430371051Y-342050687D02*
X430558634Y-342017611D01*
X430660694Y-342047968D01*
X430715858Y-342086595D01*
X430834456Y-342210744D01*
X430914428Y-342390057D01*
X430980579Y-342765222D01*
X430950222Y-342867282D01*
X430911595Y-342922447D01*
X430826073Y-342985881D01*
X430638490Y-343018956D01*
X430536430Y-342988599D01*
X430481266Y-342949972D01*
X430417832Y-342864450D01*
X430376487Y-342629972D01*
X430406845Y-342527912D01*
X430445472Y-342472747D01*
X430530994Y-342409313D01*
X430718576Y-342376238D01*
X430820637Y-342406595D01*
X430875801Y-342445222D01*
X430939235Y-342530744D01*
X435759252Y-342440964D02*
X435585604Y-341456157D01*
X435196505Y-342540192D02*
X435519338Y-341903024D01*
X435022857Y-341555384D02*
X435684832Y-342018904D01*
%TO.C,D41*%
X306537569Y-324986733D02*
X306363920Y-325971540D01*
X306598399Y-326012885D01*
X306747354Y-325990797D01*
X306857683Y-325913543D01*
X306921117Y-325828021D01*
X307001088Y-325648708D01*
X307025895Y-325508021D01*
X307012076Y-325312169D01*
X306981718Y-325210109D01*
X306904465Y-325099780D01*
X306772047Y-325028078D01*
X306537569Y-324986733D01*
X307828671Y-325891340D02*
X307944437Y-325234802D01*
X307528042Y-326225160D02*
X307417598Y-325480381D01*
X308027241Y-325587878D01*
X308976140Y-325416719D02*
X308413393Y-325317491D01*
X308694767Y-325367105D02*
X308521118Y-326351913D01*
X308452134Y-326194688D01*
X308374881Y-326084359D01*
X308289359Y-326020925D01*
X311172031Y-326128850D02*
X310998383Y-327113658D01*
X311734778Y-326228077D02*
X311213490Y-326716404D01*
X311561130Y-327212885D02*
X311097610Y-326550910D01*
%TO.C,D60*%
X453800266Y-351508430D02*
X453626617Y-350523623D01*
X453392139Y-350564967D01*
X453259722Y-350636670D01*
X453182468Y-350746999D01*
X453152111Y-350849059D01*
X453138291Y-351044911D01*
X453163098Y-351185597D01*
X453243069Y-351364911D01*
X453306503Y-351450433D01*
X453416832Y-351527686D01*
X453565788Y-351549775D01*
X453800266Y-351508430D01*
X452219749Y-350771691D02*
X452407332Y-350738615D01*
X452509392Y-350768973D01*
X452564556Y-350807600D01*
X452683154Y-350931749D01*
X452763126Y-351111062D01*
X452829278Y-351486227D01*
X452798920Y-351588287D01*
X452760293Y-351643452D01*
X452674771Y-351706885D01*
X452487189Y-351739961D01*
X452385128Y-351709603D01*
X452329964Y-351670977D01*
X452266530Y-351585455D01*
X452225186Y-351350977D01*
X452255543Y-351248916D01*
X452294170Y-351193752D01*
X452379692Y-351130318D01*
X452567275Y-351097242D01*
X452669335Y-351127600D01*
X452724499Y-351166227D01*
X452787933Y-351251749D01*
X451516315Y-350895726D02*
X451422524Y-350912264D01*
X451337002Y-350975697D01*
X451298375Y-351030862D01*
X451268017Y-351132922D01*
X451254198Y-351328773D01*
X451295542Y-351563251D01*
X451375514Y-351742565D01*
X451438947Y-351828087D01*
X451494112Y-351866714D01*
X451596172Y-351897071D01*
X451689963Y-351880534D01*
X451775486Y-351817100D01*
X451814112Y-351761935D01*
X451844470Y-351659875D01*
X451858290Y-351464024D01*
X451816945Y-351229546D01*
X451736973Y-351050232D01*
X451673540Y-350964710D01*
X451618375Y-350926083D01*
X451516315Y-350895726D01*
X456670038Y-351327348D02*
X456496390Y-350342541D01*
X456107291Y-351426576D02*
X456430124Y-350789408D01*
X455933643Y-350441768D02*
X456595618Y-350905288D01*
%TO.C,D47*%
X450492269Y-332747842D02*
X450318620Y-331763035D01*
X450084142Y-331804379D01*
X449951725Y-331876082D01*
X449874471Y-331986411D01*
X449844114Y-332088471D01*
X449830294Y-332284323D01*
X449855101Y-332425009D01*
X449935072Y-332604323D01*
X449998506Y-332689845D01*
X450108835Y-332767098D01*
X450257791Y-332789187D01*
X450492269Y-332747842D01*
X448969635Y-332339373D02*
X449085400Y-332995911D01*
X449137961Y-331922863D02*
X449496474Y-332584952D01*
X448886831Y-332692449D01*
X448489692Y-332085524D02*
X447833153Y-332201289D01*
X448428862Y-333111677D01*
X453362041Y-332566760D02*
X453188393Y-331581953D01*
X452799294Y-332665988D02*
X453122127Y-332028820D01*
X452625646Y-331681180D02*
X453287621Y-332144700D01*
%TO.C,D59*%
X436197478Y-361382634D02*
X436023829Y-360397827D01*
X435789351Y-360439171D01*
X435656934Y-360510874D01*
X435579680Y-360621203D01*
X435549323Y-360723263D01*
X435535503Y-360919115D01*
X435560310Y-361059801D01*
X435640281Y-361239115D01*
X435703715Y-361324637D01*
X435814044Y-361401890D01*
X435963000Y-361423979D01*
X436197478Y-361382634D01*
X434570066Y-360654164D02*
X435039022Y-360571475D01*
X435168607Y-361032162D01*
X435113442Y-360993535D01*
X435011382Y-360963177D01*
X434776904Y-361004522D01*
X434691382Y-361067956D01*
X434652755Y-361123120D01*
X434622398Y-361225181D01*
X434663742Y-361459659D01*
X434727176Y-361545181D01*
X434782340Y-361583807D01*
X434884401Y-361614165D01*
X435118879Y-361572820D01*
X435204401Y-361509387D01*
X435243028Y-361454222D01*
X434227862Y-361729931D02*
X434040280Y-361763006D01*
X433938220Y-361732649D01*
X433883055Y-361694022D01*
X433764457Y-361569873D01*
X433684485Y-361390560D01*
X433618334Y-361015395D01*
X433648691Y-360913335D01*
X433687318Y-360858170D01*
X433772840Y-360794737D01*
X433960423Y-360761661D01*
X434062483Y-360792018D01*
X434117647Y-360830645D01*
X434181081Y-360916167D01*
X434222426Y-361150645D01*
X434192068Y-361252706D01*
X434153441Y-361307870D01*
X434067919Y-361371304D01*
X433880337Y-361404380D01*
X433778277Y-361374022D01*
X433723112Y-361335395D01*
X433659679Y-361249873D01*
X439067250Y-361201552D02*
X438893602Y-360216745D01*
X438504503Y-361300780D02*
X438827336Y-360663612D01*
X438330855Y-360315972D02*
X438992830Y-360779492D01*
%TO.C,D51*%
X526361619Y-324205998D02*
X526187970Y-323221191D01*
X525953492Y-323262535D01*
X525821075Y-323334238D01*
X525743821Y-323444567D01*
X525713464Y-323546627D01*
X525699644Y-323742479D01*
X525724451Y-323883165D01*
X525804422Y-324062479D01*
X525867856Y-324148001D01*
X525978185Y-324225254D01*
X526127141Y-324247343D01*
X526361619Y-324205998D01*
X524734207Y-323477528D02*
X525203163Y-323394839D01*
X525332748Y-323855526D01*
X525277583Y-323816899D01*
X525175523Y-323786541D01*
X524941045Y-323827886D01*
X524855523Y-323891320D01*
X524816896Y-323946484D01*
X524786539Y-324048545D01*
X524827883Y-324283023D01*
X524891317Y-324368545D01*
X524946481Y-324407171D01*
X525048542Y-324437529D01*
X525283020Y-324396184D01*
X525368542Y-324332751D01*
X525407169Y-324277586D01*
X523923047Y-324635984D02*
X524485794Y-324536757D01*
X524204421Y-324586370D02*
X524030773Y-323601563D01*
X524149371Y-323725712D01*
X524259700Y-323802965D01*
X524361760Y-323833323D01*
X529231391Y-324024916D02*
X529057743Y-323040109D01*
X528668644Y-324124144D02*
X528991477Y-323486976D01*
X528494996Y-323139336D02*
X529156971Y-323602856D01*
%TO.C,D45*%
X377941123Y-358855369D02*
X377767474Y-359840176D01*
X378001953Y-359881521D01*
X378150908Y-359859433D01*
X378261237Y-359782179D01*
X378324671Y-359696657D01*
X378404642Y-359517344D01*
X378429449Y-359376657D01*
X378415630Y-359180805D01*
X378385272Y-359078745D01*
X378308019Y-358968416D01*
X378175601Y-358896714D01*
X377941123Y-358855369D01*
X379232225Y-359759976D02*
X379347991Y-359103438D01*
X378931596Y-360093796D02*
X378821152Y-359349017D01*
X379430795Y-359456514D01*
X380159150Y-360261893D02*
X379690194Y-360179204D01*
X379725988Y-359701979D01*
X379764615Y-359757143D01*
X379850137Y-359820577D01*
X380084615Y-359861922D01*
X380186675Y-359831564D01*
X380241840Y-359792937D01*
X380305274Y-359707415D01*
X380346618Y-359472937D01*
X380316261Y-359370877D01*
X380277634Y-359315712D01*
X380192112Y-359252279D01*
X379957634Y-359210934D01*
X379855574Y-359241292D01*
X379800409Y-359279918D01*
X382575585Y-359997486D02*
X382401937Y-360982294D01*
X383138332Y-360096713D02*
X382617044Y-360585040D01*
X382964684Y-361081521D02*
X382501164Y-360419546D01*
%TO.C,D49*%
X488013444Y-326131847D02*
X487839795Y-325147040D01*
X487605317Y-325188384D01*
X487472900Y-325260087D01*
X487395646Y-325370416D01*
X487365289Y-325472476D01*
X487351469Y-325668328D01*
X487376276Y-325809014D01*
X487456247Y-325988328D01*
X487519681Y-326073850D01*
X487630010Y-326151103D01*
X487778966Y-326173192D01*
X488013444Y-326131847D01*
X486490810Y-325723378D02*
X486606575Y-326379916D01*
X486659136Y-325306868D02*
X487017649Y-325968957D01*
X486408006Y-326076454D01*
X486043828Y-326479144D02*
X485856246Y-326512219D01*
X485754186Y-326481862D01*
X485699021Y-326443235D01*
X485580423Y-326319086D01*
X485500451Y-326139773D01*
X485434300Y-325764608D01*
X485464657Y-325662548D01*
X485503284Y-325607383D01*
X485588806Y-325543950D01*
X485776389Y-325510874D01*
X485878449Y-325541231D01*
X485933613Y-325579858D01*
X485997047Y-325665380D01*
X486038392Y-325899858D01*
X486008034Y-326001919D01*
X485969407Y-326057083D01*
X485883885Y-326120517D01*
X485696303Y-326153593D01*
X485594243Y-326123235D01*
X485539078Y-326084608D01*
X485475645Y-325999086D01*
X490883216Y-325950765D02*
X490709568Y-324965958D01*
X490320469Y-326049993D02*
X490643302Y-325412825D01*
X490146821Y-325065185D02*
X490808796Y-325528705D01*
%TO.C,D35*%
X464787060Y-304113052D02*
X464613411Y-303128245D01*
X464378933Y-303169589D01*
X464246516Y-303241292D01*
X464169262Y-303351621D01*
X464138905Y-303453681D01*
X464125085Y-303649533D01*
X464149892Y-303790219D01*
X464229863Y-303969533D01*
X464293297Y-304055055D01*
X464403626Y-304132308D01*
X464552582Y-304154397D01*
X464787060Y-304113052D01*
X463722395Y-303285355D02*
X463112752Y-303392851D01*
X463507173Y-303710133D01*
X463366486Y-303734940D01*
X463280964Y-303798374D01*
X463242337Y-303853538D01*
X463211980Y-303955599D01*
X463253324Y-304190077D01*
X463316758Y-304275599D01*
X463371922Y-304314225D01*
X463473983Y-304344583D01*
X463755356Y-304294969D01*
X463840879Y-304231536D01*
X463879505Y-304176371D01*
X462221735Y-303549962D02*
X462690692Y-303467272D01*
X462820277Y-303927959D01*
X462765112Y-303889332D01*
X462663052Y-303858975D01*
X462428574Y-303900319D01*
X462343052Y-303963753D01*
X462304425Y-304018918D01*
X462274067Y-304120978D01*
X462315412Y-304355456D01*
X462378846Y-304440978D01*
X462434010Y-304479605D01*
X462536070Y-304509962D01*
X462770549Y-304468618D01*
X462856071Y-304405184D01*
X462894697Y-304350019D01*
X467656832Y-303931970D02*
X467483184Y-302947163D01*
X467094085Y-304031198D02*
X467416918Y-303394030D01*
X466920437Y-303046390D02*
X467582412Y-303509910D01*
%TO.C,D50*%
X507601031Y-327513996D02*
X507427382Y-326529189D01*
X507192904Y-326570533D01*
X507060487Y-326642236D01*
X506983233Y-326752565D01*
X506952876Y-326854625D01*
X506939056Y-327050477D01*
X506963863Y-327191163D01*
X507043834Y-327370477D01*
X507107268Y-327455999D01*
X507217597Y-327533252D01*
X507366553Y-327555341D01*
X507601031Y-327513996D01*
X505973619Y-326785526D02*
X506442575Y-326702837D01*
X506572160Y-327163524D01*
X506516995Y-327124897D01*
X506414935Y-327094539D01*
X506180457Y-327135884D01*
X506094935Y-327199318D01*
X506056308Y-327254482D01*
X506025951Y-327356543D01*
X506067295Y-327591021D01*
X506130729Y-327676543D01*
X506185893Y-327715169D01*
X506287954Y-327745527D01*
X506522432Y-327704182D01*
X506607954Y-327640749D01*
X506646581Y-327585584D01*
X505317080Y-326901292D02*
X505223289Y-326917830D01*
X505137767Y-326981263D01*
X505099140Y-327036428D01*
X505068782Y-327138488D01*
X505054963Y-327334339D01*
X505096307Y-327568817D01*
X505176279Y-327748131D01*
X505239712Y-327833653D01*
X505294877Y-327872280D01*
X505396937Y-327902637D01*
X505490728Y-327886100D01*
X505576251Y-327822666D01*
X505614877Y-327767501D01*
X505645235Y-327665441D01*
X505659055Y-327469590D01*
X505617710Y-327235112D01*
X505537738Y-327055798D01*
X505474305Y-326970276D01*
X505419140Y-326931649D01*
X505317080Y-326901292D01*
X510470803Y-327332914D02*
X510297155Y-326348107D01*
X509908056Y-327432142D02*
X510230889Y-326794974D01*
X509734408Y-326447334D02*
X510396383Y-326910854D01*
%TO.C,D31*%
X364969531Y-322716344D02*
X364795882Y-323701151D01*
X365030361Y-323742496D01*
X365179316Y-323720408D01*
X365289645Y-323643154D01*
X365353079Y-323557632D01*
X365433050Y-323378319D01*
X365457857Y-323237632D01*
X365444038Y-323041780D01*
X365413680Y-322939720D01*
X365336427Y-322829391D01*
X365204009Y-322757689D01*
X364969531Y-322716344D01*
X365686899Y-323858262D02*
X366296542Y-323965758D01*
X366034424Y-323532711D01*
X366175111Y-323557518D01*
X366277171Y-323527160D01*
X366332336Y-323488533D01*
X366395769Y-323403011D01*
X366437114Y-323168533D01*
X366406757Y-323066473D01*
X366368130Y-323011308D01*
X366282608Y-322947875D01*
X366001234Y-322898261D01*
X365899174Y-322928619D01*
X365844009Y-322967245D01*
X367408102Y-323146330D02*
X366845355Y-323047102D01*
X367126729Y-323096716D02*
X366953080Y-324081524D01*
X366884096Y-323924299D01*
X366806843Y-323813970D01*
X366721321Y-323750536D01*
X369603993Y-323858461D02*
X369430345Y-324843269D01*
X370166740Y-323957688D02*
X369645452Y-324446015D01*
X369993092Y-324942496D02*
X369529572Y-324280521D01*
%TO.C,D37*%
X504293034Y-308753409D02*
X504119385Y-307768602D01*
X503884907Y-307809946D01*
X503752490Y-307881649D01*
X503675236Y-307991978D01*
X503644879Y-308094038D01*
X503631059Y-308289890D01*
X503655866Y-308430576D01*
X503735837Y-308609890D01*
X503799271Y-308695412D01*
X503909600Y-308772665D01*
X504058556Y-308794754D01*
X504293034Y-308753409D01*
X503228369Y-307925712D02*
X502618726Y-308033208D01*
X503013147Y-308350490D01*
X502872460Y-308375297D01*
X502786938Y-308438731D01*
X502748311Y-308493895D01*
X502717954Y-308595956D01*
X502759298Y-308830434D01*
X502822732Y-308915956D01*
X502877896Y-308954582D01*
X502979957Y-308984940D01*
X503261330Y-308935326D01*
X503346853Y-308871893D01*
X503385479Y-308816728D01*
X502290457Y-308091091D02*
X501633918Y-308206856D01*
X502229627Y-309117244D01*
X507162806Y-308572327D02*
X506989158Y-307587520D01*
X506600059Y-308671555D02*
X506922892Y-308034387D01*
X506426411Y-307686747D02*
X507088386Y-308150267D01*
%TO.C,D2*%
X297342931Y-270169808D02*
X297169283Y-271154616D01*
X297403761Y-271195961D01*
X297552716Y-271173872D01*
X297663045Y-271096619D01*
X297726479Y-271011097D01*
X297806450Y-270831783D01*
X297831257Y-270691096D01*
X297817438Y-270495245D01*
X297787080Y-270393185D01*
X297709827Y-270282856D01*
X297577409Y-270211153D01*
X297342931Y-270169808D01*
X298123733Y-271226204D02*
X298162359Y-271281369D01*
X298247882Y-271344802D01*
X298482360Y-271386147D01*
X298584420Y-271355789D01*
X298639584Y-271317163D01*
X298703018Y-271231640D01*
X298719556Y-271137849D01*
X298697467Y-270988893D01*
X298233947Y-270326919D01*
X298843590Y-270434415D01*
X301508437Y-271229236D02*
X301334789Y-272214044D01*
X302071184Y-271328463D02*
X301549896Y-271816790D01*
X301897536Y-272313271D02*
X301434016Y-271651296D01*
%TO.C,D12*%
X516503786Y-268299448D02*
X516330137Y-267314641D01*
X516095659Y-267355985D01*
X515963242Y-267427688D01*
X515885988Y-267538017D01*
X515855631Y-267640077D01*
X515841811Y-267835929D01*
X515866618Y-267976615D01*
X515946589Y-268155929D01*
X516010023Y-268241451D01*
X516120352Y-268318704D01*
X516269308Y-268340793D01*
X516503786Y-268299448D01*
X515003126Y-268564055D02*
X515565873Y-268464827D01*
X515284500Y-268514441D02*
X515110852Y-267529633D01*
X515229450Y-267653782D01*
X515339779Y-267731036D01*
X515441839Y-267761393D01*
X514470851Y-267739190D02*
X514415686Y-267700564D01*
X514313626Y-267670206D01*
X514079148Y-267711551D01*
X513993626Y-267774984D01*
X513954999Y-267830149D01*
X513924642Y-267932209D01*
X513941180Y-268026000D01*
X514012882Y-268158418D01*
X514674857Y-268621938D01*
X514065214Y-268729434D01*
X519373558Y-268118366D02*
X519199910Y-267133559D01*
X518810811Y-268217594D02*
X519133644Y-267580426D01*
X518637163Y-267232786D02*
X519299138Y-267696306D01*
%TO.C,D63*%
X510909029Y-346274584D02*
X510735380Y-345289777D01*
X510500902Y-345331121D01*
X510368485Y-345402824D01*
X510291231Y-345513153D01*
X510260874Y-345615213D01*
X510247054Y-345811065D01*
X510271861Y-345951751D01*
X510351832Y-346131065D01*
X510415266Y-346216587D01*
X510525595Y-346293840D01*
X510674551Y-346315929D01*
X510909029Y-346274584D01*
X509328512Y-345537845D02*
X509516095Y-345504769D01*
X509618155Y-345535127D01*
X509673319Y-345573754D01*
X509791917Y-345697903D01*
X509871889Y-345877216D01*
X509938041Y-346252381D01*
X509907683Y-346354441D01*
X509869056Y-346409606D01*
X509783534Y-346473039D01*
X509595952Y-346506115D01*
X509493891Y-346475757D01*
X509438727Y-346437131D01*
X509375293Y-346351609D01*
X509333949Y-346117131D01*
X509364306Y-346015070D01*
X509402933Y-345959906D01*
X509488455Y-345896472D01*
X509676038Y-345863396D01*
X509778098Y-345893754D01*
X509833262Y-345932381D01*
X509896696Y-346017903D01*
X508906452Y-345612266D02*
X508296809Y-345719762D01*
X508691230Y-346037045D01*
X508550543Y-346061851D01*
X508465021Y-346125285D01*
X508426394Y-346180450D01*
X508396036Y-346282510D01*
X508437381Y-346516988D01*
X508500815Y-346602510D01*
X508555979Y-346641137D01*
X508658039Y-346671494D01*
X508939413Y-346621881D01*
X509024935Y-346558447D01*
X509063562Y-346503283D01*
X513778801Y-346093502D02*
X513605153Y-345108695D01*
X513216054Y-346192730D02*
X513538887Y-345555562D01*
X513042406Y-345207922D02*
X513704381Y-345671442D01*
%TO.C,D20*%
X426306565Y-305288477D02*
X426132916Y-304303670D01*
X425898438Y-304345014D01*
X425766021Y-304416717D01*
X425688767Y-304527046D01*
X425658410Y-304629106D01*
X425644590Y-304824958D01*
X425669397Y-304965644D01*
X425749368Y-305144958D01*
X425812802Y-305230480D01*
X425923131Y-305307733D01*
X426072087Y-305329822D01*
X426306565Y-305288477D01*
X425211542Y-304562840D02*
X425156378Y-304524213D01*
X425054317Y-304493856D01*
X424819839Y-304535200D01*
X424734317Y-304598634D01*
X424695691Y-304653799D01*
X424665333Y-304755859D01*
X424681871Y-304849650D01*
X424753573Y-304982068D01*
X425415548Y-305445588D01*
X424805905Y-305553084D01*
X424022614Y-304675773D02*
X423928823Y-304692311D01*
X423843301Y-304755744D01*
X423804674Y-304810909D01*
X423774316Y-304912969D01*
X423760497Y-305108820D01*
X423801841Y-305343298D01*
X423881813Y-305522612D01*
X423945246Y-305608134D01*
X424000411Y-305646761D01*
X424102471Y-305677118D01*
X424196262Y-305660581D01*
X424281785Y-305597147D01*
X424320411Y-305541982D01*
X424350769Y-305439922D01*
X424364589Y-305244071D01*
X424323244Y-305009593D01*
X424243272Y-304830279D01*
X424179839Y-304744757D01*
X424124674Y-304706130D01*
X424022614Y-304675773D01*
X429176337Y-305107395D02*
X429002689Y-304122588D01*
X428613590Y-305206623D02*
X428936423Y-304569455D01*
X428439942Y-304221815D02*
X429101917Y-304685335D01*
%TO.C,D24*%
X501018116Y-290180428D02*
X500844467Y-289195621D01*
X500609989Y-289236965D01*
X500477572Y-289308668D01*
X500400318Y-289418997D01*
X500369961Y-289521057D01*
X500356141Y-289716909D01*
X500380948Y-289857595D01*
X500460919Y-290036909D01*
X500524353Y-290122431D01*
X500634682Y-290199684D01*
X500783638Y-290221773D01*
X501018116Y-290180428D01*
X499923093Y-289454791D02*
X499867929Y-289416164D01*
X499765868Y-289385807D01*
X499531390Y-289427151D01*
X499445868Y-289490585D01*
X499407242Y-289545750D01*
X499376884Y-289647810D01*
X499393422Y-289741601D01*
X499465124Y-289874019D01*
X500127099Y-290337539D01*
X499517456Y-290445035D01*
X498557570Y-289937338D02*
X498673335Y-290593876D01*
X498725896Y-289520828D02*
X499084409Y-290182917D01*
X498474766Y-290290414D01*
X503887888Y-289999346D02*
X503714240Y-289014539D01*
X503325141Y-290098574D02*
X503647974Y-289461406D01*
X503151493Y-289113766D02*
X503813468Y-289577286D01*
%TO.C,D27*%
X290257980Y-307608294D02*
X290084331Y-308593101D01*
X290318810Y-308634446D01*
X290467765Y-308612358D01*
X290578094Y-308535104D01*
X290641528Y-308449582D01*
X290721499Y-308270269D01*
X290746306Y-308129582D01*
X290732487Y-307933730D01*
X290702129Y-307831670D01*
X290624876Y-307721341D01*
X290492458Y-307649639D01*
X290257980Y-307608294D01*
X291038782Y-308664689D02*
X291077408Y-308719854D01*
X291162930Y-308783288D01*
X291397408Y-308824632D01*
X291499469Y-308794275D01*
X291554633Y-308755648D01*
X291618067Y-308670126D01*
X291634605Y-308576335D01*
X291612516Y-308427379D01*
X291148996Y-307765404D01*
X291758639Y-307872900D01*
X291913260Y-308915591D02*
X292569799Y-309031356D01*
X292321386Y-307972128D01*
X294892442Y-308750411D02*
X294718794Y-309735219D01*
X295455189Y-308849638D02*
X294933901Y-309337965D01*
X295281541Y-309834446D02*
X294818021Y-309172471D01*
%TO.C,D52*%
X264881397Y-341821471D02*
X264707748Y-342806278D01*
X264942227Y-342847623D01*
X265091182Y-342825535D01*
X265201511Y-342748281D01*
X265264945Y-342662759D01*
X265344916Y-342483446D01*
X265369723Y-342342759D01*
X265355904Y-342146907D01*
X265325546Y-342044847D01*
X265248293Y-341934518D01*
X265115875Y-341862816D01*
X264881397Y-341821471D01*
X266161512Y-343062616D02*
X265692556Y-342979927D01*
X265728350Y-342502702D01*
X265766977Y-342557866D01*
X265852499Y-342621300D01*
X266086977Y-342662645D01*
X266189037Y-342632287D01*
X266244202Y-342593660D01*
X266307635Y-342508138D01*
X266348980Y-342273660D01*
X266318623Y-342171600D01*
X266279996Y-342116435D01*
X266194474Y-342053002D01*
X265959996Y-342011657D01*
X265857935Y-342042015D01*
X265802771Y-342080641D01*
X266600111Y-343043246D02*
X266638737Y-343098410D01*
X266724260Y-343161844D01*
X266958738Y-343203189D01*
X267060798Y-343172831D01*
X267115962Y-343134204D01*
X267179396Y-343048682D01*
X267195934Y-342954891D01*
X267173845Y-342805935D01*
X266710325Y-342143960D01*
X267319968Y-342251457D01*
X269515859Y-342963588D02*
X269342211Y-343948396D01*
X270078606Y-343062815D02*
X269557318Y-343551142D01*
X269904958Y-344047623D02*
X269441438Y-343385648D01*
%TO.C,D9*%
X457768268Y-267049779D02*
X457594619Y-266064971D01*
X457360141Y-266106316D01*
X457227723Y-266178018D01*
X457150470Y-266288348D01*
X457120112Y-266390408D01*
X457106293Y-266586259D01*
X457131100Y-266726946D01*
X457211071Y-266906259D01*
X457274505Y-266991782D01*
X457384834Y-267069035D01*
X457533790Y-267091124D01*
X457768268Y-267049779D01*
X456736564Y-267231696D02*
X456548982Y-267264772D01*
X456446922Y-267234414D01*
X456391757Y-267195788D01*
X456273159Y-267071639D01*
X456193187Y-266892325D01*
X456127036Y-266517160D01*
X456157393Y-266415100D01*
X456196020Y-266359936D01*
X456281542Y-266296502D01*
X456469125Y-266263426D01*
X456571185Y-266293784D01*
X456626350Y-266332411D01*
X456689783Y-266417933D01*
X456731128Y-266652411D01*
X456700770Y-266754471D01*
X456662144Y-266809636D01*
X456576621Y-266873069D01*
X456389039Y-266906145D01*
X456286979Y-266875787D01*
X456231814Y-266837161D01*
X456168381Y-266751638D01*
X461106996Y-266786007D02*
X460933348Y-265801200D01*
X460544249Y-266885235D02*
X460867082Y-266248067D01*
X460370601Y-265900427D02*
X461032576Y-266363947D01*
%TO.C,D3*%
X316930519Y-268787659D02*
X316756871Y-269772467D01*
X316991349Y-269813812D01*
X317140304Y-269791723D01*
X317250633Y-269714470D01*
X317314067Y-269628948D01*
X317394038Y-269449634D01*
X317418845Y-269308947D01*
X317405026Y-269113096D01*
X317374668Y-269011036D01*
X317297415Y-268900707D01*
X317164997Y-268829004D01*
X316930519Y-268787659D01*
X317647887Y-269929577D02*
X318257530Y-270037074D01*
X317995412Y-269604026D01*
X318136099Y-269628833D01*
X318238159Y-269598475D01*
X318293324Y-269559849D01*
X318356758Y-269474327D01*
X318398102Y-269239849D01*
X318367745Y-269137788D01*
X318329118Y-269082624D01*
X318243596Y-269019190D01*
X317962222Y-268969576D01*
X317860162Y-268999934D01*
X317804997Y-269038561D01*
X321096025Y-269847087D02*
X320922377Y-270831895D01*
X321658772Y-269946314D02*
X321137484Y-270434641D01*
X321485124Y-270931122D02*
X321021604Y-270269147D01*
%TO.C,D25*%
X519778703Y-286872430D02*
X519605054Y-285887623D01*
X519370576Y-285928967D01*
X519238159Y-286000670D01*
X519160905Y-286110999D01*
X519130548Y-286213059D01*
X519116728Y-286408911D01*
X519141535Y-286549597D01*
X519221506Y-286728911D01*
X519284940Y-286814433D01*
X519395269Y-286891686D01*
X519544225Y-286913775D01*
X519778703Y-286872430D01*
X518683680Y-286146793D02*
X518628516Y-286108166D01*
X518526455Y-286077809D01*
X518291977Y-286119153D01*
X518206455Y-286182587D01*
X518167829Y-286237752D01*
X518137471Y-286339812D01*
X518154009Y-286433603D01*
X518225711Y-286566021D01*
X518887686Y-287029541D01*
X518278043Y-287137037D01*
X517213378Y-286309340D02*
X517682335Y-286226650D01*
X517811920Y-286687337D01*
X517756755Y-286648710D01*
X517654695Y-286618353D01*
X517420217Y-286659697D01*
X517334695Y-286723131D01*
X517296068Y-286778296D01*
X517265710Y-286880356D01*
X517307055Y-287114834D01*
X517370489Y-287200356D01*
X517425653Y-287238983D01*
X517527713Y-287269340D01*
X517762192Y-287227996D01*
X517847714Y-287164562D01*
X517886340Y-287109397D01*
X522648475Y-286691348D02*
X522474827Y-285706541D01*
X522085728Y-286790576D02*
X522408561Y-286153408D01*
X521912080Y-285805768D02*
X522574055Y-286269288D01*
%TO.C,D33*%
X429581483Y-323861459D02*
X429407834Y-322876652D01*
X429173356Y-322917996D01*
X429040939Y-322989699D01*
X428963685Y-323100028D01*
X428933328Y-323202088D01*
X428919508Y-323397940D01*
X428944315Y-323538626D01*
X429024286Y-323717940D01*
X429087720Y-323803462D01*
X429198049Y-323880715D01*
X429347005Y-323902804D01*
X429581483Y-323861459D01*
X428516818Y-323033762D02*
X427907175Y-323141258D01*
X428301596Y-323458540D01*
X428160909Y-323483347D01*
X428075387Y-323546781D01*
X428036760Y-323601945D01*
X428006403Y-323704006D01*
X428047747Y-323938484D01*
X428111181Y-324024006D01*
X428166345Y-324062632D01*
X428268406Y-324092990D01*
X428549779Y-324043376D01*
X428635302Y-323979943D01*
X428673928Y-323924778D01*
X427578906Y-323199141D02*
X426969263Y-323306637D01*
X427363684Y-323623920D01*
X427222997Y-323648726D01*
X427137475Y-323712160D01*
X427098848Y-323767325D01*
X427068490Y-323869385D01*
X427109835Y-324103863D01*
X427173269Y-324189385D01*
X427228433Y-324228012D01*
X427330493Y-324258369D01*
X427611867Y-324208756D01*
X427697389Y-324145322D01*
X427736016Y-324090158D01*
X432451255Y-323680377D02*
X432277607Y-322695570D01*
X431888508Y-323779605D02*
X432211341Y-323142437D01*
X431714860Y-322794797D02*
X432376835Y-323258317D01*
%TO.C,D15*%
X313153565Y-287465557D02*
X312979916Y-288450364D01*
X313214395Y-288491709D01*
X313363350Y-288469621D01*
X313473679Y-288392367D01*
X313537113Y-288306845D01*
X313617084Y-288127532D01*
X313641891Y-287986845D01*
X313628072Y-287790993D01*
X313597714Y-287688933D01*
X313520461Y-287578604D01*
X313388043Y-287506902D01*
X313153565Y-287465557D01*
X314654224Y-287730163D02*
X314091477Y-287630936D01*
X314372850Y-287680550D02*
X314199202Y-288665357D01*
X314130218Y-288508133D01*
X314052965Y-288397804D01*
X313967442Y-288334370D01*
X315371592Y-288872081D02*
X314902636Y-288789392D01*
X314938430Y-288312167D01*
X314977057Y-288367331D01*
X315062579Y-288430765D01*
X315297057Y-288472110D01*
X315399117Y-288441752D01*
X315454282Y-288403125D01*
X315517716Y-288317603D01*
X315559060Y-288083125D01*
X315528703Y-287981065D01*
X315490076Y-287925900D01*
X315404554Y-287862467D01*
X315170076Y-287821122D01*
X315068016Y-287851480D01*
X315012851Y-287890106D01*
X317788027Y-288607674D02*
X317614379Y-289592482D01*
X318350774Y-288706901D02*
X317829486Y-289195228D01*
X318177126Y-289691709D02*
X317713606Y-289029734D01*
%TO.C,D28*%
X309845567Y-306226145D02*
X309671918Y-307210952D01*
X309906397Y-307252297D01*
X310055352Y-307230209D01*
X310165681Y-307152955D01*
X310229115Y-307067433D01*
X310309086Y-306888120D01*
X310333893Y-306747433D01*
X310320074Y-306551581D01*
X310289716Y-306449521D01*
X310212463Y-306339192D01*
X310080045Y-306267490D01*
X309845567Y-306226145D01*
X310626369Y-307282540D02*
X310664995Y-307337705D01*
X310750517Y-307401139D01*
X310984995Y-307442483D01*
X311087056Y-307412126D01*
X311142220Y-307373499D01*
X311205654Y-307287977D01*
X311222192Y-307194186D01*
X311200103Y-307045230D01*
X310736583Y-306383255D01*
X311346226Y-306490751D01*
X311809746Y-307152726D02*
X311707686Y-307183084D01*
X311652521Y-307221711D01*
X311589088Y-307307233D01*
X311580819Y-307354128D01*
X311611176Y-307456189D01*
X311649803Y-307511353D01*
X311735325Y-307574787D01*
X311922908Y-307607863D01*
X312024968Y-307577505D01*
X312080132Y-307538878D01*
X312143566Y-307453356D01*
X312151835Y-307406460D01*
X312121477Y-307304400D01*
X312082851Y-307249236D01*
X311997328Y-307185802D01*
X311809746Y-307152726D01*
X311724224Y-307089293D01*
X311685597Y-307034128D01*
X311655239Y-306932068D01*
X311688315Y-306744486D01*
X311751749Y-306658963D01*
X311806913Y-306620337D01*
X311908973Y-306589979D01*
X312096556Y-306623055D01*
X312182078Y-306686488D01*
X312220705Y-306741653D01*
X312251062Y-306843713D01*
X312217987Y-307031296D01*
X312154553Y-307116818D01*
X312099388Y-307155444D01*
X311997328Y-307185802D01*
X314480029Y-307368262D02*
X314306381Y-308353070D01*
X315042776Y-307467489D02*
X314521488Y-307955816D01*
X314869128Y-308452297D02*
X314405608Y-307790322D01*
%TO.C,D29*%
X329763954Y-302967937D02*
X329590305Y-303952744D01*
X329824784Y-303994089D01*
X329973739Y-303972001D01*
X330084068Y-303894747D01*
X330147502Y-303809225D01*
X330227473Y-303629912D01*
X330252280Y-303489225D01*
X330238461Y-303293373D01*
X330208103Y-303191313D01*
X330130850Y-303080984D01*
X329998432Y-303009282D01*
X329763954Y-302967937D01*
X330544756Y-304024332D02*
X330583382Y-304079497D01*
X330668904Y-304142931D01*
X330903382Y-304184275D01*
X331005443Y-304153918D01*
X331060607Y-304115291D01*
X331124041Y-304029769D01*
X331140579Y-303935978D01*
X331118490Y-303787022D01*
X330654970Y-303125047D01*
X331264613Y-303232543D01*
X331733569Y-303315233D02*
X331921152Y-303348309D01*
X332006674Y-303411742D01*
X332045300Y-303466907D01*
X332114285Y-303624132D01*
X332128105Y-303819983D01*
X332061953Y-304195148D01*
X331998519Y-304280670D01*
X331943355Y-304319297D01*
X331841295Y-304349655D01*
X331653712Y-304316579D01*
X331568190Y-304253145D01*
X331529563Y-304197981D01*
X331499206Y-304095920D01*
X331540550Y-303861442D01*
X331603984Y-303775920D01*
X331659149Y-303737294D01*
X331761209Y-303706936D01*
X331948791Y-303740012D01*
X332034313Y-303803445D01*
X332072940Y-303858610D01*
X332103298Y-303960670D01*
X334398416Y-304110054D02*
X334224768Y-305094862D01*
X334961163Y-304209281D02*
X334439875Y-304697608D01*
X334787515Y-305194089D02*
X334323995Y-304532114D01*
%TO.C,D38*%
X523053621Y-305445412D02*
X522879972Y-304460605D01*
X522645494Y-304501949D01*
X522513077Y-304573652D01*
X522435823Y-304683981D01*
X522405466Y-304786041D01*
X522391646Y-304981893D01*
X522416453Y-305122579D01*
X522496424Y-305301893D01*
X522559858Y-305387415D01*
X522670187Y-305464668D01*
X522819143Y-305486757D01*
X523053621Y-305445412D01*
X521988956Y-304617715D02*
X521379313Y-304725211D01*
X521773734Y-305042493D01*
X521633047Y-305067300D01*
X521547525Y-305130734D01*
X521508898Y-305185898D01*
X521478541Y-305287959D01*
X521519885Y-305522437D01*
X521583319Y-305607959D01*
X521638483Y-305646585D01*
X521740544Y-305676943D01*
X522021917Y-305627329D01*
X522107440Y-305563896D01*
X522146066Y-305508731D01*
X520890986Y-305246499D02*
X520976509Y-305183066D01*
X521015135Y-305127901D01*
X521045493Y-305025841D01*
X521037224Y-304978945D01*
X520973790Y-304893423D01*
X520918626Y-304854796D01*
X520816566Y-304824439D01*
X520628983Y-304857515D01*
X520543461Y-304920948D01*
X520504834Y-304976113D01*
X520474477Y-305078173D01*
X520482746Y-305125069D01*
X520546179Y-305210591D01*
X520601344Y-305249217D01*
X520703404Y-305279575D01*
X520890986Y-305246499D01*
X520993047Y-305276857D01*
X521048211Y-305315484D01*
X521111645Y-305401006D01*
X521144720Y-305588588D01*
X521114363Y-305690648D01*
X521075736Y-305745813D01*
X520990214Y-305809247D01*
X520802631Y-305842322D01*
X520700571Y-305811965D01*
X520645407Y-305773338D01*
X520581973Y-305687816D01*
X520548897Y-305500233D01*
X520579255Y-305398173D01*
X520617882Y-305343009D01*
X520703404Y-305279575D01*
X525923393Y-305264330D02*
X525749745Y-304279523D01*
X525360646Y-305363558D02*
X525683479Y-304726390D01*
X525186998Y-304378750D02*
X525848973Y-304842270D01*
%TO.C,D23*%
X481430529Y-288798278D02*
X481256880Y-287813471D01*
X481022402Y-287854815D01*
X480889985Y-287926518D01*
X480812731Y-288036847D01*
X480782374Y-288138907D01*
X480768554Y-288334759D01*
X480793361Y-288475445D01*
X480873332Y-288654759D01*
X480936766Y-288740281D01*
X481047095Y-288817534D01*
X481196051Y-288839623D01*
X481430529Y-288798278D01*
X480335506Y-288072641D02*
X480280342Y-288034014D01*
X480178281Y-288003657D01*
X479943803Y-288045001D01*
X479858281Y-288108435D01*
X479819655Y-288163600D01*
X479789297Y-288265660D01*
X479805835Y-288359451D01*
X479877537Y-288491869D01*
X480539512Y-288955389D01*
X479929869Y-289062885D01*
X479427952Y-288135960D02*
X478818309Y-288243456D01*
X479212730Y-288560739D01*
X479072043Y-288585545D01*
X478986521Y-288648979D01*
X478947894Y-288704144D01*
X478917536Y-288806204D01*
X478958881Y-289040682D01*
X479022315Y-289126204D01*
X479077479Y-289164831D01*
X479179539Y-289195188D01*
X479460913Y-289145575D01*
X479546435Y-289082141D01*
X479585062Y-289026977D01*
X484300301Y-288617196D02*
X484126653Y-287632389D01*
X483737554Y-288716424D02*
X484060387Y-288079256D01*
X483563906Y-287731616D02*
X484225881Y-288195136D01*
%TO.C,D11*%
X497743198Y-271607446D02*
X497569549Y-270622639D01*
X497335071Y-270663983D01*
X497202654Y-270735686D01*
X497125400Y-270846015D01*
X497095043Y-270948075D01*
X497081223Y-271143927D01*
X497106030Y-271284613D01*
X497186001Y-271463927D01*
X497249435Y-271549449D01*
X497359764Y-271626702D01*
X497508720Y-271648791D01*
X497743198Y-271607446D01*
X496242538Y-271872053D02*
X496805285Y-271772825D01*
X496523912Y-271822439D02*
X496350264Y-270837631D01*
X496468862Y-270961780D01*
X496579191Y-271039034D01*
X496681251Y-271069391D01*
X495304626Y-272037432D02*
X495867373Y-271938205D01*
X495586000Y-271987818D02*
X495412352Y-271003011D01*
X495530950Y-271127160D01*
X495641279Y-271204413D01*
X495743339Y-271234771D01*
X500612970Y-271426364D02*
X500439322Y-270441557D01*
X500050223Y-271525592D02*
X500373056Y-270888424D01*
X499876575Y-270540784D02*
X500538550Y-271004304D01*
%TO.C,D6*%
X372054482Y-285277858D02*
X371880834Y-286262666D01*
X372115312Y-286304011D01*
X372264267Y-286281922D01*
X372374596Y-286204669D01*
X372438030Y-286119147D01*
X372518001Y-285939833D01*
X372542808Y-285799146D01*
X372528989Y-285603295D01*
X372498631Y-285501235D01*
X372421378Y-285390906D01*
X372288960Y-285319203D01*
X372054482Y-285277858D01*
X373287702Y-286510735D02*
X373100119Y-286477659D01*
X373014597Y-286414226D01*
X372975970Y-286359061D01*
X372906986Y-286201836D01*
X372893166Y-286005985D01*
X372959318Y-285630820D01*
X373022752Y-285545298D01*
X373077916Y-285506671D01*
X373179976Y-285476313D01*
X373367559Y-285509389D01*
X373453081Y-285572823D01*
X373491708Y-285627987D01*
X373522065Y-285730048D01*
X373480721Y-285964526D01*
X373417287Y-286050048D01*
X373362122Y-286088674D01*
X373260062Y-286119032D01*
X373072480Y-286085956D01*
X372986958Y-286022523D01*
X372948331Y-285967358D01*
X372917973Y-285865298D01*
X376219988Y-286337286D02*
X376046340Y-287322094D01*
X376782735Y-286436513D02*
X376261447Y-286924840D01*
X376609087Y-287421321D02*
X376145567Y-286759346D01*
%TO.C,D39*%
X268189394Y-323060884D02*
X268015745Y-324045691D01*
X268250224Y-324087036D01*
X268399179Y-324064948D01*
X268509508Y-323987694D01*
X268572942Y-323902172D01*
X268652913Y-323722859D01*
X268677720Y-323582172D01*
X268663901Y-323386320D01*
X268633543Y-323284260D01*
X268556290Y-323173931D01*
X268423872Y-323102229D01*
X268189394Y-323060884D01*
X268906762Y-324202802D02*
X269516405Y-324310298D01*
X269254287Y-323877251D01*
X269394974Y-323902058D01*
X269497034Y-323871700D01*
X269552199Y-323833073D01*
X269615632Y-323747551D01*
X269656977Y-323513073D01*
X269626620Y-323411013D01*
X269587993Y-323355848D01*
X269502471Y-323292415D01*
X269221097Y-323242801D01*
X269119037Y-323273159D01*
X269063872Y-323311785D01*
X270159009Y-323408180D02*
X270346592Y-323441256D01*
X270432114Y-323504689D01*
X270470740Y-323559854D01*
X270539725Y-323717079D01*
X270553545Y-323912930D01*
X270487393Y-324288095D01*
X270423959Y-324373617D01*
X270368795Y-324412244D01*
X270266735Y-324442602D01*
X270079152Y-324409526D01*
X269993630Y-324346092D01*
X269955003Y-324290928D01*
X269924646Y-324188867D01*
X269965990Y-323954389D01*
X270029424Y-323868867D01*
X270084589Y-323830241D01*
X270186649Y-323799883D01*
X270374231Y-323832959D01*
X270459753Y-323896392D01*
X270498380Y-323951557D01*
X270528738Y-324053617D01*
X272823856Y-324203001D02*
X272650208Y-325187809D01*
X273386603Y-324302228D02*
X272865315Y-324790555D01*
X273212955Y-325287036D02*
X272749435Y-324625061D01*
%TO.C,D64*%
X529669617Y-342966586D02*
X529495968Y-341981779D01*
X529261490Y-342023123D01*
X529129073Y-342094826D01*
X529051819Y-342205155D01*
X529021462Y-342307215D01*
X529007642Y-342503067D01*
X529032449Y-342643753D01*
X529112420Y-342823067D01*
X529175854Y-342908589D01*
X529286183Y-342985842D01*
X529435139Y-343007931D01*
X529669617Y-342966586D01*
X528089100Y-342229847D02*
X528276683Y-342196771D01*
X528378743Y-342227129D01*
X528433907Y-342265756D01*
X528552505Y-342389905D01*
X528632477Y-342569218D01*
X528698629Y-342944383D01*
X528668271Y-343046443D01*
X528629644Y-343101608D01*
X528544122Y-343165041D01*
X528356540Y-343198117D01*
X528254479Y-343167759D01*
X528199315Y-343129133D01*
X528135881Y-343043611D01*
X528094537Y-342809133D01*
X528124894Y-342707072D01*
X528163521Y-342651908D01*
X528249043Y-342588474D01*
X528436626Y-342555398D01*
X528538686Y-342585756D01*
X528593850Y-342624383D01*
X528657284Y-342709905D01*
X527209071Y-342723496D02*
X527324836Y-343380034D01*
X527377397Y-342306986D02*
X527735910Y-342969075D01*
X527126267Y-343076572D01*
X532539389Y-342785504D02*
X532365741Y-341800697D01*
X531976642Y-342884732D02*
X532299475Y-342247564D01*
X531802994Y-341899924D02*
X532464969Y-342363444D01*
%TO.C,D62*%
X491321442Y-344892435D02*
X491147793Y-343907628D01*
X490913315Y-343948972D01*
X490780898Y-344020675D01*
X490703644Y-344131004D01*
X490673287Y-344233064D01*
X490659467Y-344428916D01*
X490684274Y-344569602D01*
X490764245Y-344748916D01*
X490827679Y-344834438D01*
X490938008Y-344911691D01*
X491086964Y-344933780D01*
X491321442Y-344892435D01*
X489740925Y-344155696D02*
X489928508Y-344122620D01*
X490030568Y-344152978D01*
X490085732Y-344191605D01*
X490204330Y-344315754D01*
X490284302Y-344495067D01*
X490350454Y-344870232D01*
X490320096Y-344972292D01*
X490281469Y-345027457D01*
X490195947Y-345090890D01*
X490008365Y-345123966D01*
X489906304Y-345093608D01*
X489851140Y-345054982D01*
X489787706Y-344969460D01*
X489746362Y-344734982D01*
X489776719Y-344632921D01*
X489815346Y-344577757D01*
X489900868Y-344514323D01*
X490088451Y-344481247D01*
X490190511Y-344511605D01*
X490245675Y-344550232D01*
X490309109Y-344635754D01*
X489288507Y-344332177D02*
X489233342Y-344293551D01*
X489131282Y-344263193D01*
X488896804Y-344304538D01*
X488811282Y-344367971D01*
X488772655Y-344423136D01*
X488742298Y-344525196D01*
X488758836Y-344618987D01*
X488830538Y-344751405D01*
X489492513Y-345214925D01*
X488882870Y-345322421D01*
X494191214Y-344711353D02*
X494017566Y-343726546D01*
X493628467Y-344810581D02*
X493951300Y-344173413D01*
X493454819Y-343825773D02*
X494116794Y-344289293D01*
%TO.C,D40*%
X286949982Y-326368882D02*
X286776333Y-327353689D01*
X287010812Y-327395034D01*
X287159767Y-327372946D01*
X287270096Y-327295692D01*
X287333530Y-327210170D01*
X287413501Y-327030857D01*
X287438308Y-326890170D01*
X287424489Y-326694318D01*
X287394131Y-326592258D01*
X287316878Y-326481929D01*
X287184460Y-326410227D01*
X286949982Y-326368882D01*
X288241084Y-327273489D02*
X288356850Y-326616951D01*
X287940455Y-327607309D02*
X287830011Y-326862530D01*
X288439654Y-326970027D01*
X288886636Y-327725793D02*
X288980427Y-327742331D01*
X289082487Y-327711973D01*
X289137652Y-327673346D01*
X289201085Y-327587824D01*
X289281057Y-327408511D01*
X289322402Y-327174033D01*
X289308582Y-326978181D01*
X289278224Y-326876121D01*
X289239597Y-326820956D01*
X289154075Y-326757523D01*
X289060284Y-326740985D01*
X288958224Y-326771343D01*
X288903059Y-326809969D01*
X288839626Y-326895492D01*
X288759654Y-327074805D01*
X288718309Y-327309283D01*
X288732129Y-327505134D01*
X288762487Y-327607195D01*
X288801114Y-327662359D01*
X288886636Y-327725793D01*
X291584444Y-327510999D02*
X291410796Y-328495807D01*
X292147191Y-327610226D02*
X291625903Y-328098553D01*
X291973543Y-328595034D02*
X291510023Y-327933059D01*
%TO.C,D36*%
X484705446Y-307371260D02*
X484531797Y-306386453D01*
X484297319Y-306427797D01*
X484164902Y-306499500D01*
X484087648Y-306609829D01*
X484057291Y-306711889D01*
X484043471Y-306907741D01*
X484068278Y-307048427D01*
X484148249Y-307227741D01*
X484211683Y-307313263D01*
X484322012Y-307390516D01*
X484470968Y-307412605D01*
X484705446Y-307371260D01*
X483640781Y-306543563D02*
X483031138Y-306651059D01*
X483425559Y-306968341D01*
X483284872Y-306993148D01*
X483199350Y-307056582D01*
X483160723Y-307111746D01*
X483130366Y-307213807D01*
X483171710Y-307448285D01*
X483235144Y-307533807D01*
X483290308Y-307572433D01*
X483392369Y-307602791D01*
X483673742Y-307553177D01*
X483759265Y-307489744D01*
X483797891Y-307434579D01*
X482187017Y-306799901D02*
X482374600Y-306766825D01*
X482476660Y-306797182D01*
X482531824Y-306835809D01*
X482650422Y-306959958D01*
X482730394Y-307139271D01*
X482796545Y-307514436D01*
X482766188Y-307616496D01*
X482727561Y-307671661D01*
X482642039Y-307735095D01*
X482454456Y-307768170D01*
X482352396Y-307737813D01*
X482297232Y-307699186D01*
X482233798Y-307613664D01*
X482192453Y-307379186D01*
X482222811Y-307277126D01*
X482261438Y-307221961D01*
X482346960Y-307158527D01*
X482534542Y-307125452D01*
X482636603Y-307155809D01*
X482691767Y-307194436D01*
X482755201Y-307279958D01*
X487575218Y-307190178D02*
X487401570Y-306205371D01*
X487012471Y-307289406D02*
X487335304Y-306652238D01*
X486838823Y-306304598D02*
X487500798Y-306768118D01*
%TO.C,D16*%
X333071952Y-284207350D02*
X332898303Y-285192157D01*
X333132782Y-285233502D01*
X333281737Y-285211414D01*
X333392066Y-285134160D01*
X333455500Y-285048638D01*
X333535471Y-284869325D01*
X333560278Y-284728638D01*
X333546459Y-284532786D01*
X333516101Y-284430726D01*
X333438848Y-284320397D01*
X333306430Y-284248695D01*
X333071952Y-284207350D01*
X334572611Y-284471956D02*
X334009864Y-284372729D01*
X334291237Y-284422343D02*
X334117589Y-285407150D01*
X334048605Y-285249926D01*
X333971352Y-285139597D01*
X333885829Y-285076163D01*
X335243084Y-285605606D02*
X335055501Y-285572530D01*
X334969979Y-285509096D01*
X334931352Y-285453932D01*
X334862368Y-285296707D01*
X334848548Y-285100855D01*
X334914700Y-284725691D01*
X334978134Y-284640168D01*
X335033298Y-284601542D01*
X335135358Y-284571184D01*
X335322941Y-284604260D01*
X335408463Y-284667693D01*
X335447090Y-284722858D01*
X335477447Y-284824918D01*
X335436103Y-285059396D01*
X335372669Y-285144918D01*
X335317504Y-285183545D01*
X335215444Y-285213903D01*
X335027862Y-285180827D01*
X334942340Y-285117393D01*
X334903713Y-285062229D01*
X334873355Y-284960169D01*
X337706414Y-285349467D02*
X337532766Y-286334275D01*
X338269161Y-285448694D02*
X337747873Y-285937021D01*
X338095513Y-286433502D02*
X337631993Y-285771527D01*
%TO.C,D8*%
X440165479Y-276923982D02*
X439991830Y-275939174D01*
X439757352Y-275980519D01*
X439624934Y-276052221D01*
X439547681Y-276162551D01*
X439517323Y-276264611D01*
X439503504Y-276460462D01*
X439528311Y-276601149D01*
X439608282Y-276780462D01*
X439671716Y-276865985D01*
X439782045Y-276943238D01*
X439931001Y-276965327D01*
X440165479Y-276923982D01*
X438940756Y-276559690D02*
X439026279Y-276496256D01*
X439064905Y-276441092D01*
X439095263Y-276339031D01*
X439086994Y-276292136D01*
X439023561Y-276206614D01*
X438968396Y-276167987D01*
X438866336Y-276137629D01*
X438678753Y-276170705D01*
X438593231Y-276234139D01*
X438554604Y-276289303D01*
X438524247Y-276391363D01*
X438532516Y-276438259D01*
X438595949Y-276523781D01*
X438651114Y-276562408D01*
X438753174Y-276592765D01*
X438940756Y-276559690D01*
X439042817Y-276590047D01*
X439097981Y-276628674D01*
X439161415Y-276714196D01*
X439194491Y-276901779D01*
X439164133Y-277003839D01*
X439125506Y-277059003D01*
X439039984Y-277122437D01*
X438852402Y-277155513D01*
X438750341Y-277125155D01*
X438695177Y-277086528D01*
X438631743Y-277001006D01*
X438598667Y-276813424D01*
X438629025Y-276711364D01*
X438667652Y-276656199D01*
X438753174Y-276592765D01*
X443504207Y-276660210D02*
X443330559Y-275675403D01*
X442941460Y-276759438D02*
X443264293Y-276122270D01*
X442767812Y-275774630D02*
X443429787Y-276238150D01*
%TO.C,D10*%
X478155611Y-270225297D02*
X477981962Y-269240490D01*
X477747484Y-269281834D01*
X477615067Y-269353537D01*
X477537813Y-269463866D01*
X477507456Y-269565926D01*
X477493636Y-269761778D01*
X477518443Y-269902464D01*
X477598414Y-270081778D01*
X477661848Y-270167300D01*
X477772177Y-270244553D01*
X477921133Y-270266642D01*
X478155611Y-270225297D01*
X476654951Y-270489904D02*
X477217698Y-270390676D01*
X476936325Y-270440290D02*
X476762677Y-269455482D01*
X476881275Y-269579631D01*
X476991604Y-269656885D01*
X477093664Y-269687242D01*
X475871660Y-269612593D02*
X475777869Y-269629131D01*
X475692347Y-269692564D01*
X475653720Y-269747729D01*
X475623362Y-269849789D01*
X475609543Y-270045640D01*
X475650887Y-270280118D01*
X475730859Y-270459432D01*
X475794292Y-270544954D01*
X475849457Y-270583581D01*
X475951517Y-270613938D01*
X476045308Y-270597401D01*
X476130831Y-270533967D01*
X476169457Y-270478802D01*
X476199815Y-270376742D01*
X476213635Y-270180891D01*
X476172290Y-269946413D01*
X476092318Y-269767099D01*
X476028885Y-269681577D01*
X475973720Y-269642950D01*
X475871660Y-269612593D01*
X481025383Y-270044215D02*
X480851735Y-269059408D01*
X480462636Y-270143443D02*
X480785469Y-269506275D01*
X480288988Y-269158635D02*
X480950963Y-269622155D01*
%TO.C,D42*%
X326455956Y-321728525D02*
X326282307Y-322713332D01*
X326516786Y-322754677D01*
X326665741Y-322732589D01*
X326776070Y-322655335D01*
X326839504Y-322569813D01*
X326919475Y-322390500D01*
X326944282Y-322249813D01*
X326930463Y-322053961D01*
X326900105Y-321951901D01*
X326822852Y-321841572D01*
X326690434Y-321769870D01*
X326455956Y-321728525D01*
X327747058Y-322633132D02*
X327862824Y-321976594D01*
X327446429Y-322966952D02*
X327335985Y-322222173D01*
X327945628Y-322329670D01*
X328174670Y-322950300D02*
X328213296Y-323005464D01*
X328298819Y-323068898D01*
X328533297Y-323110243D01*
X328635357Y-323079885D01*
X328690521Y-323041258D01*
X328753955Y-322955736D01*
X328770493Y-322861945D01*
X328748404Y-322712989D01*
X328284884Y-322051014D01*
X328894527Y-322158511D01*
X331090418Y-322870642D02*
X330916770Y-323855450D01*
X331653165Y-322969869D02*
X331131877Y-323458196D01*
X331479517Y-323954677D02*
X331015997Y-323292702D01*
%TO.C,D44*%
X361661533Y-341476932D02*
X361487884Y-342461739D01*
X361722363Y-342503084D01*
X361871318Y-342480996D01*
X361981647Y-342403742D01*
X362045081Y-342318220D01*
X362125052Y-342138907D01*
X362149859Y-341998220D01*
X362136040Y-341802368D01*
X362105682Y-341700308D01*
X362028429Y-341589979D01*
X361896011Y-341518277D01*
X361661533Y-341476932D01*
X362952635Y-342381539D02*
X363068401Y-341725001D01*
X362652006Y-342715359D02*
X362541562Y-341970580D01*
X363151205Y-342078077D01*
X363890548Y-342546918D02*
X364006313Y-341890380D01*
X363589918Y-342880738D02*
X363479474Y-342135959D01*
X364089117Y-342243456D01*
X366295995Y-342619049D02*
X366122347Y-343603857D01*
X366858742Y-342718276D02*
X366337454Y-343206603D01*
X366685094Y-343703084D02*
X366221574Y-343041109D01*
%TO.C,D5*%
X354451694Y-275403654D02*
X354278046Y-276388462D01*
X354512524Y-276429807D01*
X354661479Y-276407718D01*
X354771808Y-276330465D01*
X354835242Y-276244943D01*
X354915213Y-276065629D01*
X354940020Y-275924942D01*
X354926201Y-275729091D01*
X354895843Y-275627031D01*
X354818590Y-275516702D01*
X354686172Y-275444999D01*
X354451694Y-275403654D01*
X355731809Y-276644800D02*
X355262853Y-276562110D01*
X355298647Y-276084885D01*
X355337274Y-276140050D01*
X355422796Y-276203483D01*
X355657274Y-276244828D01*
X355759334Y-276214470D01*
X355814499Y-276175844D01*
X355877933Y-276090322D01*
X355919277Y-275855844D01*
X355888920Y-275753783D01*
X355850293Y-275698619D01*
X355764771Y-275635185D01*
X355530293Y-275593840D01*
X355428233Y-275624198D01*
X355373068Y-275662825D01*
X358617200Y-276463082D02*
X358443552Y-277447890D01*
X359179947Y-276562309D02*
X358658659Y-277050636D01*
X359006299Y-277547117D02*
X358542779Y-276885142D01*
%TO.C,D26*%
X271497392Y-304300296D02*
X271323743Y-305285103D01*
X271558222Y-305326448D01*
X271707177Y-305304360D01*
X271817506Y-305227106D01*
X271880940Y-305141584D01*
X271960911Y-304962271D01*
X271985718Y-304821584D01*
X271971899Y-304625732D01*
X271941541Y-304523672D01*
X271864288Y-304413343D01*
X271731870Y-304341641D01*
X271497392Y-304300296D01*
X272278194Y-305356691D02*
X272316820Y-305411856D01*
X272402342Y-305475290D01*
X272636820Y-305516634D01*
X272738881Y-305486277D01*
X272794045Y-305447650D01*
X272857479Y-305362128D01*
X272874017Y-305268337D01*
X272851928Y-305119381D01*
X272388408Y-304457406D01*
X272998051Y-304564902D01*
X273668524Y-305698552D02*
X273480941Y-305665476D01*
X273395419Y-305602042D01*
X273356792Y-305546878D01*
X273287808Y-305389653D01*
X273273988Y-305193801D01*
X273340140Y-304818637D01*
X273403574Y-304733114D01*
X273458738Y-304694488D01*
X273560798Y-304664130D01*
X273748381Y-304697206D01*
X273833903Y-304760639D01*
X273872530Y-304815804D01*
X273902887Y-304917864D01*
X273861543Y-305152342D01*
X273798109Y-305237864D01*
X273742944Y-305276491D01*
X273640884Y-305306849D01*
X273453302Y-305273773D01*
X273367780Y-305210339D01*
X273329153Y-305155175D01*
X273298795Y-305053115D01*
X276131854Y-305442413D02*
X275958206Y-306427221D01*
X276694601Y-305541640D02*
X276173313Y-306029967D01*
X276520953Y-306526448D02*
X276057433Y-305864473D01*
%TO.C,D30*%
X347366742Y-312842141D02*
X347193093Y-313826948D01*
X347427572Y-313868293D01*
X347576527Y-313846205D01*
X347686856Y-313768951D01*
X347750290Y-313683429D01*
X347830261Y-313504116D01*
X347855068Y-313363429D01*
X347841249Y-313167577D01*
X347810891Y-313065517D01*
X347733638Y-312955188D01*
X347601220Y-312883486D01*
X347366742Y-312842141D01*
X348084110Y-313984059D02*
X348693753Y-314091555D01*
X348431635Y-313658508D01*
X348572322Y-313683315D01*
X348674382Y-313652957D01*
X348729547Y-313614330D01*
X348792980Y-313528808D01*
X348834325Y-313294330D01*
X348803968Y-313192270D01*
X348765341Y-313137105D01*
X348679819Y-313073672D01*
X348398445Y-313024058D01*
X348296385Y-313054416D01*
X348241220Y-313093042D01*
X349303396Y-314199052D02*
X349397187Y-314215590D01*
X349499247Y-314185232D01*
X349554412Y-314146605D01*
X349617845Y-314061083D01*
X349697817Y-313881770D01*
X349739162Y-313647292D01*
X349725342Y-313451440D01*
X349694984Y-313349380D01*
X349656357Y-313294215D01*
X349570835Y-313230782D01*
X349477044Y-313214244D01*
X349374984Y-313244602D01*
X349319819Y-313283228D01*
X349256386Y-313368751D01*
X349176414Y-313548064D01*
X349135069Y-313782542D01*
X349148889Y-313978393D01*
X349179247Y-314080454D01*
X349217874Y-314135618D01*
X349303396Y-314199052D01*
X352001204Y-313984258D02*
X351827556Y-314969066D01*
X352563951Y-314083485D02*
X352042663Y-314571812D01*
X352390303Y-315068293D02*
X351926783Y-314406318D01*
%TO.C,D21*%
X443909353Y-295414274D02*
X443735704Y-294429467D01*
X443501226Y-294470811D01*
X443368809Y-294542514D01*
X443291555Y-294652843D01*
X443261198Y-294754903D01*
X443247378Y-294950755D01*
X443272185Y-295091441D01*
X443352156Y-295270755D01*
X443415590Y-295356277D01*
X443525919Y-295433530D01*
X443674875Y-295455619D01*
X443909353Y-295414274D01*
X442814330Y-294688637D02*
X442759166Y-294650010D01*
X442657105Y-294619653D01*
X442422627Y-294660997D01*
X442337105Y-294724431D01*
X442298479Y-294779596D01*
X442268121Y-294881656D01*
X442284659Y-294975447D01*
X442356361Y-295107865D01*
X443018336Y-295571385D01*
X442408693Y-295678881D01*
X441470781Y-295844260D02*
X442033528Y-295745033D01*
X441752155Y-295794646D02*
X441578507Y-294809839D01*
X441697105Y-294933988D01*
X441807434Y-295011241D01*
X441909494Y-295041599D01*
X446779125Y-295233192D02*
X446605477Y-294248385D01*
X446216378Y-295332420D02*
X446539211Y-294695252D01*
X446042730Y-294347612D02*
X446704705Y-294811132D01*
%TO.C,D61*%
X471403055Y-341634227D02*
X471229406Y-340649420D01*
X470994928Y-340690764D01*
X470862511Y-340762467D01*
X470785257Y-340872796D01*
X470754900Y-340974856D01*
X470741080Y-341170708D01*
X470765887Y-341311394D01*
X470845858Y-341490708D01*
X470909292Y-341576230D01*
X471019621Y-341653483D01*
X471168577Y-341675572D01*
X471403055Y-341634227D01*
X469822538Y-340897488D02*
X470010121Y-340864412D01*
X470112181Y-340894770D01*
X470167345Y-340933397D01*
X470285943Y-341057546D01*
X470365915Y-341236859D01*
X470432067Y-341612024D01*
X470401709Y-341714084D01*
X470363082Y-341769249D01*
X470277560Y-341832682D01*
X470089978Y-341865758D01*
X469987917Y-341835400D01*
X469932753Y-341796774D01*
X469869319Y-341711252D01*
X469827975Y-341476774D01*
X469858332Y-341374713D01*
X469896959Y-341319549D01*
X469982481Y-341256115D01*
X470170064Y-341223039D01*
X470272124Y-341253397D01*
X470327288Y-341292024D01*
X470390722Y-341377546D01*
X468964483Y-342064213D02*
X469527230Y-341964986D01*
X469245857Y-342014599D02*
X469072209Y-341029792D01*
X469190807Y-341153941D01*
X469301136Y-341231194D01*
X469403196Y-341261552D01*
X474272827Y-341453145D02*
X474099179Y-340468338D01*
X473710080Y-341552373D02*
X474032913Y-340915205D01*
X473536432Y-340567565D02*
X474198407Y-341031085D01*
%TO.C,D43*%
X344058745Y-331602728D02*
X343885096Y-332587535D01*
X344119575Y-332628880D01*
X344268530Y-332606792D01*
X344378859Y-332529538D01*
X344442293Y-332444016D01*
X344522264Y-332264703D01*
X344547071Y-332124016D01*
X344533252Y-331928164D01*
X344502894Y-331826104D01*
X344425641Y-331715775D01*
X344293223Y-331644073D01*
X344058745Y-331602728D01*
X345349847Y-332507335D02*
X345465613Y-331850797D01*
X345049218Y-332841155D02*
X344938774Y-332096376D01*
X345548417Y-332203873D01*
X345714025Y-332910025D02*
X346323668Y-333017521D01*
X346061550Y-332584474D01*
X346202237Y-332609281D01*
X346304297Y-332578923D01*
X346359462Y-332540296D01*
X346422896Y-332454774D01*
X346464240Y-332220296D01*
X346433883Y-332118236D01*
X346395256Y-332063071D01*
X346309734Y-331999638D01*
X346028360Y-331950024D01*
X345926300Y-331980382D01*
X345871135Y-332019008D01*
X348693207Y-332744845D02*
X348519559Y-333729653D01*
X349255954Y-332844072D02*
X348734666Y-333332399D01*
X349082306Y-333828880D02*
X348618786Y-333166905D01*
%TO.C,D34*%
X447184271Y-313987256D02*
X447010622Y-313002449D01*
X446776144Y-313043793D01*
X446643727Y-313115496D01*
X446566473Y-313225825D01*
X446536116Y-313327885D01*
X446522296Y-313523737D01*
X446547103Y-313664423D01*
X446627074Y-313843737D01*
X446690508Y-313929259D01*
X446800837Y-314006512D01*
X446949793Y-314028601D01*
X447184271Y-313987256D01*
X446119606Y-313159559D02*
X445509963Y-313267055D01*
X445904384Y-313584337D01*
X445763697Y-313609144D01*
X445678175Y-313672578D01*
X445639548Y-313727742D01*
X445609191Y-313829803D01*
X445650535Y-314064281D01*
X445713969Y-314149803D01*
X445769133Y-314188429D01*
X445871194Y-314218787D01*
X446152567Y-314169173D01*
X446238090Y-314105740D01*
X446276716Y-314050575D01*
X444723725Y-313744166D02*
X444839490Y-314400704D01*
X444892051Y-313327656D02*
X445250564Y-313989745D01*
X444640921Y-314097242D01*
X450054043Y-313806174D02*
X449880395Y-312821367D01*
X449491296Y-313905402D02*
X449814129Y-313268234D01*
X449317648Y-312920594D02*
X449979623Y-313384114D01*
%TO.C,D4*%
X336848905Y-265529451D02*
X336675257Y-266514259D01*
X336909735Y-266555604D01*
X337058690Y-266533515D01*
X337169019Y-266456262D01*
X337232453Y-266370740D01*
X337312424Y-266191426D01*
X337337231Y-266050739D01*
X337323412Y-265854888D01*
X337293054Y-265752828D01*
X337215801Y-265642499D01*
X337083383Y-265570796D01*
X336848905Y-265529451D01*
X338140007Y-266434059D02*
X338255773Y-265777520D01*
X337839378Y-266767879D02*
X337728934Y-266023100D01*
X338338577Y-266130596D01*
X341014411Y-266588879D02*
X340840763Y-267573687D01*
X341577158Y-266688106D02*
X341055870Y-267176433D01*
X341403510Y-267672914D02*
X340939990Y-267010939D01*
%TO.C,D7*%
X422562691Y-286798186D02*
X422389042Y-285813378D01*
X422154564Y-285854723D01*
X422022146Y-285926425D01*
X421944893Y-286036755D01*
X421914535Y-286138815D01*
X421900716Y-286334666D01*
X421925523Y-286475353D01*
X422005494Y-286654666D01*
X422068928Y-286740189D01*
X422179257Y-286817442D01*
X422328213Y-286839531D01*
X422562691Y-286798186D01*
X421498026Y-285970488D02*
X420841487Y-286086254D01*
X421437196Y-286996641D01*
X425901419Y-286534414D02*
X425727771Y-285549607D01*
X425338672Y-286633642D02*
X425661505Y-285996474D01*
X425165024Y-285648834D02*
X425826999Y-286112354D01*
%TO.C,D1*%
X278582344Y-266861810D02*
X278408696Y-267846618D01*
X278643174Y-267887963D01*
X278792129Y-267865874D01*
X278902458Y-267788621D01*
X278965892Y-267703099D01*
X279045863Y-267523785D01*
X279070670Y-267383098D01*
X279056851Y-267187247D01*
X279026493Y-267085187D01*
X278949240Y-266974858D01*
X278816822Y-266903155D01*
X278582344Y-266861810D01*
X280083003Y-267126417D02*
X279520256Y-267027190D01*
X279801630Y-267076803D02*
X279627981Y-268061611D01*
X279558997Y-267904386D01*
X279481744Y-267794057D01*
X279396221Y-267730624D01*
X282747850Y-267921238D02*
X282574202Y-268906046D01*
X283310597Y-268020465D02*
X282789309Y-268508792D01*
X283136949Y-269005273D02*
X282673429Y-268343298D01*
%TO.C,D54*%
X303229572Y-343747320D02*
X303055923Y-344732127D01*
X303290402Y-344773472D01*
X303439357Y-344751384D01*
X303549686Y-344674130D01*
X303613120Y-344588608D01*
X303693091Y-344409295D01*
X303717898Y-344268608D01*
X303704079Y-344072756D01*
X303673721Y-343970696D01*
X303596468Y-343860367D01*
X303464050Y-343788665D01*
X303229572Y-343747320D01*
X304509687Y-344988465D02*
X304040731Y-344905776D01*
X304076525Y-344428551D01*
X304115152Y-344483715D01*
X304200674Y-344547149D01*
X304435152Y-344588494D01*
X304537212Y-344558136D01*
X304592377Y-344519509D01*
X304655810Y-344433987D01*
X304697155Y-344199509D01*
X304666798Y-344097449D01*
X304628171Y-344042284D01*
X304542649Y-343978851D01*
X304308171Y-343937506D01*
X304206110Y-343967864D01*
X304150946Y-344006490D01*
X305458587Y-344817306D02*
X305574352Y-344160768D01*
X305157957Y-345151126D02*
X305047513Y-344406347D01*
X305657156Y-344513844D01*
X307864034Y-344889437D02*
X307690386Y-345874245D01*
X308426781Y-344988664D02*
X307905493Y-345476991D01*
X308253133Y-345973472D02*
X307789613Y-345311497D01*
%TO.C,D53*%
X283641984Y-345129469D02*
X283468335Y-346114276D01*
X283702814Y-346155621D01*
X283851769Y-346133533D01*
X283962098Y-346056279D01*
X284025532Y-345970757D01*
X284105503Y-345791444D01*
X284130310Y-345650757D01*
X284116491Y-345454905D01*
X284086133Y-345352845D01*
X284008880Y-345242516D01*
X283876462Y-345170814D01*
X283641984Y-345129469D01*
X284922099Y-346370614D02*
X284453143Y-346287925D01*
X284488937Y-345810700D01*
X284527564Y-345865864D01*
X284613086Y-345929298D01*
X284847564Y-345970643D01*
X284949624Y-345940285D01*
X285004789Y-345901658D01*
X285068222Y-345816136D01*
X285109567Y-345581658D01*
X285079210Y-345479598D01*
X285040583Y-345424433D01*
X284955061Y-345361000D01*
X284720583Y-345319655D01*
X284618522Y-345350013D01*
X284563358Y-345388639D01*
X285297264Y-346436766D02*
X285906907Y-346544262D01*
X285644789Y-346111215D01*
X285785476Y-346136022D01*
X285887536Y-346105664D01*
X285942701Y-346067037D01*
X286006135Y-345981515D01*
X286047479Y-345747037D01*
X286017122Y-345644977D01*
X285978495Y-345589812D01*
X285892973Y-345526379D01*
X285611599Y-345476765D01*
X285509539Y-345507123D01*
X285454374Y-345545749D01*
X288276446Y-346271586D02*
X288102798Y-347256394D01*
X288839193Y-346370813D02*
X288317905Y-346859140D01*
X288665545Y-347355621D02*
X288202025Y-346693646D01*
%TO.C,D56*%
X340750747Y-350363315D02*
X340577098Y-351348122D01*
X340811577Y-351389467D01*
X340960532Y-351367379D01*
X341070861Y-351290125D01*
X341134295Y-351204603D01*
X341214266Y-351025290D01*
X341239073Y-350884603D01*
X341225254Y-350688751D01*
X341194896Y-350586691D01*
X341117643Y-350476362D01*
X340985225Y-350404660D01*
X340750747Y-350363315D01*
X342030862Y-351604460D02*
X341561906Y-351521771D01*
X341597700Y-351044546D01*
X341636327Y-351099710D01*
X341721849Y-351163144D01*
X341956327Y-351204489D01*
X342058387Y-351174131D01*
X342113552Y-351135504D01*
X342176985Y-351049982D01*
X342218330Y-350815504D01*
X342187973Y-350713444D01*
X342149346Y-350658279D01*
X342063824Y-350594846D01*
X341829346Y-350553501D01*
X341727285Y-350583859D01*
X341672121Y-350622485D01*
X342921879Y-351761571D02*
X342734296Y-351728495D01*
X342648774Y-351665061D01*
X342610147Y-351609897D01*
X342541163Y-351452672D01*
X342527343Y-351256820D01*
X342593495Y-350881656D01*
X342656929Y-350796133D01*
X342712093Y-350757507D01*
X342814153Y-350727149D01*
X343001736Y-350760225D01*
X343087258Y-350823658D01*
X343125885Y-350878823D01*
X343156242Y-350980883D01*
X343114898Y-351215361D01*
X343051464Y-351300883D01*
X342996299Y-351339510D01*
X342894239Y-351369868D01*
X342706657Y-351336792D01*
X342621135Y-351273358D01*
X342582508Y-351218194D01*
X342552150Y-351116134D01*
X345385209Y-351505432D02*
X345211561Y-352490240D01*
X345947956Y-351604659D02*
X345426668Y-352092986D01*
X345774308Y-352589467D02*
X345310788Y-351927492D01*
%TO.C,D13*%
X274805390Y-285539709D02*
X274631741Y-286524516D01*
X274866220Y-286565861D01*
X275015175Y-286543773D01*
X275125504Y-286466519D01*
X275188938Y-286380997D01*
X275268909Y-286201684D01*
X275293716Y-286060997D01*
X275279897Y-285865145D01*
X275249539Y-285763085D01*
X275172286Y-285652756D01*
X275039868Y-285581054D01*
X274805390Y-285539709D01*
X276306049Y-285804315D02*
X275743302Y-285705088D01*
X276024675Y-285754702D02*
X275851027Y-286739509D01*
X275782043Y-286582285D01*
X275704790Y-286471956D01*
X275619267Y-286408522D01*
X276460670Y-286847006D02*
X277070313Y-286954502D01*
X276808195Y-286521455D01*
X276948882Y-286546262D01*
X277050942Y-286515904D01*
X277106107Y-286477277D01*
X277169541Y-286391755D01*
X277210885Y-286157277D01*
X277180528Y-286055217D01*
X277141901Y-286000052D01*
X277056379Y-285936619D01*
X276775005Y-285887005D01*
X276672945Y-285917363D01*
X276617780Y-285955989D01*
X279439852Y-286681826D02*
X279266204Y-287666634D01*
X280002599Y-286781053D02*
X279481311Y-287269380D01*
X279828951Y-287765861D02*
X279365431Y-287103886D01*
%TO.C,U1*%
X406640000Y-253510000D02*
X406640000Y-283990000D01*
X388860000Y-283990000D02*
X388860000Y-253510000D01*
X401560000Y-250970000D02*
X401560000Y-253510000D01*
X393940000Y-253510000D02*
X393940000Y-250970000D01*
X406640000Y-283990000D02*
X388860000Y-283990000D01*
X393940000Y-250970000D02*
X401560000Y-250970000D01*
X388860000Y-253510000D02*
X393940000Y-253510000D01*
X401560000Y-253510000D02*
X406640000Y-253510000D01*
D11*
%TO.C,D48*%
X468373043Y-323380690D02*
X468762015Y-325586660D01*
X468254866Y-323401528D02*
X468643838Y-325607498D01*
X469082105Y-323255664D02*
X469471077Y-325461633D01*
X464460881Y-325207788D02*
X465101006Y-325094917D01*
X469471077Y-325461633D02*
X465295492Y-326197901D01*
X468491220Y-323359853D02*
X468880192Y-325565822D01*
X465295492Y-326197901D02*
X464906520Y-323991932D01*
X469916716Y-324245777D02*
X469276591Y-324358648D01*
X464906520Y-323991932D02*
X469082105Y-323255664D01*
%TO.C,D32*%
X414661373Y-343734088D02*
X410485788Y-344470356D01*
X410096816Y-342264387D02*
X414272401Y-341528119D01*
X415107012Y-342518232D02*
X414466887Y-342631103D01*
X410485788Y-344470356D02*
X410096816Y-342264387D01*
X414272401Y-341528119D02*
X414661373Y-343734088D01*
X409651177Y-343480243D02*
X410291302Y-343367372D01*
X413681516Y-341632308D02*
X414070488Y-343838277D01*
X413445162Y-341673983D02*
X413834134Y-343879953D01*
X413563339Y-341653145D02*
X413952311Y-343859115D01*
%TO.C,D55*%
X321614829Y-343968122D02*
X322003801Y-341762153D01*
X325790414Y-344704390D02*
X321614829Y-343968122D01*
X326625025Y-343714277D02*
X325984900Y-343601406D01*
X325588501Y-342394232D02*
X325199529Y-344600201D01*
X325470324Y-342373394D02*
X325081352Y-344579364D01*
X326179386Y-342498421D02*
X325790414Y-344704390D01*
X325352147Y-342352556D02*
X324963175Y-344558526D01*
X322003801Y-341762153D02*
X326179386Y-342498421D01*
X321169190Y-342752266D02*
X321809315Y-342865137D01*
%TO.C,D17*%
X353706167Y-296090862D02*
X353317195Y-298296831D01*
X349141610Y-297560563D02*
X349530582Y-295354594D01*
X353115282Y-295986673D02*
X352726310Y-298192642D01*
X352997105Y-295965835D02*
X352608133Y-298171805D01*
X348695971Y-296344707D02*
X349336096Y-296457578D01*
X349530582Y-295354594D02*
X353706167Y-296090862D01*
X353317195Y-298296831D02*
X349141610Y-297560563D01*
X354151806Y-297306718D02*
X353511681Y-297193847D01*
X352878928Y-295944997D02*
X352489956Y-298150967D01*
%TO.C,D22*%
X461790128Y-286047121D02*
X462179100Y-288253091D01*
X461908305Y-286026284D02*
X462297277Y-288232253D01*
X462888162Y-288128064D02*
X458712577Y-288864332D01*
X463333801Y-286912208D02*
X462693676Y-287025079D01*
X461671951Y-286067959D02*
X462060923Y-288273929D01*
X458323605Y-286658363D02*
X462499190Y-285922095D01*
X458712577Y-288864332D02*
X458323605Y-286658363D01*
X457877966Y-287874219D02*
X458518091Y-287761348D01*
X462499190Y-285922095D02*
X462888162Y-288128064D01*
%TO.C,D57*%
X360675900Y-362121801D02*
X360286928Y-364327771D01*
X361830601Y-363462684D02*
X361190476Y-363349813D01*
X360794077Y-362142639D02*
X360405105Y-364348608D01*
X361384962Y-362246828D02*
X360995990Y-364452797D01*
X357209377Y-361510560D02*
X361384962Y-362246828D01*
X360995990Y-364452797D02*
X356820405Y-363716529D01*
X360557723Y-362100963D02*
X360168751Y-364306933D01*
X356374766Y-362500673D02*
X357014891Y-362613544D01*
X356820405Y-363716529D02*
X357209377Y-361510560D01*
%TO.C,D14*%
X295770166Y-290711151D02*
X295381194Y-292917121D01*
X296597405Y-290857016D02*
X296208433Y-293062985D01*
X292421820Y-290120748D02*
X296597405Y-290857016D01*
X292032848Y-292326717D02*
X292421820Y-290120748D01*
X297043044Y-292072872D02*
X296402919Y-291960001D01*
X295888343Y-290731989D02*
X295499371Y-292937959D01*
X296208433Y-293062985D02*
X292032848Y-292326717D01*
X291587209Y-291110861D02*
X292227334Y-291223732D01*
X296006520Y-290752827D02*
X295617548Y-292958796D01*
%TO.C,D18*%
X370919984Y-308171034D02*
X366744399Y-307434766D01*
X366298760Y-306218910D02*
X366938885Y-306331781D01*
X370599894Y-305840038D02*
X370210922Y-308046008D01*
X367133371Y-305228797D02*
X371308956Y-305965065D01*
X371308956Y-305965065D02*
X370919984Y-308171034D01*
X366744399Y-307434766D02*
X367133371Y-305228797D01*
X371754595Y-307180921D02*
X371114470Y-307068050D01*
X370718071Y-305860876D02*
X370329099Y-308066845D01*
X370481717Y-305819200D02*
X370092745Y-308025170D01*
%TO.C,D58*%
X418431550Y-361372623D02*
X417791425Y-361485494D01*
X416769700Y-360528374D02*
X417158672Y-362734344D01*
X412975715Y-362334634D02*
X413615840Y-362221763D01*
X417985911Y-362588479D02*
X413810326Y-363324747D01*
X417596939Y-360382510D02*
X417985911Y-362588479D01*
X416887877Y-360507536D02*
X417276849Y-362713506D01*
X413421354Y-361118778D02*
X417596939Y-360382510D01*
X417006054Y-360486699D02*
X417395026Y-362692668D01*
X413810326Y-363324747D02*
X413421354Y-361118778D01*
%TO.C,D19*%
X384263762Y-343865941D02*
X380088177Y-343129673D01*
X384652734Y-341659972D02*
X384263762Y-343865941D01*
X380477149Y-340923704D02*
X384652734Y-341659972D01*
X379642538Y-341913817D02*
X380282663Y-342026688D01*
X380088177Y-343129673D02*
X380477149Y-340923704D01*
X383825495Y-341514107D02*
X383436523Y-343720077D01*
X385098373Y-342875828D02*
X384458248Y-342762957D01*
X383943672Y-341534945D02*
X383554700Y-343740915D01*
X384061849Y-341555783D02*
X383672877Y-343761752D01*
%TO.C,D46*%
X429255304Y-344956195D02*
X429895429Y-344843324D01*
X429700943Y-343740339D02*
X433876528Y-343004071D01*
X434711139Y-343994184D02*
X434071014Y-344107055D01*
X430089915Y-345946308D02*
X429700943Y-343740339D01*
X434265500Y-345210040D02*
X430089915Y-345946308D01*
X433167466Y-343129097D02*
X433556438Y-345335067D01*
X433876528Y-343004071D02*
X434265500Y-345210040D01*
X433285643Y-343108260D02*
X433674615Y-345314229D01*
X433049289Y-343149935D02*
X433438261Y-345355905D01*
%TO.C,D41*%
X304558800Y-327249887D02*
X305198925Y-327362758D01*
X310014635Y-328211898D02*
X309374510Y-328099027D01*
X308859934Y-326871015D02*
X308470962Y-329076985D01*
X309568996Y-326996042D02*
X309180024Y-329202011D01*
X308741757Y-326850177D02*
X308352785Y-329056147D01*
X305004439Y-328465743D02*
X305393411Y-326259774D01*
X309180024Y-329202011D02*
X305004439Y-328465743D01*
X308978111Y-326891853D02*
X308589139Y-329097822D01*
X305393411Y-326259774D02*
X309568996Y-326996042D01*
%TO.C,D60*%
X451000701Y-354832692D02*
X450611729Y-352626723D01*
X455621925Y-352880568D02*
X454981800Y-352993439D01*
X454078252Y-352015481D02*
X454467224Y-354221451D01*
X454196429Y-351994644D02*
X454585401Y-354200613D01*
X454787314Y-351890455D02*
X455176286Y-354096424D01*
X455176286Y-354096424D02*
X451000701Y-354832692D01*
X450611729Y-352626723D02*
X454787314Y-351890455D01*
X450166090Y-353842579D02*
X450806215Y-353729708D01*
X453960075Y-352036319D02*
X454349047Y-354242289D01*
%TO.C,D47*%
X451868289Y-335335836D02*
X447692704Y-336072104D01*
X450770255Y-333254893D02*
X451159227Y-335460863D01*
X451479317Y-333129867D02*
X451868289Y-335335836D01*
X450888432Y-333234056D02*
X451277404Y-335440025D01*
X447303732Y-333866135D02*
X451479317Y-333129867D01*
X447692704Y-336072104D02*
X447303732Y-333866135D01*
X450652078Y-333275731D02*
X451041050Y-335481701D01*
X446858093Y-335081991D02*
X447498218Y-334969120D01*
X452313928Y-334119980D02*
X451673803Y-334232851D01*
%TO.C,D59*%
X438019137Y-362754772D02*
X437379012Y-362867643D01*
X436593641Y-361868848D02*
X436982613Y-364074817D01*
X433397913Y-364706896D02*
X433008941Y-362500927D01*
X436357287Y-361910523D02*
X436746259Y-364116493D01*
X432563302Y-363716783D02*
X433203427Y-363603912D01*
X436475464Y-361889685D02*
X436864436Y-364095655D01*
X437184526Y-361764659D02*
X437573498Y-363970628D01*
X437573498Y-363970628D02*
X433397913Y-364706896D01*
X433008941Y-362500927D02*
X437184526Y-361764659D01*
%TO.C,D51*%
X522727443Y-326540147D02*
X523367568Y-326427276D01*
X527737639Y-326793992D02*
X523562054Y-327530260D01*
X527348667Y-324588023D02*
X527737639Y-326793992D01*
X526639605Y-324713049D02*
X527028577Y-326919019D01*
X523173082Y-325324291D02*
X527348667Y-324588023D01*
X526521428Y-324733887D02*
X526910400Y-326939857D01*
X528183278Y-325578136D02*
X527543153Y-325691007D01*
X523562054Y-327530260D02*
X523173082Y-325324291D01*
X526757782Y-324692212D02*
X527146754Y-326898181D01*
%TO.C,D45*%
X375962354Y-361118523D02*
X376602479Y-361231394D01*
X376407993Y-362334379D02*
X376796965Y-360128410D01*
X380583578Y-363070647D02*
X376407993Y-362334379D01*
X376796965Y-360128410D02*
X380972550Y-360864678D01*
X381418189Y-362080534D02*
X380778064Y-361967663D01*
X380145311Y-360718813D02*
X379756339Y-362924783D01*
X380972550Y-360864678D02*
X380583578Y-363070647D01*
X380263488Y-360739651D02*
X379874516Y-362945621D01*
X380381665Y-360760489D02*
X379992693Y-362966458D01*
%TO.C,D49*%
X484824907Y-327250140D02*
X489000492Y-326513872D01*
X488173253Y-326659736D02*
X488562225Y-328865706D01*
X488291430Y-326638898D02*
X488680402Y-328844868D01*
X485213879Y-329456109D02*
X484824907Y-327250140D01*
X484379268Y-328465996D02*
X485019393Y-328353125D01*
X489835103Y-327503985D02*
X489194978Y-327616856D01*
X489000492Y-326513872D02*
X489389464Y-328719841D01*
X489389464Y-328719841D02*
X485213879Y-329456109D01*
X488409607Y-326618061D02*
X488798579Y-328824030D01*
%TO.C,D35*%
X461987495Y-307437314D02*
X461598523Y-305231345D01*
X465774108Y-304495077D02*
X466163080Y-306701046D01*
X465065046Y-304620103D02*
X465454018Y-306826073D01*
X461152884Y-306447201D02*
X461793009Y-306334330D01*
X461598523Y-305231345D02*
X465774108Y-304495077D01*
X464946869Y-304640941D02*
X465335841Y-306846911D01*
X466608719Y-305485190D02*
X465968594Y-305598061D01*
X465183223Y-304599266D02*
X465572195Y-306805235D01*
X466163080Y-306701046D02*
X461987495Y-307437314D01*
%TO.C,D50*%
X503966855Y-329848145D02*
X504606980Y-329735274D01*
X507879017Y-328021047D02*
X508267989Y-330227017D01*
X507997194Y-328000210D02*
X508386166Y-330206179D01*
X507760840Y-328041885D02*
X508149812Y-330247855D01*
X504801466Y-330838258D02*
X504412494Y-328632289D01*
X508977051Y-330101990D02*
X504801466Y-330838258D01*
X508588079Y-327896021D02*
X508977051Y-330101990D01*
X509422690Y-328886134D02*
X508782565Y-328999005D01*
X504412494Y-328632289D02*
X508588079Y-327896021D01*
%TO.C,D31*%
X368000958Y-324725653D02*
X367611986Y-326931622D01*
X368446597Y-325941509D02*
X367806472Y-325828638D01*
X367173719Y-324579788D02*
X366784747Y-326785758D01*
X367611986Y-326931622D02*
X363436401Y-326195354D01*
X363436401Y-326195354D02*
X363825373Y-323989385D01*
X362990762Y-324979498D02*
X363630887Y-325092369D01*
X363825373Y-323989385D02*
X368000958Y-324725653D01*
X367291896Y-324600626D02*
X366902924Y-326806596D01*
X367410073Y-324621464D02*
X367021101Y-326827433D01*
%TO.C,D37*%
X501104497Y-309871702D02*
X505280082Y-309135434D01*
X504689197Y-309239623D02*
X505078169Y-311445592D01*
X504571020Y-309260460D02*
X504959992Y-311466430D01*
X506114693Y-310125547D02*
X505474568Y-310238418D01*
X504452843Y-309281298D02*
X504841815Y-311487268D01*
X505280082Y-309135434D02*
X505669054Y-311341403D01*
X501493469Y-312077671D02*
X501104497Y-309871702D01*
X500658858Y-311087558D02*
X501298983Y-310974687D01*
X505669054Y-311341403D02*
X501493469Y-312077671D01*
%TO.C,D2*%
X295340845Y-273566129D02*
X295729817Y-271360160D01*
X300351041Y-273312284D02*
X299710916Y-273199413D01*
X299516430Y-274302397D02*
X295340845Y-273566129D01*
X299078163Y-271950563D02*
X298689191Y-274156533D01*
X299314517Y-271992239D02*
X298925545Y-274198208D01*
X299905402Y-272096428D02*
X299516430Y-274302397D01*
X294895206Y-272350273D02*
X295535331Y-272463144D01*
X299196340Y-271971401D02*
X298807368Y-274177371D01*
X295729817Y-271360160D02*
X299905402Y-272096428D01*
%TO.C,D12*%
X517490834Y-268681473D02*
X517879806Y-270887442D01*
X513315249Y-269417741D02*
X517490834Y-268681473D01*
X512869610Y-270633597D02*
X513509735Y-270520726D01*
X516781772Y-268806499D02*
X517170744Y-271012469D01*
X516663595Y-268827337D02*
X517052567Y-271033307D01*
X513704221Y-271623710D02*
X513315249Y-269417741D01*
X518325445Y-269671586D02*
X517685320Y-269784457D01*
X517879806Y-270887442D02*
X513704221Y-271623710D01*
X516899949Y-268785662D02*
X517288921Y-270991631D01*
%TO.C,D63*%
X508109464Y-349598846D02*
X507720492Y-347392877D01*
X512285049Y-348862578D02*
X508109464Y-349598846D01*
X507720492Y-347392877D02*
X511896077Y-346656609D01*
X511187015Y-346781635D02*
X511575987Y-348987605D01*
X507274853Y-348608733D02*
X507914978Y-348495862D01*
X511305192Y-346760798D02*
X511694164Y-348966767D01*
X512730688Y-347646722D02*
X512090563Y-347759593D01*
X511896077Y-346656609D02*
X512285049Y-348862578D01*
X511068838Y-346802473D02*
X511457810Y-349008443D01*
%TO.C,D20*%
X422672389Y-307622626D02*
X423312514Y-307509755D01*
X427682585Y-307876471D02*
X423507000Y-308612739D01*
X423118028Y-306406770D02*
X427293613Y-305670502D01*
X427293613Y-305670502D02*
X427682585Y-307876471D01*
X426584551Y-305795528D02*
X426973523Y-308001498D01*
X423507000Y-308612739D02*
X423118028Y-306406770D01*
X428128224Y-306660615D02*
X427488099Y-306773486D01*
X426466374Y-305816366D02*
X426855346Y-308022336D01*
X426702728Y-305774691D02*
X427091700Y-307980660D01*
%TO.C,D24*%
X501296102Y-290687479D02*
X501685074Y-292893449D01*
X501414279Y-290666642D02*
X501803251Y-292872611D01*
X502394136Y-292768422D02*
X498218551Y-293504690D01*
X502005164Y-290562453D02*
X502394136Y-292768422D01*
X497829579Y-291298721D02*
X502005164Y-290562453D01*
X497383940Y-292514577D02*
X498024065Y-292401706D01*
X501177925Y-290708317D02*
X501566897Y-292914287D01*
X498218551Y-293504690D02*
X497829579Y-291298721D01*
X502839775Y-291552566D02*
X502199650Y-291665437D01*
%TO.C,D27*%
X289113822Y-308881335D02*
X293289407Y-309617603D01*
X292580345Y-309492576D02*
X292191373Y-311698546D01*
X293735046Y-310833459D02*
X293094921Y-310720588D01*
X288724850Y-311087304D02*
X289113822Y-308881335D01*
X288279211Y-309871448D02*
X288919336Y-309984319D01*
X292462168Y-309471738D02*
X292073196Y-311677708D01*
X292698522Y-309513414D02*
X292309550Y-311719383D01*
X293289407Y-309617603D02*
X292900435Y-311823572D01*
X292900435Y-311823572D02*
X288724850Y-311087304D01*
%TO.C,D52*%
X267523852Y-346036749D02*
X263348267Y-345300481D01*
X268358463Y-345046636D02*
X267718338Y-344933765D01*
X267321939Y-343726591D02*
X266932967Y-345932560D01*
X267203762Y-343705753D02*
X266814790Y-345911723D01*
X262902628Y-344084625D02*
X263542753Y-344197496D01*
X267912824Y-343830780D02*
X267523852Y-346036749D01*
X263348267Y-345300481D02*
X263737239Y-343094512D01*
X267085585Y-343684915D02*
X266696613Y-345890885D01*
X263737239Y-343094512D02*
X267912824Y-343830780D01*
%TO.C,D9*%
X460058883Y-268339227D02*
X459418758Y-268452098D01*
X458633387Y-267453303D02*
X459022359Y-269659272D01*
X459613244Y-269555083D02*
X455437659Y-270291351D01*
X455048687Y-268085382D02*
X459224272Y-267349114D01*
X454603048Y-269301238D02*
X455243173Y-269188367D01*
X459224272Y-267349114D02*
X459613244Y-269555083D01*
X458397033Y-267494978D02*
X458786005Y-269700948D01*
X458515210Y-267474140D02*
X458904182Y-269680110D01*
X455437659Y-270291351D02*
X455048687Y-268085382D01*
%TO.C,D3*%
X319938629Y-271930135D02*
X319298504Y-271817264D01*
X314928433Y-272183980D02*
X315317405Y-269978011D01*
X319104018Y-272920248D02*
X314928433Y-272183980D01*
X315317405Y-269978011D02*
X319492990Y-270714279D01*
X318783928Y-270589252D02*
X318394956Y-272795222D01*
X318902105Y-270610090D02*
X318513133Y-272816059D01*
X314482794Y-270968124D02*
X315122919Y-271080995D01*
X319492990Y-270714279D02*
X319104018Y-272920248D01*
X318665751Y-270568414D02*
X318276779Y-272774384D01*
%TO.C,D25*%
X516144527Y-289206579D02*
X516784652Y-289093708D01*
X516979138Y-290196692D02*
X516590166Y-287990723D01*
X516590166Y-287990723D02*
X520765751Y-287254455D01*
X520056689Y-287379481D02*
X520445661Y-289585451D01*
X520765751Y-287254455D02*
X521154723Y-289460424D01*
X520174866Y-287358644D02*
X520563838Y-289564613D01*
X521154723Y-289460424D02*
X516979138Y-290196692D01*
X521600362Y-288244568D02*
X520960237Y-288357439D01*
X519938512Y-287400319D02*
X520327484Y-289606289D01*
%TO.C,D33*%
X425947307Y-326195608D02*
X426587432Y-326082737D01*
X429741292Y-324389348D02*
X430130264Y-326595318D01*
X429859469Y-324368510D02*
X430248441Y-326574480D01*
X429977646Y-324347673D02*
X430366618Y-326553642D01*
X431403142Y-325233597D02*
X430763017Y-325346468D01*
X426392946Y-324979752D02*
X430568531Y-324243484D01*
X430957503Y-326449453D02*
X426781918Y-327185721D01*
X430568531Y-324243484D02*
X430957503Y-326449453D01*
X426781918Y-327185721D02*
X426392946Y-324979752D01*
%TO.C,D15*%
X311620435Y-290944567D02*
X312009407Y-288738598D01*
X315475930Y-289349839D02*
X315086958Y-291555809D01*
X315357753Y-289329001D02*
X314968781Y-291534971D01*
X316630631Y-290690722D02*
X315990506Y-290577851D01*
X312009407Y-288738598D02*
X316184992Y-289474866D01*
X311174796Y-289728711D02*
X311814921Y-289841582D01*
X315796020Y-291680835D02*
X311620435Y-290944567D01*
X315594107Y-289370677D02*
X315205135Y-291576646D01*
X316184992Y-289474866D02*
X315796020Y-291680835D01*
%TO.C,D28*%
X308701409Y-307499186D02*
X312876994Y-308235454D01*
X307866798Y-308489299D02*
X308506923Y-308602170D01*
X312876994Y-308235454D02*
X312488022Y-310441423D01*
X312286109Y-308131265D02*
X311897137Y-310337234D01*
X312049755Y-308089589D02*
X311660783Y-310295559D01*
X312488022Y-310441423D02*
X308312437Y-309705155D01*
X308312437Y-309705155D02*
X308701409Y-307499186D01*
X313322633Y-309451310D02*
X312682508Y-309338439D01*
X312167932Y-308110427D02*
X311778960Y-310316397D01*
%TO.C,D29*%
X327785185Y-305231091D02*
X328425310Y-305343962D01*
X332204496Y-304873057D02*
X331815524Y-307079026D01*
X328619796Y-304240978D02*
X332795381Y-304977246D01*
X332406409Y-307183215D02*
X328230824Y-306446947D01*
X331968142Y-304831381D02*
X331579170Y-307037351D01*
X333241020Y-306193102D02*
X332600895Y-306080231D01*
X332795381Y-304977246D02*
X332406409Y-307183215D01*
X328230824Y-306446947D02*
X328619796Y-304240978D01*
X332086319Y-304852219D02*
X331697347Y-307058189D01*
%TO.C,D38*%
X524875280Y-306817550D02*
X524235155Y-306930421D01*
X523213430Y-305973301D02*
X523602402Y-308179271D01*
X524040669Y-305827437D02*
X524429641Y-308033406D01*
X523331607Y-305952463D02*
X523720579Y-308158433D01*
X519419445Y-307779561D02*
X520059570Y-307666690D01*
X523449784Y-305931626D02*
X523838756Y-308137595D01*
X519865084Y-306563705D02*
X524040669Y-305827437D01*
X520254056Y-308769674D02*
X519865084Y-306563705D01*
X524429641Y-308033406D02*
X520254056Y-308769674D01*
%TO.C,D23*%
X478630964Y-292122540D02*
X478241992Y-289916571D01*
X482417577Y-289180303D02*
X482806549Y-291386272D01*
X481708515Y-289305329D02*
X482097487Y-291511299D01*
X481590338Y-289326167D02*
X481979310Y-291532137D01*
X477796353Y-291132427D02*
X478436478Y-291019556D01*
X478241992Y-289916571D02*
X482417577Y-289180303D01*
X481826692Y-289284492D02*
X482215664Y-291490461D01*
X482806549Y-291386272D02*
X478630964Y-292122540D01*
X483252188Y-290170416D02*
X482612063Y-290283287D01*
%TO.C,D11*%
X498139361Y-272093660D02*
X498528333Y-274299629D01*
X498021184Y-272114497D02*
X498410156Y-274320467D01*
X494109022Y-273941595D02*
X494749147Y-273828724D01*
X499119218Y-274195440D02*
X494943633Y-274931708D01*
X494554661Y-272725739D02*
X498730246Y-271989471D01*
X498730246Y-271989471D02*
X499119218Y-274195440D01*
X499564857Y-272979584D02*
X498924732Y-273092455D01*
X494943633Y-274931708D02*
X494554661Y-272725739D01*
X497903007Y-272135335D02*
X498291979Y-274341305D01*
%TO.C,D6*%
X375062592Y-288420334D02*
X374422467Y-288307463D01*
X370441368Y-286468210D02*
X374616953Y-287204478D01*
X373789714Y-287058613D02*
X373400742Y-289264583D01*
X374616953Y-287204478D02*
X374227981Y-289410447D01*
X374227981Y-289410447D02*
X370052396Y-288674179D01*
X374026068Y-287100289D02*
X373637096Y-289306258D01*
X373907891Y-287079451D02*
X373518919Y-289285421D01*
X369606757Y-287458323D02*
X370246882Y-287571194D01*
X370052396Y-288674179D02*
X370441368Y-286468210D01*
%TO.C,D39*%
X266210625Y-325324038D02*
X266850750Y-325436909D01*
X267045236Y-324333925D02*
X271220821Y-325070193D01*
X270629936Y-324966004D02*
X270240964Y-327171973D01*
X271220821Y-325070193D02*
X270831849Y-327276162D01*
X266656264Y-326539894D02*
X267045236Y-324333925D01*
X270393582Y-324924328D02*
X270004610Y-327130298D01*
X270831849Y-327276162D02*
X266656264Y-326539894D01*
X271666460Y-326286049D02*
X271026335Y-326173178D01*
X270511759Y-324945166D02*
X270122787Y-327151136D01*
%TO.C,D64*%
X529947603Y-343473637D02*
X530336575Y-345679607D01*
X529829426Y-343494475D02*
X530218398Y-345700445D01*
X531045637Y-345554580D02*
X526870052Y-346290848D01*
X530065780Y-343452800D02*
X530454752Y-345658769D01*
X526870052Y-346290848D02*
X526481080Y-344084879D01*
X530656665Y-343348611D02*
X531045637Y-345554580D01*
X526035441Y-345300735D02*
X526675566Y-345187864D01*
X526481080Y-344084879D02*
X530656665Y-343348611D01*
X531491276Y-344338724D02*
X530851151Y-344451595D01*
%TO.C,D62*%
X492697462Y-347480429D02*
X488521877Y-348216697D01*
X491599428Y-345399486D02*
X491988400Y-347605456D01*
X487687266Y-347226584D02*
X488327391Y-347113713D01*
X488521877Y-348216697D02*
X488132905Y-346010728D01*
X493143101Y-346264573D02*
X492502976Y-346377444D01*
X488132905Y-346010728D02*
X492308490Y-345274460D01*
X491481251Y-345420324D02*
X491870223Y-347626294D01*
X492308490Y-345274460D02*
X492697462Y-347480429D01*
X491717605Y-345378649D02*
X492106577Y-347584618D01*
%TO.C,D40*%
X289272347Y-328253164D02*
X288883375Y-330459134D01*
X289154170Y-328232326D02*
X288765198Y-330438296D01*
X289390524Y-328274002D02*
X289001552Y-330479971D01*
X284971213Y-328632036D02*
X285611338Y-328744907D01*
X285805824Y-327641923D02*
X289981409Y-328378191D01*
X285416852Y-329847892D02*
X285805824Y-327641923D01*
X290427048Y-329594047D02*
X289786923Y-329481176D01*
X289592437Y-330584160D02*
X285416852Y-329847892D01*
X289981409Y-328378191D02*
X289592437Y-330584160D01*
%TO.C,D36*%
X481071270Y-309705409D02*
X481711395Y-309592538D01*
X486527105Y-308743398D02*
X485886980Y-308856269D01*
X486081466Y-309959254D02*
X481905881Y-310695522D01*
X485101609Y-307857474D02*
X485490581Y-310063443D01*
X485692494Y-307753285D02*
X486081466Y-309959254D01*
X484983432Y-307878311D02*
X485372404Y-310084281D01*
X481516909Y-308489553D02*
X485692494Y-307753285D01*
X481905881Y-310695522D02*
X481516909Y-308489553D01*
X484865255Y-307899149D02*
X485254227Y-310105119D01*
%TO.C,D16*%
X335276140Y-286070794D02*
X334887168Y-288276764D01*
X331538822Y-287686360D02*
X331927794Y-285480391D01*
X336549018Y-287432515D02*
X335908893Y-287319644D01*
X336103379Y-286216659D02*
X335714407Y-288422628D01*
X335394317Y-286091632D02*
X335005345Y-288297602D01*
X331927794Y-285480391D02*
X336103379Y-286216659D01*
X335714407Y-288422628D02*
X331538822Y-287686360D01*
X335512494Y-286112470D02*
X335123522Y-288318439D01*
X331093183Y-286470504D02*
X331733308Y-286583375D01*
%TO.C,D8*%
X440794244Y-277369181D02*
X441183216Y-279575151D01*
X441621483Y-277223317D02*
X442010455Y-279429286D01*
X441030598Y-277327506D02*
X441419570Y-279533475D01*
X442010455Y-279429286D02*
X437834870Y-280165554D01*
X437000259Y-279175441D02*
X437640384Y-279062570D01*
X440912421Y-277348343D02*
X441301393Y-279554313D01*
X437834870Y-280165554D02*
X437445898Y-277959585D01*
X442456094Y-278213430D02*
X441815969Y-278326301D01*
X437445898Y-277959585D02*
X441621483Y-277223317D01*
%TO.C,D10*%
X474967074Y-271343590D02*
X479142659Y-270607322D01*
X479531631Y-272813291D02*
X475356046Y-273549559D01*
X474521435Y-272559446D02*
X475161560Y-272446575D01*
X479977270Y-271597435D02*
X479337145Y-271710306D01*
X478551774Y-270711511D02*
X478940746Y-272917480D01*
X475356046Y-273549559D02*
X474967074Y-271343590D01*
X478433597Y-270732348D02*
X478822569Y-272938318D01*
X478315420Y-270753186D02*
X478704392Y-272959156D01*
X479142659Y-270607322D02*
X479531631Y-272813291D01*
%TO.C,D42*%
X329933022Y-324953690D02*
X329292897Y-324840819D01*
X328778321Y-323612807D02*
X328389349Y-325818777D01*
X324922826Y-325207535D02*
X325311798Y-323001566D01*
X329487383Y-323737834D02*
X329098411Y-325943803D01*
X329098411Y-325943803D02*
X324922826Y-325207535D01*
X325311798Y-323001566D02*
X329487383Y-323737834D01*
X324477187Y-323991679D02*
X325117312Y-324104550D01*
X328896498Y-323633645D02*
X328507526Y-325839614D01*
X328660144Y-323591969D02*
X328271172Y-325797939D01*
%TO.C,D44*%
X363865721Y-343340376D02*
X363476749Y-345546346D01*
X360128403Y-344955942D02*
X360517375Y-342749973D01*
X364102075Y-343382052D02*
X363713103Y-345588021D01*
X364303988Y-345692210D02*
X360128403Y-344955942D01*
X364692960Y-343486241D02*
X364303988Y-345692210D01*
X365138599Y-344702097D02*
X364498474Y-344589226D01*
X360517375Y-342749973D02*
X364692960Y-343486241D01*
X363983898Y-343361214D02*
X363594926Y-345567184D01*
X359682764Y-343740086D02*
X360322889Y-343852957D01*
%TO.C,D5*%
X356625193Y-279536243D02*
X352449608Y-278799975D01*
X356186926Y-277184409D02*
X355797954Y-279390379D01*
X357014165Y-277330274D02*
X356625193Y-279536243D01*
X356423280Y-277226085D02*
X356034308Y-279432054D01*
X352449608Y-278799975D02*
X352838580Y-276594006D01*
X357459804Y-278546130D02*
X356819679Y-278433259D01*
X356305103Y-277205247D02*
X355916131Y-279411217D01*
X352838580Y-276594006D02*
X357014165Y-277330274D01*
X352003969Y-277584119D02*
X352644094Y-277696990D01*
%TO.C,D26*%
X273937934Y-306205416D02*
X273548962Y-308411385D01*
X270353234Y-305573337D02*
X274528819Y-306309605D01*
X274974458Y-307525461D02*
X274334333Y-307412590D01*
X273701580Y-306163740D02*
X273312608Y-308369710D01*
X273819757Y-306184578D02*
X273430785Y-308390548D01*
X274528819Y-306309605D02*
X274139847Y-308515574D01*
X269518623Y-306563450D02*
X270158748Y-306676321D01*
X274139847Y-308515574D02*
X269964262Y-307779306D01*
X269964262Y-307779306D02*
X270353234Y-305573337D01*
%TO.C,D30*%
X349807284Y-314747261D02*
X349418312Y-316953230D01*
X349689107Y-314726423D02*
X349300135Y-316932393D01*
X345833612Y-316321151D02*
X346222584Y-314115182D01*
X350398169Y-314851450D02*
X350009197Y-317057419D01*
X345387973Y-315105295D02*
X346028098Y-315218166D01*
X350843808Y-316067306D02*
X350203683Y-315954435D01*
X349570930Y-314705585D02*
X349181958Y-316911555D01*
X346222584Y-314115182D02*
X350398169Y-314851450D01*
X350009197Y-317057419D02*
X345833612Y-316321151D01*
%TO.C,D21*%
X445285373Y-298002268D02*
X441109788Y-298738536D01*
X444305516Y-295900488D02*
X444694488Y-298106457D01*
X440720816Y-296532567D02*
X444896401Y-295796299D01*
X444896401Y-295796299D02*
X445285373Y-298002268D01*
X445731012Y-296786412D02*
X445090887Y-296899283D01*
X440275177Y-297748423D02*
X440915302Y-297635552D01*
X444187339Y-295921325D02*
X444576311Y-298127295D01*
X441109788Y-298738536D02*
X440720816Y-296532567D01*
X444069162Y-295942163D02*
X444458134Y-298148133D01*
%TO.C,D61*%
X473224714Y-343006365D02*
X472584589Y-343119236D01*
X468214518Y-342752520D02*
X472390103Y-342016252D01*
X472779075Y-344222221D02*
X468603490Y-344958489D01*
X467768879Y-343968376D02*
X468409004Y-343855505D01*
X471681041Y-342141278D02*
X472070013Y-344347248D01*
X472390103Y-342016252D02*
X472779075Y-344222221D01*
X468603490Y-344958489D02*
X468214518Y-342752520D01*
X471799218Y-342120441D02*
X472188190Y-344326410D01*
X471562864Y-342162116D02*
X471951836Y-344368086D01*
%TO.C,D43*%
X346499287Y-333507848D02*
X346110315Y-335713817D01*
X346262933Y-333466172D02*
X345873961Y-335672142D01*
X347535811Y-334827893D02*
X346895686Y-334715022D01*
X347090172Y-333612037D02*
X346701200Y-335818006D01*
X342914587Y-332875769D02*
X347090172Y-333612037D01*
X342079976Y-333865882D02*
X342720101Y-333978753D01*
X346701200Y-335818006D02*
X342525615Y-335081738D01*
X346381110Y-333487010D02*
X345992138Y-335692980D01*
X342525615Y-335081738D02*
X342914587Y-332875769D01*
%TO.C,D34*%
X443550095Y-316321405D02*
X444190220Y-316208534D01*
X448171319Y-314369281D02*
X448560291Y-316575250D01*
X449005930Y-315359394D02*
X448365805Y-315472265D01*
X448560291Y-316575250D02*
X444384706Y-317311518D01*
X444384706Y-317311518D02*
X443995734Y-315105549D01*
X447462257Y-314494307D02*
X447851229Y-316700277D01*
X443995734Y-315105549D02*
X448171319Y-314369281D01*
X447580434Y-314473470D02*
X447969406Y-316679439D01*
X447344080Y-314515145D02*
X447733052Y-316721115D01*
%TO.C,D4*%
X338702314Y-267331044D02*
X338313342Y-269537014D01*
X338820491Y-267351882D02*
X338431519Y-269557851D01*
X334846819Y-268925772D02*
X335235791Y-266719803D01*
X334401180Y-267709916D02*
X335041305Y-267822787D01*
X339857015Y-268671927D02*
X339216890Y-268559056D01*
X335235791Y-266719803D02*
X339411376Y-267456071D01*
X339411376Y-267456071D02*
X339022404Y-269662040D01*
X339022404Y-269662040D02*
X334846819Y-268925772D01*
X338584137Y-267310206D02*
X338195165Y-269516176D01*
%TO.C,D7*%
X420232082Y-290039758D02*
X419843110Y-287833789D01*
X423427810Y-287201710D02*
X423816782Y-289407679D01*
X423191456Y-287243385D02*
X423580428Y-289449355D01*
X424018695Y-287097521D02*
X424407667Y-289303490D01*
X424853306Y-288087634D02*
X424213181Y-288200505D01*
X419397471Y-289049645D02*
X420037596Y-288936774D01*
X419843110Y-287833789D02*
X424018695Y-287097521D01*
X423309633Y-287222547D02*
X423698605Y-289428517D01*
X424407667Y-289303490D02*
X420232082Y-290039758D01*
%TO.C,D1*%
X281144815Y-268788430D02*
X280755843Y-270994399D01*
X280435753Y-268663403D02*
X280046781Y-270869373D01*
X281590454Y-270004286D02*
X280950329Y-269891415D01*
X276580258Y-270258131D02*
X276969230Y-268052162D01*
X276969230Y-268052162D02*
X281144815Y-268788430D01*
X280553930Y-268684241D02*
X280164958Y-270890210D01*
X276134619Y-269042275D02*
X276774744Y-269155146D01*
X280317576Y-268642565D02*
X279928604Y-270848535D01*
X280755843Y-270994399D02*
X276580258Y-270258131D01*
%TO.C,D54*%
X305551937Y-345631602D02*
X305162965Y-347837572D01*
X305872027Y-347962598D02*
X301696442Y-347226330D01*
X302085414Y-345020361D02*
X306260999Y-345756629D01*
X301250803Y-346010474D02*
X301890928Y-346123345D01*
X305670114Y-345652440D02*
X305281142Y-347858409D01*
X306706638Y-346972485D02*
X306066513Y-346859614D01*
X306260999Y-345756629D02*
X305872027Y-347962598D01*
X305433760Y-345610764D02*
X305044788Y-347816734D01*
X301696442Y-347226330D02*
X302085414Y-345020361D01*
%TO.C,D53*%
X285846172Y-346992913D02*
X285457200Y-349198883D01*
X286673411Y-347138778D02*
X286284439Y-349344747D01*
X285964349Y-347013751D02*
X285575377Y-349219721D01*
X282108854Y-348608479D02*
X282497826Y-346402510D01*
X287119050Y-348354634D02*
X286478925Y-348241763D01*
X282497826Y-346402510D02*
X286673411Y-347138778D01*
X286284439Y-349344747D02*
X282108854Y-348608479D01*
X286082526Y-347034589D02*
X285693554Y-349240558D01*
X281663215Y-347392623D02*
X282303340Y-347505494D01*
%TO.C,D56*%
X343073112Y-352247597D02*
X342684140Y-354453567D01*
X339606589Y-351636356D02*
X343782174Y-352372624D01*
X338771978Y-352626469D02*
X339412103Y-352739340D01*
X344227813Y-353588480D02*
X343587688Y-353475609D01*
X343191289Y-352268435D02*
X342802317Y-354474404D01*
X343782174Y-352372624D02*
X343393202Y-354578593D01*
X342954935Y-352226759D02*
X342565963Y-354432729D01*
X343393202Y-354578593D02*
X339217617Y-353842325D01*
X339217617Y-353842325D02*
X339606589Y-351636356D01*
%TO.C,D13*%
X277447845Y-289754987D02*
X273272260Y-289018719D01*
X278282456Y-288764874D02*
X277642331Y-288652003D01*
X277127755Y-287423991D02*
X276738783Y-289629961D01*
X277245932Y-287444829D02*
X276856960Y-289650798D01*
X272826621Y-287802863D02*
X273466746Y-287915734D01*
X273272260Y-289018719D02*
X273661232Y-286812750D01*
X277009578Y-287403153D02*
X276620606Y-289609123D01*
X277836817Y-287549018D02*
X277447845Y-289754987D01*
X273661232Y-286812750D02*
X277836817Y-287549018D01*
%TD*%
%LPC*%
D12*
%TO.C,SW61*%
X464738563Y-339336720D03*
D13*
X471360665Y-333010697D03*
X465548202Y-336614775D03*
D12*
X474744209Y-337572454D03*
D14*
X469741386Y-338454587D03*
D15*
X462322957Y-337183473D03*
X474612500Y-332437311D03*
%TD*%
D12*
%TO.C,SW58*%
X419951045Y-355938711D03*
D13*
X416567501Y-351376954D03*
D12*
X409945399Y-357702977D03*
D13*
X410755038Y-354981032D03*
D14*
X414948222Y-356820844D03*
D15*
X407529793Y-355549730D03*
X419819336Y-350803568D03*
%TD*%
D14*
%TO.C,SW39*%
X269950003Y-320817408D03*
D12*
X264947180Y-319935275D03*
D13*
X273333547Y-316255651D03*
D12*
X274952826Y-321699541D03*
D13*
X266638952Y-317654397D03*
D16*
X263413706Y-317085699D03*
X276585383Y-316829037D03*
%TD*%
D12*
%TO.C,SW34*%
X450525425Y-309925483D03*
D14*
X445522602Y-310807616D03*
D12*
X440519779Y-311689749D03*
D13*
X447141881Y-305363726D03*
X441329418Y-308967804D03*
D15*
X438104173Y-309536502D03*
X450393716Y-304790340D03*
%TD*%
D12*
%TO.C,SW1*%
X284876819Y-265417778D03*
D13*
X283257540Y-259973888D03*
X276562945Y-261372634D03*
D14*
X279873996Y-264535645D03*
D12*
X274871173Y-263653512D03*
D16*
X273337699Y-260803936D03*
X286509376Y-260547274D03*
%TD*%
D13*
%TO.C,SW11*%
X497700808Y-262983916D03*
D12*
X501084352Y-267545673D03*
X491078706Y-269309939D03*
D13*
X491888345Y-266587994D03*
D14*
X496081529Y-268427806D03*
D15*
X488663100Y-267156692D03*
X500952643Y-262410530D03*
%TD*%
D14*
%TO.C,SW25*%
X518117035Y-283692790D03*
D13*
X519736314Y-278248900D03*
D12*
X523119858Y-282810657D03*
X513114212Y-284574923D03*
D13*
X513923851Y-281852978D03*
D15*
X510698606Y-282421676D03*
X522988149Y-277675514D03*
%TD*%
D13*
%TO.C,SW30*%
X345816300Y-307435654D03*
D12*
X344124528Y-309716532D03*
D14*
X349127351Y-310598665D03*
D13*
X352510895Y-306036908D03*
D12*
X354130174Y-311480798D03*
D16*
X342591054Y-306866956D03*
X355762731Y-306610294D03*
%TD*%
D12*
%TO.C,SW10*%
X471491119Y-267927789D03*
D13*
X472300758Y-265205844D03*
D12*
X481496765Y-266163523D03*
D13*
X478113221Y-261601766D03*
D14*
X476493942Y-267045656D03*
D15*
X469075513Y-265774542D03*
X481365056Y-261028380D03*
%TD*%
D12*
%TO.C,SW56*%
X347514179Y-349001972D03*
D14*
X342511356Y-348119839D03*
D13*
X339200305Y-344956828D03*
D12*
X337508533Y-347237706D03*
D13*
X345894900Y-343558082D03*
D16*
X335975059Y-344388130D03*
X349146736Y-344131468D03*
%TD*%
D17*
%TO.C,U1*%
X390130000Y-254780000D03*
D18*
X390130000Y-257320000D03*
X390130000Y-259860000D03*
X390130000Y-262400000D03*
X390130000Y-264940000D03*
X390130000Y-267480000D03*
X390130000Y-270020000D03*
X390130000Y-272560000D03*
X390130000Y-275100000D03*
X390130000Y-277640000D03*
X390130000Y-280180000D03*
X390130000Y-282720000D03*
X405370000Y-282720000D03*
X405370000Y-280180000D03*
X405370000Y-277640000D03*
X405370000Y-275100000D03*
X405370000Y-272560000D03*
X405370000Y-270020000D03*
X405370000Y-267480000D03*
X405370000Y-264940000D03*
X405370000Y-262400000D03*
X405370000Y-259860000D03*
X405370000Y-257320000D03*
X405370000Y-254780000D03*
%TD*%
D14*
%TO.C,SW23*%
X479768860Y-285618638D03*
D13*
X475575676Y-283778826D03*
D12*
X484771683Y-284736505D03*
D13*
X481388139Y-280174748D03*
D12*
X474766037Y-286500771D03*
D15*
X472350431Y-284347524D03*
X484639974Y-279601362D03*
%TD*%
D13*
%TO.C,SW8*%
X434779583Y-271821840D03*
D12*
X443975590Y-272779519D03*
X433969944Y-274543785D03*
D14*
X438972767Y-273661652D03*
D13*
X440592046Y-268217762D03*
D15*
X431554338Y-272390538D03*
X443843881Y-267644376D03*
%TD*%
D12*
%TO.C,SW60*%
X457141421Y-347446657D03*
D14*
X452138598Y-348328790D03*
D13*
X447945414Y-346488978D03*
X453757877Y-342884900D03*
D12*
X447135775Y-349210923D03*
D15*
X444720169Y-347057676D03*
X457009712Y-342311514D03*
%TD*%
D14*
%TO.C,SW41*%
X308298178Y-322743257D03*
D12*
X303295355Y-321861124D03*
D13*
X311681722Y-318181500D03*
D12*
X313301001Y-323625390D03*
D13*
X304987127Y-319580246D03*
D16*
X301761881Y-319011548D03*
X314933558Y-318754886D03*
%TD*%
D13*
%TO.C,SW59*%
X430342625Y-356363182D03*
D12*
X429532986Y-359085127D03*
D14*
X434535809Y-358202994D03*
D13*
X436155088Y-352759104D03*
D12*
X439538632Y-357320861D03*
D15*
X427117380Y-356931880D03*
X439406923Y-352185718D03*
%TD*%
D13*
%TO.C,SW22*%
X461469752Y-276916540D03*
D12*
X464853296Y-281478297D03*
D13*
X455657289Y-280520618D03*
D12*
X454847650Y-283242563D03*
D14*
X459850473Y-282360430D03*
D15*
X452432044Y-281089316D03*
X464721587Y-276343154D03*
%TD*%
D12*
%TO.C,SW36*%
X478040955Y-305073753D03*
D13*
X478850594Y-302351808D03*
X484663057Y-298747730D03*
D14*
X483043778Y-304191620D03*
D12*
X488046601Y-303309487D03*
D15*
X475625349Y-302920506D03*
X487914892Y-298174344D03*
%TD*%
D14*
%TO.C,SW49*%
X486351775Y-322952207D03*
D13*
X487971054Y-317508317D03*
X482158591Y-321112395D03*
D12*
X491354598Y-322070074D03*
X481348952Y-323834340D03*
D15*
X478933346Y-321681093D03*
X491222889Y-316934931D03*
%TD*%
D12*
%TO.C,SW43*%
X350822176Y-330241386D03*
D13*
X342508302Y-326196242D03*
X349202897Y-324797496D03*
D14*
X345819353Y-329359253D03*
D12*
X340816530Y-328477120D03*
D16*
X339283056Y-325627544D03*
X352454733Y-325370882D03*
%TD*%
D13*
%TO.C,SW4*%
X341524102Y-258641529D03*
X334829507Y-260040275D03*
D12*
X333137735Y-262321153D03*
D14*
X338140558Y-263203286D03*
D12*
X343143381Y-264085419D03*
D16*
X331604261Y-259471577D03*
X344775938Y-259214915D03*
%TD*%
D12*
%TO.C,SW26*%
X268255178Y-301174688D03*
D13*
X269946950Y-298893810D03*
X276641545Y-297495064D03*
D12*
X278260824Y-302938954D03*
D14*
X273258001Y-302056821D03*
D16*
X266721704Y-298325112D03*
X279893381Y-298068450D03*
%TD*%
D12*
%TO.C,SW33*%
X422916991Y-321563952D03*
D13*
X429539093Y-315237929D03*
D12*
X432922637Y-319799686D03*
D13*
X423726630Y-318842007D03*
D14*
X427919814Y-320681819D03*
D15*
X420501385Y-319410705D03*
X432790928Y-314664543D03*
%TD*%
D13*
%TO.C,SW62*%
X485466589Y-339872982D03*
D12*
X484656950Y-342594927D03*
D13*
X491279052Y-336268904D03*
D14*
X489659773Y-341712794D03*
D12*
X494662596Y-340830661D03*
D15*
X482241344Y-340441680D03*
X494530887Y-335695518D03*
%TD*%
D13*
%TO.C,SW29*%
X334908106Y-296162704D03*
D12*
X336527385Y-301606594D03*
D13*
X328213511Y-297561450D03*
D12*
X326521739Y-299842328D03*
D14*
X331524562Y-300724461D03*
D16*
X324988265Y-296992752D03*
X338159942Y-296736090D03*
%TD*%
D12*
%TO.C,SW64*%
X533010771Y-338904813D03*
D13*
X523814764Y-337947134D03*
X529627227Y-334343056D03*
D14*
X528007948Y-339786946D03*
D12*
X523005125Y-340669079D03*
D15*
X520589519Y-338515832D03*
X532879062Y-333769670D03*
%TD*%
D12*
%TO.C,SW47*%
X443827777Y-330450335D03*
D14*
X448830600Y-329568202D03*
D13*
X450449879Y-324124312D03*
X444637416Y-327728390D03*
D12*
X453833423Y-328686069D03*
D15*
X441412171Y-328297088D03*
X453701714Y-323550926D03*
%TD*%
D13*
%TO.C,SW55*%
X321597516Y-335082625D03*
D12*
X329911390Y-339127769D03*
X319905744Y-337363503D03*
D14*
X324908567Y-338245636D03*
D13*
X328292111Y-333683879D03*
D16*
X318372270Y-334513927D03*
X331543947Y-334257265D03*
%TD*%
D13*
%TO.C,SW40*%
X292094135Y-319563649D03*
D12*
X283707768Y-323243273D03*
D14*
X288710591Y-324125406D03*
D12*
X293713414Y-325007539D03*
D13*
X285399540Y-320962395D03*
D16*
X282174294Y-320393697D03*
X295345971Y-320137035D03*
%TD*%
D13*
%TO.C,SW37*%
X498438181Y-303733957D03*
D12*
X497628542Y-306455902D03*
D14*
X502631365Y-305573769D03*
D13*
X504250644Y-300129879D03*
D12*
X507634188Y-304691636D03*
D15*
X495212936Y-304302655D03*
X507502479Y-299556493D03*
%TD*%
D14*
%TO.C,SW27*%
X292018588Y-305364819D03*
D13*
X295402132Y-300803062D03*
D12*
X287015765Y-304482686D03*
D13*
X288707537Y-302201808D03*
D12*
X297021411Y-306246952D03*
D16*
X285482291Y-301633110D03*
X298653968Y-301376448D03*
%TD*%
D13*
%TO.C,SW3*%
X314911120Y-263298483D03*
D14*
X318222171Y-266461494D03*
D12*
X323224994Y-267343627D03*
X313219348Y-265579361D03*
D13*
X321605715Y-261899737D03*
D16*
X311685874Y-262729785D03*
X324857551Y-262473123D03*
%TD*%
D14*
%TO.C,SW35*%
X463125391Y-300933412D03*
D12*
X468128214Y-300051279D03*
D13*
X464744670Y-295489522D03*
D12*
X458122568Y-301815545D03*
D13*
X458932207Y-299093600D03*
D15*
X455706962Y-299662298D03*
X467996505Y-294916136D03*
%TD*%
D12*
%TO.C,SW46*%
X426224989Y-340324539D03*
D14*
X431227812Y-339442406D03*
D12*
X436230635Y-338560273D03*
D13*
X427034628Y-337602594D03*
X432847091Y-333998516D03*
D15*
X423809383Y-338171292D03*
X436098926Y-333425130D03*
%TD*%
D14*
%TO.C,SW15*%
X314914173Y-285222082D03*
D12*
X319916996Y-286104215D03*
X309911350Y-284339949D03*
D13*
X311603122Y-282059071D03*
X318297717Y-280660325D03*
D16*
X308377876Y-281490373D03*
X321549553Y-281233711D03*
%TD*%
D14*
%TO.C,SW38*%
X521391953Y-302265771D03*
D12*
X526394776Y-301383638D03*
D13*
X523011232Y-296821881D03*
X517198769Y-300425959D03*
D12*
X516389130Y-303147904D03*
D15*
X513973524Y-300994657D03*
X526263067Y-296248495D03*
%TD*%
D12*
%TO.C,SW6*%
X378348958Y-283833826D03*
D14*
X373346135Y-282951693D03*
D12*
X368343312Y-282069560D03*
D13*
X370035084Y-279788682D03*
X376729679Y-278389936D03*
D16*
X366809838Y-279219984D03*
X379981515Y-278963322D03*
%TD*%
D13*
%TO.C,SW63*%
X510866639Y-337651054D03*
D12*
X514250183Y-342212811D03*
X504244537Y-343977077D03*
D13*
X505054176Y-341255132D03*
D14*
X509247360Y-343094944D03*
D15*
X501828931Y-341823830D03*
X514118474Y-337077668D03*
%TD*%
D14*
%TO.C,SW32*%
X411623684Y-337966454D03*
D13*
X407430500Y-336126642D03*
D12*
X406620861Y-338848587D03*
X416626507Y-337084321D03*
D13*
X413242963Y-332522564D03*
D15*
X404205255Y-336695340D03*
X416494798Y-331949178D03*
%TD*%
D13*
%TO.C,SW57*%
X363497688Y-353432286D03*
D12*
X365116967Y-358876176D03*
D14*
X360114144Y-357994043D03*
D12*
X355111321Y-357111910D03*
D13*
X356803093Y-354831032D03*
D16*
X353577847Y-354262334D03*
X366749524Y-354005672D03*
%TD*%
D12*
%TO.C,SW44*%
X358419319Y-338351323D03*
X368424965Y-340115589D03*
D13*
X360111091Y-336070445D03*
X366805686Y-334671699D03*
D14*
X363422142Y-339233456D03*
D16*
X356885845Y-335501747D03*
X370057522Y-335245085D03*
%TD*%
D13*
%TO.C,SW52*%
X263330954Y-336414984D03*
D12*
X261639182Y-338695862D03*
D13*
X270025549Y-335016238D03*
D14*
X266642005Y-339577995D03*
D12*
X271644828Y-340460128D03*
D16*
X260105708Y-335846286D03*
X273277385Y-335589624D03*
%TD*%
D13*
%TO.C,SW24*%
X500975726Y-281556897D03*
D12*
X504359270Y-286118654D03*
D14*
X499356447Y-287000787D03*
D12*
X494353624Y-287882920D03*
D13*
X495163263Y-285160975D03*
D15*
X491938018Y-285729673D03*
X504227561Y-280983511D03*
%TD*%
D13*
%TO.C,SW19*%
X386765460Y-332845430D03*
D14*
X383381916Y-337407187D03*
D12*
X378379093Y-336525054D03*
X388384739Y-338289320D03*
D13*
X380070865Y-334244176D03*
D16*
X376845619Y-333675478D03*
X390017296Y-333418816D03*
%TD*%
D13*
%TO.C,SW2*%
X302018128Y-263281886D03*
X295323533Y-264680632D03*
D12*
X303637407Y-268725776D03*
X293631761Y-266961510D03*
D14*
X298634584Y-267843643D03*
D16*
X292098287Y-264111934D03*
X305269964Y-263855272D03*
%TD*%
D13*
%TO.C,SW18*%
X366727086Y-298549270D03*
D14*
X370038137Y-301712281D03*
D12*
X375040960Y-302594414D03*
X365035314Y-300830148D03*
D13*
X373421681Y-297150524D03*
D16*
X363501840Y-297980572D03*
X376673517Y-297723910D03*
%TD*%
D12*
%TO.C,SW16*%
X329829737Y-281081741D03*
X339835383Y-282846007D03*
D13*
X331521509Y-278800863D03*
D14*
X334832560Y-281963874D03*
D13*
X338216104Y-277402117D03*
D16*
X328296263Y-278232165D03*
X341467940Y-277975503D03*
%TD*%
D12*
%TO.C,SW48*%
X471436211Y-318811866D03*
D13*
X468052667Y-314250109D03*
X462240204Y-317854187D03*
D14*
X466433388Y-319693999D03*
D12*
X461430565Y-320576132D03*
D15*
X459014959Y-318422885D03*
X471304502Y-313676723D03*
%TD*%
D13*
%TO.C,SW14*%
X298710130Y-282042474D03*
X292015535Y-283441220D03*
D12*
X300329409Y-287486364D03*
X290323763Y-285722098D03*
D14*
X295326586Y-286604231D03*
D16*
X288790289Y-282872522D03*
X301961966Y-282615860D03*
%TD*%
D13*
%TO.C,SW53*%
X282091542Y-339722982D03*
D12*
X290405416Y-343768126D03*
D14*
X285402593Y-342885993D03*
D13*
X288786137Y-338324236D03*
D12*
X280399770Y-342003860D03*
D16*
X278866296Y-339154284D03*
X292037973Y-338897622D03*
%TD*%
D12*
%TO.C,SW12*%
X519844940Y-264237675D03*
D13*
X510648933Y-263279996D03*
D12*
X509839294Y-266001941D03*
D13*
X516461396Y-259675918D03*
D14*
X514842117Y-265119808D03*
D15*
X507423688Y-263848694D03*
X519713231Y-259102532D03*
%TD*%
D13*
%TO.C,SW54*%
X308373724Y-336942087D03*
D14*
X304990180Y-341503844D03*
D13*
X301679129Y-338340833D03*
D12*
X309993003Y-342385977D03*
X299987357Y-340621711D03*
D16*
X298453883Y-337772135D03*
X311625560Y-337515473D03*
%TD*%
D12*
%TO.C,SW20*%
X429647719Y-301226704D03*
D13*
X426264175Y-296664947D03*
X420451712Y-300269025D03*
D14*
X424644896Y-302108837D03*
D12*
X419642073Y-302990970D03*
D15*
X417226467Y-300837723D03*
X429516010Y-296091561D03*
%TD*%
D12*
%TO.C,SW5*%
X360746170Y-273959623D03*
X350740524Y-272195357D03*
D13*
X359126891Y-268515733D03*
D14*
X355743347Y-273077490D03*
D13*
X352432296Y-269914479D03*
D16*
X349207050Y-269345781D03*
X362378727Y-269089119D03*
%TD*%
D12*
%TO.C,SW17*%
X347432526Y-290955944D03*
D13*
X349124298Y-288675066D03*
X355818893Y-287276320D03*
D12*
X357438172Y-292720210D03*
D14*
X352435349Y-291838077D03*
D16*
X345899052Y-288106368D03*
X359070729Y-287849706D03*
%TD*%
D12*
%TO.C,SW28*%
X306603353Y-303100536D03*
D14*
X311606176Y-303982669D03*
D12*
X316608999Y-304864802D03*
D13*
X308295125Y-300819658D03*
X314989720Y-299420912D03*
D16*
X305069879Y-300250960D03*
X318241556Y-299994298D03*
%TD*%
D13*
%TO.C,SW7*%
X417176794Y-281696043D03*
X422989257Y-278091965D03*
D12*
X416367155Y-284417988D03*
D14*
X421369978Y-283535855D03*
D12*
X426372801Y-282653722D03*
D15*
X413951549Y-282264741D03*
X426241092Y-277518579D03*
%TD*%
D12*
%TO.C,SW45*%
X384704554Y-357494027D03*
D14*
X379701731Y-356611894D03*
D13*
X376390680Y-353448883D03*
X383085275Y-352050137D03*
D12*
X374698908Y-355729761D03*
D16*
X373165434Y-352880185D03*
X386337111Y-352623523D03*
%TD*%
D12*
%TO.C,SW9*%
X451572732Y-264669582D03*
D14*
X456575555Y-263787449D03*
D13*
X452382371Y-261947637D03*
D12*
X461578378Y-262905316D03*
D13*
X458194834Y-258343559D03*
D15*
X449157126Y-262516335D03*
X461446669Y-257770173D03*
%TD*%
D13*
%TO.C,SW13*%
X273254947Y-280133222D03*
D14*
X276565998Y-283296233D03*
D13*
X279949542Y-278734476D03*
D12*
X281568821Y-284178366D03*
X271563175Y-282414100D03*
D16*
X270029701Y-279564524D03*
X283201378Y-279307862D03*
%TD*%
D12*
%TO.C,SW21*%
X447250508Y-291352501D03*
D13*
X443866964Y-286790744D03*
D14*
X442247685Y-292234634D03*
D12*
X437244862Y-293116767D03*
D13*
X438054501Y-290394822D03*
D15*
X434829256Y-290963520D03*
X447118799Y-286217358D03*
%TD*%
D12*
%TO.C,SW51*%
X519697127Y-321908491D03*
D13*
X520506766Y-319186546D03*
D14*
X524699950Y-321026358D03*
D13*
X526319229Y-315582468D03*
D12*
X529702773Y-320144225D03*
D15*
X517281521Y-319755244D03*
X529571064Y-315009082D03*
%TD*%
D12*
%TO.C,SW42*%
X333219388Y-320367182D03*
D13*
X331600109Y-314923292D03*
D14*
X328216565Y-319485049D03*
D12*
X323213742Y-318602916D03*
D13*
X324905514Y-316322038D03*
D16*
X321680268Y-315753340D03*
X334851945Y-315496678D03*
%TD*%
D12*
%TO.C,SW50*%
X500936540Y-325216489D03*
D14*
X505939363Y-324334356D03*
D13*
X501746179Y-322494544D03*
D12*
X510942186Y-323452223D03*
D13*
X507558642Y-318890466D03*
D15*
X498520934Y-323063242D03*
X510810477Y-318317080D03*
%TD*%
D13*
%TO.C,SW31*%
X370113683Y-315911111D03*
D14*
X366730139Y-320472868D03*
D12*
X361727316Y-319590735D03*
X371732962Y-321355001D03*
D13*
X363419088Y-317309857D03*
D16*
X360193842Y-316741159D03*
X373365519Y-316484497D03*
%TD*%
D19*
%TO.C,D48*%
X470940916Y-324065183D03*
D20*
X463436681Y-325388382D03*
%TD*%
D19*
%TO.C,D32*%
X416131212Y-342337638D03*
D20*
X408626977Y-343660837D03*
%TD*%
D21*
%TO.C,D55*%
X327649225Y-343894871D03*
D22*
X320144990Y-342571672D03*
%TD*%
D21*
%TO.C,D17*%
X355176006Y-297487312D03*
D22*
X347671771Y-296164113D03*
%TD*%
D19*
%TO.C,D22*%
X464358001Y-286731614D03*
D20*
X456853766Y-288054813D03*
%TD*%
D21*
%TO.C,D57*%
X362854801Y-363643278D03*
D22*
X355350566Y-362320079D03*
%TD*%
D21*
%TO.C,D14*%
X298067244Y-292253466D03*
D22*
X290563009Y-290930267D03*
%TD*%
D21*
%TO.C,D18*%
X372778795Y-307361515D03*
D22*
X365274560Y-306038316D03*
%TD*%
D19*
%TO.C,D58*%
X419455750Y-361192029D03*
D20*
X411951515Y-362515228D03*
%TD*%
D21*
%TO.C,D19*%
X386122573Y-343056422D03*
D22*
X378618338Y-341733223D03*
%TD*%
D19*
%TO.C,D46*%
X435735339Y-343813590D03*
D20*
X428231104Y-345136789D03*
%TD*%
D21*
%TO.C,D41*%
X311038835Y-328392492D03*
D22*
X303534600Y-327069293D03*
%TD*%
D19*
%TO.C,D60*%
X456646125Y-352699974D03*
D20*
X449141890Y-354023173D03*
%TD*%
D19*
%TO.C,D47*%
X453338128Y-333939386D03*
D20*
X445833893Y-335262585D03*
%TD*%
D19*
%TO.C,D59*%
X439043337Y-362574178D03*
D20*
X431539102Y-363897377D03*
%TD*%
D19*
%TO.C,D51*%
X529207478Y-325397542D03*
D20*
X521703243Y-326720741D03*
%TD*%
D21*
%TO.C,D45*%
X382442389Y-362261128D03*
D22*
X374938154Y-360937929D03*
%TD*%
D19*
%TO.C,D49*%
X490859303Y-327323391D03*
D20*
X483355068Y-328646590D03*
%TD*%
D19*
%TO.C,D35*%
X467632919Y-305304596D03*
D20*
X460128684Y-306627795D03*
%TD*%
D19*
%TO.C,D50*%
X510446890Y-328705540D03*
D20*
X502942655Y-330028739D03*
%TD*%
D21*
%TO.C,D31*%
X369470797Y-326122103D03*
D22*
X361966562Y-324798904D03*
%TD*%
D19*
%TO.C,D37*%
X507138893Y-309944953D03*
D20*
X499634658Y-311268152D03*
%TD*%
D21*
%TO.C,D2*%
X301375241Y-273492878D03*
D22*
X293871006Y-272169679D03*
%TD*%
D19*
%TO.C,D12*%
X519349645Y-269490992D03*
D20*
X511845410Y-270814191D03*
%TD*%
D19*
%TO.C,D63*%
X513754888Y-347466128D03*
D20*
X506250653Y-348789327D03*
%TD*%
D19*
%TO.C,D20*%
X429152424Y-306480021D03*
D20*
X421648189Y-307803220D03*
%TD*%
D19*
%TO.C,D24*%
X503863975Y-291371972D03*
D20*
X496359740Y-292695171D03*
%TD*%
D21*
%TO.C,D27*%
X294759246Y-311014053D03*
D22*
X287255011Y-309690854D03*
%TD*%
D21*
%TO.C,D52*%
X269382663Y-345227230D03*
D22*
X261878428Y-343904031D03*
%TD*%
D19*
%TO.C,D9*%
X461083083Y-268158633D03*
D20*
X453578848Y-269481832D03*
%TD*%
D21*
%TO.C,D3*%
X320962829Y-272110729D03*
D22*
X313458594Y-270787530D03*
%TD*%
D19*
%TO.C,D25*%
X522624562Y-288063974D03*
D20*
X515120327Y-289387173D03*
%TD*%
D19*
%TO.C,D33*%
X432427342Y-325053003D03*
D20*
X424923107Y-326376202D03*
%TD*%
D21*
%TO.C,D15*%
X317654831Y-290871316D03*
D22*
X310150596Y-289548117D03*
%TD*%
D21*
%TO.C,D28*%
X314346833Y-309631904D03*
D22*
X306842598Y-308308705D03*
%TD*%
D21*
%TO.C,D29*%
X334265220Y-306373696D03*
D22*
X326760985Y-305050497D03*
%TD*%
D19*
%TO.C,D38*%
X525899480Y-306636956D03*
D20*
X518395245Y-307960155D03*
%TD*%
D19*
%TO.C,D23*%
X484276388Y-289989822D03*
D20*
X476772153Y-291313021D03*
%TD*%
D19*
%TO.C,D11*%
X500589057Y-272798990D03*
D20*
X493084822Y-274122189D03*
%TD*%
D21*
%TO.C,D6*%
X376086792Y-288600928D03*
D22*
X368582557Y-287277729D03*
%TD*%
D21*
%TO.C,D39*%
X272690660Y-326466643D03*
D22*
X265186425Y-325143444D03*
%TD*%
D19*
%TO.C,D64*%
X532515476Y-344158130D03*
D20*
X525011241Y-345481329D03*
%TD*%
D19*
%TO.C,D62*%
X494167301Y-346083979D03*
D20*
X486663066Y-347407178D03*
%TD*%
D21*
%TO.C,D40*%
X291451248Y-329774641D03*
D22*
X283947013Y-328451442D03*
%TD*%
D19*
%TO.C,D36*%
X487551305Y-308562804D03*
D20*
X480047070Y-309886003D03*
%TD*%
D21*
%TO.C,D16*%
X337573218Y-287613109D03*
D22*
X330068983Y-286289910D03*
%TD*%
D19*
%TO.C,D8*%
X443480294Y-278032836D03*
D20*
X435976059Y-279356035D03*
%TD*%
D19*
%TO.C,D10*%
X481001470Y-271416841D03*
D20*
X473497235Y-272740040D03*
%TD*%
D21*
%TO.C,D42*%
X330957222Y-325134284D03*
D22*
X323452987Y-323811085D03*
%TD*%
D21*
%TO.C,D44*%
X366162799Y-344882691D03*
D22*
X358658564Y-343559492D03*
%TD*%
D21*
%TO.C,D5*%
X358484004Y-278726724D03*
D22*
X350979769Y-277403525D03*
%TD*%
D21*
%TO.C,D26*%
X275998658Y-307706055D03*
D22*
X268494423Y-306382856D03*
%TD*%
D21*
%TO.C,D30*%
X351868008Y-316247900D03*
D22*
X344363773Y-314924701D03*
%TD*%
D19*
%TO.C,D21*%
X446755212Y-296605818D03*
D20*
X439250977Y-297929017D03*
%TD*%
D19*
%TO.C,D61*%
X474248914Y-342825771D03*
D20*
X466744679Y-344148970D03*
%TD*%
D21*
%TO.C,D43*%
X348560011Y-335008487D03*
D22*
X341055776Y-333685288D03*
%TD*%
D19*
%TO.C,D34*%
X450030130Y-315178800D03*
D20*
X442525895Y-316501999D03*
%TD*%
D21*
%TO.C,D4*%
X340881215Y-268852521D03*
D22*
X333376980Y-267529322D03*
%TD*%
D19*
%TO.C,D7*%
X425877506Y-287907040D03*
D20*
X418373271Y-289230239D03*
%TD*%
D21*
%TO.C,D1*%
X282614654Y-270184880D03*
D22*
X275110419Y-268861681D03*
%TD*%
D21*
%TO.C,D54*%
X307730838Y-347153079D03*
D22*
X300226603Y-345829880D03*
%TD*%
D21*
%TO.C,D53*%
X288143250Y-348535228D03*
D22*
X280639015Y-347212029D03*
%TD*%
D21*
%TO.C,D56*%
X345252013Y-353769074D03*
D22*
X337747778Y-352445875D03*
%TD*%
D21*
%TO.C,D13*%
X279306656Y-288945468D03*
D22*
X271802421Y-287622269D03*
%TD*%
M02*
