M48
; DRILL file {KiCad (6.0.8)} date Thu Mar 16 04:40:59 2023
; FORMAT={-:-/ absolute / inch / decimal}
; #@! TF.CreationDate,2023-03-16T04:40:59+07:00
; #@! TF.GenerationSoftware,Kicad,Pcbnew,(6.0.8)
; #@! TF.FileFunction,Plated,1,2,PTH
FMAT,2
INCH
; #@! TA.AperFunction,Plated,PTH,ComponentDrill
T1C0.0315
; #@! TA.AperFunction,Plated,PTH,ComponentDrill
T2C0.0433
%
G90
G05
T1
X10.3102Y-13.5395
X10.4404Y-12.8009
X10.5706Y-12.0623
X10.6056Y-13.5916
X10.7009Y-11.3237
X10.7359Y-12.853
X10.8311Y-10.5851
X10.8661Y-12.1144
X10.9963Y-11.3758
X11.0488Y-13.6698
X11.1266Y-10.6372
X11.179Y-12.9312
X11.3093Y-12.1926
X11.3442Y-13.7219
X11.4395Y-11.4539
X11.4745Y-12.9833
X11.5697Y-10.7153
X11.6047Y-12.2446
X11.7349Y-11.506
X11.8199Y-13.6153
X11.8652Y-10.7674
X11.9502Y-12.8767
X12.0804Y-12.1381
X12.1154Y-13.6674
X12.2107Y-11.3995
X12.2456Y-12.9288
X12.3409Y-10.6609
X12.3759Y-12.1902
X12.5061Y-11.4516
X12.6041Y-13.4871
X12.6363Y-10.713
X12.7344Y-12.7485
X12.8646Y-12.0099
X12.8996Y-13.5392
X12.9948Y-11.2713
X13.0298Y-12.8006
X13.1251Y-10.5327
X13.16Y-12.062
X13.2903Y-11.3234
X13.2972Y-13.8758
X13.4205Y-10.5847
X13.4274Y-13.1372
X13.5576Y-12.3986
X13.5926Y-13.9279
X13.6879Y-11.66
X13.7228Y-13.1893
X13.8181Y-10.9214
X13.8531Y-12.4507
X13.9833Y-11.7121
X13.9902Y-14.2646
X14.1135Y-10.9735
X14.1204Y-13.526
X14.2507Y-12.7874
X14.2856Y-14.3167
X14.3809Y-12.0488
X14.4159Y-13.5781
X14.5111Y-11.3101
X14.5461Y-12.8395
X14.6763Y-12.1008
X14.7613Y-14.2102
X14.8066Y-11.3622
X14.9062Y-13.4541
X15.0568Y-14.2622
X15.2017Y-13.5062
X16.0877Y-13.53
X16.2186Y-14.2723
X16.3831Y-13.4779
X16.4714Y-11.387
X16.514Y-14.2202
X16.6003Y-12.1182
X16.7293Y-12.8495
X16.7668Y-11.3349
X16.8595Y-13.5881
X16.8958Y-12.0661
X16.9897Y-14.3267
X17.0247Y-12.7974
X17.1549Y-13.536
X17.1644Y-10.9983
X17.2852Y-14.2746
X17.2933Y-11.7295
X17.4223Y-12.4607
X17.4599Y-10.9462
X17.5525Y-13.1993
X17.5888Y-11.6774
X17.6828Y-13.9379
X17.7177Y-12.4086
X17.848Y-13.1472
X17.8574Y-10.6095
X17.9782Y-13.8858
X17.9864Y-11.3407
X18.1153Y-12.072
X18.1529Y-10.5574
X18.2455Y-12.8106
X18.2818Y-11.2886
X18.3758Y-13.5492
X18.4107Y-12.0199
X18.541Y-12.7585
X18.6416Y-10.7378
X18.6712Y-13.4971
X18.7706Y-11.469
X18.8995Y-12.2002
X18.9371Y-10.6857
X19.0297Y-12.9388
X19.066Y-11.4169
X19.16Y-13.6774
X19.1949Y-12.1481
X19.3252Y-12.8867
X19.4128Y-10.7922
X19.4554Y-13.6254
X19.5417Y-11.5234
X19.6707Y-12.2547
X19.7082Y-10.7401
X19.8009Y-12.9933
X19.8372Y-11.4713
X19.9311Y-13.7319
X19.9661Y-12.2026
X20.0963Y-12.9412
X20.1514Y-10.662
X20.2266Y-13.6798
X20.2803Y-11.3932
X20.4093Y-12.1244
X20.4468Y-10.6099
X20.5395Y-12.863
X20.5758Y-11.3411
X20.6697Y-13.6016
X20.7047Y-12.0723
X20.8349Y-12.8109
X20.9652Y-13.5495
T2
X15.3594Y-10.0307
X15.3594Y-10.1307
X15.3594Y-10.2307
X15.3594Y-10.3307
X15.3594Y-10.4307
X15.3594Y-10.5307
X15.3594Y-10.6307
X15.3594Y-10.7307
X15.3594Y-10.8307
X15.3594Y-10.9307
X15.3594Y-11.0307
X15.3594Y-11.1307
X15.9594Y-10.0307
X15.9594Y-10.1307
X15.9594Y-10.2307
X15.9594Y-10.3307
X15.9594Y-10.4307
X15.9594Y-10.5307
X15.9594Y-10.6307
X15.9594Y-10.7307
X15.9594Y-10.8307
X15.9594Y-10.9307
X15.9594Y-11.0307
X15.9594Y-11.1307
T0
M30
